M48
; DRILL file {KiCad 8.0.5} date 2024-10-04T15:39:15-0400
; FORMAT={-:-/ absolute / metric / decimal}
; #@! TF.CreationDate,2024-10-04T15:39:15-04:00
; #@! TF.GenerationSoftware,Kicad,Pcbnew,8.0.5
; #@! TF.FileFunction,Plated,1,2,PTH
FMAT,2
METRIC
; #@! TA.AperFunction,Plated,PTH,ComponentDrill
T1C1.000
%
G90
G05
T1
X122.966Y-136.652
X122.966Y-139.192
X125.506Y-136.652
X125.506Y-139.192
X128.046Y-136.652
X128.046Y-139.192
X129.54Y-100.584
X129.54Y-103.124
X130.586Y-136.652
X130.586Y-139.192
X132.08Y-100.584
X132.08Y-103.124
X133.126Y-136.652
X133.126Y-139.192
X134.62Y-100.584
X134.62Y-103.124
X135.666Y-136.652
X135.666Y-139.192
X137.16Y-100.584
X137.16Y-103.124
X138.206Y-136.652
X138.206Y-139.192
X139.7Y-100.584
X139.7Y-103.124
X140.746Y-136.652
X140.746Y-139.192
X142.24Y-100.584
X142.24Y-103.124
X143.286Y-136.652
X143.286Y-139.192
X144.78Y-100.584
X144.78Y-103.124
X145.826Y-136.652
X145.826Y-139.192
X147.32Y-100.584
X147.32Y-103.124
X148.366Y-136.652
X148.366Y-139.192
X149.86Y-100.584
X149.86Y-103.124
X150.906Y-136.652
X150.906Y-139.192
X152.4Y-100.584
X152.4Y-103.124
X153.446Y-136.652
X153.446Y-139.192
X154.94Y-100.584
X154.94Y-103.124
X155.986Y-136.652
X155.986Y-139.192
X157.48Y-100.584
X157.48Y-103.124
X158.526Y-136.652
X158.526Y-139.192
X160.02Y-100.584
X160.02Y-103.124
X161.066Y-136.652
X161.066Y-139.192
X162.56Y-100.584
X162.56Y-103.124
X163.606Y-136.652
X163.606Y-139.192
X165.1Y-100.584
X165.1Y-103.124
X166.146Y-136.652
X166.146Y-139.192
X167.64Y-100.584
X167.64Y-103.124
X168.686Y-136.652
X168.686Y-139.192
X170.18Y-100.584
X170.18Y-103.124
X171.226Y-136.652
X171.226Y-139.192
X172.72Y-100.584
X172.72Y-103.124
X173.766Y-136.652
X173.766Y-139.192
X175.26Y-100.584
X175.26Y-103.124
X176.306Y-136.652
X176.306Y-139.192
X176.799Y-130.048
X177.8Y-100.584
X177.8Y-103.124
X178.846Y-136.652
X178.846Y-139.192
X179.339Y-130.048
X181.386Y-136.652
X181.386Y-139.192
X181.879Y-130.048
X183.926Y-136.652
X183.926Y-139.192
M30
