%TF.GenerationSoftware,KiCad,Pcbnew,8.0.5*%
%TF.CreationDate,2024-10-04T15:39:05-04:00*%
%TF.ProjectId,TRS80 Adapter,54525338-3020-4416-9461-707465722e6b,rev?*%
%TF.SameCoordinates,Original*%
%TF.FileFunction,Soldermask,Bot*%
%TF.FilePolarity,Negative*%
%FSLAX46Y46*%
G04 Gerber Fmt 4.6, Leading zero omitted, Abs format (unit mm)*
G04 Created by KiCad (PCBNEW 8.0.5) date 2024-10-04 15:39:05*
%MOMM*%
%LPD*%
G01*
G04 APERTURE LIST*
%ADD10R,1.700000X1.700000*%
%ADD11O,1.700000X1.700000*%
G04 APERTURE END LIST*
D10*
%TO.C,U1*%
X122966000Y-136652000D03*
D11*
X122966000Y-139192000D03*
X125506000Y-136652000D03*
X125506000Y-139192000D03*
X128046000Y-136652000D03*
X128046000Y-139192000D03*
X130586000Y-136652000D03*
X130586000Y-139192000D03*
X133126000Y-136652000D03*
X133126000Y-139192000D03*
X135666000Y-136652000D03*
X135666000Y-139192000D03*
X138206000Y-136652000D03*
X138206000Y-139192000D03*
X140746000Y-136652000D03*
X140746000Y-139192000D03*
X143286000Y-136652000D03*
X143286000Y-139192000D03*
X145826000Y-136652000D03*
X145826000Y-139192000D03*
X148366000Y-136652000D03*
X148366000Y-139192000D03*
X150906000Y-136652000D03*
X150906000Y-139192000D03*
X153446000Y-136652000D03*
X153446000Y-139192000D03*
X155986000Y-136652000D03*
X155986000Y-139192000D03*
X158526000Y-136652000D03*
X158526000Y-139192000D03*
X161066000Y-136652000D03*
X161066000Y-139192000D03*
X163606000Y-136652000D03*
X163606000Y-139192000D03*
X166146000Y-136652000D03*
X166146000Y-139192000D03*
X168686000Y-136652000D03*
X168686000Y-139192000D03*
X171226000Y-136652000D03*
X171226000Y-139192000D03*
X173766000Y-136652000D03*
X173766000Y-139192000D03*
X176306000Y-136652000D03*
X176306000Y-139192000D03*
X178846000Y-136652000D03*
X178846000Y-139192000D03*
X181386000Y-136652000D03*
X181386000Y-139192000D03*
X183926000Y-136652000D03*
X183926000Y-139192000D03*
%TD*%
D10*
%TO.C,J2*%
X176799000Y-130048000D03*
D11*
X179339000Y-130048000D03*
X181879000Y-130048000D03*
%TD*%
D10*
%TO.C,J1*%
X129540000Y-103124000D03*
D11*
X129540000Y-100584000D03*
X132080000Y-103124000D03*
X132080000Y-100584000D03*
X134620000Y-103124000D03*
X134620000Y-100584000D03*
X137160000Y-103124000D03*
X137160000Y-100584000D03*
X139700000Y-103124000D03*
X139700000Y-100584000D03*
X142240000Y-103124000D03*
X142240000Y-100584000D03*
X144780000Y-103124000D03*
X144780000Y-100584000D03*
X147320000Y-103124000D03*
X147320000Y-100584000D03*
X149860000Y-103124000D03*
X149860000Y-100584000D03*
X152400000Y-103124000D03*
X152400000Y-100584000D03*
X154940000Y-103124000D03*
X154940000Y-100584000D03*
X157480000Y-103124000D03*
X157480000Y-100584000D03*
X160020000Y-103124000D03*
X160020000Y-100584000D03*
X162560000Y-103124000D03*
X162560000Y-100584000D03*
X165100000Y-103124000D03*
X165100000Y-100584000D03*
X167640000Y-103124000D03*
X167640000Y-100584000D03*
X170180000Y-103124000D03*
X170180000Y-100584000D03*
X172720000Y-103124000D03*
X172720000Y-100584000D03*
X175260000Y-103124000D03*
X175260000Y-100584000D03*
X177800000Y-103124000D03*
X177800000Y-100584000D03*
%TD*%
M02*
