%TF.GenerationSoftware,KiCad,Pcbnew,8.0.5*%
%TF.CreationDate,2024-10-04T15:39:05-04:00*%
%TF.ProjectId,TRS80 Adapter,54525338-3020-4416-9461-707465722e6b,rev?*%
%TF.SameCoordinates,Original*%
%TF.FileFunction,Legend,Top*%
%TF.FilePolarity,Positive*%
%FSLAX46Y46*%
G04 Gerber Fmt 4.6, Leading zero omitted, Abs format (unit mm)*
G04 Created by KiCad (PCBNEW 8.0.5) date 2024-10-04 15:39:05*
%MOMM*%
%LPD*%
G01*
G04 APERTURE LIST*
%ADD10C,0.150000*%
%ADD11C,0.120000*%
G04 APERTURE END LIST*
D10*
X187707438Y-132013125D02*
X185707438Y-132013125D01*
X187707438Y-131155982D02*
X186659819Y-131155982D01*
X186659819Y-131155982D02*
X186469342Y-131251220D01*
X186469342Y-131251220D02*
X186374104Y-131441696D01*
X186374104Y-131441696D02*
X186374104Y-131727411D01*
X186374104Y-131727411D02*
X186469342Y-131917887D01*
X186469342Y-131917887D02*
X186564580Y-132013125D01*
X186374104Y-130489315D02*
X186374104Y-129727411D01*
X185707438Y-130203601D02*
X187421723Y-130203601D01*
X187421723Y-130203601D02*
X187612200Y-130108363D01*
X187612200Y-130108363D02*
X187707438Y-129917887D01*
X187707438Y-129917887D02*
X187707438Y-129727411D01*
X186374104Y-129346458D02*
X186374104Y-128584554D01*
X185707438Y-129060744D02*
X187421723Y-129060744D01*
X187421723Y-129060744D02*
X187612200Y-128965506D01*
X187612200Y-128965506D02*
X187707438Y-128775030D01*
X187707438Y-128775030D02*
X187707438Y-128584554D01*
X186374104Y-127917887D02*
X188374104Y-127917887D01*
X186469342Y-127917887D02*
X186374104Y-127727411D01*
X186374104Y-127727411D02*
X186374104Y-127346458D01*
X186374104Y-127346458D02*
X186469342Y-127155982D01*
X186469342Y-127155982D02*
X186564580Y-127060744D01*
X186564580Y-127060744D02*
X186755057Y-126965506D01*
X186755057Y-126965506D02*
X187326485Y-126965506D01*
X187326485Y-126965506D02*
X187516961Y-127060744D01*
X187516961Y-127060744D02*
X187612200Y-127155982D01*
X187612200Y-127155982D02*
X187707438Y-127346458D01*
X187707438Y-127346458D02*
X187707438Y-127727411D01*
X187707438Y-127727411D02*
X187612200Y-127917887D01*
X187612200Y-126203601D02*
X187707438Y-126013125D01*
X187707438Y-126013125D02*
X187707438Y-125632173D01*
X187707438Y-125632173D02*
X187612200Y-125441696D01*
X187612200Y-125441696D02*
X187421723Y-125346458D01*
X187421723Y-125346458D02*
X187326485Y-125346458D01*
X187326485Y-125346458D02*
X187136009Y-125441696D01*
X187136009Y-125441696D02*
X187040771Y-125632173D01*
X187040771Y-125632173D02*
X187040771Y-125917887D01*
X187040771Y-125917887D02*
X186945533Y-126108363D01*
X186945533Y-126108363D02*
X186755057Y-126203601D01*
X186755057Y-126203601D02*
X186659819Y-126203601D01*
X186659819Y-126203601D02*
X186469342Y-126108363D01*
X186469342Y-126108363D02*
X186374104Y-125917887D01*
X186374104Y-125917887D02*
X186374104Y-125632173D01*
X186374104Y-125632173D02*
X186469342Y-125441696D01*
X187516961Y-124489315D02*
X187612200Y-124394077D01*
X187612200Y-124394077D02*
X187707438Y-124489315D01*
X187707438Y-124489315D02*
X187612200Y-124584553D01*
X187612200Y-124584553D02*
X187516961Y-124489315D01*
X187516961Y-124489315D02*
X187707438Y-124489315D01*
X186469342Y-124489315D02*
X186564580Y-124394077D01*
X186564580Y-124394077D02*
X186659819Y-124489315D01*
X186659819Y-124489315D02*
X186564580Y-124584553D01*
X186564580Y-124584553D02*
X186469342Y-124489315D01*
X186469342Y-124489315D02*
X186659819Y-124489315D01*
X185612200Y-122108363D02*
X188183628Y-123822648D01*
X185612200Y-120013125D02*
X188183628Y-121727410D01*
X186374104Y-119632172D02*
X186374104Y-118870268D01*
X187707438Y-119346458D02*
X185993152Y-119346458D01*
X185993152Y-119346458D02*
X185802676Y-119251220D01*
X185802676Y-119251220D02*
X185707438Y-119060744D01*
X185707438Y-119060744D02*
X185707438Y-118870268D01*
X186374104Y-117346458D02*
X187707438Y-117346458D01*
X186374104Y-118203601D02*
X187421723Y-118203601D01*
X187421723Y-118203601D02*
X187612200Y-118108363D01*
X187612200Y-118108363D02*
X187707438Y-117917887D01*
X187707438Y-117917887D02*
X187707438Y-117632172D01*
X187707438Y-117632172D02*
X187612200Y-117441696D01*
X187612200Y-117441696D02*
X187516961Y-117346458D01*
X186374104Y-116394077D02*
X188088390Y-116394077D01*
X188088390Y-116394077D02*
X188278866Y-116489315D01*
X188278866Y-116489315D02*
X188374104Y-116679791D01*
X188374104Y-116679791D02*
X188374104Y-116775029D01*
X185707438Y-116394077D02*
X185802676Y-116489315D01*
X185802676Y-116489315D02*
X185897914Y-116394077D01*
X185897914Y-116394077D02*
X185802676Y-116298839D01*
X185802676Y-116298839D02*
X185707438Y-116394077D01*
X185707438Y-116394077D02*
X185897914Y-116394077D01*
X187707438Y-115441696D02*
X186374104Y-115441696D01*
X185707438Y-115441696D02*
X185802676Y-115536934D01*
X185802676Y-115536934D02*
X185897914Y-115441696D01*
X185897914Y-115441696D02*
X185802676Y-115346458D01*
X185802676Y-115346458D02*
X185707438Y-115441696D01*
X185707438Y-115441696D02*
X185897914Y-115441696D01*
X186374104Y-114489315D02*
X187707438Y-114489315D01*
X186564580Y-114489315D02*
X186469342Y-114394077D01*
X186469342Y-114394077D02*
X186374104Y-114203601D01*
X186374104Y-114203601D02*
X186374104Y-113917886D01*
X186374104Y-113917886D02*
X186469342Y-113727410D01*
X186469342Y-113727410D02*
X186659819Y-113632172D01*
X186659819Y-113632172D02*
X187707438Y-113632172D01*
X187612200Y-111917886D02*
X187707438Y-112108362D01*
X187707438Y-112108362D02*
X187707438Y-112489315D01*
X187707438Y-112489315D02*
X187612200Y-112679791D01*
X187612200Y-112679791D02*
X187421723Y-112775029D01*
X187421723Y-112775029D02*
X186659819Y-112775029D01*
X186659819Y-112775029D02*
X186469342Y-112679791D01*
X186469342Y-112679791D02*
X186374104Y-112489315D01*
X186374104Y-112489315D02*
X186374104Y-112108362D01*
X186374104Y-112108362D02*
X186469342Y-111917886D01*
X186469342Y-111917886D02*
X186659819Y-111822648D01*
X186659819Y-111822648D02*
X186850295Y-111822648D01*
X186850295Y-111822648D02*
X187040771Y-112775029D01*
X186374104Y-111251219D02*
X186374104Y-110489315D01*
X185707438Y-110965505D02*
X187421723Y-110965505D01*
X187421723Y-110965505D02*
X187612200Y-110870267D01*
X187612200Y-110870267D02*
X187707438Y-110679791D01*
X187707438Y-110679791D02*
X187707438Y-110489315D01*
X187516961Y-109822648D02*
X187612200Y-109727410D01*
X187612200Y-109727410D02*
X187707438Y-109822648D01*
X187707438Y-109822648D02*
X187612200Y-109917886D01*
X187612200Y-109917886D02*
X187516961Y-109822648D01*
X187516961Y-109822648D02*
X187707438Y-109822648D01*
X187707438Y-108584553D02*
X187612200Y-108775029D01*
X187612200Y-108775029D02*
X187516961Y-108870267D01*
X187516961Y-108870267D02*
X187326485Y-108965505D01*
X187326485Y-108965505D02*
X186755057Y-108965505D01*
X186755057Y-108965505D02*
X186564580Y-108870267D01*
X186564580Y-108870267D02*
X186469342Y-108775029D01*
X186469342Y-108775029D02*
X186374104Y-108584553D01*
X186374104Y-108584553D02*
X186374104Y-108298838D01*
X186374104Y-108298838D02*
X186469342Y-108108362D01*
X186469342Y-108108362D02*
X186564580Y-108013124D01*
X186564580Y-108013124D02*
X186755057Y-107917886D01*
X186755057Y-107917886D02*
X187326485Y-107917886D01*
X187326485Y-107917886D02*
X187516961Y-108013124D01*
X187516961Y-108013124D02*
X187612200Y-108108362D01*
X187612200Y-108108362D02*
X187707438Y-108298838D01*
X187707438Y-108298838D02*
X187707438Y-108584553D01*
X186374104Y-107060743D02*
X187707438Y-107060743D01*
X186564580Y-107060743D02*
X186469342Y-106965505D01*
X186469342Y-106965505D02*
X186374104Y-106775029D01*
X186374104Y-106775029D02*
X186374104Y-106489314D01*
X186374104Y-106489314D02*
X186469342Y-106298838D01*
X186469342Y-106298838D02*
X186659819Y-106203600D01*
X186659819Y-106203600D02*
X187707438Y-106203600D01*
X187707438Y-104965505D02*
X187612200Y-105155981D01*
X187612200Y-105155981D02*
X187421723Y-105251219D01*
X187421723Y-105251219D02*
X185707438Y-105251219D01*
X187707438Y-104203600D02*
X186374104Y-104203600D01*
X185707438Y-104203600D02*
X185802676Y-104298838D01*
X185802676Y-104298838D02*
X185897914Y-104203600D01*
X185897914Y-104203600D02*
X185802676Y-104108362D01*
X185802676Y-104108362D02*
X185707438Y-104203600D01*
X185707438Y-104203600D02*
X185897914Y-104203600D01*
X186374104Y-103251219D02*
X187707438Y-103251219D01*
X186564580Y-103251219D02*
X186469342Y-103155981D01*
X186469342Y-103155981D02*
X186374104Y-102965505D01*
X186374104Y-102965505D02*
X186374104Y-102679790D01*
X186374104Y-102679790D02*
X186469342Y-102489314D01*
X186469342Y-102489314D02*
X186659819Y-102394076D01*
X186659819Y-102394076D02*
X187707438Y-102394076D01*
X187612200Y-100679790D02*
X187707438Y-100870266D01*
X187707438Y-100870266D02*
X187707438Y-101251219D01*
X187707438Y-101251219D02*
X187612200Y-101441695D01*
X187612200Y-101441695D02*
X187421723Y-101536933D01*
X187421723Y-101536933D02*
X186659819Y-101536933D01*
X186659819Y-101536933D02*
X186469342Y-101441695D01*
X186469342Y-101441695D02*
X186374104Y-101251219D01*
X186374104Y-101251219D02*
X186374104Y-100870266D01*
X186374104Y-100870266D02*
X186469342Y-100679790D01*
X186469342Y-100679790D02*
X186659819Y-100584552D01*
X186659819Y-100584552D02*
X186850295Y-100584552D01*
X186850295Y-100584552D02*
X187040771Y-101536933D01*
X185612200Y-98298838D02*
X188183628Y-100013123D01*
X120175438Y-125186839D02*
X120175438Y-124043982D01*
X122175438Y-124615411D02*
X120175438Y-124615411D01*
X122175438Y-122234458D02*
X121223057Y-122901125D01*
X122175438Y-123377315D02*
X120175438Y-123377315D01*
X120175438Y-123377315D02*
X120175438Y-122615410D01*
X120175438Y-122615410D02*
X120270676Y-122424934D01*
X120270676Y-122424934D02*
X120365914Y-122329696D01*
X120365914Y-122329696D02*
X120556390Y-122234458D01*
X120556390Y-122234458D02*
X120842104Y-122234458D01*
X120842104Y-122234458D02*
X121032580Y-122329696D01*
X121032580Y-122329696D02*
X121127819Y-122424934D01*
X121127819Y-122424934D02*
X121223057Y-122615410D01*
X121223057Y-122615410D02*
X121223057Y-123377315D01*
X122080200Y-121472553D02*
X122175438Y-121186839D01*
X122175438Y-121186839D02*
X122175438Y-120710648D01*
X122175438Y-120710648D02*
X122080200Y-120520172D01*
X122080200Y-120520172D02*
X121984961Y-120424934D01*
X121984961Y-120424934D02*
X121794485Y-120329696D01*
X121794485Y-120329696D02*
X121604009Y-120329696D01*
X121604009Y-120329696D02*
X121413533Y-120424934D01*
X121413533Y-120424934D02*
X121318295Y-120520172D01*
X121318295Y-120520172D02*
X121223057Y-120710648D01*
X121223057Y-120710648D02*
X121127819Y-121091601D01*
X121127819Y-121091601D02*
X121032580Y-121282077D01*
X121032580Y-121282077D02*
X120937342Y-121377315D01*
X120937342Y-121377315D02*
X120746866Y-121472553D01*
X120746866Y-121472553D02*
X120556390Y-121472553D01*
X120556390Y-121472553D02*
X120365914Y-121377315D01*
X120365914Y-121377315D02*
X120270676Y-121282077D01*
X120270676Y-121282077D02*
X120175438Y-121091601D01*
X120175438Y-121091601D02*
X120175438Y-120615410D01*
X120175438Y-120615410D02*
X120270676Y-120329696D01*
X121032580Y-119186839D02*
X120937342Y-119377315D01*
X120937342Y-119377315D02*
X120842104Y-119472553D01*
X120842104Y-119472553D02*
X120651628Y-119567791D01*
X120651628Y-119567791D02*
X120556390Y-119567791D01*
X120556390Y-119567791D02*
X120365914Y-119472553D01*
X120365914Y-119472553D02*
X120270676Y-119377315D01*
X120270676Y-119377315D02*
X120175438Y-119186839D01*
X120175438Y-119186839D02*
X120175438Y-118805886D01*
X120175438Y-118805886D02*
X120270676Y-118615410D01*
X120270676Y-118615410D02*
X120365914Y-118520172D01*
X120365914Y-118520172D02*
X120556390Y-118424934D01*
X120556390Y-118424934D02*
X120651628Y-118424934D01*
X120651628Y-118424934D02*
X120842104Y-118520172D01*
X120842104Y-118520172D02*
X120937342Y-118615410D01*
X120937342Y-118615410D02*
X121032580Y-118805886D01*
X121032580Y-118805886D02*
X121032580Y-119186839D01*
X121032580Y-119186839D02*
X121127819Y-119377315D01*
X121127819Y-119377315D02*
X121223057Y-119472553D01*
X121223057Y-119472553D02*
X121413533Y-119567791D01*
X121413533Y-119567791D02*
X121794485Y-119567791D01*
X121794485Y-119567791D02*
X121984961Y-119472553D01*
X121984961Y-119472553D02*
X122080200Y-119377315D01*
X122080200Y-119377315D02*
X122175438Y-119186839D01*
X122175438Y-119186839D02*
X122175438Y-118805886D01*
X122175438Y-118805886D02*
X122080200Y-118615410D01*
X122080200Y-118615410D02*
X121984961Y-118520172D01*
X121984961Y-118520172D02*
X121794485Y-118424934D01*
X121794485Y-118424934D02*
X121413533Y-118424934D01*
X121413533Y-118424934D02*
X121223057Y-118520172D01*
X121223057Y-118520172D02*
X121127819Y-118615410D01*
X121127819Y-118615410D02*
X121032580Y-118805886D01*
X120175438Y-117186839D02*
X120175438Y-116996362D01*
X120175438Y-116996362D02*
X120270676Y-116805886D01*
X120270676Y-116805886D02*
X120365914Y-116710648D01*
X120365914Y-116710648D02*
X120556390Y-116615410D01*
X120556390Y-116615410D02*
X120937342Y-116520172D01*
X120937342Y-116520172D02*
X121413533Y-116520172D01*
X121413533Y-116520172D02*
X121794485Y-116615410D01*
X121794485Y-116615410D02*
X121984961Y-116710648D01*
X121984961Y-116710648D02*
X122080200Y-116805886D01*
X122080200Y-116805886D02*
X122175438Y-116996362D01*
X122175438Y-116996362D02*
X122175438Y-117186839D01*
X122175438Y-117186839D02*
X122080200Y-117377315D01*
X122080200Y-117377315D02*
X121984961Y-117472553D01*
X121984961Y-117472553D02*
X121794485Y-117567791D01*
X121794485Y-117567791D02*
X121413533Y-117663029D01*
X121413533Y-117663029D02*
X120937342Y-117663029D01*
X120937342Y-117663029D02*
X120556390Y-117567791D01*
X120556390Y-117567791D02*
X120365914Y-117472553D01*
X120365914Y-117472553D02*
X120270676Y-117377315D01*
X120270676Y-117377315D02*
X120175438Y-117186839D01*
X121604009Y-114234457D02*
X121604009Y-113282076D01*
X122175438Y-114424933D02*
X120175438Y-113758267D01*
X120175438Y-113758267D02*
X122175438Y-113091600D01*
X122175438Y-111567790D02*
X120175438Y-111567790D01*
X122080200Y-111567790D02*
X122175438Y-111758266D01*
X122175438Y-111758266D02*
X122175438Y-112139219D01*
X122175438Y-112139219D02*
X122080200Y-112329695D01*
X122080200Y-112329695D02*
X121984961Y-112424933D01*
X121984961Y-112424933D02*
X121794485Y-112520171D01*
X121794485Y-112520171D02*
X121223057Y-112520171D01*
X121223057Y-112520171D02*
X121032580Y-112424933D01*
X121032580Y-112424933D02*
X120937342Y-112329695D01*
X120937342Y-112329695D02*
X120842104Y-112139219D01*
X120842104Y-112139219D02*
X120842104Y-111758266D01*
X120842104Y-111758266D02*
X120937342Y-111567790D01*
X122175438Y-109758266D02*
X121127819Y-109758266D01*
X121127819Y-109758266D02*
X120937342Y-109853504D01*
X120937342Y-109853504D02*
X120842104Y-110043980D01*
X120842104Y-110043980D02*
X120842104Y-110424933D01*
X120842104Y-110424933D02*
X120937342Y-110615409D01*
X122080200Y-109758266D02*
X122175438Y-109948742D01*
X122175438Y-109948742D02*
X122175438Y-110424933D01*
X122175438Y-110424933D02*
X122080200Y-110615409D01*
X122080200Y-110615409D02*
X121889723Y-110710647D01*
X121889723Y-110710647D02*
X121699247Y-110710647D01*
X121699247Y-110710647D02*
X121508771Y-110615409D01*
X121508771Y-110615409D02*
X121413533Y-110424933D01*
X121413533Y-110424933D02*
X121413533Y-109948742D01*
X121413533Y-109948742D02*
X121318295Y-109758266D01*
X120842104Y-108805885D02*
X122842104Y-108805885D01*
X120937342Y-108805885D02*
X120842104Y-108615409D01*
X120842104Y-108615409D02*
X120842104Y-108234456D01*
X120842104Y-108234456D02*
X120937342Y-108043980D01*
X120937342Y-108043980D02*
X121032580Y-107948742D01*
X121032580Y-107948742D02*
X121223057Y-107853504D01*
X121223057Y-107853504D02*
X121794485Y-107853504D01*
X121794485Y-107853504D02*
X121984961Y-107948742D01*
X121984961Y-107948742D02*
X122080200Y-108043980D01*
X122080200Y-108043980D02*
X122175438Y-108234456D01*
X122175438Y-108234456D02*
X122175438Y-108615409D01*
X122175438Y-108615409D02*
X122080200Y-108805885D01*
X120842104Y-107282075D02*
X120842104Y-106520171D01*
X120175438Y-106996361D02*
X121889723Y-106996361D01*
X121889723Y-106996361D02*
X122080200Y-106901123D01*
X122080200Y-106901123D02*
X122175438Y-106710647D01*
X122175438Y-106710647D02*
X122175438Y-106520171D01*
X122080200Y-105091599D02*
X122175438Y-105282075D01*
X122175438Y-105282075D02*
X122175438Y-105663028D01*
X122175438Y-105663028D02*
X122080200Y-105853504D01*
X122080200Y-105853504D02*
X121889723Y-105948742D01*
X121889723Y-105948742D02*
X121127819Y-105948742D01*
X121127819Y-105948742D02*
X120937342Y-105853504D01*
X120937342Y-105853504D02*
X120842104Y-105663028D01*
X120842104Y-105663028D02*
X120842104Y-105282075D01*
X120842104Y-105282075D02*
X120937342Y-105091599D01*
X120937342Y-105091599D02*
X121127819Y-104996361D01*
X121127819Y-104996361D02*
X121318295Y-104996361D01*
X121318295Y-104996361D02*
X121508771Y-105948742D01*
X122175438Y-104139218D02*
X120842104Y-104139218D01*
X121223057Y-104139218D02*
X121032580Y-104043980D01*
X121032580Y-104043980D02*
X120937342Y-103948742D01*
X120937342Y-103948742D02*
X120842104Y-103758266D01*
X120842104Y-103758266D02*
X120842104Y-103567789D01*
X119650819Y-138683904D02*
X120460342Y-138683904D01*
X120460342Y-138683904D02*
X120555580Y-138636285D01*
X120555580Y-138636285D02*
X120603200Y-138588666D01*
X120603200Y-138588666D02*
X120650819Y-138493428D01*
X120650819Y-138493428D02*
X120650819Y-138302952D01*
X120650819Y-138302952D02*
X120603200Y-138207714D01*
X120603200Y-138207714D02*
X120555580Y-138160095D01*
X120555580Y-138160095D02*
X120460342Y-138112476D01*
X120460342Y-138112476D02*
X119650819Y-138112476D01*
X120650819Y-137112476D02*
X120650819Y-137683904D01*
X120650819Y-137398190D02*
X119650819Y-137398190D01*
X119650819Y-137398190D02*
X119793676Y-137493428D01*
X119793676Y-137493428D02*
X119888914Y-137588666D01*
X119888914Y-137588666D02*
X119936533Y-137683904D01*
X173923819Y-130381333D02*
X174638104Y-130381333D01*
X174638104Y-130381333D02*
X174780961Y-130428952D01*
X174780961Y-130428952D02*
X174876200Y-130524190D01*
X174876200Y-130524190D02*
X174923819Y-130667047D01*
X174923819Y-130667047D02*
X174923819Y-130762285D01*
X174019057Y-129952761D02*
X173971438Y-129905142D01*
X173971438Y-129905142D02*
X173923819Y-129809904D01*
X173923819Y-129809904D02*
X173923819Y-129571809D01*
X173923819Y-129571809D02*
X173971438Y-129476571D01*
X173971438Y-129476571D02*
X174019057Y-129428952D01*
X174019057Y-129428952D02*
X174114295Y-129381333D01*
X174114295Y-129381333D02*
X174209533Y-129381333D01*
X174209533Y-129381333D02*
X174352390Y-129428952D01*
X174352390Y-129428952D02*
X174923819Y-130000380D01*
X174923819Y-130000380D02*
X174923819Y-129381333D01*
X126664819Y-102187333D02*
X127379104Y-102187333D01*
X127379104Y-102187333D02*
X127521961Y-102234952D01*
X127521961Y-102234952D02*
X127617200Y-102330190D01*
X127617200Y-102330190D02*
X127664819Y-102473047D01*
X127664819Y-102473047D02*
X127664819Y-102568285D01*
X127664819Y-101187333D02*
X127664819Y-101758761D01*
X127664819Y-101473047D02*
X126664819Y-101473047D01*
X126664819Y-101473047D02*
X126807676Y-101568285D01*
X126807676Y-101568285D02*
X126902914Y-101663523D01*
X126902914Y-101663523D02*
X126950533Y-101758761D01*
D11*
%TO.C,U1*%
X121636000Y-135322000D02*
X122966000Y-135322000D01*
X121636000Y-136652000D02*
X121636000Y-135322000D01*
X121636000Y-137922000D02*
X124236000Y-137922000D01*
X121636000Y-140522000D02*
X121636000Y-137922000D01*
X121636000Y-140522000D02*
X185256000Y-140522000D01*
X124236000Y-135322000D02*
X185256000Y-135322000D01*
X124236000Y-137922000D02*
X124236000Y-135322000D01*
X185256000Y-140522000D02*
X185256000Y-135322000D01*
%TO.C,J2*%
X175469000Y-131378000D02*
X175469000Y-130048000D01*
X176799000Y-131378000D02*
X175469000Y-131378000D01*
X178069000Y-128718000D02*
X183209000Y-128718000D01*
X178069000Y-131378000D02*
X178069000Y-128718000D01*
X178069000Y-131378000D02*
X183209000Y-131378000D01*
X183209000Y-131378000D02*
X183209000Y-128718000D01*
%TO.C,J1*%
X128210000Y-99254000D02*
X179130000Y-99254000D01*
X128210000Y-101854000D02*
X128210000Y-99254000D01*
X128210000Y-104454000D02*
X128210000Y-103124000D01*
X129540000Y-104454000D02*
X128210000Y-104454000D01*
X130810000Y-101854000D02*
X128210000Y-101854000D01*
X130810000Y-104454000D02*
X130810000Y-101854000D01*
X130810000Y-104454000D02*
X179130000Y-104454000D01*
X179130000Y-104454000D02*
X179130000Y-99254000D01*
%TD*%
M02*
