%TF.GenerationSoftware,KiCad,Pcbnew,8.0.5*%
%TF.CreationDate,2024-10-04T15:39:05-04:00*%
%TF.ProjectId,TRS80 Adapter,54525338-3020-4416-9461-707465722e6b,rev?*%
%TF.SameCoordinates,Original*%
%TF.FileFunction,Copper,L2,Bot*%
%TF.FilePolarity,Positive*%
%FSLAX46Y46*%
G04 Gerber Fmt 4.6, Leading zero omitted, Abs format (unit mm)*
G04 Created by KiCad (PCBNEW 8.0.5) date 2024-10-04 15:39:05*
%MOMM*%
%LPD*%
G01*
G04 APERTURE LIST*
%TA.AperFunction,ComponentPad*%
%ADD10R,1.700000X1.700000*%
%TD*%
%TA.AperFunction,ComponentPad*%
%ADD11O,1.700000X1.700000*%
%TD*%
%TA.AperFunction,Conductor*%
%ADD12C,0.200000*%
%TD*%
G04 APERTURE END LIST*
D10*
%TO.P,U1,1,D0*%
%TO.N,/Z80_D0*%
X122966000Y-136652000D03*
D11*
%TO.P,U1,2,GND*%
%TO.N,/GND*%
X122966000Y-139192000D03*
%TO.P,U1,3,D1*%
%TO.N,/Z80_D1*%
X125506000Y-136652000D03*
%TO.P,U1,4*%
%TO.N,N/C*%
X125506000Y-139192000D03*
%TO.P,U1,5,D2*%
%TO.N,/Z80_D2*%
X128046000Y-136652000D03*
%TO.P,U1,6*%
%TO.N,N/C*%
X128046000Y-139192000D03*
%TO.P,U1,7,D3*%
%TO.N,/Z80_D3*%
X130586000Y-136652000D03*
%TO.P,U1,8*%
%TO.N,N/C*%
X130586000Y-139192000D03*
%TO.P,U1,9,D4*%
%TO.N,/Z80_D4*%
X133126000Y-136652000D03*
%TO.P,U1,10*%
%TO.N,N/C*%
X133126000Y-139192000D03*
%TO.P,U1,11,D5*%
%TO.N,/Z80_D5*%
X135666000Y-136652000D03*
%TO.P,U1,12*%
%TO.N,N/C*%
X135666000Y-139192000D03*
%TO.P,U1,13,D6*%
%TO.N,/Z80_D6*%
X138206000Y-136652000D03*
%TO.P,U1,14*%
%TO.N,N/C*%
X138206000Y-139192000D03*
%TO.P,U1,15,D7*%
%TO.N,/Z80_D7*%
X140746000Y-136652000D03*
%TO.P,U1,16*%
%TO.N,N/C*%
X140746000Y-139192000D03*
%TO.P,U1,17,A0*%
%TO.N,/Z80_A0*%
X143286000Y-136652000D03*
%TO.P,U1,18*%
%TO.N,N/C*%
X143286000Y-139192000D03*
%TO.P,U1,19,A1*%
%TO.N,/Z80_A1*%
X145826000Y-136652000D03*
%TO.P,U1,20*%
%TO.N,N/C*%
X145826000Y-139192000D03*
%TO.P,U1,21,A2*%
%TO.N,/Z80_A2*%
X148366000Y-136652000D03*
%TO.P,U1,22*%
%TO.N,N/C*%
X148366000Y-139192000D03*
%TO.P,U1,23,A3*%
%TO.N,/Z80_A3*%
X150906000Y-136652000D03*
%TO.P,U1,24*%
%TO.N,N/C*%
X150906000Y-139192000D03*
%TO.P,U1,25,A4*%
%TO.N,/Z80_A4*%
X153446000Y-136652000D03*
%TO.P,U1,26*%
%TO.N,N/C*%
X153446000Y-139192000D03*
%TO.P,U1,27,A5*%
%TO.N,/Z80_A5*%
X155986000Y-136652000D03*
%TO.P,U1,28*%
%TO.N,N/C*%
X155986000Y-139192000D03*
%TO.P,U1,29,A6*%
%TO.N,/Z80_A6*%
X158526000Y-136652000D03*
%TO.P,U1,30*%
%TO.N,N/C*%
X158526000Y-139192000D03*
%TO.P,U1,31,A7*%
%TO.N,/Z80_A7*%
X161066000Y-136652000D03*
%TO.P,U1,32*%
%TO.N,N/C*%
X161066000Y-139192000D03*
%TO.P,U1,33,IN*%
%TO.N,/RD*%
X163606000Y-136652000D03*
%TO.P,U1,34*%
%TO.N,N/C*%
X163606000Y-139192000D03*
%TO.P,U1,35,OUT*%
%TO.N,/RW*%
X166146000Y-136652000D03*
%TO.P,U1,36*%
%TO.N,N/C*%
X166146000Y-139192000D03*
%TO.P,U1,37,RESET*%
%TO.N,/RESET*%
X168686000Y-136652000D03*
%TO.P,U1,38*%
%TO.N,N/C*%
X168686000Y-139192000D03*
%TO.P,U1,39,IO_BUS_INT*%
%TO.N,/NMI*%
X171226000Y-136652000D03*
%TO.P,U1,40*%
%TO.N,N/C*%
X171226000Y-139192000D03*
%TO.P,U1,41,IO_BUS_WAIT*%
%TO.N,/WAIT*%
X173766000Y-136652000D03*
%TO.P,U1,42*%
%TO.N,N/C*%
X173766000Y-139192000D03*
%TO.P,U1,43,EXT_IO_SEL*%
%TO.N,Net-(J2-Pin_2)*%
X176306000Y-136652000D03*
%TO.P,U1,44*%
%TO.N,N/C*%
X176306000Y-139192000D03*
%TO.P,U1,45*%
X178846000Y-136652000D03*
%TO.P,U1,46*%
X178846000Y-139192000D03*
%TO.P,U1,47,M1*%
%TO.N,unconnected-(U1-M1-Pad47)*%
X181386000Y-136652000D03*
%TO.P,U1,48*%
%TO.N,N/C*%
X181386000Y-139192000D03*
%TO.P,U1,49,IOREQ*%
%TO.N,/IORQ*%
X183926000Y-136652000D03*
%TO.P,U1,50,GND*%
%TO.N,/GND*%
X183926000Y-139192000D03*
%TD*%
D10*
%TO.P,J2,1,Pin_1*%
%TO.N,/RD*%
X176799000Y-130048000D03*
D11*
%TO.P,J2,2,Pin_2*%
%TO.N,Net-(J2-Pin_2)*%
X179339000Y-130048000D03*
%TO.P,J2,3,Pin_3*%
%TO.N,/SPARE1*%
X181879000Y-130048000D03*
%TD*%
D10*
%TO.P,J1,1,Pin_1*%
%TO.N,/Z80_A0*%
X129540000Y-103124000D03*
D11*
%TO.P,J1,2,Pin_2*%
%TO.N,/Z80_A1*%
X129540000Y-100584000D03*
%TO.P,J1,3,Pin_3*%
%TO.N,/Z80_A2*%
X132080000Y-103124000D03*
%TO.P,J1,4,Pin_4*%
%TO.N,/Z80_A3*%
X132080000Y-100584000D03*
%TO.P,J1,5,Pin_5*%
%TO.N,/Z80_A4*%
X134620000Y-103124000D03*
%TO.P,J1,6,Pin_6*%
%TO.N,/Z80_A5*%
X134620000Y-100584000D03*
%TO.P,J1,7,Pin_7*%
%TO.N,/Z80_A6*%
X137160000Y-103124000D03*
%TO.P,J1,8,Pin_8*%
%TO.N,/Z80_A7*%
X137160000Y-100584000D03*
%TO.P,J1,9,Pin_9*%
%TO.N,/Z80_D0*%
X139700000Y-103124000D03*
%TO.P,J1,10,Pin_10*%
%TO.N,/Z80_D1*%
X139700000Y-100584000D03*
%TO.P,J1,11,Pin_11*%
%TO.N,/Z80_D2*%
X142240000Y-103124000D03*
%TO.P,J1,12,Pin_12*%
%TO.N,/Z80_D3*%
X142240000Y-100584000D03*
%TO.P,J1,13,Pin_13*%
%TO.N,/Z80_D4*%
X144780000Y-103124000D03*
%TO.P,J1,14,Pin_14*%
%TO.N,/Z80_D5*%
X144780000Y-100584000D03*
%TO.P,J1,15,Pin_15*%
%TO.N,/Z80_D6*%
X147320000Y-103124000D03*
%TO.P,J1,16,Pin_16*%
%TO.N,/Z80_D7*%
X147320000Y-100584000D03*
%TO.P,J1,17,Pin_17*%
%TO.N,/SPARE1*%
X149860000Y-103124000D03*
%TO.P,J1,18,Pin_18*%
%TO.N,/SPARE2*%
X149860000Y-100584000D03*
%TO.P,J1,19,Pin_19*%
%TO.N,/SPARE3*%
X152400000Y-103124000D03*
%TO.P,J1,20,Pin_20*%
%TO.N,/5V*%
X152400000Y-100584000D03*
%TO.P,J1,21,Pin_21*%
%TO.N,/GND*%
X154940000Y-103124000D03*
%TO.P,J1,22,Pin_22*%
%TO.N,/SPARE4*%
X154940000Y-100584000D03*
%TO.P,J1,23,Pin_23*%
%TO.N,/RESET*%
X157480000Y-103124000D03*
%TO.P,J1,24,Pin_24*%
%TO.N,/BUSACK*%
X157480000Y-100584000D03*
%TO.P,J1,25,Pin_25*%
%TO.N,/ROMCS*%
X160020000Y-103124000D03*
%TO.P,J1,26,Pin_26*%
%TO.N,/NMI*%
X160020000Y-100584000D03*
%TO.P,J1,27,Pin_27*%
%TO.N,/WAIT*%
X162560000Y-103124000D03*
%TO.P,J1,28,Pin_28*%
%TO.N,/BUSRQ*%
X162560000Y-100584000D03*
%TO.P,J1,29,Pin_29*%
%TO.N,/MEMRQ*%
X165100000Y-103124000D03*
%TO.P,J1,30,Pin_30*%
%TO.N,/IORQ*%
X165100000Y-100584000D03*
%TO.P,J1,31,Pin_31*%
%TO.N,/RW*%
X167640000Y-103124000D03*
%TO.P,J1,32,Pin_32*%
%TO.N,/RD*%
X167640000Y-100584000D03*
%TO.P,J1,33,Pin_33*%
%TO.N,/Z80_A8*%
X170180000Y-103124000D03*
%TO.P,J1,34,Pin_34*%
%TO.N,/Z80_A9*%
X170180000Y-100584000D03*
%TO.P,J1,35,Pin_35*%
%TO.N,/Z80_A10*%
X172720000Y-103124000D03*
%TO.P,J1,36,Pin_36*%
%TO.N,/Z80_A11*%
X172720000Y-100584000D03*
%TO.P,J1,37,Pin_37*%
%TO.N,/Z80_A12*%
X175260000Y-103124000D03*
%TO.P,J1,38,Pin_38*%
%TO.N,/Z80_A13*%
X175260000Y-100584000D03*
%TO.P,J1,39,Pin_39*%
%TO.N,/Z80_A14*%
X177800000Y-103124000D03*
%TO.P,J1,40,Pin_40*%
%TO.N,/Z80_A15*%
X177800000Y-100584000D03*
%TD*%
D12*
%TO.N,/WAIT*%
X162560000Y-124294300D02*
X162560000Y-103124000D01*
X173766000Y-135500300D02*
X162560000Y-124294300D01*
X173766000Y-136652000D02*
X173766000Y-135500300D01*
%TO.N,/Z80_D3*%
X142240000Y-100584000D02*
X142240000Y-101735700D01*
X130586000Y-136652000D02*
X130586000Y-135500300D01*
X142240000Y-101735700D02*
X142508500Y-101735700D01*
X142508500Y-101735700D02*
X143415800Y-102643000D01*
X143415800Y-122670500D02*
X130586000Y-135500300D01*
X143415800Y-102643000D02*
X143415800Y-122670500D01*
%TO.N,/RESET*%
X168686000Y-136652000D02*
X168686000Y-135500300D01*
X168686000Y-135500300D02*
X157480000Y-124294300D01*
X157480000Y-124294300D02*
X157480000Y-103124000D01*
%TO.N,/Z80_D1*%
X139968500Y-101735700D02*
X139700000Y-101735700D01*
X140890600Y-120115700D02*
X140890600Y-102657800D01*
X140890600Y-102657800D02*
X139968500Y-101735700D01*
X125506000Y-136652000D02*
X125506000Y-135500300D01*
X139700000Y-100584000D02*
X139700000Y-101735700D01*
X125506000Y-135500300D02*
X140890600Y-120115700D01*
%TO.N,/RW*%
X167297700Y-136920500D02*
X167297700Y-136652000D01*
X167640000Y-126881500D02*
X174923900Y-134165400D01*
X166146000Y-136652000D02*
X167297700Y-136652000D01*
X174923900Y-137138500D02*
X174238300Y-137824100D01*
X174238300Y-137824100D02*
X168201300Y-137824100D01*
X167640000Y-103124000D02*
X167640000Y-126881500D01*
X168201300Y-137824100D02*
X167297700Y-136920500D01*
X174923900Y-134165400D02*
X174923900Y-137138500D01*
%TO.N,/Z80_D5*%
X144780000Y-100584000D02*
X144780000Y-101735700D01*
X145048500Y-101735700D02*
X145932800Y-102620000D01*
X144780000Y-101735700D02*
X145048500Y-101735700D01*
X145932800Y-102620000D02*
X145932800Y-125233500D01*
X145932800Y-125233500D02*
X135666000Y-135500300D01*
X135666000Y-136652000D02*
X135666000Y-135500300D01*
%TO.N,/Z80_D4*%
X144780000Y-123846300D02*
X133126000Y-135500300D01*
X133126000Y-136652000D02*
X133126000Y-135500300D01*
X144780000Y-104275700D02*
X144780000Y-123846300D01*
X144780000Y-103124000D02*
X144780000Y-104275700D01*
%TO.N,/Z80_D6*%
X147320000Y-126386300D02*
X138206000Y-135500300D01*
X147320000Y-103124000D02*
X147320000Y-104275700D01*
X147320000Y-104275700D02*
X147320000Y-126386300D01*
X138206000Y-136652000D02*
X138206000Y-135500300D01*
%TO.N,/RD*%
X176799000Y-130048000D02*
X176799000Y-128896300D01*
X168791700Y-102599400D02*
X168791700Y-120889000D01*
X167928000Y-101735700D02*
X168791700Y-102599400D01*
X167640000Y-100584000D02*
X167640000Y-101735700D01*
X168791700Y-120889000D02*
X176799000Y-128896300D01*
X167640000Y-101735700D02*
X167928000Y-101735700D01*
%TO.N,/Z80_D7*%
X147607900Y-101735700D02*
X148476200Y-102604000D01*
X148476200Y-102604000D02*
X148476200Y-127770100D01*
X140746000Y-136652000D02*
X140746000Y-135500300D01*
X147320000Y-101735700D02*
X147607900Y-101735700D01*
X147320000Y-100584000D02*
X147320000Y-101735700D01*
X148476200Y-127770100D02*
X140746000Y-135500300D01*
%TO.N,/GND*%
X166642200Y-138024100D02*
X167416000Y-138797900D01*
X168202700Y-140356800D02*
X181878000Y-140356800D01*
X154940000Y-123891300D02*
X153721700Y-125109600D01*
X164876000Y-136263900D02*
X164876000Y-137033100D01*
X154940000Y-103124000D02*
X154940000Y-123891300D01*
X142016000Y-136242600D02*
X153149000Y-125109600D01*
X181878000Y-140356800D02*
X182774300Y-139460500D01*
X124117700Y-139192000D02*
X124117700Y-138923500D01*
X142016000Y-137097300D02*
X142016000Y-136242600D01*
X153721700Y-125109600D02*
X164876000Y-136263900D01*
X124117700Y-138923500D02*
X125119200Y-137922000D01*
X167416000Y-138797900D02*
X167416000Y-139570100D01*
X164876000Y-137033100D02*
X165867000Y-138024100D01*
X122966000Y-139192000D02*
X124117700Y-139192000D01*
X182774300Y-139460500D02*
X182774300Y-139192000D01*
X183926000Y-139192000D02*
X182774300Y-139192000D01*
X141191300Y-137922000D02*
X142016000Y-137097300D01*
X153149000Y-125109600D02*
X153721700Y-125109600D01*
X167416000Y-139570100D02*
X168202700Y-140356800D01*
X125119200Y-137922000D02*
X141191300Y-137922000D01*
X165867000Y-138024100D02*
X166642200Y-138024100D01*
%TO.N,/Z80_D0*%
X139700000Y-118766300D02*
X122966000Y-135500300D01*
X139700000Y-103124000D02*
X139700000Y-118766300D01*
X122966000Y-136652000D02*
X122966000Y-135500300D01*
%TO.N,/Z80_D2*%
X142240000Y-103124000D02*
X142240000Y-121306300D01*
X128046000Y-136652000D02*
X128046000Y-135500300D01*
X142240000Y-121306300D02*
X128046000Y-135500300D01*
%TO.N,/NMI*%
X160020000Y-101735700D02*
X160308000Y-101735700D01*
X161171700Y-125446000D02*
X171226000Y-135500300D01*
X171226000Y-136652000D02*
X171226000Y-135500300D01*
X160020000Y-100584000D02*
X160020000Y-101735700D01*
X160308000Y-101735700D02*
X161171700Y-102599400D01*
X161171700Y-102599400D02*
X161171700Y-125446000D01*
%TO.N,Net-(J2-Pin_2)*%
X179339000Y-132467300D02*
X176306000Y-135500300D01*
X179339000Y-130048000D02*
X179339000Y-132467300D01*
X176306000Y-136652000D02*
X176306000Y-135500300D01*
%TD*%
M02*
