M48
; DRILL file {KiCad 8.0.5} date 2024-10-04T15:37:27-0400
; FORMAT={-:-/ absolute / metric / decimal}
; #@! TF.CreationDate,2024-10-04T15:37:27-04:00
; #@! TF.GenerationSoftware,Kicad,Pcbnew,8.0.5
; #@! TF.FileFunction,Plated,1,2,PTH
FMAT,2
METRIC
; #@! TA.AperFunction,Plated,PTH,ViaDrill
T1C0.300
; #@! TA.AperFunction,Plated,PTH,ComponentDrill
T2C1.000
%
G90
G05
T1
X83.256Y-99.19
X90.632Y-102.717
X93.517Y-100.671
X107.188Y-103.634
X111.466Y-108.78
X115.453Y-93.044
X116.828Y-93.753
X119.481Y-94.523
T2
X66.04Y-124.46
X66.04Y-129.54
X68.58Y-124.46
X68.58Y-129.54
X71.12Y-124.46
X71.12Y-129.54
X73.66Y-124.46
X73.66Y-129.54
X76.708Y-88.9
X76.708Y-91.44
X78.74Y-124.46
X78.74Y-129.54
X79.248Y-88.9
X79.248Y-91.44
X81.28Y-124.46
X81.28Y-129.54
X81.788Y-88.9
X81.788Y-91.44
X83.82Y-124.46
X83.82Y-129.54
X84.328Y-88.9
X84.328Y-91.44
X86.36Y-124.46
X86.36Y-129.54
X86.868Y-88.9
X86.868Y-91.44
X88.9Y-124.46
X88.9Y-129.54
X89.408Y-88.9
X89.408Y-91.44
X91.44Y-124.46
X91.44Y-129.54
X91.948Y-88.9
X91.948Y-91.44
X93.98Y-124.46
X93.98Y-129.54
X94.488Y-88.9
X94.488Y-91.44
X96.52Y-124.46
X96.52Y-129.54
X97.028Y-88.9
X97.028Y-91.44
X99.06Y-124.46
X99.06Y-129.54
X99.568Y-88.9
X99.568Y-91.44
X101.6Y-124.46
X101.6Y-129.54
X102.108Y-88.9
X102.108Y-91.44
X104.14Y-124.46
X104.14Y-129.54
X104.648Y-88.9
X104.648Y-91.44
X106.68Y-124.46
X106.68Y-129.54
X107.188Y-88.9
X107.188Y-91.44
X109.22Y-124.46
X109.22Y-129.54
X109.728Y-88.9
X109.728Y-91.44
X111.76Y-124.46
X111.76Y-129.54
X112.268Y-88.9
X112.268Y-91.44
X114.3Y-124.46
X114.3Y-129.54
X114.808Y-88.9
X114.808Y-91.44
X116.84Y-124.46
X116.84Y-129.54
X117.348Y-88.9
X117.348Y-91.44
X119.38Y-124.46
X119.38Y-129.54
X119.888Y-88.9
X119.888Y-91.44
X121.92Y-124.46
X121.92Y-129.54
X122.428Y-88.9
X122.428Y-91.44
X124.46Y-124.46
X124.46Y-129.54
X124.968Y-88.9
X124.968Y-91.44
X127.0Y-124.46
X127.0Y-129.54
X129.54Y-124.46
X129.54Y-129.54
X132.08Y-124.46
X132.08Y-129.54
X134.62Y-124.46
X134.62Y-129.54
M30
