%TF.GenerationSoftware,KiCad,Pcbnew,8.0.5*%
%TF.CreationDate,2024-10-04T15:37:23-04:00*%
%TF.ProjectId,ZX Spectrum Adapter,5a582053-7065-4637-9472-756d20416461,rev?*%
%TF.SameCoordinates,Original*%
%TF.FileFunction,Copper,L2,Bot*%
%TF.FilePolarity,Positive*%
%FSLAX46Y46*%
G04 Gerber Fmt 4.6, Leading zero omitted, Abs format (unit mm)*
G04 Created by KiCad (PCBNEW 8.0.5) date 2024-10-04 15:37:23*
%MOMM*%
%LPD*%
G01*
G04 APERTURE LIST*
%TA.AperFunction,ComponentPad*%
%ADD10R,1.700000X1.700000*%
%TD*%
%TA.AperFunction,ComponentPad*%
%ADD11O,1.700000X1.700000*%
%TD*%
%TA.AperFunction,ComponentPad*%
%ADD12C,1.778000*%
%TD*%
%TA.AperFunction,ViaPad*%
%ADD13C,0.600000*%
%TD*%
%TA.AperFunction,Conductor*%
%ADD14C,0.300000*%
%TD*%
%TA.AperFunction,Conductor*%
%ADD15C,0.500000*%
%TD*%
G04 APERTURE END LIST*
D10*
%TO.P,J1,1,Pin_1*%
%TO.N,/Z80_A0*%
X76708000Y-91440000D03*
D11*
%TO.P,J1,2,Pin_2*%
%TO.N,/Z80_A1*%
X76708000Y-88900000D03*
%TO.P,J1,3,Pin_3*%
%TO.N,/Z80_A2*%
X79248000Y-91440000D03*
%TO.P,J1,4,Pin_4*%
%TO.N,/Z80_A3*%
X79248000Y-88900000D03*
%TO.P,J1,5,Pin_5*%
%TO.N,/Z80_A4*%
X81788000Y-91440000D03*
%TO.P,J1,6,Pin_6*%
%TO.N,/Z80_A5*%
X81788000Y-88900000D03*
%TO.P,J1,7,Pin_7*%
%TO.N,/Z80_A6*%
X84328000Y-91440000D03*
%TO.P,J1,8,Pin_8*%
%TO.N,/Z80_A7*%
X84328000Y-88900000D03*
%TO.P,J1,9,Pin_9*%
%TO.N,/Z80_D0*%
X86868000Y-91440000D03*
%TO.P,J1,10,Pin_10*%
%TO.N,/Z80_D1*%
X86868000Y-88900000D03*
%TO.P,J1,11,Pin_11*%
%TO.N,/Z80_D2*%
X89408000Y-91440000D03*
%TO.P,J1,12,Pin_12*%
%TO.N,/Z80_D3*%
X89408000Y-88900000D03*
%TO.P,J1,13,Pin_13*%
%TO.N,/Z80_D4*%
X91948000Y-91440000D03*
%TO.P,J1,14,Pin_14*%
%TO.N,/Z80_D5*%
X91948000Y-88900000D03*
%TO.P,J1,15,Pin_15*%
%TO.N,/Z80_D6*%
X94488000Y-91440000D03*
%TO.P,J1,16,Pin_16*%
%TO.N,/Z80_D7*%
X94488000Y-88900000D03*
%TO.P,J1,17,Pin_17*%
%TO.N,/SPARE1*%
X97028000Y-91440000D03*
%TO.P,J1,18,Pin_18*%
%TO.N,/SPARE2*%
X97028000Y-88900000D03*
%TO.P,J1,19,Pin_19*%
%TO.N,/SPARE3*%
X99568000Y-91440000D03*
%TO.P,J1,20,Pin_20*%
%TO.N,/5V*%
X99568000Y-88900000D03*
%TO.P,J1,21,Pin_21*%
%TO.N,/GND*%
X102108000Y-91440000D03*
%TO.P,J1,22,Pin_22*%
%TO.N,/SPARE4*%
X102108000Y-88900000D03*
%TO.P,J1,23,Pin_23*%
%TO.N,/RESET*%
X104648000Y-91440000D03*
%TO.P,J1,24,Pin_24*%
%TO.N,/BUSACK*%
X104648000Y-88900000D03*
%TO.P,J1,25,Pin_25*%
%TO.N,/ROMCS*%
X107188000Y-91440000D03*
%TO.P,J1,26,Pin_26*%
%TO.N,/NMI*%
X107188000Y-88900000D03*
%TO.P,J1,27,Pin_27*%
%TO.N,/WAIT*%
X109728000Y-91440000D03*
%TO.P,J1,28,Pin_28*%
%TO.N,/BUSRQ*%
X109728000Y-88900000D03*
%TO.P,J1,29,Pin_29*%
%TO.N,/MEMRQ*%
X112268000Y-91440000D03*
%TO.P,J1,30,Pin_30*%
%TO.N,/IORQ*%
X112268000Y-88900000D03*
%TO.P,J1,31,Pin_31*%
%TO.N,/RW*%
X114808000Y-91440000D03*
%TO.P,J1,32,Pin_32*%
%TO.N,/RD*%
X114808000Y-88900000D03*
%TO.P,J1,33,Pin_33*%
%TO.N,/Z80_A8*%
X117348000Y-91440000D03*
%TO.P,J1,34,Pin_34*%
%TO.N,/Z80_A9*%
X117348000Y-88900000D03*
%TO.P,J1,35,Pin_35*%
%TO.N,/Z80_A10*%
X119888000Y-91440000D03*
%TO.P,J1,36,Pin_36*%
%TO.N,/Z80_A11*%
X119888000Y-88900000D03*
%TO.P,J1,37,Pin_37*%
%TO.N,/Z80_A12*%
X122428000Y-91440000D03*
%TO.P,J1,38,Pin_38*%
%TO.N,/Z80_A13*%
X122428000Y-88900000D03*
%TO.P,J1,39,Pin_39*%
%TO.N,/Z80_A14*%
X124968000Y-91440000D03*
%TO.P,J1,40,Pin_40*%
%TO.N,/Z80_A15*%
X124968000Y-88900000D03*
%TD*%
D12*
%TO.P,J2,A1,A14*%
%TO.N,/Z80_A14*%
X66040000Y-124460000D03*
%TO.P,J2,A2,A12*%
%TO.N,/Z80_A12*%
X68580000Y-124460000D03*
%TO.P,J2,A3,+5Vcc*%
%TO.N,/5V*%
X71120000Y-124460000D03*
%TO.P,J2,A4,+9Vcc*%
%TO.N,unconnected-(J2-+9Vcc-PadA4)*%
X73660000Y-124460000D03*
%TO.P,J2,A6,GND*%
%TO.N,/GND*%
X78740000Y-124460000D03*
%TO.P,J2,A7,GND*%
X81280000Y-124460000D03*
%TO.P,J2,A8,CLOCK*%
%TO.N,unconnected-(J2-CLOCK-PadA8)*%
X83820000Y-124460000D03*
%TO.P,J2,A9,A0*%
%TO.N,/Z80_A0*%
X86360000Y-124460000D03*
%TO.P,J2,A10,A1*%
%TO.N,/Z80_A1*%
X88900000Y-124460000D03*
%TO.P,J2,A11,A2*%
%TO.N,/Z80_A2*%
X91440000Y-124460000D03*
%TO.P,J2,A12,A3*%
%TO.N,/Z80_A3*%
X93980000Y-124460000D03*
%TO.P,J2,A13,IORQGE*%
%TO.N,unconnected-(J2-IORQGE-PadA13)*%
X96520000Y-124460000D03*
%TO.P,J2,A14,GND*%
%TO.N,/GND*%
X99060000Y-124460000D03*
%TO.P,J2,A15,VIDEO*%
%TO.N,unconnected-(J2-VIDEO-PadA15)*%
X101600000Y-124460000D03*
%TO.P,J2,A16,Y*%
%TO.N,unconnected-(J2-Y-PadA16)*%
X104140000Y-124460000D03*
%TO.P,J2,A17,V*%
%TO.N,unconnected-(J2-V-PadA17)*%
X106680000Y-124460000D03*
%TO.P,J2,A18,U*%
%TO.N,unconnected-(J2-U-PadA18)*%
X109220000Y-124460000D03*
%TO.P,J2,A19,BUSRQ*%
%TO.N,/BUSRQ*%
X111760000Y-124460000D03*
%TO.P,J2,A20,~{RESET}*%
%TO.N,/RESET*%
X114300000Y-124460000D03*
%TO.P,J2,A21,A7*%
%TO.N,/Z80_A7*%
X116840000Y-124460000D03*
%TO.P,J2,A22,A6*%
%TO.N,/Z80_A6*%
X119380000Y-124460000D03*
%TO.P,J2,A23,A5*%
%TO.N,/Z80_A5*%
X121920000Y-124460000D03*
%TO.P,J2,A24,A4*%
%TO.N,/Z80_A4*%
X124460000Y-124460000D03*
%TO.P,J2,A25,~{ROMCS}*%
%TO.N,/ROMCS*%
X127000000Y-124460000D03*
%TO.P,J2,A26,BUSACK*%
%TO.N,/BUSACK*%
X129540000Y-124460000D03*
%TO.P,J2,A27,A9*%
%TO.N,/Z80_A9*%
X132080000Y-124460000D03*
%TO.P,J2,A28,A11*%
%TO.N,/Z80_A11*%
X134620000Y-124460000D03*
%TO.P,J2,B1,A15*%
%TO.N,/Z80_A15*%
X66040000Y-129540000D03*
%TO.P,J2,B2,A13*%
%TO.N,/Z80_A13*%
X68580000Y-129540000D03*
%TO.P,J2,B3,D7*%
%TO.N,/Z80_D7*%
X71120000Y-129540000D03*
%TO.P,J2,B4,N/C*%
%TO.N,unconnected-(J2-N{slash}C-PadB4)*%
X73660000Y-129540000D03*
%TO.P,J2,B6,D0*%
%TO.N,/Z80_D0*%
X78740000Y-129540000D03*
%TO.P,J2,B7,D1*%
%TO.N,/Z80_D1*%
X81280000Y-129540000D03*
%TO.P,J2,B8,D2*%
%TO.N,/Z80_D2*%
X83820000Y-129540000D03*
%TO.P,J2,B9,D6*%
%TO.N,/Z80_D6*%
X86360000Y-129540000D03*
%TO.P,J2,B10,D5*%
%TO.N,/Z80_D5*%
X88900000Y-129540000D03*
%TO.P,J2,B11,D3*%
%TO.N,/Z80_D3*%
X91440000Y-129540000D03*
%TO.P,J2,B12,D4*%
%TO.N,/Z80_D4*%
X93980000Y-129540000D03*
%TO.P,J2,B13,~{INT}*%
%TO.N,unconnected-(J2-~{INT}-PadB13)*%
X96520000Y-129540000D03*
%TO.P,J2,B14,~{NMI}*%
%TO.N,/NMI*%
X99060000Y-129540000D03*
%TO.P,J2,B15,HALT*%
%TO.N,unconnected-(J2-HALT-PadB15)*%
X101600000Y-129540000D03*
%TO.P,J2,B16,MREQ*%
%TO.N,/MEMRQ*%
X104140000Y-129540000D03*
%TO.P,J2,B17,IOREQ*%
%TO.N,/IORQ*%
X106680000Y-129540000D03*
%TO.P,J2,B18,RD*%
%TO.N,/RD*%
X109220000Y-129540000D03*
%TO.P,J2,B19,WR*%
%TO.N,/RW*%
X111760000Y-129540000D03*
%TO.P,J2,B20,-5Vcc*%
%TO.N,unconnected-(J2--5Vcc-PadB20)*%
X114300000Y-129540000D03*
%TO.P,J2,B21,WAIT*%
%TO.N,/WAIT*%
X116840000Y-129540000D03*
%TO.P,J2,B22,+12Vcc*%
%TO.N,unconnected-(J2-+12Vcc-PadB22)*%
X119380000Y-129540000D03*
%TO.P,J2,B23,12Vac*%
%TO.N,unconnected-(J2-12Vac-PadB23)*%
X121920000Y-129540000D03*
%TO.P,J2,B24,M1*%
%TO.N,unconnected-(J2-M1-PadB24)*%
X124460000Y-129540000D03*
%TO.P,J2,B25,RFSH*%
%TO.N,unconnected-(J2-RFSH-PadB25)*%
X127000000Y-129540000D03*
%TO.P,J2,B26,A8*%
%TO.N,/Z80_A8*%
X129540000Y-129540000D03*
%TO.P,J2,B27,A10*%
%TO.N,/Z80_A10*%
X132080000Y-129540000D03*
%TO.P,J2,B28,N/C*%
%TO.N,unconnected-(J2-N{slash}C-PadB28)*%
X134620000Y-129540000D03*
%TD*%
D13*
%TO.N,/Z80_A3*%
X93517200Y-100670600D03*
%TO.N,/ROMCS*%
X107188000Y-103634400D03*
%TO.N,/Z80_A2*%
X90632400Y-102716600D03*
%TO.N,/MEMRQ*%
X111466400Y-108779600D03*
%TO.N,/Z80_A0*%
X83256000Y-99189700D03*
%TO.N,/Z80_A4*%
X119480900Y-94522700D03*
%TO.N,/Z80_A6*%
X116827800Y-93752800D03*
%TO.N,/Z80_A7*%
X115453100Y-93044300D03*
%TD*%
D14*
%TO.N,/Z80_D7*%
X94488000Y-88900000D02*
X93286300Y-88900000D01*
X85598000Y-88448900D02*
X85598000Y-89412100D01*
X85598000Y-89412100D02*
X84771800Y-90238300D01*
X92447300Y-87687500D02*
X86359400Y-87687500D01*
X83058000Y-94085500D02*
X76446100Y-100697400D01*
X76446100Y-100697400D02*
X76446100Y-124213900D01*
X84771800Y-90238300D02*
X83823800Y-90238300D01*
X76446100Y-124213900D02*
X71120000Y-129540000D01*
X83823800Y-90238300D02*
X83058000Y-91004100D01*
X93286300Y-88900000D02*
X93286300Y-88526500D01*
X83058000Y-91004100D02*
X83058000Y-94085500D01*
X93286300Y-88526500D02*
X92447300Y-87687500D01*
X86359400Y-87687500D02*
X85598000Y-88448900D01*
%TO.N,/Z80_D5*%
X90147800Y-130787800D02*
X88900000Y-129540000D01*
X95250000Y-98123900D02*
X95250000Y-130055800D01*
X93218000Y-90998200D02*
X93218000Y-96091900D01*
X93218000Y-96091900D02*
X95250000Y-98123900D01*
X92321500Y-90101700D02*
X93218000Y-90998200D01*
X91948000Y-90101700D02*
X92321500Y-90101700D01*
X95250000Y-130055800D02*
X94518000Y-130787800D01*
X94518000Y-130787800D02*
X90147800Y-130787800D01*
X91948000Y-88900000D02*
X91948000Y-90101700D01*
D15*
%TO.N,/GND*%
X102108000Y-91440000D02*
X102108000Y-92741700D01*
X99060000Y-95789700D02*
X99060000Y-124460000D01*
X102108000Y-92741700D02*
X99060000Y-95789700D01*
D14*
%TO.N,/NMI*%
X99060000Y-129540000D02*
X100330000Y-128270000D01*
X107188000Y-88900000D02*
X107188000Y-90101700D01*
X100330000Y-128270000D02*
X100330000Y-110491600D01*
X105918000Y-90998200D02*
X106814500Y-90101700D01*
X105918000Y-104903600D02*
X105918000Y-90998200D01*
X106814500Y-90101700D02*
X107188000Y-90101700D01*
X100330000Y-110491600D02*
X105918000Y-104903600D01*
%TO.N,/Z80_A3*%
X93980000Y-124460000D02*
X93517200Y-123997200D01*
X93517200Y-123997200D02*
X93517200Y-100670600D01*
%TO.N,/RW*%
X114808000Y-92641700D02*
X114801400Y-92648300D01*
X114801400Y-118782800D02*
X115568500Y-119549900D01*
X115568500Y-119549900D02*
X115568500Y-125731500D01*
X114808000Y-91440000D02*
X114808000Y-92641700D01*
X115568500Y-125731500D02*
X111760000Y-129540000D01*
X114801400Y-92648300D02*
X114801400Y-118782800D01*
%TO.N,/Z80_A10*%
X119888000Y-91440000D02*
X119888000Y-92641700D01*
X133350000Y-106103700D02*
X119888000Y-92641700D01*
X133350000Y-128270000D02*
X133350000Y-106103700D01*
X132080000Y-129540000D02*
X133350000Y-128270000D01*
%TO.N,/ROMCS*%
X107188000Y-103634400D02*
X107188000Y-91440000D01*
%TO.N,/Z80_A2*%
X91440000Y-103524200D02*
X90632400Y-102716600D01*
X91440000Y-124460000D02*
X91440000Y-103524200D01*
%TO.N,/Z80_A11*%
X134620000Y-124460000D02*
X134620000Y-106248000D01*
X119888000Y-88900000D02*
X119888000Y-90101700D01*
X134620000Y-106248000D02*
X121158100Y-92786100D01*
X121158100Y-90998300D02*
X120261500Y-90101700D01*
X120261500Y-90101700D02*
X119888000Y-90101700D01*
X121158100Y-92786100D02*
X121158100Y-90998300D01*
%TO.N,/MEMRQ*%
X112268000Y-91440000D02*
X112268000Y-107978000D01*
X112268000Y-107978000D02*
X111466400Y-108779600D01*
%TO.N,/Z80_A9*%
X117721500Y-90101700D02*
X117348000Y-90101700D01*
X118618000Y-92667000D02*
X118618000Y-90998200D01*
X132080000Y-124460000D02*
X132080000Y-106129000D01*
X132080000Y-106129000D02*
X118618000Y-92667000D01*
X118618000Y-90998200D02*
X117721500Y-90101700D01*
X117348000Y-88900000D02*
X117348000Y-90101700D01*
%TO.N,/Z80_A8*%
X125148300Y-126969200D02*
X126969200Y-126969200D01*
X117348000Y-91440000D02*
X117348000Y-92641700D01*
X117348000Y-93311300D02*
X123160700Y-99124000D01*
X117348000Y-92641700D02*
X117348000Y-93311300D01*
X123160700Y-124981600D02*
X125148300Y-126969200D01*
X126969200Y-126969200D02*
X129540000Y-129540000D01*
X123160700Y-99124000D02*
X123160700Y-124981600D01*
%TO.N,/Z80_D0*%
X86868000Y-91440000D02*
X86868000Y-92641700D01*
X82550000Y-96959700D02*
X82550000Y-125730000D01*
X82550000Y-125730000D02*
X78740000Y-129540000D01*
X86868000Y-92641700D02*
X82550000Y-96959700D01*
%TO.N,/Z80_D2*%
X89408000Y-91440000D02*
X89408000Y-92641700D01*
X87630000Y-125730000D02*
X83820000Y-129540000D01*
X87630000Y-94419700D02*
X87630000Y-125730000D01*
X89408000Y-92641700D02*
X87630000Y-94419700D01*
%TO.N,/RD*%
X116839400Y-131329200D02*
X118108400Y-130060200D01*
X118108400Y-96391900D02*
X116120700Y-94404200D01*
X109220000Y-129540000D02*
X111009200Y-131329200D01*
X115183600Y-90101700D02*
X114808000Y-90101700D01*
X116120700Y-91038800D02*
X115183600Y-90101700D01*
X111009200Y-131329200D02*
X116839400Y-131329200D01*
X118108400Y-130060200D02*
X118108400Y-96391900D01*
X116120700Y-94404200D02*
X116120700Y-91038800D01*
X114808000Y-88900000D02*
X114808000Y-90101700D01*
%TO.N,/Z80_A0*%
X86360000Y-102293700D02*
X83256000Y-99189700D01*
X86360000Y-124460000D02*
X86360000Y-102293700D01*
%TO.N,/BUSRQ*%
X110814700Y-109049400D02*
X110998100Y-109232800D01*
X110998100Y-90998300D02*
X110998100Y-108324800D01*
X110814700Y-108508200D02*
X110814700Y-109049400D01*
X110101500Y-90101700D02*
X110998100Y-90998300D01*
X109728000Y-88900000D02*
X109728000Y-90101700D01*
X110998100Y-109232800D02*
X110998100Y-123698100D01*
X110998100Y-108324800D02*
X110814700Y-108508200D01*
X110998100Y-123698100D02*
X111760000Y-124460000D01*
X109728000Y-90101700D02*
X110101500Y-90101700D01*
%TO.N,/Z80_A4*%
X124460000Y-99501800D02*
X119480900Y-94522700D01*
X124460000Y-124460000D02*
X124460000Y-99501800D01*
%TO.N,/Z80_A6*%
X119380000Y-124460000D02*
X119380000Y-96305000D01*
X119380000Y-96305000D02*
X116827800Y-93752800D01*
D15*
%TO.N,/5V*%
X97708000Y-87040000D02*
X99568000Y-88900000D01*
X76723900Y-87040000D02*
X97708000Y-87040000D01*
X71120000Y-92643900D02*
X76723900Y-87040000D01*
X71120000Y-124460000D02*
X71120000Y-92643900D01*
D14*
%TO.N,/RESET*%
X107197100Y-87144700D02*
X105918000Y-88423800D01*
X113538000Y-88403600D02*
X112279100Y-87144700D01*
X112279100Y-87144700D02*
X107197100Y-87144700D01*
X113538000Y-123698000D02*
X113538000Y-88403600D01*
X105918000Y-89341800D02*
X105021500Y-90238300D01*
X114300000Y-124460000D02*
X113538000Y-123698000D01*
X104648000Y-91440000D02*
X104648000Y-90238300D01*
X105021500Y-90238300D02*
X104648000Y-90238300D01*
X105918000Y-88423800D02*
X105918000Y-89341800D01*
%TO.N,/Z80_D3*%
X89408000Y-88900000D02*
X89408000Y-90101700D01*
X90629700Y-90947900D02*
X90629700Y-97028400D01*
X89783500Y-90101700D02*
X90629700Y-90947900D01*
X90629700Y-97028400D02*
X89980700Y-97677400D01*
X89980700Y-97677400D02*
X89980700Y-102986400D01*
X90170000Y-103175700D02*
X90170000Y-128270000D01*
X90170000Y-128270000D02*
X91440000Y-129540000D01*
X89980700Y-102986400D02*
X90170000Y-103175700D01*
X89408000Y-90101700D02*
X89783500Y-90101700D01*
%TO.N,/Z80_A1*%
X72390000Y-125168000D02*
X72390000Y-93481900D01*
X75770200Y-90101700D02*
X76708000Y-90101700D01*
X76708000Y-88900000D02*
X76708000Y-90101700D01*
X85090000Y-129017500D02*
X85090000Y-130053600D01*
X88900000Y-125207500D02*
X85090000Y-129017500D01*
X72390000Y-93481900D02*
X75770200Y-90101700D01*
X69850000Y-130056800D02*
X69850000Y-127708000D01*
X71126700Y-131333500D02*
X69850000Y-130056800D01*
X85090000Y-130053600D02*
X83810100Y-131333500D01*
X69850000Y-127708000D02*
X72390000Y-125168000D01*
X88900000Y-124460000D02*
X88900000Y-125207500D01*
X83810100Y-131333500D02*
X71126700Y-131333500D01*
%TO.N,/Z80_D6*%
X97790000Y-130036100D02*
X97790000Y-95943700D01*
X86360000Y-129540000D02*
X88175400Y-131355400D01*
X94488000Y-91440000D02*
X94488000Y-92641700D01*
X88175400Y-131355400D02*
X96470700Y-131355400D01*
X96470700Y-131355400D02*
X97790000Y-130036100D01*
X97790000Y-95943700D02*
X94488000Y-92641700D01*
%TO.N,/Z80_D1*%
X77498000Y-130055000D02*
X77498000Y-100886000D01*
X86494500Y-90101700D02*
X86868000Y-90101700D01*
X80013600Y-130806400D02*
X78249400Y-130806400D01*
X81280000Y-129540000D02*
X80013600Y-130806400D01*
X85597900Y-92786100D02*
X85597900Y-90998300D01*
X85597900Y-90998300D02*
X86494500Y-90101700D01*
X78249400Y-130806400D02*
X77498000Y-130055000D01*
X86868000Y-88900000D02*
X86868000Y-90101700D01*
X77498000Y-100886000D02*
X85597900Y-92786100D01*
%TO.N,/Z80_D4*%
X92710000Y-128270000D02*
X93980000Y-129540000D01*
X91948000Y-92641700D02*
X92710000Y-93403700D01*
X92710000Y-93403700D02*
X92710000Y-128270000D01*
X91948000Y-91440000D02*
X91948000Y-92641700D01*
%TO.N,/Z80_A7*%
X115453100Y-102898300D02*
X115453100Y-93044300D01*
X116840000Y-104285200D02*
X115453100Y-102898300D01*
X116840000Y-124460000D02*
X116840000Y-104285200D01*
%TO.N,/IORQ*%
X111066300Y-88526500D02*
X111066300Y-88900000D01*
X109230100Y-87693800D02*
X110233600Y-87693800D01*
X106680000Y-129540000D02*
X107950000Y-128270000D01*
X112268000Y-88900000D02*
X111066300Y-88900000D01*
X108458000Y-88465900D02*
X109230100Y-87693800D01*
X107950000Y-121596100D02*
X108458000Y-121088100D01*
X107950000Y-128270000D02*
X107950000Y-121596100D01*
X108458000Y-121088100D02*
X108458000Y-88465900D01*
X110233600Y-87693800D02*
X111066300Y-88526500D01*
%TO.N,/WAIT*%
X111292900Y-130827500D02*
X115552500Y-130827500D01*
X109728000Y-92641700D02*
X109728000Y-108672100D01*
X109728000Y-108672100D02*
X110490000Y-109434100D01*
X110490000Y-109434100D02*
X110490000Y-130024600D01*
X109728000Y-91440000D02*
X109728000Y-92641700D01*
X115552500Y-130827500D02*
X116840000Y-129540000D01*
X110490000Y-130024600D02*
X111292900Y-130827500D01*
%TD*%
M02*
