%TF.GenerationSoftware,KiCad,Pcbnew,8.0.5*%
%TF.CreationDate,2024-10-04T15:37:23-04:00*%
%TF.ProjectId,ZX Spectrum Adapter,5a582053-7065-4637-9472-756d20416461,rev?*%
%TF.SameCoordinates,Original*%
%TF.FileFunction,Legend,Top*%
%TF.FilePolarity,Positive*%
%FSLAX46Y46*%
G04 Gerber Fmt 4.6, Leading zero omitted, Abs format (unit mm)*
G04 Created by KiCad (PCBNEW 8.0.5) date 2024-10-04 15:37:23*
%MOMM*%
%LPD*%
G01*
G04 APERTURE LIST*
%ADD10C,0.100000*%
%ADD11C,0.150000*%
%ADD12C,0.120000*%
G04 APERTURE END LIST*
D10*
X138942038Y-120870020D02*
X136942038Y-120870020D01*
X138942038Y-120012877D02*
X137894419Y-120012877D01*
X137894419Y-120012877D02*
X137703942Y-120108115D01*
X137703942Y-120108115D02*
X137608704Y-120298591D01*
X137608704Y-120298591D02*
X137608704Y-120584306D01*
X137608704Y-120584306D02*
X137703942Y-120774782D01*
X137703942Y-120774782D02*
X137799180Y-120870020D01*
X137608704Y-119346210D02*
X137608704Y-118584306D01*
X136942038Y-119060496D02*
X138656323Y-119060496D01*
X138656323Y-119060496D02*
X138846800Y-118965258D01*
X138846800Y-118965258D02*
X138942038Y-118774782D01*
X138942038Y-118774782D02*
X138942038Y-118584306D01*
X137608704Y-118203353D02*
X137608704Y-117441449D01*
X136942038Y-117917639D02*
X138656323Y-117917639D01*
X138656323Y-117917639D02*
X138846800Y-117822401D01*
X138846800Y-117822401D02*
X138942038Y-117631925D01*
X138942038Y-117631925D02*
X138942038Y-117441449D01*
X137608704Y-116774782D02*
X139608704Y-116774782D01*
X137703942Y-116774782D02*
X137608704Y-116584306D01*
X137608704Y-116584306D02*
X137608704Y-116203353D01*
X137608704Y-116203353D02*
X137703942Y-116012877D01*
X137703942Y-116012877D02*
X137799180Y-115917639D01*
X137799180Y-115917639D02*
X137989657Y-115822401D01*
X137989657Y-115822401D02*
X138561085Y-115822401D01*
X138561085Y-115822401D02*
X138751561Y-115917639D01*
X138751561Y-115917639D02*
X138846800Y-116012877D01*
X138846800Y-116012877D02*
X138942038Y-116203353D01*
X138942038Y-116203353D02*
X138942038Y-116584306D01*
X138942038Y-116584306D02*
X138846800Y-116774782D01*
X138846800Y-115060496D02*
X138942038Y-114870020D01*
X138942038Y-114870020D02*
X138942038Y-114489068D01*
X138942038Y-114489068D02*
X138846800Y-114298591D01*
X138846800Y-114298591D02*
X138656323Y-114203353D01*
X138656323Y-114203353D02*
X138561085Y-114203353D01*
X138561085Y-114203353D02*
X138370609Y-114298591D01*
X138370609Y-114298591D02*
X138275371Y-114489068D01*
X138275371Y-114489068D02*
X138275371Y-114774782D01*
X138275371Y-114774782D02*
X138180133Y-114965258D01*
X138180133Y-114965258D02*
X137989657Y-115060496D01*
X137989657Y-115060496D02*
X137894419Y-115060496D01*
X137894419Y-115060496D02*
X137703942Y-114965258D01*
X137703942Y-114965258D02*
X137608704Y-114774782D01*
X137608704Y-114774782D02*
X137608704Y-114489068D01*
X137608704Y-114489068D02*
X137703942Y-114298591D01*
X138751561Y-113346210D02*
X138846800Y-113250972D01*
X138846800Y-113250972D02*
X138942038Y-113346210D01*
X138942038Y-113346210D02*
X138846800Y-113441448D01*
X138846800Y-113441448D02*
X138751561Y-113346210D01*
X138751561Y-113346210D02*
X138942038Y-113346210D01*
X137703942Y-113346210D02*
X137799180Y-113250972D01*
X137799180Y-113250972D02*
X137894419Y-113346210D01*
X137894419Y-113346210D02*
X137799180Y-113441448D01*
X137799180Y-113441448D02*
X137703942Y-113346210D01*
X137703942Y-113346210D02*
X137894419Y-113346210D01*
X136846800Y-110965258D02*
X139418228Y-112679543D01*
X136846800Y-108870020D02*
X139418228Y-110584305D01*
X137608704Y-108489067D02*
X137608704Y-107727163D01*
X138942038Y-108203353D02*
X137227752Y-108203353D01*
X137227752Y-108203353D02*
X137037276Y-108108115D01*
X137037276Y-108108115D02*
X136942038Y-107917639D01*
X136942038Y-107917639D02*
X136942038Y-107727163D01*
X137608704Y-106203353D02*
X138942038Y-106203353D01*
X137608704Y-107060496D02*
X138656323Y-107060496D01*
X138656323Y-107060496D02*
X138846800Y-106965258D01*
X138846800Y-106965258D02*
X138942038Y-106774782D01*
X138942038Y-106774782D02*
X138942038Y-106489067D01*
X138942038Y-106489067D02*
X138846800Y-106298591D01*
X138846800Y-106298591D02*
X138751561Y-106203353D01*
X137608704Y-105250972D02*
X139322990Y-105250972D01*
X139322990Y-105250972D02*
X139513466Y-105346210D01*
X139513466Y-105346210D02*
X139608704Y-105536686D01*
X139608704Y-105536686D02*
X139608704Y-105631924D01*
X136942038Y-105250972D02*
X137037276Y-105346210D01*
X137037276Y-105346210D02*
X137132514Y-105250972D01*
X137132514Y-105250972D02*
X137037276Y-105155734D01*
X137037276Y-105155734D02*
X136942038Y-105250972D01*
X136942038Y-105250972D02*
X137132514Y-105250972D01*
X138942038Y-104298591D02*
X137608704Y-104298591D01*
X136942038Y-104298591D02*
X137037276Y-104393829D01*
X137037276Y-104393829D02*
X137132514Y-104298591D01*
X137132514Y-104298591D02*
X137037276Y-104203353D01*
X137037276Y-104203353D02*
X136942038Y-104298591D01*
X136942038Y-104298591D02*
X137132514Y-104298591D01*
X137608704Y-103346210D02*
X138942038Y-103346210D01*
X137799180Y-103346210D02*
X137703942Y-103250972D01*
X137703942Y-103250972D02*
X137608704Y-103060496D01*
X137608704Y-103060496D02*
X137608704Y-102774781D01*
X137608704Y-102774781D02*
X137703942Y-102584305D01*
X137703942Y-102584305D02*
X137894419Y-102489067D01*
X137894419Y-102489067D02*
X138942038Y-102489067D01*
X138846800Y-100774781D02*
X138942038Y-100965257D01*
X138942038Y-100965257D02*
X138942038Y-101346210D01*
X138942038Y-101346210D02*
X138846800Y-101536686D01*
X138846800Y-101536686D02*
X138656323Y-101631924D01*
X138656323Y-101631924D02*
X137894419Y-101631924D01*
X137894419Y-101631924D02*
X137703942Y-101536686D01*
X137703942Y-101536686D02*
X137608704Y-101346210D01*
X137608704Y-101346210D02*
X137608704Y-100965257D01*
X137608704Y-100965257D02*
X137703942Y-100774781D01*
X137703942Y-100774781D02*
X137894419Y-100679543D01*
X137894419Y-100679543D02*
X138084895Y-100679543D01*
X138084895Y-100679543D02*
X138275371Y-101631924D01*
X137608704Y-100108114D02*
X137608704Y-99346210D01*
X136942038Y-99822400D02*
X138656323Y-99822400D01*
X138656323Y-99822400D02*
X138846800Y-99727162D01*
X138846800Y-99727162D02*
X138942038Y-99536686D01*
X138942038Y-99536686D02*
X138942038Y-99346210D01*
X138751561Y-98679543D02*
X138846800Y-98584305D01*
X138846800Y-98584305D02*
X138942038Y-98679543D01*
X138942038Y-98679543D02*
X138846800Y-98774781D01*
X138846800Y-98774781D02*
X138751561Y-98679543D01*
X138751561Y-98679543D02*
X138942038Y-98679543D01*
X138942038Y-97441448D02*
X138846800Y-97631924D01*
X138846800Y-97631924D02*
X138751561Y-97727162D01*
X138751561Y-97727162D02*
X138561085Y-97822400D01*
X138561085Y-97822400D02*
X137989657Y-97822400D01*
X137989657Y-97822400D02*
X137799180Y-97727162D01*
X137799180Y-97727162D02*
X137703942Y-97631924D01*
X137703942Y-97631924D02*
X137608704Y-97441448D01*
X137608704Y-97441448D02*
X137608704Y-97155733D01*
X137608704Y-97155733D02*
X137703942Y-96965257D01*
X137703942Y-96965257D02*
X137799180Y-96870019D01*
X137799180Y-96870019D02*
X137989657Y-96774781D01*
X137989657Y-96774781D02*
X138561085Y-96774781D01*
X138561085Y-96774781D02*
X138751561Y-96870019D01*
X138751561Y-96870019D02*
X138846800Y-96965257D01*
X138846800Y-96965257D02*
X138942038Y-97155733D01*
X138942038Y-97155733D02*
X138942038Y-97441448D01*
X137608704Y-95917638D02*
X138942038Y-95917638D01*
X137799180Y-95917638D02*
X137703942Y-95822400D01*
X137703942Y-95822400D02*
X137608704Y-95631924D01*
X137608704Y-95631924D02*
X137608704Y-95346209D01*
X137608704Y-95346209D02*
X137703942Y-95155733D01*
X137703942Y-95155733D02*
X137894419Y-95060495D01*
X137894419Y-95060495D02*
X138942038Y-95060495D01*
X138942038Y-93822400D02*
X138846800Y-94012876D01*
X138846800Y-94012876D02*
X138656323Y-94108114D01*
X138656323Y-94108114D02*
X136942038Y-94108114D01*
X138942038Y-93060495D02*
X137608704Y-93060495D01*
X136942038Y-93060495D02*
X137037276Y-93155733D01*
X137037276Y-93155733D02*
X137132514Y-93060495D01*
X137132514Y-93060495D02*
X137037276Y-92965257D01*
X137037276Y-92965257D02*
X136942038Y-93060495D01*
X136942038Y-93060495D02*
X137132514Y-93060495D01*
X137608704Y-92108114D02*
X138942038Y-92108114D01*
X137799180Y-92108114D02*
X137703942Y-92012876D01*
X137703942Y-92012876D02*
X137608704Y-91822400D01*
X137608704Y-91822400D02*
X137608704Y-91536685D01*
X137608704Y-91536685D02*
X137703942Y-91346209D01*
X137703942Y-91346209D02*
X137894419Y-91250971D01*
X137894419Y-91250971D02*
X138942038Y-91250971D01*
X138846800Y-89536685D02*
X138942038Y-89727161D01*
X138942038Y-89727161D02*
X138942038Y-90108114D01*
X138942038Y-90108114D02*
X138846800Y-90298590D01*
X138846800Y-90298590D02*
X138656323Y-90393828D01*
X138656323Y-90393828D02*
X137894419Y-90393828D01*
X137894419Y-90393828D02*
X137703942Y-90298590D01*
X137703942Y-90298590D02*
X137608704Y-90108114D01*
X137608704Y-90108114D02*
X137608704Y-89727161D01*
X137608704Y-89727161D02*
X137703942Y-89536685D01*
X137703942Y-89536685D02*
X137894419Y-89441447D01*
X137894419Y-89441447D02*
X138084895Y-89441447D01*
X138084895Y-89441447D02*
X138275371Y-90393828D01*
X136846800Y-87155733D02*
X139418228Y-88870018D01*
X64806038Y-121060496D02*
X64806038Y-119727163D01*
X64806038Y-119727163D02*
X66806038Y-121060496D01*
X66806038Y-121060496D02*
X66806038Y-119727163D01*
X64806038Y-119155734D02*
X66806038Y-117822401D01*
X64806038Y-117822401D02*
X66806038Y-119155734D01*
X66710800Y-115631924D02*
X66806038Y-115346210D01*
X66806038Y-115346210D02*
X66806038Y-114870019D01*
X66806038Y-114870019D02*
X66710800Y-114679543D01*
X66710800Y-114679543D02*
X66615561Y-114584305D01*
X66615561Y-114584305D02*
X66425085Y-114489067D01*
X66425085Y-114489067D02*
X66234609Y-114489067D01*
X66234609Y-114489067D02*
X66044133Y-114584305D01*
X66044133Y-114584305D02*
X65948895Y-114679543D01*
X65948895Y-114679543D02*
X65853657Y-114870019D01*
X65853657Y-114870019D02*
X65758419Y-115250972D01*
X65758419Y-115250972D02*
X65663180Y-115441448D01*
X65663180Y-115441448D02*
X65567942Y-115536686D01*
X65567942Y-115536686D02*
X65377466Y-115631924D01*
X65377466Y-115631924D02*
X65186990Y-115631924D01*
X65186990Y-115631924D02*
X64996514Y-115536686D01*
X64996514Y-115536686D02*
X64901276Y-115441448D01*
X64901276Y-115441448D02*
X64806038Y-115250972D01*
X64806038Y-115250972D02*
X64806038Y-114774781D01*
X64806038Y-114774781D02*
X64901276Y-114489067D01*
X65472704Y-113631924D02*
X67472704Y-113631924D01*
X65567942Y-113631924D02*
X65472704Y-113441448D01*
X65472704Y-113441448D02*
X65472704Y-113060495D01*
X65472704Y-113060495D02*
X65567942Y-112870019D01*
X65567942Y-112870019D02*
X65663180Y-112774781D01*
X65663180Y-112774781D02*
X65853657Y-112679543D01*
X65853657Y-112679543D02*
X66425085Y-112679543D01*
X66425085Y-112679543D02*
X66615561Y-112774781D01*
X66615561Y-112774781D02*
X66710800Y-112870019D01*
X66710800Y-112870019D02*
X66806038Y-113060495D01*
X66806038Y-113060495D02*
X66806038Y-113441448D01*
X66806038Y-113441448D02*
X66710800Y-113631924D01*
X66710800Y-111060495D02*
X66806038Y-111250971D01*
X66806038Y-111250971D02*
X66806038Y-111631924D01*
X66806038Y-111631924D02*
X66710800Y-111822400D01*
X66710800Y-111822400D02*
X66520323Y-111917638D01*
X66520323Y-111917638D02*
X65758419Y-111917638D01*
X65758419Y-111917638D02*
X65567942Y-111822400D01*
X65567942Y-111822400D02*
X65472704Y-111631924D01*
X65472704Y-111631924D02*
X65472704Y-111250971D01*
X65472704Y-111250971D02*
X65567942Y-111060495D01*
X65567942Y-111060495D02*
X65758419Y-110965257D01*
X65758419Y-110965257D02*
X65948895Y-110965257D01*
X65948895Y-110965257D02*
X66139371Y-111917638D01*
X66710800Y-109250971D02*
X66806038Y-109441447D01*
X66806038Y-109441447D02*
X66806038Y-109822400D01*
X66806038Y-109822400D02*
X66710800Y-110012876D01*
X66710800Y-110012876D02*
X66615561Y-110108114D01*
X66615561Y-110108114D02*
X66425085Y-110203352D01*
X66425085Y-110203352D02*
X65853657Y-110203352D01*
X65853657Y-110203352D02*
X65663180Y-110108114D01*
X65663180Y-110108114D02*
X65567942Y-110012876D01*
X65567942Y-110012876D02*
X65472704Y-109822400D01*
X65472704Y-109822400D02*
X65472704Y-109441447D01*
X65472704Y-109441447D02*
X65567942Y-109250971D01*
X65472704Y-108679542D02*
X65472704Y-107917638D01*
X64806038Y-108393828D02*
X66520323Y-108393828D01*
X66520323Y-108393828D02*
X66710800Y-108298590D01*
X66710800Y-108298590D02*
X66806038Y-108108114D01*
X66806038Y-108108114D02*
X66806038Y-107917638D01*
X66806038Y-107250971D02*
X65472704Y-107250971D01*
X65853657Y-107250971D02*
X65663180Y-107155733D01*
X65663180Y-107155733D02*
X65567942Y-107060495D01*
X65567942Y-107060495D02*
X65472704Y-106870019D01*
X65472704Y-106870019D02*
X65472704Y-106679542D01*
X65472704Y-105155733D02*
X66806038Y-105155733D01*
X65472704Y-106012876D02*
X66520323Y-106012876D01*
X66520323Y-106012876D02*
X66710800Y-105917638D01*
X66710800Y-105917638D02*
X66806038Y-105727162D01*
X66806038Y-105727162D02*
X66806038Y-105441447D01*
X66806038Y-105441447D02*
X66710800Y-105250971D01*
X66710800Y-105250971D02*
X66615561Y-105155733D01*
X66806038Y-104203352D02*
X65472704Y-104203352D01*
X65663180Y-104203352D02*
X65567942Y-104108114D01*
X65567942Y-104108114D02*
X65472704Y-103917638D01*
X65472704Y-103917638D02*
X65472704Y-103631923D01*
X65472704Y-103631923D02*
X65567942Y-103441447D01*
X65567942Y-103441447D02*
X65758419Y-103346209D01*
X65758419Y-103346209D02*
X66806038Y-103346209D01*
X65758419Y-103346209D02*
X65567942Y-103250971D01*
X65567942Y-103250971D02*
X65472704Y-103060495D01*
X65472704Y-103060495D02*
X65472704Y-102774781D01*
X65472704Y-102774781D02*
X65567942Y-102584304D01*
X65567942Y-102584304D02*
X65758419Y-102489066D01*
X65758419Y-102489066D02*
X66806038Y-102489066D01*
X66806038Y-100012875D02*
X64806038Y-100012875D01*
X65472704Y-99060494D02*
X66806038Y-99060494D01*
X65663180Y-99060494D02*
X65567942Y-98965256D01*
X65567942Y-98965256D02*
X65472704Y-98774780D01*
X65472704Y-98774780D02*
X65472704Y-98489065D01*
X65472704Y-98489065D02*
X65567942Y-98298589D01*
X65567942Y-98298589D02*
X65758419Y-98203351D01*
X65758419Y-98203351D02*
X66806038Y-98203351D01*
X65472704Y-97536684D02*
X65472704Y-96774780D01*
X64806038Y-97250970D02*
X66520323Y-97250970D01*
X66520323Y-97250970D02*
X66710800Y-97155732D01*
X66710800Y-97155732D02*
X66806038Y-96965256D01*
X66806038Y-96965256D02*
X66806038Y-96774780D01*
X66710800Y-95346208D02*
X66806038Y-95536684D01*
X66806038Y-95536684D02*
X66806038Y-95917637D01*
X66806038Y-95917637D02*
X66710800Y-96108113D01*
X66710800Y-96108113D02*
X66520323Y-96203351D01*
X66520323Y-96203351D02*
X65758419Y-96203351D01*
X65758419Y-96203351D02*
X65567942Y-96108113D01*
X65567942Y-96108113D02*
X65472704Y-95917637D01*
X65472704Y-95917637D02*
X65472704Y-95536684D01*
X65472704Y-95536684D02*
X65567942Y-95346208D01*
X65567942Y-95346208D02*
X65758419Y-95250970D01*
X65758419Y-95250970D02*
X65948895Y-95250970D01*
X65948895Y-95250970D02*
X66139371Y-96203351D01*
X66806038Y-94393827D02*
X65472704Y-94393827D01*
X65853657Y-94393827D02*
X65663180Y-94298589D01*
X65663180Y-94298589D02*
X65567942Y-94203351D01*
X65567942Y-94203351D02*
X65472704Y-94012875D01*
X65472704Y-94012875D02*
X65472704Y-93822398D01*
X65472704Y-93155732D02*
X67472704Y-93155732D01*
X65567942Y-93155732D02*
X65472704Y-92965256D01*
X65472704Y-92965256D02*
X65472704Y-92584303D01*
X65472704Y-92584303D02*
X65567942Y-92393827D01*
X65567942Y-92393827D02*
X65663180Y-92298589D01*
X65663180Y-92298589D02*
X65853657Y-92203351D01*
X65853657Y-92203351D02*
X66425085Y-92203351D01*
X66425085Y-92203351D02*
X66615561Y-92298589D01*
X66615561Y-92298589D02*
X66710800Y-92393827D01*
X66710800Y-92393827D02*
X66806038Y-92584303D01*
X66806038Y-92584303D02*
X66806038Y-92965256D01*
X66806038Y-92965256D02*
X66710800Y-93155732D01*
X66806038Y-91346208D02*
X64806038Y-91346208D01*
X66806038Y-90489065D02*
X65758419Y-90489065D01*
X65758419Y-90489065D02*
X65567942Y-90584303D01*
X65567942Y-90584303D02*
X65472704Y-90774779D01*
X65472704Y-90774779D02*
X65472704Y-91060494D01*
X65472704Y-91060494D02*
X65567942Y-91250970D01*
X65567942Y-91250970D02*
X65663180Y-91346208D01*
X66806038Y-88679541D02*
X65758419Y-88679541D01*
X65758419Y-88679541D02*
X65567942Y-88774779D01*
X65567942Y-88774779D02*
X65472704Y-88965255D01*
X65472704Y-88965255D02*
X65472704Y-89346208D01*
X65472704Y-89346208D02*
X65567942Y-89536684D01*
X66710800Y-88679541D02*
X66806038Y-88870017D01*
X66806038Y-88870017D02*
X66806038Y-89346208D01*
X66806038Y-89346208D02*
X66710800Y-89536684D01*
X66710800Y-89536684D02*
X66520323Y-89631922D01*
X66520323Y-89631922D02*
X66329847Y-89631922D01*
X66329847Y-89631922D02*
X66139371Y-89536684D01*
X66139371Y-89536684D02*
X66044133Y-89346208D01*
X66044133Y-89346208D02*
X66044133Y-88870017D01*
X66044133Y-88870017D02*
X65948895Y-88679541D01*
X66710800Y-87822398D02*
X66806038Y-87631922D01*
X66806038Y-87631922D02*
X66806038Y-87250970D01*
X66806038Y-87250970D02*
X66710800Y-87060493D01*
X66710800Y-87060493D02*
X66520323Y-86965255D01*
X66520323Y-86965255D02*
X66425085Y-86965255D01*
X66425085Y-86965255D02*
X66234609Y-87060493D01*
X66234609Y-87060493D02*
X66139371Y-87250970D01*
X66139371Y-87250970D02*
X66139371Y-87536684D01*
X66139371Y-87536684D02*
X66044133Y-87727160D01*
X66044133Y-87727160D02*
X65853657Y-87822398D01*
X65853657Y-87822398D02*
X65758419Y-87822398D01*
X65758419Y-87822398D02*
X65567942Y-87727160D01*
X65567942Y-87727160D02*
X65472704Y-87536684D01*
X65472704Y-87536684D02*
X65472704Y-87250970D01*
X65472704Y-87250970D02*
X65567942Y-87060493D01*
X66710800Y-85346207D02*
X66806038Y-85536683D01*
X66806038Y-85536683D02*
X66806038Y-85917636D01*
X66806038Y-85917636D02*
X66710800Y-86108112D01*
X66710800Y-86108112D02*
X66520323Y-86203350D01*
X66520323Y-86203350D02*
X65758419Y-86203350D01*
X65758419Y-86203350D02*
X65567942Y-86108112D01*
X65567942Y-86108112D02*
X65472704Y-85917636D01*
X65472704Y-85917636D02*
X65472704Y-85536683D01*
X65472704Y-85536683D02*
X65567942Y-85346207D01*
X65567942Y-85346207D02*
X65758419Y-85250969D01*
X65758419Y-85250969D02*
X65948895Y-85250969D01*
X65948895Y-85250969D02*
X66139371Y-86203350D01*
D11*
X73832819Y-90503333D02*
X74547104Y-90503333D01*
X74547104Y-90503333D02*
X74689961Y-90550952D01*
X74689961Y-90550952D02*
X74785200Y-90646190D01*
X74785200Y-90646190D02*
X74832819Y-90789047D01*
X74832819Y-90789047D02*
X74832819Y-90884285D01*
X74832819Y-89503333D02*
X74832819Y-90074761D01*
X74832819Y-89789047D02*
X73832819Y-89789047D01*
X73832819Y-89789047D02*
X73975676Y-89884285D01*
X73975676Y-89884285D02*
X74070914Y-89979523D01*
X74070914Y-89979523D02*
X74118533Y-90074761D01*
D12*
%TO.C,J1*%
X75378000Y-87570000D02*
X126298000Y-87570000D01*
X75378000Y-90170000D02*
X75378000Y-87570000D01*
X75378000Y-92770000D02*
X75378000Y-91440000D01*
X76708000Y-92770000D02*
X75378000Y-92770000D01*
X77978000Y-90170000D02*
X75378000Y-90170000D01*
X77978000Y-92770000D02*
X77978000Y-90170000D01*
X77978000Y-92770000D02*
X126298000Y-92770000D01*
X126298000Y-92770000D02*
X126298000Y-87570000D01*
%TD*%
M02*
