%TF.GenerationSoftware,KiCad,Pcbnew,8.0.5*%
%TF.CreationDate,2024-10-04T15:37:23-04:00*%
%TF.ProjectId,ZX Spectrum Adapter,5a582053-7065-4637-9472-756d20416461,rev?*%
%TF.SameCoordinates,Original*%
%TF.FileFunction,Copper,L1,Top*%
%TF.FilePolarity,Positive*%
%FSLAX46Y46*%
G04 Gerber Fmt 4.6, Leading zero omitted, Abs format (unit mm)*
G04 Created by KiCad (PCBNEW 8.0.5) date 2024-10-04 15:37:23*
%MOMM*%
%LPD*%
G01*
G04 APERTURE LIST*
%TA.AperFunction,ComponentPad*%
%ADD10R,1.700000X1.700000*%
%TD*%
%TA.AperFunction,ComponentPad*%
%ADD11O,1.700000X1.700000*%
%TD*%
%TA.AperFunction,ComponentPad*%
%ADD12C,1.778000*%
%TD*%
%TA.AperFunction,ViaPad*%
%ADD13C,0.600000*%
%TD*%
%TA.AperFunction,Conductor*%
%ADD14C,0.300000*%
%TD*%
%TA.AperFunction,Conductor*%
%ADD15C,0.500000*%
%TD*%
G04 APERTURE END LIST*
D10*
%TO.P,J1,1,Pin_1*%
%TO.N,/Z80_A0*%
X76708000Y-91440000D03*
D11*
%TO.P,J1,2,Pin_2*%
%TO.N,/Z80_A1*%
X76708000Y-88900000D03*
%TO.P,J1,3,Pin_3*%
%TO.N,/Z80_A2*%
X79248000Y-91440000D03*
%TO.P,J1,4,Pin_4*%
%TO.N,/Z80_A3*%
X79248000Y-88900000D03*
%TO.P,J1,5,Pin_5*%
%TO.N,/Z80_A4*%
X81788000Y-91440000D03*
%TO.P,J1,6,Pin_6*%
%TO.N,/Z80_A5*%
X81788000Y-88900000D03*
%TO.P,J1,7,Pin_7*%
%TO.N,/Z80_A6*%
X84328000Y-91440000D03*
%TO.P,J1,8,Pin_8*%
%TO.N,/Z80_A7*%
X84328000Y-88900000D03*
%TO.P,J1,9,Pin_9*%
%TO.N,/Z80_D0*%
X86868000Y-91440000D03*
%TO.P,J1,10,Pin_10*%
%TO.N,/Z80_D1*%
X86868000Y-88900000D03*
%TO.P,J1,11,Pin_11*%
%TO.N,/Z80_D2*%
X89408000Y-91440000D03*
%TO.P,J1,12,Pin_12*%
%TO.N,/Z80_D3*%
X89408000Y-88900000D03*
%TO.P,J1,13,Pin_13*%
%TO.N,/Z80_D4*%
X91948000Y-91440000D03*
%TO.P,J1,14,Pin_14*%
%TO.N,/Z80_D5*%
X91948000Y-88900000D03*
%TO.P,J1,15,Pin_15*%
%TO.N,/Z80_D6*%
X94488000Y-91440000D03*
%TO.P,J1,16,Pin_16*%
%TO.N,/Z80_D7*%
X94488000Y-88900000D03*
%TO.P,J1,17,Pin_17*%
%TO.N,/SPARE1*%
X97028000Y-91440000D03*
%TO.P,J1,18,Pin_18*%
%TO.N,/SPARE2*%
X97028000Y-88900000D03*
%TO.P,J1,19,Pin_19*%
%TO.N,/SPARE3*%
X99568000Y-91440000D03*
%TO.P,J1,20,Pin_20*%
%TO.N,/5V*%
X99568000Y-88900000D03*
%TO.P,J1,21,Pin_21*%
%TO.N,/GND*%
X102108000Y-91440000D03*
%TO.P,J1,22,Pin_22*%
%TO.N,/SPARE4*%
X102108000Y-88900000D03*
%TO.P,J1,23,Pin_23*%
%TO.N,/RESET*%
X104648000Y-91440000D03*
%TO.P,J1,24,Pin_24*%
%TO.N,/BUSACK*%
X104648000Y-88900000D03*
%TO.P,J1,25,Pin_25*%
%TO.N,/ROMCS*%
X107188000Y-91440000D03*
%TO.P,J1,26,Pin_26*%
%TO.N,/NMI*%
X107188000Y-88900000D03*
%TO.P,J1,27,Pin_27*%
%TO.N,/WAIT*%
X109728000Y-91440000D03*
%TO.P,J1,28,Pin_28*%
%TO.N,/BUSRQ*%
X109728000Y-88900000D03*
%TO.P,J1,29,Pin_29*%
%TO.N,/MEMRQ*%
X112268000Y-91440000D03*
%TO.P,J1,30,Pin_30*%
%TO.N,/IORQ*%
X112268000Y-88900000D03*
%TO.P,J1,31,Pin_31*%
%TO.N,/RW*%
X114808000Y-91440000D03*
%TO.P,J1,32,Pin_32*%
%TO.N,/RD*%
X114808000Y-88900000D03*
%TO.P,J1,33,Pin_33*%
%TO.N,/Z80_A8*%
X117348000Y-91440000D03*
%TO.P,J1,34,Pin_34*%
%TO.N,/Z80_A9*%
X117348000Y-88900000D03*
%TO.P,J1,35,Pin_35*%
%TO.N,/Z80_A10*%
X119888000Y-91440000D03*
%TO.P,J1,36,Pin_36*%
%TO.N,/Z80_A11*%
X119888000Y-88900000D03*
%TO.P,J1,37,Pin_37*%
%TO.N,/Z80_A12*%
X122428000Y-91440000D03*
%TO.P,J1,38,Pin_38*%
%TO.N,/Z80_A13*%
X122428000Y-88900000D03*
%TO.P,J1,39,Pin_39*%
%TO.N,/Z80_A14*%
X124968000Y-91440000D03*
%TO.P,J1,40,Pin_40*%
%TO.N,/Z80_A15*%
X124968000Y-88900000D03*
%TD*%
D12*
%TO.P,J2,A1,A14*%
%TO.N,/Z80_A14*%
X66040000Y-124460000D03*
%TO.P,J2,A2,A12*%
%TO.N,/Z80_A12*%
X68580000Y-124460000D03*
%TO.P,J2,A3,+5Vcc*%
%TO.N,/5V*%
X71120000Y-124460000D03*
%TO.P,J2,A4,+9Vcc*%
%TO.N,unconnected-(J2-+9Vcc-PadA4)*%
X73660000Y-124460000D03*
%TO.P,J2,A6,GND*%
%TO.N,/GND*%
X78740000Y-124460000D03*
%TO.P,J2,A7,GND*%
X81280000Y-124460000D03*
%TO.P,J2,A8,CLOCK*%
%TO.N,unconnected-(J2-CLOCK-PadA8)*%
X83820000Y-124460000D03*
%TO.P,J2,A9,A0*%
%TO.N,/Z80_A0*%
X86360000Y-124460000D03*
%TO.P,J2,A10,A1*%
%TO.N,/Z80_A1*%
X88900000Y-124460000D03*
%TO.P,J2,A11,A2*%
%TO.N,/Z80_A2*%
X91440000Y-124460000D03*
%TO.P,J2,A12,A3*%
%TO.N,/Z80_A3*%
X93980000Y-124460000D03*
%TO.P,J2,A13,IORQGE*%
%TO.N,unconnected-(J2-IORQGE-PadA13)*%
X96520000Y-124460000D03*
%TO.P,J2,A14,GND*%
%TO.N,/GND*%
X99060000Y-124460000D03*
%TO.P,J2,A15,VIDEO*%
%TO.N,unconnected-(J2-VIDEO-PadA15)*%
X101600000Y-124460000D03*
%TO.P,J2,A16,Y*%
%TO.N,unconnected-(J2-Y-PadA16)*%
X104140000Y-124460000D03*
%TO.P,J2,A17,V*%
%TO.N,unconnected-(J2-V-PadA17)*%
X106680000Y-124460000D03*
%TO.P,J2,A18,U*%
%TO.N,unconnected-(J2-U-PadA18)*%
X109220000Y-124460000D03*
%TO.P,J2,A19,BUSRQ*%
%TO.N,/BUSRQ*%
X111760000Y-124460000D03*
%TO.P,J2,A20,~{RESET}*%
%TO.N,/RESET*%
X114300000Y-124460000D03*
%TO.P,J2,A21,A7*%
%TO.N,/Z80_A7*%
X116840000Y-124460000D03*
%TO.P,J2,A22,A6*%
%TO.N,/Z80_A6*%
X119380000Y-124460000D03*
%TO.P,J2,A23,A5*%
%TO.N,/Z80_A5*%
X121920000Y-124460000D03*
%TO.P,J2,A24,A4*%
%TO.N,/Z80_A4*%
X124460000Y-124460000D03*
%TO.P,J2,A25,~{ROMCS}*%
%TO.N,/ROMCS*%
X127000000Y-124460000D03*
%TO.P,J2,A26,BUSACK*%
%TO.N,/BUSACK*%
X129540000Y-124460000D03*
%TO.P,J2,A27,A9*%
%TO.N,/Z80_A9*%
X132080000Y-124460000D03*
%TO.P,J2,A28,A11*%
%TO.N,/Z80_A11*%
X134620000Y-124460000D03*
%TO.P,J2,B1,A15*%
%TO.N,/Z80_A15*%
X66040000Y-129540000D03*
%TO.P,J2,B2,A13*%
%TO.N,/Z80_A13*%
X68580000Y-129540000D03*
%TO.P,J2,B3,D7*%
%TO.N,/Z80_D7*%
X71120000Y-129540000D03*
%TO.P,J2,B4,N/C*%
%TO.N,unconnected-(J2-N{slash}C-PadB4)*%
X73660000Y-129540000D03*
%TO.P,J2,B6,D0*%
%TO.N,/Z80_D0*%
X78740000Y-129540000D03*
%TO.P,J2,B7,D1*%
%TO.N,/Z80_D1*%
X81280000Y-129540000D03*
%TO.P,J2,B8,D2*%
%TO.N,/Z80_D2*%
X83820000Y-129540000D03*
%TO.P,J2,B9,D6*%
%TO.N,/Z80_D6*%
X86360000Y-129540000D03*
%TO.P,J2,B10,D5*%
%TO.N,/Z80_D5*%
X88900000Y-129540000D03*
%TO.P,J2,B11,D3*%
%TO.N,/Z80_D3*%
X91440000Y-129540000D03*
%TO.P,J2,B12,D4*%
%TO.N,/Z80_D4*%
X93980000Y-129540000D03*
%TO.P,J2,B13,~{INT}*%
%TO.N,unconnected-(J2-~{INT}-PadB13)*%
X96520000Y-129540000D03*
%TO.P,J2,B14,~{NMI}*%
%TO.N,/NMI*%
X99060000Y-129540000D03*
%TO.P,J2,B15,HALT*%
%TO.N,unconnected-(J2-HALT-PadB15)*%
X101600000Y-129540000D03*
%TO.P,J2,B16,MREQ*%
%TO.N,/MEMRQ*%
X104140000Y-129540000D03*
%TO.P,J2,B17,IOREQ*%
%TO.N,/IORQ*%
X106680000Y-129540000D03*
%TO.P,J2,B18,RD*%
%TO.N,/RD*%
X109220000Y-129540000D03*
%TO.P,J2,B19,WR*%
%TO.N,/RW*%
X111760000Y-129540000D03*
%TO.P,J2,B20,-5Vcc*%
%TO.N,unconnected-(J2--5Vcc-PadB20)*%
X114300000Y-129540000D03*
%TO.P,J2,B21,WAIT*%
%TO.N,/WAIT*%
X116840000Y-129540000D03*
%TO.P,J2,B22,+12Vcc*%
%TO.N,unconnected-(J2-+12Vcc-PadB22)*%
X119380000Y-129540000D03*
%TO.P,J2,B23,12Vac*%
%TO.N,unconnected-(J2-12Vac-PadB23)*%
X121920000Y-129540000D03*
%TO.P,J2,B24,M1*%
%TO.N,unconnected-(J2-M1-PadB24)*%
X124460000Y-129540000D03*
%TO.P,J2,B25,RFSH*%
%TO.N,unconnected-(J2-RFSH-PadB25)*%
X127000000Y-129540000D03*
%TO.P,J2,B26,A8*%
%TO.N,/Z80_A8*%
X129540000Y-129540000D03*
%TO.P,J2,B27,A10*%
%TO.N,/Z80_A10*%
X132080000Y-129540000D03*
%TO.P,J2,B28,N/C*%
%TO.N,unconnected-(J2-N{slash}C-PadB28)*%
X134620000Y-129540000D03*
%TD*%
D13*
%TO.N,/Z80_A3*%
X93517200Y-100670600D03*
%TO.N,/ROMCS*%
X107188000Y-103634400D03*
%TO.N,/Z80_A2*%
X90632400Y-102716600D03*
%TO.N,/MEMRQ*%
X111466400Y-108779600D03*
%TO.N,/Z80_A0*%
X83256000Y-99189700D03*
%TO.N,/Z80_A4*%
X119480900Y-94522700D03*
%TO.N,/Z80_A6*%
X116827800Y-93752800D03*
%TO.N,/Z80_A7*%
X115453100Y-93044300D03*
%TD*%
D14*
%TO.N,/Z80_A15*%
X113989200Y-101859500D02*
X94446900Y-101859500D01*
X123698000Y-90998200D02*
X123698000Y-92150700D01*
X69258500Y-126321500D02*
X66040000Y-129540000D01*
X72360700Y-123945700D02*
X72360700Y-124974000D01*
X124968000Y-88900000D02*
X124968000Y-90101700D01*
X71013200Y-126321500D02*
X69258500Y-126321500D01*
X94446900Y-101859500D02*
X72360700Y-123945700D01*
X124968000Y-90101700D02*
X124594500Y-90101700D01*
X72360700Y-124974000D02*
X71013200Y-126321500D01*
X123698000Y-92150700D02*
X113989200Y-101859500D01*
X124594500Y-90101700D02*
X123698000Y-90998200D01*
D15*
%TO.N,/GND*%
X81280000Y-124460000D02*
X78740000Y-124460000D01*
X99060000Y-124460000D02*
X97645800Y-125874200D01*
X97645800Y-125874200D02*
X82694200Y-125874200D01*
X82694200Y-125874200D02*
X81280000Y-124460000D01*
D14*
%TO.N,/Z80_A12*%
X113747400Y-101322300D02*
X122428000Y-92641700D01*
X68580000Y-124460000D02*
X89671700Y-103368300D01*
X90902300Y-103368300D02*
X92948300Y-101322300D01*
X122428000Y-91440000D02*
X122428000Y-92641700D01*
X92948300Y-101322300D02*
X113747400Y-101322300D01*
X89671700Y-103368300D02*
X90902300Y-103368300D01*
%TO.N,/Z80_A3*%
X80518000Y-91934900D02*
X80518000Y-90998200D01*
X80518000Y-90998200D02*
X79621500Y-90101700D01*
X79621500Y-90101700D02*
X79248000Y-90101700D01*
X89253700Y-100670600D02*
X80518000Y-91934900D01*
X93517200Y-100670600D02*
X89253700Y-100670600D01*
X79248000Y-88900000D02*
X79248000Y-90101700D01*
%TO.N,/ROMCS*%
X127000000Y-123373000D02*
X107261400Y-103634400D01*
X107261400Y-103634400D02*
X107188000Y-103634400D01*
X127000000Y-124460000D02*
X127000000Y-123373000D01*
%TO.N,/BUSACK*%
X129540000Y-90993400D02*
X125740600Y-87194000D01*
X125740600Y-87194000D02*
X107182200Y-87194000D01*
X107182200Y-87194000D02*
X105849700Y-88526500D01*
X104648000Y-88900000D02*
X105849700Y-88900000D01*
X105849700Y-88526500D02*
X105849700Y-88900000D01*
X129540000Y-124460000D02*
X129540000Y-90993400D01*
%TO.N,/Z80_A2*%
X90524600Y-102716600D02*
X79248000Y-91440000D01*
X90632400Y-102716600D02*
X90524600Y-102716600D01*
%TO.N,/Z80_A5*%
X82989700Y-88900000D02*
X82989700Y-88524500D01*
X130810000Y-91487100D02*
X130810000Y-125010900D01*
X130075600Y-125745300D02*
X123205300Y-125745300D01*
X125998000Y-86675100D02*
X130810000Y-91487100D01*
X82989700Y-88524500D02*
X84839100Y-86675100D01*
X81788000Y-88900000D02*
X82989700Y-88900000D01*
X130810000Y-125010900D02*
X130075600Y-125745300D01*
X123205300Y-125745300D02*
X121920000Y-124460000D01*
X84839100Y-86675100D02*
X125998000Y-86675100D01*
%TO.N,/MEMRQ*%
X104140000Y-129540000D02*
X105410000Y-128270000D01*
X105410000Y-114836000D02*
X111466400Y-108779600D01*
X105410000Y-128270000D02*
X105410000Y-114836000D01*
%TO.N,/Z80_A0*%
X83256000Y-99189700D02*
X76708000Y-92641700D01*
X76708000Y-91440000D02*
X76708000Y-92641700D01*
%TO.N,/Z80_A4*%
X81788000Y-91440000D02*
X82989700Y-91440000D01*
X82989700Y-91815500D02*
X85696900Y-94522700D01*
X85696900Y-94522700D02*
X119480900Y-94522700D01*
X82989700Y-91440000D02*
X82989700Y-91815500D01*
%TO.N,/Z80_A6*%
X84328000Y-91440000D02*
X85529700Y-91440000D01*
X85529700Y-91813500D02*
X87469000Y-93752800D01*
X87469000Y-93752800D02*
X116827800Y-93752800D01*
X85529700Y-91440000D02*
X85529700Y-91813500D01*
%TO.N,/Z80_A13*%
X97657800Y-102944800D02*
X115188000Y-102944800D01*
X126212100Y-91920700D02*
X126212100Y-88410800D01*
X70618300Y-127501700D02*
X73100900Y-127501700D01*
X124458500Y-87697700D02*
X123629700Y-88526500D01*
X68580000Y-129540000D02*
X70618300Y-127501700D01*
X126212100Y-88410800D02*
X125499000Y-87697700D01*
X125499000Y-87697700D02*
X124458500Y-87697700D01*
X73100900Y-127501700D02*
X97657800Y-102944800D01*
X115188000Y-102944800D02*
X126212100Y-91920700D01*
X122428000Y-88900000D02*
X123629700Y-88900000D01*
X123629700Y-88526500D02*
X123629700Y-88900000D01*
%TO.N,/Z80_A14*%
X72893200Y-127000000D02*
X97450100Y-102443100D01*
X64794000Y-130107200D02*
X65504000Y-130817200D01*
X66040000Y-124460000D02*
X64794000Y-125706000D01*
X124968000Y-91658500D02*
X124968000Y-91440000D01*
X67339300Y-130047800D02*
X67339300Y-128988200D01*
X65504000Y-130817200D02*
X66569900Y-130817200D01*
X97450100Y-102443100D02*
X114183400Y-102443100D01*
X69327500Y-127000000D02*
X72893200Y-127000000D01*
X64794000Y-125706000D02*
X64794000Y-130107200D01*
X66569900Y-130817200D02*
X67339300Y-130047800D01*
X67339300Y-128988200D02*
X69327500Y-127000000D01*
X114183400Y-102443100D02*
X124968000Y-91658500D01*
%TO.N,/Z80_A7*%
X86370200Y-90101700D02*
X85529800Y-89261300D01*
X88069700Y-90929800D02*
X87241600Y-90101700D01*
X88069700Y-91841000D02*
X88069700Y-90929800D01*
X115453100Y-93044300D02*
X89273000Y-93044300D01*
X84328000Y-88900000D02*
X85529700Y-88900000D01*
X89273000Y-93044300D02*
X88069700Y-91841000D01*
X85529800Y-89261300D02*
X85529800Y-88900000D01*
X85529800Y-88900000D02*
X85529700Y-88900000D01*
X87241600Y-90101700D02*
X86370200Y-90101700D01*
%TD*%
M02*
