%TF.GenerationSoftware,KiCad,Pcbnew,8.0.5*%
%TF.CreationDate,2024-10-04T15:35:42-04:00*%
%TF.ProjectId,TS 2068 Adapter,54532032-3036-4382-9041-646170746572,rev?*%
%TF.SameCoordinates,Original*%
%TF.FileFunction,Copper,L1,Top*%
%TF.FilePolarity,Positive*%
%FSLAX46Y46*%
G04 Gerber Fmt 4.6, Leading zero omitted, Abs format (unit mm)*
G04 Created by KiCad (PCBNEW 8.0.5) date 2024-10-04 15:35:42*
%MOMM*%
%LPD*%
G01*
G04 APERTURE LIST*
%TA.AperFunction,ComponentPad*%
%ADD10R,1.700000X1.700000*%
%TD*%
%TA.AperFunction,ComponentPad*%
%ADD11O,1.700000X1.700000*%
%TD*%
%TA.AperFunction,ViaPad*%
%ADD12C,0.600000*%
%TD*%
%TA.AperFunction,Conductor*%
%ADD13C,0.300000*%
%TD*%
%TA.AperFunction,Conductor*%
%ADD14C,0.400000*%
%TD*%
G04 APERTURE END LIST*
D10*
%TO.P,J1,1,Pin_1*%
%TO.N,/Z80_A0*%
X77724000Y-97536000D03*
D11*
%TO.P,J1,2,Pin_2*%
%TO.N,/Z80_A1*%
X77724000Y-94996000D03*
%TO.P,J1,3,Pin_3*%
%TO.N,/Z80_A2*%
X80264000Y-97536000D03*
%TO.P,J1,4,Pin_4*%
%TO.N,/Z80_A3*%
X80264000Y-94996000D03*
%TO.P,J1,5,Pin_5*%
%TO.N,/Z80_A4*%
X82804000Y-97536000D03*
%TO.P,J1,6,Pin_6*%
%TO.N,/Z80_A5*%
X82804000Y-94996000D03*
%TO.P,J1,7,Pin_7*%
%TO.N,/Z80_A6*%
X85344000Y-97536000D03*
%TO.P,J1,8,Pin_8*%
%TO.N,/Z80_A7*%
X85344000Y-94996000D03*
%TO.P,J1,9,Pin_9*%
%TO.N,/Z80_D0*%
X87884000Y-97536000D03*
%TO.P,J1,10,Pin_10*%
%TO.N,/Z80_D1*%
X87884000Y-94996000D03*
%TO.P,J1,11,Pin_11*%
%TO.N,/Z80_D2*%
X90424000Y-97536000D03*
%TO.P,J1,12,Pin_12*%
%TO.N,/Z80_D3*%
X90424000Y-94996000D03*
%TO.P,J1,13,Pin_13*%
%TO.N,/Z80_D4*%
X92964000Y-97536000D03*
%TO.P,J1,14,Pin_14*%
%TO.N,/Z80_D5*%
X92964000Y-94996000D03*
%TO.P,J1,15,Pin_15*%
%TO.N,/Z80_D6*%
X95504000Y-97536000D03*
%TO.P,J1,16,Pin_16*%
%TO.N,/Z80_D7*%
X95504000Y-94996000D03*
%TO.P,J1,17,Pin_17*%
%TO.N,/SPARE1*%
X98044000Y-97536000D03*
%TO.P,J1,18,Pin_18*%
%TO.N,/SPARE2*%
X98044000Y-94996000D03*
%TO.P,J1,19,Pin_19*%
%TO.N,/SPARE3*%
X100584000Y-97536000D03*
%TO.P,J1,20,Pin_20*%
%TO.N,/5V*%
X100584000Y-94996000D03*
%TO.P,J1,21,Pin_21*%
%TO.N,/GND*%
X103124000Y-97536000D03*
%TO.P,J1,22,Pin_22*%
%TO.N,/SPARE4*%
X103124000Y-94996000D03*
%TO.P,J1,23,Pin_23*%
%TO.N,/RESET*%
X105664000Y-97536000D03*
%TO.P,J1,24,Pin_24*%
%TO.N,/BUSACK*%
X105664000Y-94996000D03*
%TO.P,J1,25,Pin_25*%
%TO.N,/ROMCS*%
X108204000Y-97536000D03*
%TO.P,J1,26,Pin_26*%
%TO.N,/NMI*%
X108204000Y-94996000D03*
%TO.P,J1,27,Pin_27*%
%TO.N,/WAIT*%
X110744000Y-97536000D03*
%TO.P,J1,28,Pin_28*%
%TO.N,/BUSRQ*%
X110744000Y-94996000D03*
%TO.P,J1,29,Pin_29*%
%TO.N,/MEMRQ*%
X113284000Y-97536000D03*
%TO.P,J1,30,Pin_30*%
%TO.N,/IORQ*%
X113284000Y-94996000D03*
%TO.P,J1,31,Pin_31*%
%TO.N,/RW*%
X115824000Y-97536000D03*
%TO.P,J1,32,Pin_32*%
%TO.N,/RD*%
X115824000Y-94996000D03*
%TO.P,J1,33,Pin_33*%
%TO.N,/Z80_A8*%
X118364000Y-97536000D03*
%TO.P,J1,34,Pin_34*%
%TO.N,/Z80_A9*%
X118364000Y-94996000D03*
%TO.P,J1,35,Pin_35*%
%TO.N,/Z80_A10*%
X120904000Y-97536000D03*
%TO.P,J1,36,Pin_36*%
%TO.N,/Z80_A11*%
X120904000Y-94996000D03*
%TO.P,J1,37,Pin_37*%
%TO.N,/Z80_A12*%
X123444000Y-97536000D03*
%TO.P,J1,38,Pin_38*%
%TO.N,/Z80_A13*%
X123444000Y-94996000D03*
%TO.P,J1,39,Pin_39*%
%TO.N,/Z80_A14*%
X125984000Y-97536000D03*
%TO.P,J1,40,Pin_40*%
%TO.N,/Z80_A15*%
X125984000Y-94996000D03*
%TD*%
D10*
%TO.P,U1,1,Gnd*%
%TO.N,unconnected-(U1-Gnd-Pad1)*%
X62484000Y-144780000D03*
D11*
%TO.P,U1,2,Gnd*%
%TO.N,unconnected-(U1-Gnd-Pad2)*%
X62484000Y-147320000D03*
%TO.P,U1,3,EAR*%
%TO.N,unconnected-(U1-EAR-Pad3)*%
X65024000Y-144780000D03*
%TO.P,U1,4,SPKR/TAPE*%
%TO.N,unconnected-(U1-SPKR{slash}TAPE-Pad4)*%
X65024000Y-147320000D03*
%TO.P,U1,5,A7RB*%
%TO.N,unconnected-(U1-A7RB-Pad5)*%
X67564000Y-144780000D03*
%TO.P,U1,6,15V*%
%TO.N,unconnected-(U1-15V-Pad6)*%
X67564000Y-147320000D03*
%TO.P,U1,7,D7*%
%TO.N,/Z80_D7*%
X70104000Y-144780000D03*
%TO.P,U1,8,5V*%
%TO.N,/5V*%
X70104000Y-147320000D03*
%TO.P,U1,9,DZIN*%
%TO.N,unconnected-(U1-DZIN-Pad9)*%
X72644000Y-144780000D03*
%TO.P,U1,10*%
%TO.N,N/C*%
X72644000Y-147320000D03*
%TO.P,U1,11*%
X75184000Y-144780000D03*
%TO.P,U1,12*%
X75184000Y-147320000D03*
%TO.P,U1,13,D0*%
%TO.N,/Z80_D0*%
X77724000Y-144780000D03*
%TO.P,U1,14,PWR_GND*%
%TO.N,/GND*%
X77724000Y-147320000D03*
%TO.P,U1,15,D1*%
%TO.N,/Z80_D1*%
X80264000Y-144780000D03*
%TO.P,U1,16,PWR_GND*%
%TO.N,/GND*%
X80264000Y-147320000D03*
%TO.P,U1,17,D2*%
%TO.N,/Z80_D2*%
X82804000Y-144780000D03*
%TO.P,U1,18,CLK*%
%TO.N,unconnected-(U1-CLK-Pad18)*%
X82804000Y-147320000D03*
%TO.P,U1,19,D6*%
%TO.N,/Z80_D6*%
X85344000Y-144780000D03*
%TO.P,U1,20,A0*%
%TO.N,/Z80_A0*%
X85344000Y-147320000D03*
%TO.P,U1,21,D5*%
%TO.N,/Z80_D5*%
X87884000Y-144780000D03*
%TO.P,U1,22,A1*%
%TO.N,/Z80_A1*%
X87884000Y-147320000D03*
%TO.P,U1,23,D3*%
%TO.N,/Z80_D3*%
X90424000Y-144780000D03*
%TO.P,U1,24,A2*%
%TO.N,/Z80_A2*%
X90424000Y-147320000D03*
%TO.P,U1,25,A13*%
%TO.N,/Z80_A13*%
X92964000Y-144780000D03*
%TO.P,U1,26,A3*%
%TO.N,/Z80_A3*%
X92964000Y-147320000D03*
%TO.P,U1,27,/INT*%
%TO.N,unconnected-(U1-{slash}INT-Pad27)*%
X95504000Y-144780000D03*
%TO.P,U1,28,A14*%
%TO.N,/Z80_A14*%
X95504000Y-147320000D03*
%TO.P,U1,29,/NMI*%
%TO.N,/NMI*%
X98044000Y-144780000D03*
%TO.P,U1,30,A15*%
%TO.N,/Z80_A15*%
X98044000Y-147320000D03*
%TO.P,U1,31,/HALT*%
%TO.N,unconnected-(U1-{slash}HALT-Pad31)*%
X100584000Y-144780000D03*
%TO.P,U1,32*%
%TO.N,N/C*%
X100584000Y-147320000D03*
%TO.P,U1,33,/MEMRQB*%
%TO.N,/MEMRQ*%
X103124000Y-144780000D03*
%TO.P,U1,34,A12*%
%TO.N,/Z80_A12*%
X103124000Y-147320000D03*
%TO.P,U1,35,/IORQB*%
%TO.N,/IORQ*%
X105664000Y-144780000D03*
%TO.P,U1,36,A11*%
%TO.N,/Z80_A11*%
X105664000Y-147320000D03*
%TO.P,U1,37,RDB*%
%TO.N,/RD*%
X108204000Y-144780000D03*
%TO.P,U1,38,A10*%
%TO.N,/Z80_A10*%
X108204000Y-147320000D03*
%TO.P,U1,39,WRB*%
%TO.N,/RW*%
X110744000Y-144780000D03*
%TO.P,U1,40,A9*%
%TO.N,/Z80_A9*%
X110744000Y-147320000D03*
%TO.P,U1,41,/BUSAK*%
%TO.N,/BUSACK*%
X113284000Y-144780000D03*
%TO.P,U1,42,A8*%
%TO.N,/Z80_A8*%
X113284000Y-147320000D03*
%TO.P,U1,43,/WAIT*%
%TO.N,/WAIT*%
X115824000Y-144780000D03*
%TO.P,U1,44,A7*%
%TO.N,/Z80_A7*%
X115824000Y-147320000D03*
%TO.P,U1,45,/BUSRQ*%
%TO.N,/BUSRQ*%
X118364000Y-144780000D03*
%TO.P,U1,46,A6*%
%TO.N,/Z80_A6*%
X118364000Y-147320000D03*
%TO.P,U1,47,/RESET*%
%TO.N,/RESET*%
X120904000Y-144780000D03*
%TO.P,U1,48,A5*%
%TO.N,/Z80_A5*%
X120904000Y-147320000D03*
%TO.P,U1,49,/M1*%
%TO.N,unconnected-(U1-{slash}M1-Pad49)*%
X123444000Y-144780000D03*
%TO.P,U1,50,A4*%
%TO.N,/Z80_A4*%
X123444000Y-147320000D03*
%TO.P,U1,51,/RFSHB*%
%TO.N,unconnected-(U1-{slash}RFSHB-Pad51)*%
X125984000Y-144780000D03*
%TO.P,U1,52,DZOUT*%
%TO.N,unconnected-(U1-DZOUT-Pad52)*%
X125984000Y-147320000D03*
%TO.P,U1,53,/EXROM*%
%TO.N,/ROMCS*%
X128524000Y-144780000D03*
%TO.P,U1,54,RGB_RD*%
%TO.N,unconnected-(U1-RGB_RD-Pad54)*%
X128524000Y-147320000D03*
%TO.P,U1,55,/ROSCS*%
%TO.N,/SPARE3*%
X131064000Y-144780000D03*
%TO.P,U1,56,RGB_GRN*%
%TO.N,unconnected-(U1-RGB_GRN-Pad56)*%
X131064000Y-147320000D03*
%TO.P,U1,57,/BE*%
%TO.N,/SPARE2*%
X133604000Y-144780000D03*
%TO.P,U1,58,RGB_BLU*%
%TO.N,unconnected-(U1-RGB_BLU-Pad58)*%
X133604000Y-147320000D03*
%TO.P,U1,59,IOA5*%
%TO.N,unconnected-(U1-IOA5-Pad59)*%
X136144000Y-144780000D03*
%TO.P,U1,60,BUSISO*%
%TO.N,/SPARE1*%
X136144000Y-147320000D03*
%TO.P,U1,61,Sound*%
%TO.N,unconnected-(U1-Sound-Pad61)*%
X138684000Y-144780000D03*
%TO.P,U1,62,Video*%
%TO.N,unconnected-(U1-Video-Pad62)*%
X138684000Y-147320000D03*
%TO.P,U1,63,Gnd*%
%TO.N,unconnected-(U1-Gnd-Pad63)*%
X141224000Y-144780000D03*
%TO.P,U1,64,Gnd*%
%TO.N,unconnected-(U1-Gnd-Pad64)*%
X141224000Y-147320000D03*
%TD*%
D12*
%TO.N,/Z80_A9*%
X107239100Y-139758600D03*
%TO.N,/WAIT*%
X108895100Y-135264700D03*
%TO.N,/Z80_D3*%
X91694000Y-109847500D03*
%TO.N,/Z80_A7*%
X83156900Y-110490800D03*
%TO.N,/Z80_A6*%
X119217300Y-139622500D03*
%TO.N,/RW*%
X116674700Y-135012700D03*
%TO.N,/Z80_A14*%
X110711800Y-139221600D03*
%TD*%
D13*
%TO.N,/Z80_A10*%
X109405700Y-147693500D02*
X110884700Y-149172500D01*
X110884700Y-149172500D02*
X125881600Y-149172500D01*
X127254000Y-146876600D02*
X128080600Y-146050000D01*
X129740900Y-145276400D02*
X129740900Y-107862300D01*
X128080600Y-146050000D02*
X128967300Y-146050000D01*
X125881600Y-149172500D02*
X127254000Y-147800100D01*
X109405700Y-147320000D02*
X109405700Y-147693500D01*
X120904000Y-99025400D02*
X120904000Y-97536000D01*
X108204000Y-147320000D02*
X109405700Y-147320000D01*
X127254000Y-147800100D02*
X127254000Y-146876600D01*
X128967300Y-146050000D02*
X129740900Y-145276400D01*
X129740900Y-107862300D02*
X120904000Y-99025400D01*
%TO.N,/Z80_A9*%
X107239100Y-139758600D02*
X109473900Y-141993400D01*
X110370500Y-146118300D02*
X110744000Y-146118300D01*
X110744000Y-147320000D02*
X110744000Y-146118300D01*
X109473900Y-145221700D02*
X110370500Y-146118300D01*
X109473900Y-141993400D02*
X109473900Y-145221700D01*
%TO.N,/SPARE2*%
X100088500Y-96214300D02*
X101079000Y-96214300D01*
X99245700Y-95371500D02*
X100088500Y-96214300D01*
X99245700Y-94996000D02*
X99245700Y-95371500D01*
X133604000Y-110166200D02*
X133604000Y-144780000D01*
X101854000Y-95439300D02*
X101854000Y-94514800D01*
X122174000Y-98736200D02*
X133604000Y-110166200D01*
X103109300Y-93259500D02*
X120935800Y-93259500D01*
X101854000Y-94514800D02*
X103109300Y-93259500D01*
X122174000Y-94497700D02*
X122174000Y-98736200D01*
X98044000Y-94996000D02*
X99245700Y-94996000D01*
X120935800Y-93259500D02*
X122174000Y-94497700D01*
X101079000Y-96214300D02*
X101854000Y-95439300D01*
%TO.N,/WAIT*%
X115824000Y-142193600D02*
X108895100Y-135264700D01*
X115824000Y-143578300D02*
X115824000Y-142193600D01*
X115824000Y-144780000D02*
X115824000Y-143578300D01*
%TO.N,/Z80_A8*%
X116319000Y-146101700D02*
X114502300Y-146101700D01*
X117915800Y-148580200D02*
X117094000Y-147758400D01*
X124712500Y-147797600D02*
X123929900Y-148580200D01*
X117094000Y-147758400D02*
X117094000Y-146876700D01*
X124712500Y-105086200D02*
X124712500Y-147797600D01*
X123929900Y-148580200D02*
X117915800Y-148580200D01*
X114502300Y-146101700D02*
X113284000Y-147320000D01*
X118364000Y-97536000D02*
X118364000Y-98737700D01*
X118364000Y-98737700D02*
X124712500Y-105086200D01*
X117094000Y-146876700D02*
X116319000Y-146101700D01*
%TO.N,/Z80_D3*%
X90424000Y-96197700D02*
X90799500Y-96197700D01*
X91694000Y-97092200D02*
X91694000Y-109847500D01*
X90424000Y-94996000D02*
X90424000Y-96197700D01*
X90799500Y-96197700D02*
X91694000Y-97092200D01*
D14*
%TO.N,/5V*%
X70622700Y-146068300D02*
X70104000Y-146068300D01*
X77186300Y-93718200D02*
X71374000Y-99530500D01*
X71374000Y-99530500D02*
X71374000Y-145317000D01*
X99306200Y-93718200D02*
X77186300Y-93718200D01*
X100584000Y-94996000D02*
X99306200Y-93718200D01*
X70104000Y-147320000D02*
X70104000Y-146068300D01*
X71374000Y-145317000D02*
X70622700Y-146068300D01*
D13*
%TO.N,/Z80_A7*%
X83156900Y-110490800D02*
X112014000Y-139347900D01*
X114622300Y-147693500D02*
X114622300Y-147320000D01*
X113720300Y-148595500D02*
X114622300Y-147693500D01*
X112799600Y-148595500D02*
X113720300Y-148595500D01*
X112014000Y-139347900D02*
X112014000Y-147809900D01*
X115824000Y-147320000D02*
X114622300Y-147320000D01*
X112014000Y-147809900D02*
X112799600Y-148595500D01*
%TO.N,/ROMCS*%
X128524000Y-108064200D02*
X128524000Y-143578300D01*
X112744700Y-93784100D02*
X118918300Y-93784100D01*
X128524000Y-144780000D02*
X128524000Y-143578300D01*
X111119000Y-96334300D02*
X112014000Y-95439300D01*
X119634000Y-94499800D02*
X119634000Y-99174200D01*
X110231800Y-96334300D02*
X111119000Y-96334300D01*
X108204000Y-97536000D02*
X109405700Y-97536000D01*
X109405700Y-97160400D02*
X110231800Y-96334300D01*
X112014000Y-94514800D02*
X112744700Y-93784100D01*
X112014000Y-95439300D02*
X112014000Y-94514800D01*
X118918300Y-93784100D02*
X119634000Y-94499800D01*
X109405700Y-97536000D02*
X109405700Y-97160400D01*
X119634000Y-99174200D02*
X128524000Y-108064200D01*
%TO.N,/Z80_A1*%
X87884000Y-147320000D02*
X87884000Y-146118300D01*
X77724000Y-96197700D02*
X78625300Y-96197700D01*
X78625300Y-96197700D02*
X78925700Y-96498100D01*
X87510500Y-146118300D02*
X87884000Y-146118300D01*
X78925700Y-96498100D02*
X78925700Y-132928900D01*
X86614000Y-145221800D02*
X87510500Y-146118300D01*
X78925700Y-132928900D02*
X86614000Y-140617200D01*
X77724000Y-94996000D02*
X77724000Y-96197700D01*
X86614000Y-140617200D02*
X86614000Y-145221800D01*
%TO.N,/Z80_A5*%
X82428500Y-96197700D02*
X82804000Y-96197700D01*
X81601800Y-103967000D02*
X81601800Y-97024400D01*
X120530500Y-146118300D02*
X119634000Y-145221800D01*
X119634000Y-141999200D02*
X81601800Y-103967000D01*
X120904000Y-146118300D02*
X120530500Y-146118300D01*
X120904000Y-147320000D02*
X120904000Y-146118300D01*
X119634000Y-145221800D02*
X119634000Y-141999200D01*
X81601800Y-97024400D02*
X82428500Y-96197700D01*
X82804000Y-94996000D02*
X82804000Y-96197700D01*
%TO.N,/Z80_A6*%
X85344000Y-105749200D02*
X85344000Y-98737700D01*
X85344000Y-97536000D02*
X85344000Y-98737700D01*
X119217300Y-139622500D02*
X85344000Y-105749200D01*
D14*
%TO.N,/GND*%
X80264000Y-147320000D02*
X77724000Y-147320000D01*
D13*
%TO.N,/Z80_A0*%
X77724000Y-97536000D02*
X77724000Y-132536700D01*
X84074000Y-138886700D02*
X84074000Y-145221800D01*
X84970500Y-146118300D02*
X85344000Y-146118300D01*
X85344000Y-147320000D02*
X85344000Y-146118300D01*
X84074000Y-145221800D02*
X84970500Y-146118300D01*
X77724000Y-132536700D02*
X84074000Y-138886700D01*
%TO.N,/Z80_A4*%
X82804000Y-104436100D02*
X82804000Y-98737700D01*
X122105700Y-143737800D02*
X82804000Y-104436100D01*
X82804000Y-97536000D02*
X82804000Y-98737700D01*
X123444000Y-147320000D02*
X123444000Y-146118300D01*
X123070500Y-146118300D02*
X122105700Y-145153500D01*
X122105700Y-145153500D02*
X122105700Y-143737800D01*
X123444000Y-146118300D02*
X123070500Y-146118300D01*
%TO.N,/RW*%
X115824000Y-98737700D02*
X116674700Y-99588400D01*
X115824000Y-97536000D02*
X115824000Y-98737700D01*
X116674700Y-99588400D02*
X116674700Y-135012700D01*
%TO.N,/Z80_A14*%
X95877500Y-146118300D02*
X96774000Y-145221800D01*
X102003800Y-139106900D02*
X110597100Y-139106900D01*
X95504000Y-147320000D02*
X95504000Y-146118300D01*
X96774000Y-144336700D02*
X102003800Y-139106900D01*
X95504000Y-146118300D02*
X95877500Y-146118300D01*
X110597100Y-139106900D02*
X110711800Y-139221600D01*
X96774000Y-145221800D02*
X96774000Y-144336700D01*
%TO.N,/Z80_A2*%
X89154000Y-132647400D02*
X80264000Y-123757400D01*
X80264000Y-123757400D02*
X80264000Y-98737700D01*
X89154000Y-145221800D02*
X89154000Y-132647400D01*
X80264000Y-97536000D02*
X80264000Y-98737700D01*
X90424000Y-147320000D02*
X90424000Y-146118300D01*
X90050500Y-146118300D02*
X89154000Y-145221800D01*
X90424000Y-146118300D02*
X90050500Y-146118300D01*
%TD*%
M02*
