%TF.GenerationSoftware,KiCad,Pcbnew,8.0.5*%
%TF.CreationDate,2024-10-04T15:35:42-04:00*%
%TF.ProjectId,TS 2068 Adapter,54532032-3036-4382-9041-646170746572,rev?*%
%TF.SameCoordinates,Original*%
%TF.FileFunction,Legend,Top*%
%TF.FilePolarity,Positive*%
%FSLAX46Y46*%
G04 Gerber Fmt 4.6, Leading zero omitted, Abs format (unit mm)*
G04 Created by KiCad (PCBNEW 8.0.5) date 2024-10-04 15:35:42*
%MOMM*%
%LPD*%
G01*
G04 APERTURE LIST*
%ADD10C,0.150000*%
%ADD11C,0.120000*%
G04 APERTURE END LIST*
D10*
X62263438Y-138394839D02*
X62263438Y-137251982D01*
X64263438Y-137823411D02*
X62263438Y-137823411D01*
X64263438Y-136585315D02*
X62930104Y-136585315D01*
X62263438Y-136585315D02*
X62358676Y-136680553D01*
X62358676Y-136680553D02*
X62453914Y-136585315D01*
X62453914Y-136585315D02*
X62358676Y-136490077D01*
X62358676Y-136490077D02*
X62263438Y-136585315D01*
X62263438Y-136585315D02*
X62453914Y-136585315D01*
X64263438Y-135632934D02*
X62930104Y-135632934D01*
X63120580Y-135632934D02*
X63025342Y-135537696D01*
X63025342Y-135537696D02*
X62930104Y-135347220D01*
X62930104Y-135347220D02*
X62930104Y-135061505D01*
X62930104Y-135061505D02*
X63025342Y-134871029D01*
X63025342Y-134871029D02*
X63215819Y-134775791D01*
X63215819Y-134775791D02*
X64263438Y-134775791D01*
X63215819Y-134775791D02*
X63025342Y-134680553D01*
X63025342Y-134680553D02*
X62930104Y-134490077D01*
X62930104Y-134490077D02*
X62930104Y-134204363D01*
X62930104Y-134204363D02*
X63025342Y-134013886D01*
X63025342Y-134013886D02*
X63215819Y-133918648D01*
X63215819Y-133918648D02*
X64263438Y-133918648D01*
X64168200Y-132204362D02*
X64263438Y-132394838D01*
X64263438Y-132394838D02*
X64263438Y-132775791D01*
X64263438Y-132775791D02*
X64168200Y-132966267D01*
X64168200Y-132966267D02*
X63977723Y-133061505D01*
X63977723Y-133061505D02*
X63215819Y-133061505D01*
X63215819Y-133061505D02*
X63025342Y-132966267D01*
X63025342Y-132966267D02*
X62930104Y-132775791D01*
X62930104Y-132775791D02*
X62930104Y-132394838D01*
X62930104Y-132394838D02*
X63025342Y-132204362D01*
X63025342Y-132204362D02*
X63215819Y-132109124D01*
X63215819Y-132109124D02*
X63406295Y-132109124D01*
X63406295Y-132109124D02*
X63596771Y-133061505D01*
X64263438Y-131442457D02*
X62930104Y-130394838D01*
X62930104Y-131442457D02*
X64263438Y-130394838D01*
X64168200Y-128204361D02*
X64263438Y-127918647D01*
X64263438Y-127918647D02*
X64263438Y-127442456D01*
X64263438Y-127442456D02*
X64168200Y-127251980D01*
X64168200Y-127251980D02*
X64072961Y-127156742D01*
X64072961Y-127156742D02*
X63882485Y-127061504D01*
X63882485Y-127061504D02*
X63692009Y-127061504D01*
X63692009Y-127061504D02*
X63501533Y-127156742D01*
X63501533Y-127156742D02*
X63406295Y-127251980D01*
X63406295Y-127251980D02*
X63311057Y-127442456D01*
X63311057Y-127442456D02*
X63215819Y-127823409D01*
X63215819Y-127823409D02*
X63120580Y-128013885D01*
X63120580Y-128013885D02*
X63025342Y-128109123D01*
X63025342Y-128109123D02*
X62834866Y-128204361D01*
X62834866Y-128204361D02*
X62644390Y-128204361D01*
X62644390Y-128204361D02*
X62453914Y-128109123D01*
X62453914Y-128109123D02*
X62358676Y-128013885D01*
X62358676Y-128013885D02*
X62263438Y-127823409D01*
X62263438Y-127823409D02*
X62263438Y-127347218D01*
X62263438Y-127347218D02*
X62358676Y-127061504D01*
X64263438Y-126204361D02*
X62930104Y-126204361D01*
X62263438Y-126204361D02*
X62358676Y-126299599D01*
X62358676Y-126299599D02*
X62453914Y-126204361D01*
X62453914Y-126204361D02*
X62358676Y-126109123D01*
X62358676Y-126109123D02*
X62263438Y-126204361D01*
X62263438Y-126204361D02*
X62453914Y-126204361D01*
X62930104Y-125251980D02*
X64263438Y-125251980D01*
X63120580Y-125251980D02*
X63025342Y-125156742D01*
X63025342Y-125156742D02*
X62930104Y-124966266D01*
X62930104Y-124966266D02*
X62930104Y-124680551D01*
X62930104Y-124680551D02*
X63025342Y-124490075D01*
X63025342Y-124490075D02*
X63215819Y-124394837D01*
X63215819Y-124394837D02*
X64263438Y-124394837D01*
X64168200Y-122585313D02*
X64263438Y-122775789D01*
X64263438Y-122775789D02*
X64263438Y-123156742D01*
X64263438Y-123156742D02*
X64168200Y-123347218D01*
X64168200Y-123347218D02*
X64072961Y-123442456D01*
X64072961Y-123442456D02*
X63882485Y-123537694D01*
X63882485Y-123537694D02*
X63311057Y-123537694D01*
X63311057Y-123537694D02*
X63120580Y-123442456D01*
X63120580Y-123442456D02*
X63025342Y-123347218D01*
X63025342Y-123347218D02*
X62930104Y-123156742D01*
X62930104Y-123156742D02*
X62930104Y-122775789D01*
X62930104Y-122775789D02*
X63025342Y-122585313D01*
X64263438Y-121442456D02*
X64168200Y-121632932D01*
X64168200Y-121632932D02*
X63977723Y-121728170D01*
X63977723Y-121728170D02*
X62263438Y-121728170D01*
X64263438Y-119823408D02*
X63215819Y-119823408D01*
X63215819Y-119823408D02*
X63025342Y-119918646D01*
X63025342Y-119918646D02*
X62930104Y-120109122D01*
X62930104Y-120109122D02*
X62930104Y-120490075D01*
X62930104Y-120490075D02*
X63025342Y-120680551D01*
X64168200Y-119823408D02*
X64263438Y-120013884D01*
X64263438Y-120013884D02*
X64263438Y-120490075D01*
X64263438Y-120490075D02*
X64168200Y-120680551D01*
X64168200Y-120680551D02*
X63977723Y-120775789D01*
X63977723Y-120775789D02*
X63787247Y-120775789D01*
X63787247Y-120775789D02*
X63596771Y-120680551D01*
X63596771Y-120680551D02*
X63501533Y-120490075D01*
X63501533Y-120490075D02*
X63501533Y-120013884D01*
X63501533Y-120013884D02*
X63406295Y-119823408D01*
X64263438Y-118871027D02*
X62930104Y-118871027D01*
X62263438Y-118871027D02*
X62358676Y-118966265D01*
X62358676Y-118966265D02*
X62453914Y-118871027D01*
X62453914Y-118871027D02*
X62358676Y-118775789D01*
X62358676Y-118775789D02*
X62263438Y-118871027D01*
X62263438Y-118871027D02*
X62453914Y-118871027D01*
X62453914Y-116490074D02*
X62358676Y-116394836D01*
X62358676Y-116394836D02*
X62263438Y-116204360D01*
X62263438Y-116204360D02*
X62263438Y-115728169D01*
X62263438Y-115728169D02*
X62358676Y-115537693D01*
X62358676Y-115537693D02*
X62453914Y-115442455D01*
X62453914Y-115442455D02*
X62644390Y-115347217D01*
X62644390Y-115347217D02*
X62834866Y-115347217D01*
X62834866Y-115347217D02*
X63120580Y-115442455D01*
X63120580Y-115442455D02*
X64263438Y-116585312D01*
X64263438Y-116585312D02*
X64263438Y-115347217D01*
X62263438Y-114109122D02*
X62263438Y-113918645D01*
X62263438Y-113918645D02*
X62358676Y-113728169D01*
X62358676Y-113728169D02*
X62453914Y-113632931D01*
X62453914Y-113632931D02*
X62644390Y-113537693D01*
X62644390Y-113537693D02*
X63025342Y-113442455D01*
X63025342Y-113442455D02*
X63501533Y-113442455D01*
X63501533Y-113442455D02*
X63882485Y-113537693D01*
X63882485Y-113537693D02*
X64072961Y-113632931D01*
X64072961Y-113632931D02*
X64168200Y-113728169D01*
X64168200Y-113728169D02*
X64263438Y-113918645D01*
X64263438Y-113918645D02*
X64263438Y-114109122D01*
X64263438Y-114109122D02*
X64168200Y-114299598D01*
X64168200Y-114299598D02*
X64072961Y-114394836D01*
X64072961Y-114394836D02*
X63882485Y-114490074D01*
X63882485Y-114490074D02*
X63501533Y-114585312D01*
X63501533Y-114585312D02*
X63025342Y-114585312D01*
X63025342Y-114585312D02*
X62644390Y-114490074D01*
X62644390Y-114490074D02*
X62453914Y-114394836D01*
X62453914Y-114394836D02*
X62358676Y-114299598D01*
X62358676Y-114299598D02*
X62263438Y-114109122D01*
X62263438Y-111728169D02*
X62263438Y-112109122D01*
X62263438Y-112109122D02*
X62358676Y-112299598D01*
X62358676Y-112299598D02*
X62453914Y-112394836D01*
X62453914Y-112394836D02*
X62739628Y-112585312D01*
X62739628Y-112585312D02*
X63120580Y-112680550D01*
X63120580Y-112680550D02*
X63882485Y-112680550D01*
X63882485Y-112680550D02*
X64072961Y-112585312D01*
X64072961Y-112585312D02*
X64168200Y-112490074D01*
X64168200Y-112490074D02*
X64263438Y-112299598D01*
X64263438Y-112299598D02*
X64263438Y-111918645D01*
X64263438Y-111918645D02*
X64168200Y-111728169D01*
X64168200Y-111728169D02*
X64072961Y-111632931D01*
X64072961Y-111632931D02*
X63882485Y-111537693D01*
X63882485Y-111537693D02*
X63406295Y-111537693D01*
X63406295Y-111537693D02*
X63215819Y-111632931D01*
X63215819Y-111632931D02*
X63120580Y-111728169D01*
X63120580Y-111728169D02*
X63025342Y-111918645D01*
X63025342Y-111918645D02*
X63025342Y-112299598D01*
X63025342Y-112299598D02*
X63120580Y-112490074D01*
X63120580Y-112490074D02*
X63215819Y-112585312D01*
X63215819Y-112585312D02*
X63406295Y-112680550D01*
X63120580Y-110394836D02*
X63025342Y-110585312D01*
X63025342Y-110585312D02*
X62930104Y-110680550D01*
X62930104Y-110680550D02*
X62739628Y-110775788D01*
X62739628Y-110775788D02*
X62644390Y-110775788D01*
X62644390Y-110775788D02*
X62453914Y-110680550D01*
X62453914Y-110680550D02*
X62358676Y-110585312D01*
X62358676Y-110585312D02*
X62263438Y-110394836D01*
X62263438Y-110394836D02*
X62263438Y-110013883D01*
X62263438Y-110013883D02*
X62358676Y-109823407D01*
X62358676Y-109823407D02*
X62453914Y-109728169D01*
X62453914Y-109728169D02*
X62644390Y-109632931D01*
X62644390Y-109632931D02*
X62739628Y-109632931D01*
X62739628Y-109632931D02*
X62930104Y-109728169D01*
X62930104Y-109728169D02*
X63025342Y-109823407D01*
X63025342Y-109823407D02*
X63120580Y-110013883D01*
X63120580Y-110013883D02*
X63120580Y-110394836D01*
X63120580Y-110394836D02*
X63215819Y-110585312D01*
X63215819Y-110585312D02*
X63311057Y-110680550D01*
X63311057Y-110680550D02*
X63501533Y-110775788D01*
X63501533Y-110775788D02*
X63882485Y-110775788D01*
X63882485Y-110775788D02*
X64072961Y-110680550D01*
X64072961Y-110680550D02*
X64168200Y-110585312D01*
X64168200Y-110585312D02*
X64263438Y-110394836D01*
X64263438Y-110394836D02*
X64263438Y-110013883D01*
X64263438Y-110013883D02*
X64168200Y-109823407D01*
X64168200Y-109823407D02*
X64072961Y-109728169D01*
X64072961Y-109728169D02*
X63882485Y-109632931D01*
X63882485Y-109632931D02*
X63501533Y-109632931D01*
X63501533Y-109632931D02*
X63311057Y-109728169D01*
X63311057Y-109728169D02*
X63215819Y-109823407D01*
X63215819Y-109823407D02*
X63120580Y-110013883D01*
X63692009Y-107347216D02*
X63692009Y-106394835D01*
X64263438Y-107537692D02*
X62263438Y-106871026D01*
X62263438Y-106871026D02*
X64263438Y-106204359D01*
X64263438Y-104680549D02*
X62263438Y-104680549D01*
X64168200Y-104680549D02*
X64263438Y-104871025D01*
X64263438Y-104871025D02*
X64263438Y-105251978D01*
X64263438Y-105251978D02*
X64168200Y-105442454D01*
X64168200Y-105442454D02*
X64072961Y-105537692D01*
X64072961Y-105537692D02*
X63882485Y-105632930D01*
X63882485Y-105632930D02*
X63311057Y-105632930D01*
X63311057Y-105632930D02*
X63120580Y-105537692D01*
X63120580Y-105537692D02*
X63025342Y-105442454D01*
X63025342Y-105442454D02*
X62930104Y-105251978D01*
X62930104Y-105251978D02*
X62930104Y-104871025D01*
X62930104Y-104871025D02*
X63025342Y-104680549D01*
X64263438Y-102871025D02*
X63215819Y-102871025D01*
X63215819Y-102871025D02*
X63025342Y-102966263D01*
X63025342Y-102966263D02*
X62930104Y-103156739D01*
X62930104Y-103156739D02*
X62930104Y-103537692D01*
X62930104Y-103537692D02*
X63025342Y-103728168D01*
X64168200Y-102871025D02*
X64263438Y-103061501D01*
X64263438Y-103061501D02*
X64263438Y-103537692D01*
X64263438Y-103537692D02*
X64168200Y-103728168D01*
X64168200Y-103728168D02*
X63977723Y-103823406D01*
X63977723Y-103823406D02*
X63787247Y-103823406D01*
X63787247Y-103823406D02*
X63596771Y-103728168D01*
X63596771Y-103728168D02*
X63501533Y-103537692D01*
X63501533Y-103537692D02*
X63501533Y-103061501D01*
X63501533Y-103061501D02*
X63406295Y-102871025D01*
X62930104Y-101918644D02*
X64930104Y-101918644D01*
X63025342Y-101918644D02*
X62930104Y-101728168D01*
X62930104Y-101728168D02*
X62930104Y-101347215D01*
X62930104Y-101347215D02*
X63025342Y-101156739D01*
X63025342Y-101156739D02*
X63120580Y-101061501D01*
X63120580Y-101061501D02*
X63311057Y-100966263D01*
X63311057Y-100966263D02*
X63882485Y-100966263D01*
X63882485Y-100966263D02*
X64072961Y-101061501D01*
X64072961Y-101061501D02*
X64168200Y-101156739D01*
X64168200Y-101156739D02*
X64263438Y-101347215D01*
X64263438Y-101347215D02*
X64263438Y-101728168D01*
X64263438Y-101728168D02*
X64168200Y-101918644D01*
X62930104Y-100394834D02*
X62930104Y-99632930D01*
X62263438Y-100109120D02*
X63977723Y-100109120D01*
X63977723Y-100109120D02*
X64168200Y-100013882D01*
X64168200Y-100013882D02*
X64263438Y-99823406D01*
X64263438Y-99823406D02*
X64263438Y-99632930D01*
X64168200Y-98204358D02*
X64263438Y-98394834D01*
X64263438Y-98394834D02*
X64263438Y-98775787D01*
X64263438Y-98775787D02*
X64168200Y-98966263D01*
X64168200Y-98966263D02*
X63977723Y-99061501D01*
X63977723Y-99061501D02*
X63215819Y-99061501D01*
X63215819Y-99061501D02*
X63025342Y-98966263D01*
X63025342Y-98966263D02*
X62930104Y-98775787D01*
X62930104Y-98775787D02*
X62930104Y-98394834D01*
X62930104Y-98394834D02*
X63025342Y-98204358D01*
X63025342Y-98204358D02*
X63215819Y-98109120D01*
X63215819Y-98109120D02*
X63406295Y-98109120D01*
X63406295Y-98109120D02*
X63596771Y-99061501D01*
X64263438Y-97251977D02*
X62930104Y-97251977D01*
X63311057Y-97251977D02*
X63120580Y-97156739D01*
X63120580Y-97156739D02*
X63025342Y-97061501D01*
X63025342Y-97061501D02*
X62930104Y-96871025D01*
X62930104Y-96871025D02*
X62930104Y-96680548D01*
X141987438Y-134045125D02*
X139987438Y-134045125D01*
X141987438Y-133187982D02*
X140939819Y-133187982D01*
X140939819Y-133187982D02*
X140749342Y-133283220D01*
X140749342Y-133283220D02*
X140654104Y-133473696D01*
X140654104Y-133473696D02*
X140654104Y-133759411D01*
X140654104Y-133759411D02*
X140749342Y-133949887D01*
X140749342Y-133949887D02*
X140844580Y-134045125D01*
X140654104Y-132521315D02*
X140654104Y-131759411D01*
X139987438Y-132235601D02*
X141701723Y-132235601D01*
X141701723Y-132235601D02*
X141892200Y-132140363D01*
X141892200Y-132140363D02*
X141987438Y-131949887D01*
X141987438Y-131949887D02*
X141987438Y-131759411D01*
X140654104Y-131378458D02*
X140654104Y-130616554D01*
X139987438Y-131092744D02*
X141701723Y-131092744D01*
X141701723Y-131092744D02*
X141892200Y-130997506D01*
X141892200Y-130997506D02*
X141987438Y-130807030D01*
X141987438Y-130807030D02*
X141987438Y-130616554D01*
X140654104Y-129949887D02*
X142654104Y-129949887D01*
X140749342Y-129949887D02*
X140654104Y-129759411D01*
X140654104Y-129759411D02*
X140654104Y-129378458D01*
X140654104Y-129378458D02*
X140749342Y-129187982D01*
X140749342Y-129187982D02*
X140844580Y-129092744D01*
X140844580Y-129092744D02*
X141035057Y-128997506D01*
X141035057Y-128997506D02*
X141606485Y-128997506D01*
X141606485Y-128997506D02*
X141796961Y-129092744D01*
X141796961Y-129092744D02*
X141892200Y-129187982D01*
X141892200Y-129187982D02*
X141987438Y-129378458D01*
X141987438Y-129378458D02*
X141987438Y-129759411D01*
X141987438Y-129759411D02*
X141892200Y-129949887D01*
X141892200Y-128235601D02*
X141987438Y-128045125D01*
X141987438Y-128045125D02*
X141987438Y-127664173D01*
X141987438Y-127664173D02*
X141892200Y-127473696D01*
X141892200Y-127473696D02*
X141701723Y-127378458D01*
X141701723Y-127378458D02*
X141606485Y-127378458D01*
X141606485Y-127378458D02*
X141416009Y-127473696D01*
X141416009Y-127473696D02*
X141320771Y-127664173D01*
X141320771Y-127664173D02*
X141320771Y-127949887D01*
X141320771Y-127949887D02*
X141225533Y-128140363D01*
X141225533Y-128140363D02*
X141035057Y-128235601D01*
X141035057Y-128235601D02*
X140939819Y-128235601D01*
X140939819Y-128235601D02*
X140749342Y-128140363D01*
X140749342Y-128140363D02*
X140654104Y-127949887D01*
X140654104Y-127949887D02*
X140654104Y-127664173D01*
X140654104Y-127664173D02*
X140749342Y-127473696D01*
X141796961Y-126521315D02*
X141892200Y-126426077D01*
X141892200Y-126426077D02*
X141987438Y-126521315D01*
X141987438Y-126521315D02*
X141892200Y-126616553D01*
X141892200Y-126616553D02*
X141796961Y-126521315D01*
X141796961Y-126521315D02*
X141987438Y-126521315D01*
X140749342Y-126521315D02*
X140844580Y-126426077D01*
X140844580Y-126426077D02*
X140939819Y-126521315D01*
X140939819Y-126521315D02*
X140844580Y-126616553D01*
X140844580Y-126616553D02*
X140749342Y-126521315D01*
X140749342Y-126521315D02*
X140939819Y-126521315D01*
X139892200Y-124140363D02*
X142463628Y-125854648D01*
X139892200Y-122045125D02*
X142463628Y-123759410D01*
X140654104Y-121664172D02*
X140654104Y-120902268D01*
X141987438Y-121378458D02*
X140273152Y-121378458D01*
X140273152Y-121378458D02*
X140082676Y-121283220D01*
X140082676Y-121283220D02*
X139987438Y-121092744D01*
X139987438Y-121092744D02*
X139987438Y-120902268D01*
X140654104Y-119378458D02*
X141987438Y-119378458D01*
X140654104Y-120235601D02*
X141701723Y-120235601D01*
X141701723Y-120235601D02*
X141892200Y-120140363D01*
X141892200Y-120140363D02*
X141987438Y-119949887D01*
X141987438Y-119949887D02*
X141987438Y-119664172D01*
X141987438Y-119664172D02*
X141892200Y-119473696D01*
X141892200Y-119473696D02*
X141796961Y-119378458D01*
X140654104Y-118426077D02*
X142368390Y-118426077D01*
X142368390Y-118426077D02*
X142558866Y-118521315D01*
X142558866Y-118521315D02*
X142654104Y-118711791D01*
X142654104Y-118711791D02*
X142654104Y-118807029D01*
X139987438Y-118426077D02*
X140082676Y-118521315D01*
X140082676Y-118521315D02*
X140177914Y-118426077D01*
X140177914Y-118426077D02*
X140082676Y-118330839D01*
X140082676Y-118330839D02*
X139987438Y-118426077D01*
X139987438Y-118426077D02*
X140177914Y-118426077D01*
X141987438Y-117473696D02*
X140654104Y-117473696D01*
X139987438Y-117473696D02*
X140082676Y-117568934D01*
X140082676Y-117568934D02*
X140177914Y-117473696D01*
X140177914Y-117473696D02*
X140082676Y-117378458D01*
X140082676Y-117378458D02*
X139987438Y-117473696D01*
X139987438Y-117473696D02*
X140177914Y-117473696D01*
X140654104Y-116521315D02*
X141987438Y-116521315D01*
X140844580Y-116521315D02*
X140749342Y-116426077D01*
X140749342Y-116426077D02*
X140654104Y-116235601D01*
X140654104Y-116235601D02*
X140654104Y-115949886D01*
X140654104Y-115949886D02*
X140749342Y-115759410D01*
X140749342Y-115759410D02*
X140939819Y-115664172D01*
X140939819Y-115664172D02*
X141987438Y-115664172D01*
X141892200Y-113949886D02*
X141987438Y-114140362D01*
X141987438Y-114140362D02*
X141987438Y-114521315D01*
X141987438Y-114521315D02*
X141892200Y-114711791D01*
X141892200Y-114711791D02*
X141701723Y-114807029D01*
X141701723Y-114807029D02*
X140939819Y-114807029D01*
X140939819Y-114807029D02*
X140749342Y-114711791D01*
X140749342Y-114711791D02*
X140654104Y-114521315D01*
X140654104Y-114521315D02*
X140654104Y-114140362D01*
X140654104Y-114140362D02*
X140749342Y-113949886D01*
X140749342Y-113949886D02*
X140939819Y-113854648D01*
X140939819Y-113854648D02*
X141130295Y-113854648D01*
X141130295Y-113854648D02*
X141320771Y-114807029D01*
X140654104Y-113283219D02*
X140654104Y-112521315D01*
X139987438Y-112997505D02*
X141701723Y-112997505D01*
X141701723Y-112997505D02*
X141892200Y-112902267D01*
X141892200Y-112902267D02*
X141987438Y-112711791D01*
X141987438Y-112711791D02*
X141987438Y-112521315D01*
X141796961Y-111854648D02*
X141892200Y-111759410D01*
X141892200Y-111759410D02*
X141987438Y-111854648D01*
X141987438Y-111854648D02*
X141892200Y-111949886D01*
X141892200Y-111949886D02*
X141796961Y-111854648D01*
X141796961Y-111854648D02*
X141987438Y-111854648D01*
X141987438Y-110616553D02*
X141892200Y-110807029D01*
X141892200Y-110807029D02*
X141796961Y-110902267D01*
X141796961Y-110902267D02*
X141606485Y-110997505D01*
X141606485Y-110997505D02*
X141035057Y-110997505D01*
X141035057Y-110997505D02*
X140844580Y-110902267D01*
X140844580Y-110902267D02*
X140749342Y-110807029D01*
X140749342Y-110807029D02*
X140654104Y-110616553D01*
X140654104Y-110616553D02*
X140654104Y-110330838D01*
X140654104Y-110330838D02*
X140749342Y-110140362D01*
X140749342Y-110140362D02*
X140844580Y-110045124D01*
X140844580Y-110045124D02*
X141035057Y-109949886D01*
X141035057Y-109949886D02*
X141606485Y-109949886D01*
X141606485Y-109949886D02*
X141796961Y-110045124D01*
X141796961Y-110045124D02*
X141892200Y-110140362D01*
X141892200Y-110140362D02*
X141987438Y-110330838D01*
X141987438Y-110330838D02*
X141987438Y-110616553D01*
X140654104Y-109092743D02*
X141987438Y-109092743D01*
X140844580Y-109092743D02*
X140749342Y-108997505D01*
X140749342Y-108997505D02*
X140654104Y-108807029D01*
X140654104Y-108807029D02*
X140654104Y-108521314D01*
X140654104Y-108521314D02*
X140749342Y-108330838D01*
X140749342Y-108330838D02*
X140939819Y-108235600D01*
X140939819Y-108235600D02*
X141987438Y-108235600D01*
X141987438Y-106997505D02*
X141892200Y-107187981D01*
X141892200Y-107187981D02*
X141701723Y-107283219D01*
X141701723Y-107283219D02*
X139987438Y-107283219D01*
X141987438Y-106235600D02*
X140654104Y-106235600D01*
X139987438Y-106235600D02*
X140082676Y-106330838D01*
X140082676Y-106330838D02*
X140177914Y-106235600D01*
X140177914Y-106235600D02*
X140082676Y-106140362D01*
X140082676Y-106140362D02*
X139987438Y-106235600D01*
X139987438Y-106235600D02*
X140177914Y-106235600D01*
X140654104Y-105283219D02*
X141987438Y-105283219D01*
X140844580Y-105283219D02*
X140749342Y-105187981D01*
X140749342Y-105187981D02*
X140654104Y-104997505D01*
X140654104Y-104997505D02*
X140654104Y-104711790D01*
X140654104Y-104711790D02*
X140749342Y-104521314D01*
X140749342Y-104521314D02*
X140939819Y-104426076D01*
X140939819Y-104426076D02*
X141987438Y-104426076D01*
X141892200Y-102711790D02*
X141987438Y-102902266D01*
X141987438Y-102902266D02*
X141987438Y-103283219D01*
X141987438Y-103283219D02*
X141892200Y-103473695D01*
X141892200Y-103473695D02*
X141701723Y-103568933D01*
X141701723Y-103568933D02*
X140939819Y-103568933D01*
X140939819Y-103568933D02*
X140749342Y-103473695D01*
X140749342Y-103473695D02*
X140654104Y-103283219D01*
X140654104Y-103283219D02*
X140654104Y-102902266D01*
X140654104Y-102902266D02*
X140749342Y-102711790D01*
X140749342Y-102711790D02*
X140939819Y-102616552D01*
X140939819Y-102616552D02*
X141130295Y-102616552D01*
X141130295Y-102616552D02*
X141320771Y-103568933D01*
X139892200Y-100330838D02*
X142463628Y-102045123D01*
X74848819Y-96599333D02*
X75563104Y-96599333D01*
X75563104Y-96599333D02*
X75705961Y-96646952D01*
X75705961Y-96646952D02*
X75801200Y-96742190D01*
X75801200Y-96742190D02*
X75848819Y-96885047D01*
X75848819Y-96885047D02*
X75848819Y-96980285D01*
X75848819Y-95599333D02*
X75848819Y-96170761D01*
X75848819Y-95885047D02*
X74848819Y-95885047D01*
X74848819Y-95885047D02*
X74991676Y-95980285D01*
X74991676Y-95980285D02*
X75086914Y-96075523D01*
X75086914Y-96075523D02*
X75134533Y-96170761D01*
X59168819Y-146811904D02*
X59978342Y-146811904D01*
X59978342Y-146811904D02*
X60073580Y-146764285D01*
X60073580Y-146764285D02*
X60121200Y-146716666D01*
X60121200Y-146716666D02*
X60168819Y-146621428D01*
X60168819Y-146621428D02*
X60168819Y-146430952D01*
X60168819Y-146430952D02*
X60121200Y-146335714D01*
X60121200Y-146335714D02*
X60073580Y-146288095D01*
X60073580Y-146288095D02*
X59978342Y-146240476D01*
X59978342Y-146240476D02*
X59168819Y-146240476D01*
X60168819Y-145240476D02*
X60168819Y-145811904D01*
X60168819Y-145526190D02*
X59168819Y-145526190D01*
X59168819Y-145526190D02*
X59311676Y-145621428D01*
X59311676Y-145621428D02*
X59406914Y-145716666D01*
X59406914Y-145716666D02*
X59454533Y-145811904D01*
D11*
%TO.C,J1*%
X76394000Y-93666000D02*
X127314000Y-93666000D01*
X76394000Y-96266000D02*
X76394000Y-93666000D01*
X76394000Y-98866000D02*
X76394000Y-97536000D01*
X77724000Y-98866000D02*
X76394000Y-98866000D01*
X78994000Y-96266000D02*
X76394000Y-96266000D01*
X78994000Y-98866000D02*
X78994000Y-96266000D01*
X78994000Y-98866000D02*
X127314000Y-98866000D01*
X127314000Y-98866000D02*
X127314000Y-93666000D01*
%TO.C,U1*%
X61154000Y-143450000D02*
X62484000Y-143450000D01*
X61154000Y-144780000D02*
X61154000Y-143450000D01*
X61154000Y-146050000D02*
X63754000Y-146050000D01*
X61154000Y-148650000D02*
X61154000Y-146050000D01*
X61154000Y-148650000D02*
X142554000Y-148650000D01*
X63754000Y-143450000D02*
X142554000Y-143450000D01*
X63754000Y-146050000D02*
X63754000Y-143450000D01*
X142554000Y-148650000D02*
X142554000Y-143450000D01*
%TD*%
M02*
