%TF.GenerationSoftware,KiCad,Pcbnew,8.0.5*%
%TF.CreationDate,2024-10-04T15:35:42-04:00*%
%TF.ProjectId,TS 2068 Adapter,54532032-3036-4382-9041-646170746572,rev?*%
%TF.SameCoordinates,Original*%
%TF.FileFunction,Soldermask,Bot*%
%TF.FilePolarity,Negative*%
%FSLAX46Y46*%
G04 Gerber Fmt 4.6, Leading zero omitted, Abs format (unit mm)*
G04 Created by KiCad (PCBNEW 8.0.5) date 2024-10-04 15:35:42*
%MOMM*%
%LPD*%
G01*
G04 APERTURE LIST*
%ADD10R,1.700000X1.700000*%
%ADD11O,1.700000X1.700000*%
G04 APERTURE END LIST*
D10*
%TO.C,J1*%
X77724000Y-97536000D03*
D11*
X77724000Y-94996000D03*
X80264000Y-97536000D03*
X80264000Y-94996000D03*
X82804000Y-97536000D03*
X82804000Y-94996000D03*
X85344000Y-97536000D03*
X85344000Y-94996000D03*
X87884000Y-97536000D03*
X87884000Y-94996000D03*
X90424000Y-97536000D03*
X90424000Y-94996000D03*
X92964000Y-97536000D03*
X92964000Y-94996000D03*
X95504000Y-97536000D03*
X95504000Y-94996000D03*
X98044000Y-97536000D03*
X98044000Y-94996000D03*
X100584000Y-97536000D03*
X100584000Y-94996000D03*
X103124000Y-97536000D03*
X103124000Y-94996000D03*
X105664000Y-97536000D03*
X105664000Y-94996000D03*
X108204000Y-97536000D03*
X108204000Y-94996000D03*
X110744000Y-97536000D03*
X110744000Y-94996000D03*
X113284000Y-97536000D03*
X113284000Y-94996000D03*
X115824000Y-97536000D03*
X115824000Y-94996000D03*
X118364000Y-97536000D03*
X118364000Y-94996000D03*
X120904000Y-97536000D03*
X120904000Y-94996000D03*
X123444000Y-97536000D03*
X123444000Y-94996000D03*
X125984000Y-97536000D03*
X125984000Y-94996000D03*
%TD*%
D10*
%TO.C,U1*%
X62484000Y-144780000D03*
D11*
X62484000Y-147320000D03*
X65024000Y-144780000D03*
X65024000Y-147320000D03*
X67564000Y-144780000D03*
X67564000Y-147320000D03*
X70104000Y-144780000D03*
X70104000Y-147320000D03*
X72644000Y-144780000D03*
X72644000Y-147320000D03*
X75184000Y-144780000D03*
X75184000Y-147320000D03*
X77724000Y-144780000D03*
X77724000Y-147320000D03*
X80264000Y-144780000D03*
X80264000Y-147320000D03*
X82804000Y-144780000D03*
X82804000Y-147320000D03*
X85344000Y-144780000D03*
X85344000Y-147320000D03*
X87884000Y-144780000D03*
X87884000Y-147320000D03*
X90424000Y-144780000D03*
X90424000Y-147320000D03*
X92964000Y-144780000D03*
X92964000Y-147320000D03*
X95504000Y-144780000D03*
X95504000Y-147320000D03*
X98044000Y-144780000D03*
X98044000Y-147320000D03*
X100584000Y-144780000D03*
X100584000Y-147320000D03*
X103124000Y-144780000D03*
X103124000Y-147320000D03*
X105664000Y-144780000D03*
X105664000Y-147320000D03*
X108204000Y-144780000D03*
X108204000Y-147320000D03*
X110744000Y-144780000D03*
X110744000Y-147320000D03*
X113284000Y-144780000D03*
X113284000Y-147320000D03*
X115824000Y-144780000D03*
X115824000Y-147320000D03*
X118364000Y-144780000D03*
X118364000Y-147320000D03*
X120904000Y-144780000D03*
X120904000Y-147320000D03*
X123444000Y-144780000D03*
X123444000Y-147320000D03*
X125984000Y-144780000D03*
X125984000Y-147320000D03*
X128524000Y-144780000D03*
X128524000Y-147320000D03*
X131064000Y-144780000D03*
X131064000Y-147320000D03*
X133604000Y-144780000D03*
X133604000Y-147320000D03*
X136144000Y-144780000D03*
X136144000Y-147320000D03*
X138684000Y-144780000D03*
X138684000Y-147320000D03*
X141224000Y-144780000D03*
X141224000Y-147320000D03*
%TD*%
M02*
