M48
; DRILL file {KiCad 8.0.5} date 2024-10-04T15:35:50-0400
; FORMAT={-:-/ absolute / metric / decimal}
; #@! TF.CreationDate,2024-10-04T15:35:50-04:00
; #@! TF.GenerationSoftware,Kicad,Pcbnew,8.0.5
; #@! TF.FileFunction,Plated,1,2,PTH
FMAT,2
METRIC
; #@! TA.AperFunction,Plated,PTH,ViaDrill
T1C0.300
; #@! TA.AperFunction,Plated,PTH,ComponentDrill
T2C1.000
%
G90
G05
T1
X83.157Y-110.491
X91.694Y-109.847
X107.239Y-139.759
X108.895Y-135.265
X110.712Y-139.222
X116.675Y-135.013
X119.217Y-139.623
T2
X62.484Y-144.78
X62.484Y-147.32
X65.024Y-144.78
X65.024Y-147.32
X67.564Y-144.78
X67.564Y-147.32
X70.104Y-144.78
X70.104Y-147.32
X72.644Y-144.78
X72.644Y-147.32
X75.184Y-144.78
X75.184Y-147.32
X77.724Y-94.996
X77.724Y-97.536
X77.724Y-144.78
X77.724Y-147.32
X80.264Y-94.996
X80.264Y-97.536
X80.264Y-144.78
X80.264Y-147.32
X82.804Y-94.996
X82.804Y-97.536
X82.804Y-144.78
X82.804Y-147.32
X85.344Y-94.996
X85.344Y-97.536
X85.344Y-144.78
X85.344Y-147.32
X87.884Y-94.996
X87.884Y-97.536
X87.884Y-144.78
X87.884Y-147.32
X90.424Y-94.996
X90.424Y-97.536
X90.424Y-144.78
X90.424Y-147.32
X92.964Y-94.996
X92.964Y-97.536
X92.964Y-144.78
X92.964Y-147.32
X95.504Y-94.996
X95.504Y-97.536
X95.504Y-144.78
X95.504Y-147.32
X98.044Y-94.996
X98.044Y-97.536
X98.044Y-144.78
X98.044Y-147.32
X100.584Y-94.996
X100.584Y-97.536
X100.584Y-144.78
X100.584Y-147.32
X103.124Y-94.996
X103.124Y-97.536
X103.124Y-144.78
X103.124Y-147.32
X105.664Y-94.996
X105.664Y-97.536
X105.664Y-144.78
X105.664Y-147.32
X108.204Y-94.996
X108.204Y-97.536
X108.204Y-144.78
X108.204Y-147.32
X110.744Y-94.996
X110.744Y-97.536
X110.744Y-144.78
X110.744Y-147.32
X113.284Y-94.996
X113.284Y-97.536
X113.284Y-144.78
X113.284Y-147.32
X115.824Y-94.996
X115.824Y-97.536
X115.824Y-144.78
X115.824Y-147.32
X118.364Y-94.996
X118.364Y-97.536
X118.364Y-144.78
X118.364Y-147.32
X120.904Y-94.996
X120.904Y-97.536
X120.904Y-144.78
X120.904Y-147.32
X123.444Y-94.996
X123.444Y-97.536
X123.444Y-144.78
X123.444Y-147.32
X125.984Y-94.996
X125.984Y-97.536
X125.984Y-144.78
X125.984Y-147.32
X128.524Y-144.78
X128.524Y-147.32
X131.064Y-144.78
X131.064Y-147.32
X133.604Y-144.78
X133.604Y-147.32
X136.144Y-144.78
X136.144Y-147.32
X138.684Y-144.78
X138.684Y-147.32
X141.224Y-144.78
X141.224Y-147.32
M30
