%TF.GenerationSoftware,KiCad,Pcbnew,8.0.5*%
%TF.CreationDate,2024-10-04T15:35:42-04:00*%
%TF.ProjectId,TS 2068 Adapter,54532032-3036-4382-9041-646170746572,rev?*%
%TF.SameCoordinates,Original*%
%TF.FileFunction,Copper,L2,Bot*%
%TF.FilePolarity,Positive*%
%FSLAX46Y46*%
G04 Gerber Fmt 4.6, Leading zero omitted, Abs format (unit mm)*
G04 Created by KiCad (PCBNEW 8.0.5) date 2024-10-04 15:35:42*
%MOMM*%
%LPD*%
G01*
G04 APERTURE LIST*
%TA.AperFunction,ComponentPad*%
%ADD10R,1.700000X1.700000*%
%TD*%
%TA.AperFunction,ComponentPad*%
%ADD11O,1.700000X1.700000*%
%TD*%
%TA.AperFunction,ViaPad*%
%ADD12C,0.600000*%
%TD*%
%TA.AperFunction,Conductor*%
%ADD13C,0.300000*%
%TD*%
%TA.AperFunction,Conductor*%
%ADD14C,0.400000*%
%TD*%
G04 APERTURE END LIST*
D10*
%TO.P,J1,1,Pin_1*%
%TO.N,/Z80_A0*%
X77724000Y-97536000D03*
D11*
%TO.P,J1,2,Pin_2*%
%TO.N,/Z80_A1*%
X77724000Y-94996000D03*
%TO.P,J1,3,Pin_3*%
%TO.N,/Z80_A2*%
X80264000Y-97536000D03*
%TO.P,J1,4,Pin_4*%
%TO.N,/Z80_A3*%
X80264000Y-94996000D03*
%TO.P,J1,5,Pin_5*%
%TO.N,/Z80_A4*%
X82804000Y-97536000D03*
%TO.P,J1,6,Pin_6*%
%TO.N,/Z80_A5*%
X82804000Y-94996000D03*
%TO.P,J1,7,Pin_7*%
%TO.N,/Z80_A6*%
X85344000Y-97536000D03*
%TO.P,J1,8,Pin_8*%
%TO.N,/Z80_A7*%
X85344000Y-94996000D03*
%TO.P,J1,9,Pin_9*%
%TO.N,/Z80_D0*%
X87884000Y-97536000D03*
%TO.P,J1,10,Pin_10*%
%TO.N,/Z80_D1*%
X87884000Y-94996000D03*
%TO.P,J1,11,Pin_11*%
%TO.N,/Z80_D2*%
X90424000Y-97536000D03*
%TO.P,J1,12,Pin_12*%
%TO.N,/Z80_D3*%
X90424000Y-94996000D03*
%TO.P,J1,13,Pin_13*%
%TO.N,/Z80_D4*%
X92964000Y-97536000D03*
%TO.P,J1,14,Pin_14*%
%TO.N,/Z80_D5*%
X92964000Y-94996000D03*
%TO.P,J1,15,Pin_15*%
%TO.N,/Z80_D6*%
X95504000Y-97536000D03*
%TO.P,J1,16,Pin_16*%
%TO.N,/Z80_D7*%
X95504000Y-94996000D03*
%TO.P,J1,17,Pin_17*%
%TO.N,/SPARE1*%
X98044000Y-97536000D03*
%TO.P,J1,18,Pin_18*%
%TO.N,/SPARE2*%
X98044000Y-94996000D03*
%TO.P,J1,19,Pin_19*%
%TO.N,/SPARE3*%
X100584000Y-97536000D03*
%TO.P,J1,20,Pin_20*%
%TO.N,/5V*%
X100584000Y-94996000D03*
%TO.P,J1,21,Pin_21*%
%TO.N,/GND*%
X103124000Y-97536000D03*
%TO.P,J1,22,Pin_22*%
%TO.N,/SPARE4*%
X103124000Y-94996000D03*
%TO.P,J1,23,Pin_23*%
%TO.N,/RESET*%
X105664000Y-97536000D03*
%TO.P,J1,24,Pin_24*%
%TO.N,/BUSACK*%
X105664000Y-94996000D03*
%TO.P,J1,25,Pin_25*%
%TO.N,/ROMCS*%
X108204000Y-97536000D03*
%TO.P,J1,26,Pin_26*%
%TO.N,/NMI*%
X108204000Y-94996000D03*
%TO.P,J1,27,Pin_27*%
%TO.N,/WAIT*%
X110744000Y-97536000D03*
%TO.P,J1,28,Pin_28*%
%TO.N,/BUSRQ*%
X110744000Y-94996000D03*
%TO.P,J1,29,Pin_29*%
%TO.N,/MEMRQ*%
X113284000Y-97536000D03*
%TO.P,J1,30,Pin_30*%
%TO.N,/IORQ*%
X113284000Y-94996000D03*
%TO.P,J1,31,Pin_31*%
%TO.N,/RW*%
X115824000Y-97536000D03*
%TO.P,J1,32,Pin_32*%
%TO.N,/RD*%
X115824000Y-94996000D03*
%TO.P,J1,33,Pin_33*%
%TO.N,/Z80_A8*%
X118364000Y-97536000D03*
%TO.P,J1,34,Pin_34*%
%TO.N,/Z80_A9*%
X118364000Y-94996000D03*
%TO.P,J1,35,Pin_35*%
%TO.N,/Z80_A10*%
X120904000Y-97536000D03*
%TO.P,J1,36,Pin_36*%
%TO.N,/Z80_A11*%
X120904000Y-94996000D03*
%TO.P,J1,37,Pin_37*%
%TO.N,/Z80_A12*%
X123444000Y-97536000D03*
%TO.P,J1,38,Pin_38*%
%TO.N,/Z80_A13*%
X123444000Y-94996000D03*
%TO.P,J1,39,Pin_39*%
%TO.N,/Z80_A14*%
X125984000Y-97536000D03*
%TO.P,J1,40,Pin_40*%
%TO.N,/Z80_A15*%
X125984000Y-94996000D03*
%TD*%
D10*
%TO.P,U1,1,Gnd*%
%TO.N,unconnected-(U1-Gnd-Pad1)*%
X62484000Y-144780000D03*
D11*
%TO.P,U1,2,Gnd*%
%TO.N,unconnected-(U1-Gnd-Pad2)*%
X62484000Y-147320000D03*
%TO.P,U1,3,EAR*%
%TO.N,unconnected-(U1-EAR-Pad3)*%
X65024000Y-144780000D03*
%TO.P,U1,4,SPKR/TAPE*%
%TO.N,unconnected-(U1-SPKR{slash}TAPE-Pad4)*%
X65024000Y-147320000D03*
%TO.P,U1,5,A7RB*%
%TO.N,unconnected-(U1-A7RB-Pad5)*%
X67564000Y-144780000D03*
%TO.P,U1,6,15V*%
%TO.N,unconnected-(U1-15V-Pad6)*%
X67564000Y-147320000D03*
%TO.P,U1,7,D7*%
%TO.N,/Z80_D7*%
X70104000Y-144780000D03*
%TO.P,U1,8,5V*%
%TO.N,/5V*%
X70104000Y-147320000D03*
%TO.P,U1,9,DZIN*%
%TO.N,unconnected-(U1-DZIN-Pad9)*%
X72644000Y-144780000D03*
%TO.P,U1,10*%
%TO.N,N/C*%
X72644000Y-147320000D03*
%TO.P,U1,11*%
X75184000Y-144780000D03*
%TO.P,U1,12*%
X75184000Y-147320000D03*
%TO.P,U1,13,D0*%
%TO.N,/Z80_D0*%
X77724000Y-144780000D03*
%TO.P,U1,14,PWR_GND*%
%TO.N,/GND*%
X77724000Y-147320000D03*
%TO.P,U1,15,D1*%
%TO.N,/Z80_D1*%
X80264000Y-144780000D03*
%TO.P,U1,16,PWR_GND*%
%TO.N,/GND*%
X80264000Y-147320000D03*
%TO.P,U1,17,D2*%
%TO.N,/Z80_D2*%
X82804000Y-144780000D03*
%TO.P,U1,18,CLK*%
%TO.N,unconnected-(U1-CLK-Pad18)*%
X82804000Y-147320000D03*
%TO.P,U1,19,D6*%
%TO.N,/Z80_D6*%
X85344000Y-144780000D03*
%TO.P,U1,20,A0*%
%TO.N,/Z80_A0*%
X85344000Y-147320000D03*
%TO.P,U1,21,D5*%
%TO.N,/Z80_D5*%
X87884000Y-144780000D03*
%TO.P,U1,22,A1*%
%TO.N,/Z80_A1*%
X87884000Y-147320000D03*
%TO.P,U1,23,D3*%
%TO.N,/Z80_D3*%
X90424000Y-144780000D03*
%TO.P,U1,24,A2*%
%TO.N,/Z80_A2*%
X90424000Y-147320000D03*
%TO.P,U1,25,A13*%
%TO.N,/Z80_A13*%
X92964000Y-144780000D03*
%TO.P,U1,26,A3*%
%TO.N,/Z80_A3*%
X92964000Y-147320000D03*
%TO.P,U1,27,/INT*%
%TO.N,unconnected-(U1-{slash}INT-Pad27)*%
X95504000Y-144780000D03*
%TO.P,U1,28,A14*%
%TO.N,/Z80_A14*%
X95504000Y-147320000D03*
%TO.P,U1,29,/NMI*%
%TO.N,/NMI*%
X98044000Y-144780000D03*
%TO.P,U1,30,A15*%
%TO.N,/Z80_A15*%
X98044000Y-147320000D03*
%TO.P,U1,31,/HALT*%
%TO.N,unconnected-(U1-{slash}HALT-Pad31)*%
X100584000Y-144780000D03*
%TO.P,U1,32*%
%TO.N,N/C*%
X100584000Y-147320000D03*
%TO.P,U1,33,/MEMRQB*%
%TO.N,/MEMRQ*%
X103124000Y-144780000D03*
%TO.P,U1,34,A12*%
%TO.N,/Z80_A12*%
X103124000Y-147320000D03*
%TO.P,U1,35,/IORQB*%
%TO.N,/IORQ*%
X105664000Y-144780000D03*
%TO.P,U1,36,A11*%
%TO.N,/Z80_A11*%
X105664000Y-147320000D03*
%TO.P,U1,37,RDB*%
%TO.N,/RD*%
X108204000Y-144780000D03*
%TO.P,U1,38,A10*%
%TO.N,/Z80_A10*%
X108204000Y-147320000D03*
%TO.P,U1,39,WRB*%
%TO.N,/RW*%
X110744000Y-144780000D03*
%TO.P,U1,40,A9*%
%TO.N,/Z80_A9*%
X110744000Y-147320000D03*
%TO.P,U1,41,/BUSAK*%
%TO.N,/BUSACK*%
X113284000Y-144780000D03*
%TO.P,U1,42,A8*%
%TO.N,/Z80_A8*%
X113284000Y-147320000D03*
%TO.P,U1,43,/WAIT*%
%TO.N,/WAIT*%
X115824000Y-144780000D03*
%TO.P,U1,44,A7*%
%TO.N,/Z80_A7*%
X115824000Y-147320000D03*
%TO.P,U1,45,/BUSRQ*%
%TO.N,/BUSRQ*%
X118364000Y-144780000D03*
%TO.P,U1,46,A6*%
%TO.N,/Z80_A6*%
X118364000Y-147320000D03*
%TO.P,U1,47,/RESET*%
%TO.N,/RESET*%
X120904000Y-144780000D03*
%TO.P,U1,48,A5*%
%TO.N,/Z80_A5*%
X120904000Y-147320000D03*
%TO.P,U1,49,/M1*%
%TO.N,unconnected-(U1-{slash}M1-Pad49)*%
X123444000Y-144780000D03*
%TO.P,U1,50,A4*%
%TO.N,/Z80_A4*%
X123444000Y-147320000D03*
%TO.P,U1,51,/RFSHB*%
%TO.N,unconnected-(U1-{slash}RFSHB-Pad51)*%
X125984000Y-144780000D03*
%TO.P,U1,52,DZOUT*%
%TO.N,unconnected-(U1-DZOUT-Pad52)*%
X125984000Y-147320000D03*
%TO.P,U1,53,/EXROM*%
%TO.N,/ROMCS*%
X128524000Y-144780000D03*
%TO.P,U1,54,RGB_RD*%
%TO.N,unconnected-(U1-RGB_RD-Pad54)*%
X128524000Y-147320000D03*
%TO.P,U1,55,/ROSCS*%
%TO.N,/SPARE3*%
X131064000Y-144780000D03*
%TO.P,U1,56,RGB_GRN*%
%TO.N,unconnected-(U1-RGB_GRN-Pad56)*%
X131064000Y-147320000D03*
%TO.P,U1,57,/BE*%
%TO.N,/SPARE2*%
X133604000Y-144780000D03*
%TO.P,U1,58,RGB_BLU*%
%TO.N,unconnected-(U1-RGB_BLU-Pad58)*%
X133604000Y-147320000D03*
%TO.P,U1,59,IOA5*%
%TO.N,unconnected-(U1-IOA5-Pad59)*%
X136144000Y-144780000D03*
%TO.P,U1,60,BUSISO*%
%TO.N,/SPARE1*%
X136144000Y-147320000D03*
%TO.P,U1,61,Sound*%
%TO.N,unconnected-(U1-Sound-Pad61)*%
X138684000Y-144780000D03*
%TO.P,U1,62,Video*%
%TO.N,unconnected-(U1-Video-Pad62)*%
X138684000Y-147320000D03*
%TO.P,U1,63,Gnd*%
%TO.N,unconnected-(U1-Gnd-Pad63)*%
X141224000Y-144780000D03*
%TO.P,U1,64,Gnd*%
%TO.N,unconnected-(U1-Gnd-Pad64)*%
X141224000Y-147320000D03*
%TD*%
D12*
%TO.N,/Z80_A9*%
X107239100Y-139758600D03*
%TO.N,/WAIT*%
X108895100Y-135264700D03*
%TO.N,/Z80_D3*%
X91694000Y-109847500D03*
%TO.N,/Z80_A7*%
X83156900Y-110490800D03*
%TO.N,/Z80_A6*%
X119217300Y-139622500D03*
%TO.N,/RW*%
X116674700Y-135012700D03*
%TO.N,/Z80_A14*%
X110711800Y-139221600D03*
%TD*%
D13*
%TO.N,/Z80_A9*%
X117162300Y-97023800D02*
X117162300Y-129346300D01*
X118364000Y-94996000D02*
X118364000Y-96197700D01*
X107239100Y-139269500D02*
X107239100Y-139758600D01*
X117988400Y-96197700D02*
X117162300Y-97023800D01*
X117162300Y-129346300D02*
X107239100Y-139269500D01*
X118364000Y-96197700D02*
X117988400Y-96197700D01*
%TO.N,/IORQ*%
X113284000Y-94996000D02*
X113284000Y-96197700D01*
X113985800Y-131728800D02*
X113985800Y-131813400D01*
X113985800Y-131813400D02*
X105664000Y-140135200D01*
X105664000Y-140135200D02*
X105664000Y-143578300D01*
X105664000Y-144780000D02*
X105664000Y-143578300D01*
X114487400Y-97027600D02*
X114487400Y-131227200D01*
X114487400Y-131227200D02*
X113985800Y-131728800D01*
X113657500Y-96197700D02*
X114487400Y-97027600D01*
X113284000Y-96197700D02*
X113657500Y-96197700D01*
%TO.N,/WAIT*%
X108895100Y-100586600D02*
X108895100Y-135264700D01*
X110744000Y-97536000D02*
X110744000Y-98737700D01*
X110744000Y-98737700D02*
X108895100Y-100586600D01*
%TO.N,/Z80_D3*%
X90424000Y-144780000D02*
X90424000Y-111117500D01*
X90424000Y-111117500D02*
X91694000Y-109847500D01*
%TO.N,/Z80_D0*%
X87884000Y-98737700D02*
X85863200Y-100758500D01*
X77724000Y-144780000D02*
X77724000Y-143578300D01*
X87884000Y-97536000D02*
X87884000Y-98737700D01*
X85863200Y-102944900D02*
X83863800Y-104944300D01*
X85863200Y-100758500D02*
X85863200Y-102944900D01*
X83863800Y-104944300D02*
X83863800Y-137438500D01*
X83863800Y-137438500D02*
X77724000Y-143578300D01*
%TO.N,/Z80_D2*%
X82804000Y-143578300D02*
X84867200Y-141515100D01*
X84867200Y-108504800D02*
X90424000Y-102948000D01*
X90424000Y-97536000D02*
X90424000Y-98737700D01*
X84867200Y-141515100D02*
X84867200Y-108504800D01*
X82804000Y-144780000D02*
X82804000Y-143578300D01*
X90424000Y-102948000D02*
X90424000Y-98737700D01*
%TO.N,/Z80_D6*%
X95504000Y-98737700D02*
X85841900Y-108399800D01*
X85841900Y-108399800D02*
X85841900Y-143080400D01*
X95504000Y-97536000D02*
X95504000Y-98737700D01*
X85344000Y-144780000D02*
X85344000Y-143578300D01*
X85841900Y-143080400D02*
X85344000Y-143578300D01*
%TO.N,/Z80_A13*%
X94165700Y-145153500D02*
X95062200Y-146050000D01*
X117100000Y-139399200D02*
X127722500Y-128776700D01*
X114760900Y-150119900D02*
X117100000Y-147780800D01*
X94165700Y-144780000D02*
X94165700Y-145153500D01*
X123444000Y-94996000D02*
X124645700Y-94996000D01*
X92964000Y-144780000D02*
X94165700Y-144780000D01*
X127722500Y-95740500D02*
X127222300Y-95240300D01*
X125482000Y-93784200D02*
X124645700Y-94620500D01*
X96016100Y-146050000D02*
X96826100Y-146860000D01*
X127722500Y-128776700D02*
X127722500Y-95740500D01*
X127222300Y-94532900D02*
X126473600Y-93784200D01*
X124645700Y-94620500D02*
X124645700Y-94996000D01*
X117100000Y-147780800D02*
X117100000Y-139399200D01*
X96826100Y-147819600D02*
X99126400Y-150119900D01*
X96826100Y-146860000D02*
X96826100Y-147819600D01*
X127222300Y-95240300D02*
X127222300Y-94532900D01*
X126473600Y-93784200D02*
X125482000Y-93784200D01*
X99126400Y-150119900D02*
X114760900Y-150119900D01*
X95062200Y-146050000D02*
X96016100Y-146050000D01*
%TO.N,/Z80_A7*%
X85344000Y-94996000D02*
X85344000Y-96197700D01*
X84142300Y-97023800D02*
X84142300Y-102391000D01*
X85344000Y-96197700D02*
X84968400Y-96197700D01*
X84968400Y-96197700D02*
X84142300Y-97023800D01*
X84142300Y-102391000D02*
X83156900Y-103376400D01*
X83156900Y-103376400D02*
X83156900Y-110490800D01*
%TO.N,/BUSACK*%
X112082300Y-147700600D02*
X110754300Y-149028600D01*
X101121200Y-146050000D02*
X97612300Y-146050000D01*
X112082300Y-146807800D02*
X112082300Y-147700600D01*
X105288400Y-96197700D02*
X105664000Y-96197700D01*
X96830400Y-145268100D02*
X96830400Y-107599600D01*
X110754300Y-149028600D02*
X103101800Y-149028600D01*
X112908400Y-145981700D02*
X112082300Y-146807800D01*
X104462300Y-97023800D02*
X105288400Y-96197700D01*
X97612300Y-146050000D02*
X96830400Y-145268100D01*
X113284000Y-145981700D02*
X112908400Y-145981700D01*
X103101800Y-149028600D02*
X101909300Y-147836100D01*
X113284000Y-144780000D02*
X113284000Y-145981700D01*
X101909300Y-146838100D02*
X101121200Y-146050000D01*
X104462300Y-99967700D02*
X104462300Y-97023800D01*
X105664000Y-94996000D02*
X105664000Y-96197700D01*
X101909300Y-147836100D02*
X101909300Y-146838100D01*
X96830400Y-107599600D02*
X104462300Y-99967700D01*
%TO.N,/RD*%
X122105800Y-126196700D02*
X108392500Y-139910000D01*
X108392500Y-143389800D02*
X108204000Y-143578300D01*
X115824000Y-94996000D02*
X117025700Y-94996000D01*
X108204000Y-144780000D02*
X108204000Y-143578300D01*
X117025700Y-94996000D02*
X117025700Y-94622500D01*
X108392500Y-139910000D02*
X108392500Y-143389800D01*
X117025700Y-94622500D02*
X117874200Y-93774000D01*
X121428600Y-93774000D02*
X122105800Y-94451200D01*
X117874200Y-93774000D02*
X121428600Y-93774000D01*
X122105800Y-94451200D02*
X122105800Y-126196700D01*
%TO.N,/SPARE3*%
X100584000Y-96334300D02*
X100959600Y-96334300D01*
X131064000Y-144780000D02*
X131064000Y-143578300D01*
X127076400Y-92237600D02*
X129522100Y-94683300D01*
X101785700Y-95508200D02*
X101785700Y-94558800D01*
X100959600Y-96334300D02*
X101785700Y-95508200D01*
X101785700Y-94558800D02*
X104106900Y-92237600D01*
X100584000Y-97536000D02*
X100584000Y-96334300D01*
X104106900Y-92237600D02*
X127076400Y-92237600D01*
X129522100Y-142036400D02*
X131064000Y-143578300D01*
X129522100Y-94683300D02*
X129522100Y-142036400D01*
%TO.N,/Z80_A6*%
X119581900Y-139987100D02*
X119581900Y-145273900D01*
X118737500Y-146118300D02*
X118364000Y-146118300D01*
X119217300Y-139622500D02*
X119581900Y-139987100D01*
X119581900Y-145273900D02*
X118737500Y-146118300D01*
X118364000Y-147320000D02*
X118364000Y-146118300D01*
D14*
%TO.N,/GND*%
X81515700Y-146801300D02*
X81515700Y-147320000D01*
X96278700Y-105633000D02*
X96278700Y-122732800D01*
X103124000Y-98787700D02*
X96278700Y-105633000D01*
X91694000Y-145312700D02*
X90956700Y-146050000D01*
X80264000Y-147320000D02*
X81515700Y-147320000D01*
X82267000Y-146050000D02*
X81515700Y-146801300D01*
X96278700Y-122732800D02*
X91694000Y-127317500D01*
X91694000Y-127317500D02*
X91694000Y-145312700D01*
X103124000Y-97536000D02*
X103124000Y-98787700D01*
X90956700Y-146050000D02*
X82267000Y-146050000D01*
D13*
%TO.N,/MEMRQ*%
X103124000Y-144780000D02*
X103124000Y-143578300D01*
X113284000Y-131797500D02*
X103124000Y-141957500D01*
X113284000Y-98737700D02*
X113284000Y-131797500D01*
X113284000Y-97536000D02*
X113284000Y-98737700D01*
X103124000Y-141957500D02*
X103124000Y-143578300D01*
%TO.N,/RESET*%
X128727400Y-135754900D02*
X120904000Y-143578300D01*
X120904000Y-144780000D02*
X120904000Y-143578300D01*
X105664000Y-97536000D02*
X106934000Y-96266000D01*
X126849200Y-92741000D02*
X128727400Y-94619200D01*
X108683500Y-92741000D02*
X126849200Y-92741000D01*
X128727400Y-94619200D02*
X128727400Y-135754900D01*
X106934000Y-94490500D02*
X108683500Y-92741000D01*
X106934000Y-96266000D02*
X106934000Y-94490500D01*
%TO.N,/Z80_D1*%
X88259500Y-96197700D02*
X87884000Y-96197700D01*
X84365500Y-108297100D02*
X84865700Y-107796900D01*
X84865700Y-104651800D02*
X89090200Y-100427300D01*
X80264000Y-143578300D02*
X84365500Y-139476800D01*
X80264000Y-144780000D02*
X80264000Y-143578300D01*
X89090200Y-97028400D02*
X88259500Y-96197700D01*
X84865700Y-107796900D02*
X84865700Y-104651800D01*
X89090200Y-100427300D02*
X89090200Y-97028400D01*
X84365500Y-139476800D02*
X84365500Y-108297100D01*
X87884000Y-94996000D02*
X87884000Y-96197700D01*
%TO.N,/Z80_A12*%
X123444000Y-125582300D02*
X110456400Y-138569900D01*
X106934000Y-147819000D02*
X106227400Y-148525600D01*
X109474000Y-145222700D02*
X108715000Y-145981700D01*
X103124000Y-147320000D02*
X104325700Y-147320000D01*
X108715000Y-145981700D02*
X107760200Y-145981700D01*
X110060100Y-138951800D02*
X110060100Y-138966200D01*
X106934000Y-146807900D02*
X106934000Y-147819000D01*
X107760200Y-145981700D02*
X106934000Y-146807900D01*
X110442000Y-138569900D02*
X110060100Y-138951800D01*
X104325700Y-147693500D02*
X104325700Y-147320000D01*
X110060100Y-138966200D02*
X109474000Y-139552300D01*
X109474000Y-139552300D02*
X109474000Y-145222700D01*
X106227400Y-148525600D02*
X105157800Y-148525600D01*
X110456400Y-138569900D02*
X110442000Y-138569900D01*
X123444000Y-97536000D02*
X123444000Y-98737700D01*
X105157800Y-148525600D02*
X104325700Y-147693500D01*
X123444000Y-98737700D02*
X123444000Y-125582300D01*
%TO.N,/BUSRQ*%
X128225700Y-129692300D02*
X128225700Y-95534200D01*
X118364000Y-139554000D02*
X128225700Y-129692300D01*
X118364000Y-143578300D02*
X118364000Y-139554000D01*
X127808000Y-94409200D02*
X126655700Y-93256900D01*
X113309300Y-93256900D02*
X111945700Y-94620500D01*
X128225700Y-95534200D02*
X127808000Y-95116500D01*
X111945700Y-94620500D02*
X111945700Y-94996000D01*
X127808000Y-95116500D02*
X127808000Y-94409200D01*
X110744000Y-94996000D02*
X111945700Y-94996000D01*
X126655700Y-93256900D02*
X113309300Y-93256900D01*
X118364000Y-144780000D02*
X118364000Y-143578300D01*
%TO.N,/Z80_D7*%
X94302300Y-94620500D02*
X93428500Y-93746700D01*
X70104000Y-100907800D02*
X70104000Y-144780000D01*
X94302300Y-94996000D02*
X94302300Y-94620500D01*
X77265100Y-93746700D02*
X70104000Y-100907800D01*
X95504000Y-94996000D02*
X94302300Y-94996000D01*
X93428500Y-93746700D02*
X77265100Y-93746700D01*
%TO.N,/RW*%
X116674700Y-135012700D02*
X110744000Y-140943400D01*
X110744000Y-140943400D02*
X110744000Y-144780000D01*
%TO.N,/Z80_A3*%
X79734100Y-148581000D02*
X78994000Y-147840900D01*
X91762300Y-147320000D02*
X91762300Y-147695500D01*
X78167300Y-146050000D02*
X77280600Y-146050000D01*
X80637500Y-96197700D02*
X80264000Y-96197700D01*
X76505700Y-145275100D02*
X76505700Y-105115500D01*
X91762300Y-147695500D02*
X90876800Y-148581000D01*
X81478000Y-97038200D02*
X80637500Y-96197700D01*
X92964000Y-147320000D02*
X91762300Y-147320000D01*
X78994000Y-147840900D02*
X78994000Y-146876700D01*
X81478000Y-100143200D02*
X81478000Y-97038200D01*
X90876800Y-148581000D02*
X79734100Y-148581000D01*
X76505700Y-105115500D02*
X81478000Y-100143200D01*
X80264000Y-94996000D02*
X80264000Y-96197700D01*
X77280600Y-146050000D02*
X76505700Y-145275100D01*
X78994000Y-146876700D02*
X78167300Y-146050000D01*
%TO.N,/Z80_D5*%
X96722300Y-97041000D02*
X95879000Y-96197700D01*
X94165700Y-96197700D02*
X92964000Y-94996000D01*
X87884000Y-144780000D02*
X87884000Y-143578300D01*
X96722300Y-103193000D02*
X96722300Y-97041000D01*
X95879000Y-96197700D02*
X94165700Y-96197700D01*
X87884000Y-143578300D02*
X87884000Y-112031300D01*
X87884000Y-112031300D02*
X96722300Y-103193000D01*
%TO.N,/Z80_A14*%
X125984000Y-98737700D02*
X125984000Y-123949400D01*
X125984000Y-123949400D02*
X110711800Y-139221600D01*
X125984000Y-97536000D02*
X125984000Y-98737700D01*
%TO.N,/Z80_A15*%
X98044000Y-147320000D02*
X99245700Y-147320000D01*
X127203300Y-97041500D02*
X126359500Y-96197700D01*
X99245700Y-147693500D02*
X101126400Y-149574200D01*
X99245700Y-147320000D02*
X99245700Y-147693500D01*
X126359500Y-96197700D02*
X125984000Y-96197700D01*
X114554000Y-147771100D02*
X114554000Y-139754900D01*
X112750900Y-149574200D02*
X114554000Y-147771100D01*
X114554000Y-139754900D02*
X127203300Y-127105600D01*
X101126400Y-149574200D02*
X112750900Y-149574200D01*
X125984000Y-94996000D02*
X125984000Y-96197700D01*
X127203300Y-127105600D02*
X127203300Y-97041500D01*
%TO.N,/Z80_A11*%
X119702300Y-127673800D02*
X119702300Y-97023800D01*
X119702300Y-97023800D02*
X120528400Y-96197700D01*
X105664000Y-147320000D02*
X105664000Y-146118300D01*
X106997800Y-140921500D02*
X107890800Y-140028500D01*
X107890800Y-140028500D02*
X107890800Y-139485300D01*
X120528400Y-96197700D02*
X120904000Y-96197700D01*
X106997800Y-145158000D02*
X106997800Y-140921500D01*
X107890800Y-139485300D02*
X119702300Y-127673800D01*
X120904000Y-94996000D02*
X120904000Y-96197700D01*
X105664000Y-146118300D02*
X106037500Y-146118300D01*
X106037500Y-146118300D02*
X106997800Y-145158000D01*
%TO.N,/SPARE1*%
X102128400Y-91712000D02*
X127260200Y-91712000D01*
X127260200Y-91712000D02*
X134874000Y-99325800D01*
X98044000Y-96334300D02*
X98419600Y-96334300D01*
X98044000Y-97536000D02*
X98044000Y-96334300D01*
X98419600Y-96334300D02*
X99245700Y-95508200D01*
X135770500Y-146118300D02*
X136144000Y-146118300D01*
X134874000Y-99325800D02*
X134874000Y-145221800D01*
X134874000Y-145221800D02*
X135770500Y-146118300D01*
X99245700Y-94594700D02*
X102128400Y-91712000D01*
X99245700Y-95508200D02*
X99245700Y-94594700D01*
X136144000Y-147320000D02*
X136144000Y-146118300D01*
%TO.N,/NMI*%
X107828500Y-96197700D02*
X108204000Y-96197700D01*
X106995600Y-97030600D02*
X107828500Y-96197700D01*
X108204000Y-94996000D02*
X108204000Y-96197700D01*
X106995600Y-134626700D02*
X106995600Y-97030600D01*
X98044000Y-144780000D02*
X98044000Y-143578300D01*
X98044000Y-143578300D02*
X106995600Y-134626700D01*
%TD*%
M02*
