%TF.GenerationSoftware,KiCad,Pcbnew,8.0.5*%
%TF.CreationDate,2024-10-04T15:32:28-04:00*%
%TF.ProjectId,FujiNet_5.0,46756a69-4e65-4745-9f35-2e302e6b6963,rev?*%
%TF.SameCoordinates,Original*%
%TF.FileFunction,Copper,L2,Bot*%
%TF.FilePolarity,Positive*%
%FSLAX46Y46*%
G04 Gerber Fmt 4.6, Leading zero omitted, Abs format (unit mm)*
G04 Created by KiCad (PCBNEW 8.0.5) date 2024-10-04 15:32:28*
%MOMM*%
%LPD*%
G01*
G04 APERTURE LIST*
%TA.AperFunction,ComponentPad*%
%ADD10C,1.600000*%
%TD*%
%TA.AperFunction,ComponentPad*%
%ADD11O,1.600000X1.600000*%
%TD*%
%TA.AperFunction,ComponentPad*%
%ADD12R,1.600000X1.600000*%
%TD*%
%TA.AperFunction,ComponentPad*%
%ADD13R,2.000000X1.200000*%
%TD*%
%TA.AperFunction,ComponentPad*%
%ADD14O,2.000000X1.200000*%
%TD*%
%TA.AperFunction,ComponentPad*%
%ADD15C,2.000000*%
%TD*%
%TA.AperFunction,ComponentPad*%
%ADD16R,1.700000X1.700000*%
%TD*%
%TA.AperFunction,ComponentPad*%
%ADD17O,1.700000X1.700000*%
%TD*%
%TA.AperFunction,ComponentPad*%
%ADD18R,1.800000X1.800000*%
%TD*%
%TA.AperFunction,ComponentPad*%
%ADD19C,1.800000*%
%TD*%
%TA.AperFunction,ComponentPad*%
%ADD20C,1.524000*%
%TD*%
%TA.AperFunction,ViaPad*%
%ADD21C,0.600000*%
%TD*%
%TA.AperFunction,Conductor*%
%ADD22C,0.300000*%
%TD*%
%TA.AperFunction,Conductor*%
%ADD23C,0.500000*%
%TD*%
G04 APERTURE END LIST*
D10*
%TO.P,R1,1*%
%TO.N,Net-(A0-7_SHIFTER1-OE)*%
X137160000Y-89408000D03*
D11*
%TO.P,R1,2*%
%TO.N,+3.3V*%
X137160000Y-79248000D03*
%TD*%
D12*
%TO.P,RN1,1,common*%
%TO.N,GND*%
X49276000Y-128524000D03*
D11*
%TO.P,RN1,2,R1*%
%TO.N,/DATA FLOW CONTROL/Z80_D0*%
X49276000Y-131064000D03*
%TO.P,RN1,3,R2*%
%TO.N,/DATA FLOW CONTROL/Z80_D1*%
X49276000Y-133604000D03*
%TO.P,RN1,4,R3*%
%TO.N,/DATA FLOW CONTROL/Z80_D2*%
X49276000Y-136144000D03*
%TO.P,RN1,5,R4*%
%TO.N,/DATA FLOW CONTROL/Z80_D3*%
X49276000Y-138684000D03*
%TO.P,RN1,6,R5*%
%TO.N,/DATA FLOW CONTROL/Z80_D4*%
X49276000Y-141224000D03*
%TO.P,RN1,7,R6*%
%TO.N,/DATA FLOW CONTROL/Z80_D5*%
X49276000Y-143764000D03*
%TO.P,RN1,8,R7*%
%TO.N,/DATA FLOW CONTROL/Z80_D6*%
X49276000Y-146304000D03*
%TO.P,RN1,9,R8*%
%TO.N,/DATA FLOW CONTROL/Z80_D7*%
X49276000Y-148844000D03*
%TD*%
D10*
%TO.P,R4,1*%
%TO.N,GND*%
X52832000Y-28956000D03*
D11*
%TO.P,R4,2*%
%TO.N,Net-(D2-K)*%
X52832000Y-18796000D03*
%TD*%
D12*
%TO.P,D6,1,K*%
%TO.N,/ESP-32 Module/ROM_ACCESS_A18*%
X139700000Y-157988000D03*
D11*
%TO.P,D6,2,A*%
%TO.N,Net-(D6-A)*%
X139700000Y-165608000D03*
%TD*%
D13*
%TO.P,U11,1,3V3*%
%TO.N,+3.3V*%
X143256000Y-64008000D03*
D14*
%TO.P,U11,2,CHIP_PU*%
%TO.N,unconnected-(U11-CHIP_PU-Pad2)*%
X143256000Y-61468000D03*
%TO.P,U11,3,SENSOR_VP/GPIO36/ADC1_CH0*%
%TO.N,Net-(U11-SENSOR_VP{slash}GPIO36{slash}ADC1_CH0)*%
X143256000Y-58928000D03*
%TO.P,U11,4,SENSOR_VN/GPIO39/ADC1_CH3*%
%TO.N,unconnected-(U11-SENSOR_VN{slash}GPIO39{slash}ADC1_CH3-Pad4)*%
X143256000Y-56388000D03*
%TO.P,U11,5,VDET_1/GPIO34/ADC1_CH6*%
%TO.N,Net-(U11-VDET_1{slash}GPIO34{slash}ADC1_CH6)*%
X143256000Y-53848000D03*
%TO.P,U11,6,VDET_2/GPIO35/ADC1_CH7*%
%TO.N,Net-(U11-VDET_2{slash}GPIO35{slash}ADC1_CH7)*%
X143256000Y-51308000D03*
%TO.P,U11,7,32K_XP/GPIO32/ADC1_CH4*%
%TO.N,/DATA FLOW CONTROL/ROMCS*%
X143256000Y-48768000D03*
%TO.P,U11,8,32K_XN/GPIO33/ADC1_CH5*%
%TO.N,/DATA FLOW CONTROL/NMI*%
X143256000Y-46228000D03*
%TO.P,U11,9,DAC_1/ADC2_CH8/GPIO25*%
%TO.N,/ESP-32 Module/ROM_ACCESS_A16*%
X143256000Y-43688000D03*
%TO.P,U11,10,DAC_2/ADC2_CH9/GPIO26*%
%TO.N,/ESP-32 Module/ROM_ACCESS_A17*%
X143256000Y-41148000D03*
%TO.P,U11,11,ADC2_CH7/GPIO27*%
%TO.N,/ESP-32 Module/ROM_ACCESS_A18*%
X143256000Y-38608000D03*
%TO.P,U11,12,MTMS/GPIO14/ADC2_CH6*%
%TO.N,Net-(SPI_Spare1-Pin_2)*%
X143256000Y-36068000D03*
%TO.P,U11,13,MTDI/GPIO12/ADC2_CH5*%
%TO.N,Net-(SPI_Spare1-Pin_4)*%
X143256000Y-33528000D03*
%TO.P,U11,14,GND*%
%TO.N,GND*%
X143256000Y-30988000D03*
%TO.P,U11,15,MTCK/GPIO13/ADC2_CH4*%
%TO.N,Net-(SPI_Spare1-Pin_3)*%
X143256000Y-28448000D03*
%TO.P,U11,16,SD_DATA2/GPIO9*%
%TO.N,unconnected-(U11-SD_DATA2{slash}GPIO9-Pad16)*%
X143256000Y-25908000D03*
%TO.P,U11,17,SD_DATA3/GPIO10*%
%TO.N,unconnected-(U11-SD_DATA3{slash}GPIO10-Pad17)*%
X143256000Y-23368000D03*
%TO.P,U11,18,CMD*%
%TO.N,unconnected-(U11-CMD-Pad18)*%
X143256000Y-20828000D03*
%TO.P,U11,19,5V*%
%TO.N,+5V*%
X143256000Y-18288000D03*
%TO.P,U11,20,SD_CLK/GPIO6*%
%TO.N,unconnected-(U11-SD_CLK{slash}GPIO6-Pad20)*%
X117859680Y-18290720D03*
%TO.P,U11,21,SD_DATA0/GPIO7*%
%TO.N,unconnected-(U11-SD_DATA0{slash}GPIO7-Pad21)*%
X117859680Y-20830720D03*
%TO.P,U11,22,SD_DATA1/GPIO8*%
%TO.N,unconnected-(U11-SD_DATA1{slash}GPIO8-Pad22)*%
X117856000Y-23368000D03*
%TO.P,U11,23,MTDO/GPIO15/ADC2_CH3*%
%TO.N,Net-(SPI_Spare1-Pin_1)*%
X117856000Y-25908000D03*
%TO.P,U11,24,ADC2_CH2/GPIO2*%
%TO.N,/DATA FLOW CONTROL/Spare_1*%
X117856000Y-28448000D03*
%TO.P,U11,25,GPIO0/BOOT/ADC2_CH1*%
%TO.N,/DATA FLOW CONTROL/RESET*%
X117856000Y-30988000D03*
%TO.P,U11,26,ADC2_CH0/GPIO4*%
%TO.N,/DATA FLOW CONTROL/Spare_2*%
X117856000Y-33528000D03*
%TO.P,U11,27,GPIO16*%
%TO.N,/DATA FLOW CONTROL/WAIT*%
X117856000Y-36068000D03*
%TO.P,U11,28,GPIO17*%
%TO.N,/DATA FLOW CONTROL/SYSTEM_READY*%
X117856000Y-38608000D03*
%TO.P,U11,29,GPIO5*%
%TO.N,/ESP-32 Module/SS*%
X117856000Y-41148000D03*
%TO.P,U11,30,GPIO18*%
%TO.N,/ESP-32 Module/SCK*%
X117856000Y-43688000D03*
%TO.P,U11,31,GPIO19*%
%TO.N,/ESP-32 Module/MISO*%
X117856000Y-46228000D03*
%TO.P,U11,32,GND*%
%TO.N,GND*%
X117856000Y-48768000D03*
%TO.P,U11,33,GPIO21*%
%TO.N,/DATA FLOW CONTROL/Spare_3*%
X117856000Y-51308000D03*
%TO.P,U11,34,U0RXD/GPIO3*%
%TO.N,Net-(D2-A)*%
X117856000Y-53848000D03*
%TO.P,U11,35,U0TXD/GPIO1*%
%TO.N,Net-(D3-A)*%
X117856000Y-56388000D03*
%TO.P,U11,36,GPIO22*%
%TO.N,/DATA FLOW CONTROL/Spare_4*%
X117856000Y-58928000D03*
%TO.P,U11,37,GPIO23*%
%TO.N,/ESP-32 Module/MOSI*%
X117856000Y-61468000D03*
%TO.P,U11,38,GND*%
%TO.N,GND*%
X117856000Y-64008000D03*
%TD*%
D10*
%TO.P,R7,1*%
%TO.N,+3.3V*%
X64210000Y-28956000D03*
D11*
%TO.P,R7,2*%
%TO.N,Net-(U11-VDET_1{slash}GPIO34{slash}ADC1_CH6)*%
X64210000Y-18796000D03*
%TD*%
D15*
%TO.P,C1,1*%
%TO.N,+3.3V*%
X24892000Y-74208000D03*
%TO.P,C1,2*%
%TO.N,GND*%
X24892000Y-79208000D03*
%TD*%
D12*
%TO.P,D4,1,K*%
%TO.N,/ESP-32 Module/ROM_ACCESS_A16*%
X131572000Y-157988000D03*
D11*
%TO.P,D4,2,A*%
%TO.N,Net-(D4-A)*%
X131572000Y-165608000D03*
%TD*%
D10*
%TO.P,R5,1*%
%TO.N,GND*%
X106172000Y-18796000D03*
D11*
%TO.P,R5,2*%
%TO.N,Net-(D3-K)*%
X106172000Y-28956000D03*
%TD*%
D12*
%TO.P,RN3,1,common*%
%TO.N,GND*%
X128016000Y-129540000D03*
D11*
%TO.P,RN3,2,R1*%
%TO.N,/DATA FLOW CONTROL/Z80_A8*%
X128016000Y-132080000D03*
%TO.P,RN3,3,R2*%
%TO.N,/DATA FLOW CONTROL/Z80_A9*%
X128016000Y-134620000D03*
%TO.P,RN3,4,R3*%
%TO.N,/DATA FLOW CONTROL/Z80_A10*%
X128016000Y-137160000D03*
%TO.P,RN3,5,R4*%
%TO.N,/DATA FLOW CONTROL/Z80_A11*%
X128016000Y-139700000D03*
%TO.P,RN3,6,R5*%
%TO.N,/DATA FLOW CONTROL/Z80_A12*%
X128016000Y-142240000D03*
%TO.P,RN3,7,R6*%
%TO.N,/DATA FLOW CONTROL/Z80_A13*%
X128016000Y-144780000D03*
%TO.P,RN3,8,R7*%
%TO.N,/DATA FLOW CONTROL/Z80_A14*%
X128016000Y-147320000D03*
%TO.P,RN3,9,R8*%
%TO.N,/DATA FLOW CONTROL/Z80_A15*%
X128016000Y-149860000D03*
%TD*%
D16*
%TO.P,Rom_Access1,1,Pin_1*%
%TO.N,Net-(D4-A)*%
X132588000Y-169672000D03*
D17*
%TO.P,Rom_Access1,2,Pin_2*%
%TO.N,Net-(D5-A)*%
X135128000Y-169672000D03*
%TO.P,Rom_Access1,3,Pin_3*%
%TO.N,Net-(D6-A)*%
X137668000Y-169672000D03*
%TD*%
D12*
%TO.P,U1,1,A18*%
%TO.N,Net-(Rom_Access_Shifter1-B3)*%
X76200000Y-51816000D03*
D11*
%TO.P,U1,2,A16*%
%TO.N,Net-(Rom_Access_Shifter1-B1)*%
X76200000Y-54356000D03*
%TO.P,U1,3,A14*%
%TO.N,/DATA FLOW CONTROL/LEVEL_A14*%
X76200000Y-56896000D03*
%TO.P,U1,4,A12*%
%TO.N,/DATA FLOW CONTROL/LEVEL_A12*%
X76200000Y-59436000D03*
%TO.P,U1,5,A7*%
%TO.N,/DATA FLOW CONTROL/LEVEL_A7*%
X76200000Y-61976000D03*
%TO.P,U1,6,A6*%
%TO.N,/DATA FLOW CONTROL/LEVEL_A6*%
X76200000Y-64516000D03*
%TO.P,U1,7,A5*%
%TO.N,/DATA FLOW CONTROL/LEVEL_A5*%
X76200000Y-67056000D03*
%TO.P,U1,8,A4*%
%TO.N,/DATA FLOW CONTROL/LEVEL_A4*%
X76200000Y-69596000D03*
%TO.P,U1,9,A3*%
%TO.N,/DATA FLOW CONTROL/LEVEL_A3*%
X76200000Y-72136000D03*
%TO.P,U1,10,A2*%
%TO.N,/DATA FLOW CONTROL/LEVEL_A2*%
X76200000Y-74676000D03*
%TO.P,U1,11,A1*%
%TO.N,/DATA FLOW CONTROL/LEVEL_A1*%
X76200000Y-77216000D03*
%TO.P,U1,12,A0*%
%TO.N,/DATA FLOW CONTROL/LEVEL_A0*%
X76200000Y-79756000D03*
%TO.P,U1,13,DQ0*%
%TO.N,/DATA FLOW CONTROL/LEVEL_D0*%
X76200000Y-82296000D03*
%TO.P,U1,14,DQ1*%
%TO.N,/DATA FLOW CONTROL/LEVEL_D1*%
X76200000Y-84836000D03*
%TO.P,U1,15,DQ2*%
%TO.N,/DATA FLOW CONTROL/LEVEL_D2*%
X76200000Y-87376000D03*
%TO.P,U1,16,VSS*%
%TO.N,GND*%
X76200000Y-89916000D03*
%TO.P,U1,17,DQ3*%
%TO.N,/DATA FLOW CONTROL/LEVEL_D3*%
X91440000Y-89916000D03*
%TO.P,U1,18,DQ4*%
%TO.N,/DATA FLOW CONTROL/LEVEL_D4*%
X91440000Y-87376000D03*
%TO.P,U1,19,DQ5*%
%TO.N,/DATA FLOW CONTROL/LEVEL_D5*%
X91440000Y-84836000D03*
%TO.P,U1,20,DQ6*%
%TO.N,/DATA FLOW CONTROL/LEVEL_D6*%
X91440000Y-82296000D03*
%TO.P,U1,21,DQ7*%
%TO.N,/DATA FLOW CONTROL/LEVEL_D7*%
X91440000Y-79756000D03*
%TO.P,U1,22,CE#*%
%TO.N,Net-(J5-Pin_1)*%
X91440000Y-77216000D03*
%TO.P,U1,23,A10*%
%TO.N,/DATA FLOW CONTROL/LEVEL_A10*%
X91440000Y-74676000D03*
%TO.P,U1,24,OE#*%
%TO.N,/DATA FLOW CONTROL/RD_L*%
X91440000Y-72136000D03*
%TO.P,U1,25,A11*%
%TO.N,/DATA FLOW CONTROL/LEVEL_A11*%
X91440000Y-69596000D03*
%TO.P,U1,26,A9*%
%TO.N,/DATA FLOW CONTROL/LEVEL_A9*%
X91440000Y-67056000D03*
%TO.P,U1,27,A8*%
%TO.N,/DATA FLOW CONTROL/LEVEL_A8*%
X91440000Y-64516000D03*
%TO.P,U1,28,A13*%
%TO.N,/DATA FLOW CONTROL/LEVEL_A13*%
X91440000Y-61976000D03*
%TO.P,U1,29,WE#*%
%TO.N,/DATA FLOW CONTROL/RW_L*%
X91440000Y-59436000D03*
%TO.P,U1,30,A17*%
%TO.N,Net-(Rom_Access_Shifter1-B2)*%
X91440000Y-56896000D03*
%TO.P,U1,31,A15*%
%TO.N,/DATA FLOW CONTROL/LEVEL_A15*%
X91440000Y-54356000D03*
%TO.P,U1,32,VCC*%
%TO.N,+5V*%
X91440000Y-51816000D03*
%TD*%
D12*
%TO.P,A0-7_SHIFTER1,1,VA*%
%TO.N,+3.3V*%
X25400000Y-97536000D03*
D11*
%TO.P,A0-7_SHIFTER1,2,A1*%
%TO.N,/DATA FLOW CONTROL/LOCAL_A0*%
X25400000Y-100076000D03*
%TO.P,A0-7_SHIFTER1,3,A2*%
%TO.N,/DATA FLOW CONTROL/LOCAL_A1*%
X25400000Y-102616000D03*
%TO.P,A0-7_SHIFTER1,4,A3*%
%TO.N,/DATA FLOW CONTROL/LOCAL_A2*%
X25400000Y-105156000D03*
%TO.P,A0-7_SHIFTER1,5,A4*%
%TO.N,/DATA FLOW CONTROL/LOCAL_A3*%
X25400000Y-107696000D03*
%TO.P,A0-7_SHIFTER1,6,A5*%
%TO.N,/DATA FLOW CONTROL/LOCAL_A4*%
X25400000Y-110236000D03*
%TO.P,A0-7_SHIFTER1,7,A6*%
%TO.N,/DATA FLOW CONTROL/LOCAL_A5*%
X25400000Y-112776000D03*
%TO.P,A0-7_SHIFTER1,8,A7*%
%TO.N,/DATA FLOW CONTROL/LOCAL_A6*%
X25400000Y-115316000D03*
%TO.P,A0-7_SHIFTER1,9,A8*%
%TO.N,/DATA FLOW CONTROL/LOCAL_A7*%
X25400000Y-117856000D03*
%TO.P,A0-7_SHIFTER1,10,OE*%
%TO.N,Net-(A0-7_SHIFTER1-OE)*%
X25400000Y-120396000D03*
%TO.P,A0-7_SHIFTER1,11,GND*%
%TO.N,GND*%
X38100000Y-120396000D03*
%TO.P,A0-7_SHIFTER1,12,B8*%
%TO.N,/DATA FLOW CONTROL/LEVEL_A7*%
X38100000Y-117856000D03*
%TO.P,A0-7_SHIFTER1,13,B7*%
%TO.N,/DATA FLOW CONTROL/LEVEL_A6*%
X38100000Y-115316000D03*
%TO.P,A0-7_SHIFTER1,14,B6*%
%TO.N,/DATA FLOW CONTROL/LEVEL_A5*%
X38100000Y-112776000D03*
%TO.P,A0-7_SHIFTER1,15,B5*%
%TO.N,/DATA FLOW CONTROL/LEVEL_A4*%
X38100000Y-110236000D03*
%TO.P,A0-7_SHIFTER1,16,B4*%
%TO.N,/DATA FLOW CONTROL/LEVEL_A3*%
X38100000Y-107696000D03*
%TO.P,A0-7_SHIFTER1,17,B3*%
%TO.N,/DATA FLOW CONTROL/LEVEL_A2*%
X38100000Y-105156000D03*
%TO.P,A0-7_SHIFTER1,18,B2*%
%TO.N,/DATA FLOW CONTROL/LEVEL_A1*%
X38100000Y-102616000D03*
%TO.P,A0-7_SHIFTER1,19,B1*%
%TO.N,/DATA FLOW CONTROL/LEVEL_A0*%
X38100000Y-100076000D03*
%TO.P,A0-7_SHIFTER1,20,VB*%
%TO.N,+5V*%
X38100000Y-97536000D03*
%TD*%
D12*
%TO.P,U8,1,A->B*%
%TO.N,Net-(LS245_Dir1-Pin_2)*%
X109728000Y-129540000D03*
D11*
%TO.P,U8,2,A0*%
%TO.N,/DATA FLOW CONTROL/RD_O*%
X109728000Y-132080000D03*
%TO.P,U8,3,A1*%
%TO.N,/DATA FLOW CONTROL/RW_O*%
X109728000Y-134620000D03*
%TO.P,U8,4,A2*%
%TO.N,/DATA FLOW CONTROL/IORQ_O*%
X109728000Y-137160000D03*
%TO.P,U8,5,A3*%
%TO.N,/DATA FLOW CONTROL/MEMRQ_O*%
X109728000Y-139700000D03*
%TO.P,U8,6,A4*%
%TO.N,/DATA FLOW CONTROL/BUSRQ_O*%
X109728000Y-142240000D03*
%TO.P,U8,7,A5*%
%TO.N,/DATA FLOW CONTROL/WAIT_O*%
X109728000Y-144780000D03*
%TO.P,U8,8,A6*%
%TO.N,/DATA FLOW CONTROL/NMI_O*%
X109728000Y-147320000D03*
%TO.P,U8,9,A7*%
%TO.N,/DATA FLOW CONTROL/ROMCS_O*%
X109728000Y-149860000D03*
%TO.P,U8,10,GND*%
%TO.N,GND*%
X109728000Y-152400000D03*
%TO.P,U8,11,B7*%
%TO.N,/DATA FLOW CONTROL/ROMCS_L*%
X117348000Y-152400000D03*
%TO.P,U8,12,B6*%
%TO.N,/DATA FLOW CONTROL/NMI_L*%
X117348000Y-149860000D03*
%TO.P,U8,13,B5*%
%TO.N,/DATA FLOW CONTROL/WAIT_L*%
X117348000Y-147320000D03*
%TO.P,U8,14,B4*%
%TO.N,/DATA FLOW CONTROL/BUSRQ_L*%
X117348000Y-144780000D03*
%TO.P,U8,15,B3*%
%TO.N,/DATA FLOW CONTROL/MEMRQ_L*%
X117348000Y-142240000D03*
%TO.P,U8,16,B2*%
%TO.N,/DATA FLOW CONTROL/IORQ_L*%
X117348000Y-139700000D03*
%TO.P,U8,17,B1*%
%TO.N,/DATA FLOW CONTROL/RW_L*%
X117348000Y-137160000D03*
%TO.P,U8,18,B0*%
%TO.N,/DATA FLOW CONTROL/RD_L*%
X117348000Y-134620000D03*
%TO.P,U8,19,CE*%
%TO.N,Net-(J6-Pin_2)*%
X117348000Y-132080000D03*
%TO.P,U8,20,VCC*%
%TO.N,+5V*%
X117348000Y-129540000D03*
%TD*%
D12*
%TO.P,D5,1,K*%
%TO.N,/ESP-32 Module/ROM_ACCESS_A17*%
X135636000Y-157988000D03*
D11*
%TO.P,D5,2,A*%
%TO.N,Net-(D5-A)*%
X135636000Y-165608000D03*
%TD*%
D15*
%TO.P,SW2,1,1*%
%TO.N,GND*%
X81586000Y-22134000D03*
X88086000Y-22134000D03*
%TO.P,SW2,2,2*%
%TO.N,Net-(U11-VDET_2{slash}GPIO35{slash}ADC1_CH7)*%
X81586000Y-26634000D03*
X88086000Y-26634000D03*
%TD*%
D12*
%TO.P,Z80_CONTROL_1_SHIFTER1,1,VA*%
%TO.N,+3.3V*%
X104140000Y-97536000D03*
D11*
%TO.P,Z80_CONTROL_1_SHIFTER1,2,A1*%
%TO.N,/DATA FLOW CONTROL/RD*%
X104140000Y-100076000D03*
%TO.P,Z80_CONTROL_1_SHIFTER1,3,A2*%
%TO.N,/DATA FLOW CONTROL/RW*%
X104140000Y-102616000D03*
%TO.P,Z80_CONTROL_1_SHIFTER1,4,A3*%
%TO.N,/DATA FLOW CONTROL/IORQ*%
X104140000Y-105156000D03*
%TO.P,Z80_CONTROL_1_SHIFTER1,5,A4*%
%TO.N,/DATA FLOW CONTROL/MEMRQ*%
X104140000Y-107696000D03*
%TO.P,Z80_CONTROL_1_SHIFTER1,6,A5*%
%TO.N,/DATA FLOW CONTROL/BUSRQ*%
X104140000Y-110236000D03*
%TO.P,Z80_CONTROL_1_SHIFTER1,7,A6*%
%TO.N,/DATA FLOW CONTROL/WAIT*%
X104140000Y-112776000D03*
%TO.P,Z80_CONTROL_1_SHIFTER1,8,A7*%
%TO.N,/DATA FLOW CONTROL/NMI*%
X104140000Y-115316000D03*
%TO.P,Z80_CONTROL_1_SHIFTER1,9,A8*%
%TO.N,/DATA FLOW CONTROL/ROMCS*%
X104140000Y-117856000D03*
%TO.P,Z80_CONTROL_1_SHIFTER1,10,OE*%
%TO.N,Net-(A0-7_SHIFTER1-OE)*%
X104140000Y-120396000D03*
%TO.P,Z80_CONTROL_1_SHIFTER1,11,GND*%
%TO.N,GND*%
X116840000Y-120396000D03*
%TO.P,Z80_CONTROL_1_SHIFTER1,12,B8*%
%TO.N,/DATA FLOW CONTROL/ROMCS_L*%
X116840000Y-117856000D03*
%TO.P,Z80_CONTROL_1_SHIFTER1,13,B7*%
%TO.N,/DATA FLOW CONTROL/NMI_L*%
X116840000Y-115316000D03*
%TO.P,Z80_CONTROL_1_SHIFTER1,14,B6*%
%TO.N,/DATA FLOW CONTROL/WAIT_L*%
X116840000Y-112776000D03*
%TO.P,Z80_CONTROL_1_SHIFTER1,15,B5*%
%TO.N,/DATA FLOW CONTROL/BUSRQ_L*%
X116840000Y-110236000D03*
%TO.P,Z80_CONTROL_1_SHIFTER1,16,B4*%
%TO.N,/DATA FLOW CONTROL/MEMRQ_L*%
X116840000Y-107696000D03*
%TO.P,Z80_CONTROL_1_SHIFTER1,17,B3*%
%TO.N,/DATA FLOW CONTROL/IORQ_L*%
X116840000Y-105156000D03*
%TO.P,Z80_CONTROL_1_SHIFTER1,18,B2*%
%TO.N,/DATA FLOW CONTROL/RW_L*%
X116840000Y-102616000D03*
%TO.P,Z80_CONTROL_1_SHIFTER1,19,B1*%
%TO.N,/DATA FLOW CONTROL/RD_L*%
X116840000Y-100076000D03*
%TO.P,Z80_CONTROL_1_SHIFTER1,20,VB*%
%TO.N,+5V*%
X116840000Y-97536000D03*
%TD*%
D12*
%TO.P,U6,1,A->B*%
%TO.N,Net-(LS245_Dir1-Pin_2)*%
X31496000Y-128778000D03*
D11*
%TO.P,U6,2,A0*%
%TO.N,/DATA FLOW CONTROL/Z80_A0*%
X31496000Y-131318000D03*
%TO.P,U6,3,A1*%
%TO.N,/DATA FLOW CONTROL/Z80_A1*%
X31496000Y-133858000D03*
%TO.P,U6,4,A2*%
%TO.N,/DATA FLOW CONTROL/Z80_A2*%
X31496000Y-136398000D03*
%TO.P,U6,5,A3*%
%TO.N,/DATA FLOW CONTROL/Z80_A3*%
X31496000Y-138938000D03*
%TO.P,U6,6,A4*%
%TO.N,/DATA FLOW CONTROL/Z80_A4*%
X31496000Y-141478000D03*
%TO.P,U6,7,A5*%
%TO.N,/DATA FLOW CONTROL/Z80_A5*%
X31496000Y-144018000D03*
%TO.P,U6,8,A6*%
%TO.N,/DATA FLOW CONTROL/Z80_A6*%
X31496000Y-146558000D03*
%TO.P,U6,9,A7*%
%TO.N,/DATA FLOW CONTROL/Z80_A7*%
X31496000Y-149098000D03*
%TO.P,U6,10,GND*%
%TO.N,GND*%
X31496000Y-151638000D03*
%TO.P,U6,11,B7*%
%TO.N,/DATA FLOW CONTROL/LEVEL_A7*%
X39116000Y-151638000D03*
%TO.P,U6,12,B6*%
%TO.N,/DATA FLOW CONTROL/LEVEL_A6*%
X39116000Y-149098000D03*
%TO.P,U6,13,B5*%
%TO.N,/DATA FLOW CONTROL/LEVEL_A5*%
X39116000Y-146558000D03*
%TO.P,U6,14,B4*%
%TO.N,/DATA FLOW CONTROL/LEVEL_A4*%
X39116000Y-144018000D03*
%TO.P,U6,15,B3*%
%TO.N,/DATA FLOW CONTROL/LEVEL_A3*%
X39116000Y-141478000D03*
%TO.P,U6,16,B2*%
%TO.N,/DATA FLOW CONTROL/LEVEL_A2*%
X39116000Y-138938000D03*
%TO.P,U6,17,B1*%
%TO.N,/DATA FLOW CONTROL/LEVEL_A1*%
X39116000Y-136398000D03*
%TO.P,U6,18,B0*%
%TO.N,/DATA FLOW CONTROL/LEVEL_A0*%
X39116000Y-133858000D03*
%TO.P,U6,19,CE*%
%TO.N,Net-(J6-Pin_2)*%
X39116000Y-131318000D03*
%TO.P,U6,20,VCC*%
%TO.N,+5V*%
X39116000Y-128778000D03*
%TD*%
D10*
%TO.P,R3,1*%
%TO.N,+3.3V*%
X91948000Y-28956000D03*
D11*
%TO.P,R3,2*%
%TO.N,Net-(U11-SENSOR_VP{slash}GPIO36{slash}ADC1_CH0)*%
X91948000Y-18796000D03*
%TD*%
D16*
%TO.P,J2,1,Pin_1*%
%TO.N,/DATA FLOW CONTROL/Z80_A0*%
X61976000Y-170688000D03*
D17*
%TO.P,J2,2,Pin_2*%
%TO.N,/DATA FLOW CONTROL/Z80_A1*%
X61976000Y-168148000D03*
%TO.P,J2,3,Pin_3*%
%TO.N,/DATA FLOW CONTROL/Z80_A2*%
X64516000Y-170688000D03*
%TO.P,J2,4,Pin_4*%
%TO.N,/DATA FLOW CONTROL/Z80_A3*%
X64516000Y-168148000D03*
%TO.P,J2,5,Pin_5*%
%TO.N,/DATA FLOW CONTROL/Z80_A4*%
X67056000Y-170688000D03*
%TO.P,J2,6,Pin_6*%
%TO.N,/DATA FLOW CONTROL/Z80_A5*%
X67056000Y-168148000D03*
%TO.P,J2,7,Pin_7*%
%TO.N,/DATA FLOW CONTROL/Z80_A6*%
X69596000Y-170688000D03*
%TO.P,J2,8,Pin_8*%
%TO.N,/DATA FLOW CONTROL/Z80_A7*%
X69596000Y-168148000D03*
%TO.P,J2,9,Pin_9*%
%TO.N,/DATA FLOW CONTROL/Z80_D0*%
X72136000Y-170688000D03*
%TO.P,J2,10,Pin_10*%
%TO.N,/DATA FLOW CONTROL/Z80_D1*%
X72136000Y-168148000D03*
%TO.P,J2,11,Pin_11*%
%TO.N,/DATA FLOW CONTROL/Z80_D2*%
X74676000Y-170688000D03*
%TO.P,J2,12,Pin_12*%
%TO.N,/DATA FLOW CONTROL/Z80_D3*%
X74676000Y-168148000D03*
%TO.P,J2,13,Pin_13*%
%TO.N,/DATA FLOW CONTROL/Z80_D4*%
X77216000Y-170688000D03*
%TO.P,J2,14,Pin_14*%
%TO.N,/DATA FLOW CONTROL/Z80_D5*%
X77216000Y-168148000D03*
%TO.P,J2,15,Pin_15*%
%TO.N,/DATA FLOW CONTROL/Z80_D6*%
X79756000Y-170688000D03*
%TO.P,J2,16,Pin_16*%
%TO.N,/DATA FLOW CONTROL/Z80_D7*%
X79756000Y-168148000D03*
%TO.P,J2,17,Pin_17*%
%TO.N,/DATA FLOW CONTROL/Spare_1_O*%
X82296000Y-170688000D03*
%TO.P,J2,18,Pin_18*%
%TO.N,/DATA FLOW CONTROL/Spare_2_O*%
X82296000Y-168148000D03*
%TO.P,J2,19,Pin_19*%
%TO.N,/DATA FLOW CONTROL/Spare_3_O*%
X84836000Y-170688000D03*
%TO.P,J2,20,Pin_20*%
%TO.N,Net-(D1-A)*%
X84836000Y-168148000D03*
%TO.P,J2,21,Pin_21*%
%TO.N,GND*%
X87376000Y-170688000D03*
%TO.P,J2,22,Pin_22*%
%TO.N,/DATA FLOW CONTROL/Spare_4_O*%
X87376000Y-168148000D03*
%TO.P,J2,23,Pin_23*%
%TO.N,/DATA FLOW CONTROL/RESET_O*%
X89916000Y-170688000D03*
%TO.P,J2,24,Pin_24*%
%TO.N,/DATA FLOW CONTROL/BUSACK_O*%
X89916000Y-168148000D03*
%TO.P,J2,25,Pin_25*%
%TO.N,/DATA FLOW CONTROL/ROMCS_O*%
X92456000Y-170688000D03*
%TO.P,J2,26,Pin_26*%
%TO.N,/DATA FLOW CONTROL/NMI_O*%
X92456000Y-168148000D03*
%TO.P,J2,27,Pin_27*%
%TO.N,/DATA FLOW CONTROL/WAIT_O*%
X94996000Y-170688000D03*
%TO.P,J2,28,Pin_28*%
%TO.N,/DATA FLOW CONTROL/BUSRQ_O*%
X94996000Y-168148000D03*
%TO.P,J2,29,Pin_29*%
%TO.N,/DATA FLOW CONTROL/MEMRQ_O*%
X97536000Y-170688000D03*
%TO.P,J2,30,Pin_30*%
%TO.N,/DATA FLOW CONTROL/IORQ_O*%
X97536000Y-168148000D03*
%TO.P,J2,31,Pin_31*%
%TO.N,/DATA FLOW CONTROL/RW_O*%
X100076000Y-170688000D03*
%TO.P,J2,32,Pin_32*%
%TO.N,/DATA FLOW CONTROL/RD_O*%
X100076000Y-168148000D03*
%TO.P,J2,33,Pin_33*%
%TO.N,/DATA FLOW CONTROL/Z80_A8*%
X102616000Y-170688000D03*
%TO.P,J2,34,Pin_34*%
%TO.N,/DATA FLOW CONTROL/Z80_A9*%
X102616000Y-168148000D03*
%TO.P,J2,35,Pin_35*%
%TO.N,/DATA FLOW CONTROL/Z80_A10*%
X105156000Y-170688000D03*
%TO.P,J2,36,Pin_36*%
%TO.N,/DATA FLOW CONTROL/Z80_A11*%
X105156000Y-168148000D03*
%TO.P,J2,37,Pin_37*%
%TO.N,/DATA FLOW CONTROL/Z80_A12*%
X107696000Y-170688000D03*
%TO.P,J2,38,Pin_38*%
%TO.N,/DATA FLOW CONTROL/Z80_A13*%
X107696000Y-168148000D03*
%TO.P,J2,39,Pin_39*%
%TO.N,/DATA FLOW CONTROL/Z80_A14*%
X110236000Y-170688000D03*
%TO.P,J2,40,Pin_40*%
%TO.N,/DATA FLOW CONTROL/Z80_A15*%
X110236000Y-168148000D03*
%TD*%
D10*
%TO.P,R2,1*%
%TO.N,Net-(Rom_Access_Shifter1-OE)*%
X130556000Y-89408000D03*
D11*
%TO.P,R2,2*%
%TO.N,+3.3V*%
X130556000Y-79248000D03*
%TD*%
D18*
%TO.P,D2,1,K*%
%TO.N,Net-(D2-K)*%
X57347000Y-23876000D03*
D19*
%TO.P,D2,2,A*%
%TO.N,Net-(D2-A)*%
X59887000Y-23876000D03*
%TD*%
D15*
%TO.P,C6,1*%
%TO.N,+5V*%
X50292000Y-32592000D03*
%TO.P,C6,2*%
%TO.N,GND*%
X50292000Y-37592000D03*
%TD*%
D12*
%TO.P,U4,1,A->B*%
%TO.N,Net-(LS245_Dir1-Pin_2)*%
X55880000Y-128524000D03*
D11*
%TO.P,U4,2,A0*%
%TO.N,/DATA FLOW CONTROL/Z80_D0*%
X55880000Y-131064000D03*
%TO.P,U4,3,A1*%
%TO.N,/DATA FLOW CONTROL/Z80_D1*%
X55880000Y-133604000D03*
%TO.P,U4,4,A2*%
%TO.N,/DATA FLOW CONTROL/Z80_D2*%
X55880000Y-136144000D03*
%TO.P,U4,5,A3*%
%TO.N,/DATA FLOW CONTROL/Z80_D3*%
X55880000Y-138684000D03*
%TO.P,U4,6,A4*%
%TO.N,/DATA FLOW CONTROL/Z80_D4*%
X55880000Y-141224000D03*
%TO.P,U4,7,A5*%
%TO.N,/DATA FLOW CONTROL/Z80_D5*%
X55880000Y-143764000D03*
%TO.P,U4,8,A6*%
%TO.N,/DATA FLOW CONTROL/Z80_D6*%
X55880000Y-146304000D03*
%TO.P,U4,9,A7*%
%TO.N,/DATA FLOW CONTROL/Z80_D7*%
X55880000Y-148844000D03*
%TO.P,U4,10,GND*%
%TO.N,GND*%
X55880000Y-151384000D03*
%TO.P,U4,11,B7*%
%TO.N,/DATA FLOW CONTROL/LEVEL_D7*%
X63500000Y-151384000D03*
%TO.P,U4,12,B6*%
%TO.N,/DATA FLOW CONTROL/LEVEL_D6*%
X63500000Y-148844000D03*
%TO.P,U4,13,B5*%
%TO.N,/DATA FLOW CONTROL/LEVEL_D5*%
X63500000Y-146304000D03*
%TO.P,U4,14,B4*%
%TO.N,/DATA FLOW CONTROL/LEVEL_D4*%
X63500000Y-143764000D03*
%TO.P,U4,15,B3*%
%TO.N,/DATA FLOW CONTROL/LEVEL_D3*%
X63500000Y-141224000D03*
%TO.P,U4,16,B2*%
%TO.N,/DATA FLOW CONTROL/LEVEL_D2*%
X63500000Y-138684000D03*
%TO.P,U4,17,B1*%
%TO.N,/DATA FLOW CONTROL/LEVEL_D1*%
X63500000Y-136144000D03*
%TO.P,U4,18,B0*%
%TO.N,/DATA FLOW CONTROL/LEVEL_D0*%
X63500000Y-133604000D03*
%TO.P,U4,19,CE*%
%TO.N,Net-(J6-Pin_2)*%
X63500000Y-131064000D03*
%TO.P,U4,20,VCC*%
%TO.N,+5V*%
X63500000Y-128524000D03*
%TD*%
D15*
%TO.P,C3,1*%
%TO.N,+3.3V*%
X143724000Y-68620000D03*
%TO.P,C3,2*%
%TO.N,GND*%
X143724000Y-73620000D03*
%TD*%
D12*
%TO.P,U7,1,A->B*%
%TO.N,Net-(LS245_Dir1-Pin_2)*%
X134112000Y-129540000D03*
D11*
%TO.P,U7,2,A0*%
%TO.N,/DATA FLOW CONTROL/Z80_A8*%
X134112000Y-132080000D03*
%TO.P,U7,3,A1*%
%TO.N,/DATA FLOW CONTROL/Z80_A9*%
X134112000Y-134620000D03*
%TO.P,U7,4,A2*%
%TO.N,/DATA FLOW CONTROL/Z80_A10*%
X134112000Y-137160000D03*
%TO.P,U7,5,A3*%
%TO.N,/DATA FLOW CONTROL/Z80_A11*%
X134112000Y-139700000D03*
%TO.P,U7,6,A4*%
%TO.N,/DATA FLOW CONTROL/Z80_A12*%
X134112000Y-142240000D03*
%TO.P,U7,7,A5*%
%TO.N,/DATA FLOW CONTROL/Z80_A13*%
X134112000Y-144780000D03*
%TO.P,U7,8,A6*%
%TO.N,/DATA FLOW CONTROL/Z80_A14*%
X134112000Y-147320000D03*
%TO.P,U7,9,A7*%
%TO.N,/DATA FLOW CONTROL/Z80_A15*%
X134112000Y-149860000D03*
%TO.P,U7,10,GND*%
%TO.N,GND*%
X134112000Y-152400000D03*
%TO.P,U7,11,B7*%
%TO.N,/DATA FLOW CONTROL/LEVEL_A15*%
X141732000Y-152400000D03*
%TO.P,U7,12,B6*%
%TO.N,/DATA FLOW CONTROL/LEVEL_A14*%
X141732000Y-149860000D03*
%TO.P,U7,13,B5*%
%TO.N,/DATA FLOW CONTROL/LEVEL_A13*%
X141732000Y-147320000D03*
%TO.P,U7,14,B4*%
%TO.N,/DATA FLOW CONTROL/LEVEL_A12*%
X141732000Y-144780000D03*
%TO.P,U7,15,B3*%
%TO.N,/DATA FLOW CONTROL/LEVEL_A11*%
X141732000Y-142240000D03*
%TO.P,U7,16,B2*%
%TO.N,/DATA FLOW CONTROL/LEVEL_A10*%
X141732000Y-139700000D03*
%TO.P,U7,17,B1*%
%TO.N,/DATA FLOW CONTROL/LEVEL_A9*%
X141732000Y-137160000D03*
%TO.P,U7,18,B0*%
%TO.N,/DATA FLOW CONTROL/LEVEL_A8*%
X141732000Y-134620000D03*
%TO.P,U7,19,CE*%
%TO.N,Net-(J6-Pin_2)*%
X141732000Y-132080000D03*
%TO.P,U7,20,VCC*%
%TO.N,+5V*%
X141732000Y-129540000D03*
%TD*%
D15*
%TO.P,C2,1*%
%TO.N,+5V*%
X87590000Y-157988000D03*
%TO.P,C2,2*%
%TO.N,GND*%
X82590000Y-157988000D03*
%TD*%
%TO.P,SW1,1,1*%
%TO.N,GND*%
X67870000Y-21844000D03*
X74370000Y-21844000D03*
%TO.P,SW1,2,2*%
%TO.N,Net-(U11-VDET_1{slash}GPIO34{slash}ADC1_CH6)*%
X67870000Y-26344000D03*
X74370000Y-26344000D03*
%TD*%
D16*
%TO.P,J1,1,Pin_1*%
%TO.N,GND*%
X55880000Y-70104000D03*
D17*
%TO.P,J1,2,Pin_2*%
%TO.N,+3.3V*%
X55880000Y-72644000D03*
%TD*%
D16*
%TO.P,SPI_Spare1,1,Pin_1*%
%TO.N,Net-(SPI_Spare1-Pin_1)*%
X143764000Y-87884000D03*
D17*
%TO.P,SPI_Spare1,2,Pin_2*%
%TO.N,Net-(SPI_Spare1-Pin_2)*%
X143764000Y-85344000D03*
%TO.P,SPI_Spare1,3,Pin_3*%
%TO.N,Net-(SPI_Spare1-Pin_3)*%
X143764000Y-82804000D03*
%TO.P,SPI_Spare1,4,Pin_4*%
%TO.N,Net-(SPI_Spare1-Pin_4)*%
X143764000Y-80264000D03*
%TD*%
D12*
%TO.P,U3,1*%
%TO.N,/DATA FLOW CONTROL/BUSACK_L*%
X102616000Y-36068000D03*
D11*
%TO.P,U3,2*%
%TO.N,Net-(U2-Pad2)*%
X102616000Y-38608000D03*
%TO.P,U3,3*%
%TO.N,Net-(U2-Pad8)*%
X102616000Y-41148000D03*
%TO.P,U3,4*%
%TO.N,Net-(U2-Pad5)*%
X102616000Y-43688000D03*
%TO.P,U3,5*%
%TO.N,/DATA FLOW CONTROL/RD_O*%
X102616000Y-46228000D03*
%TO.P,U3,6*%
%TO.N,Net-(LS245_Dir1-Pin_1)*%
X102616000Y-48768000D03*
%TO.P,U3,7,GND*%
%TO.N,GND*%
X102616000Y-51308000D03*
%TO.P,U3,8*%
%TO.N,unconnected-(U3-Pad8)*%
X110236000Y-51308000D03*
%TO.P,U3,9*%
%TO.N,unconnected-(U3-Pad9)*%
X110236000Y-48768000D03*
%TO.P,U3,10*%
%TO.N,unconnected-(U3-Pad10)*%
X110236000Y-46228000D03*
%TO.P,U3,11*%
%TO.N,unconnected-(U3-Pad11)*%
X110236000Y-43688000D03*
%TO.P,U3,12*%
%TO.N,unconnected-(U3-Pad12)*%
X110236000Y-41148000D03*
%TO.P,U3,13*%
%TO.N,unconnected-(U3-Pad13)*%
X110236000Y-38608000D03*
%TO.P,U3,14,VCC*%
%TO.N,+5V*%
X110236000Y-36068000D03*
%TD*%
D15*
%TO.P,SW3,1,1*%
%TO.N,GND*%
X95810000Y-22134000D03*
X102310000Y-22134000D03*
%TO.P,SW3,2,2*%
%TO.N,Net-(U11-SENSOR_VP{slash}GPIO36{slash}ADC1_CH0)*%
X95810000Y-26634000D03*
X102310000Y-26634000D03*
%TD*%
D16*
%TO.P,J6,1,Pin_1*%
%TO.N,Net-(J6-Pin_1)*%
X37084000Y-162301000D03*
D17*
%TO.P,J6,2,Pin_2*%
%TO.N,Net-(J6-Pin_2)*%
X37084000Y-164841000D03*
%TD*%
D18*
%TO.P,D3,1,K*%
%TO.N,Net-(D3-K)*%
X110744000Y-23876000D03*
D19*
%TO.P,D3,2,A*%
%TO.N,Net-(D3-A)*%
X113284000Y-23876000D03*
%TD*%
D10*
%TO.P,R6,1*%
%TO.N,+3.3V*%
X77926000Y-28956000D03*
D11*
%TO.P,R6,2*%
%TO.N,Net-(U11-VDET_2{slash}GPIO35{slash}ADC1_CH7)*%
X77926000Y-18796000D03*
%TD*%
D16*
%TO.P,J3,1,Pin_1*%
%TO.N,GND*%
X61976000Y-70104000D03*
D17*
%TO.P,J3,2,Pin_2*%
%TO.N,+5V*%
X61976000Y-72644000D03*
%TD*%
D12*
%TO.P,A8-15_SHIFTER1,1,VA*%
%TO.N,+3.3V*%
X128778000Y-97282000D03*
D11*
%TO.P,A8-15_SHIFTER1,2,A1*%
%TO.N,/DATA FLOW CONTROL/LOCAL_A8*%
X128778000Y-99822000D03*
%TO.P,A8-15_SHIFTER1,3,A2*%
%TO.N,/DATA FLOW CONTROL/LOCAL_A9*%
X128778000Y-102362000D03*
%TO.P,A8-15_SHIFTER1,4,A3*%
%TO.N,/DATA FLOW CONTROL/LOCAL_A10*%
X128778000Y-104902000D03*
%TO.P,A8-15_SHIFTER1,5,A4*%
%TO.N,/DATA FLOW CONTROL/LOCAL_A11*%
X128778000Y-107442000D03*
%TO.P,A8-15_SHIFTER1,6,A5*%
%TO.N,/DATA FLOW CONTROL/LOCAL_A12*%
X128778000Y-109982000D03*
%TO.P,A8-15_SHIFTER1,7,A6*%
%TO.N,/DATA FLOW CONTROL/LOCAL_A13*%
X128778000Y-112522000D03*
%TO.P,A8-15_SHIFTER1,8,A7*%
%TO.N,/DATA FLOW CONTROL/LOCAL_A14*%
X128778000Y-115062000D03*
%TO.P,A8-15_SHIFTER1,9,A8*%
%TO.N,/DATA FLOW CONTROL/LOCAL_A15*%
X128778000Y-117602000D03*
%TO.P,A8-15_SHIFTER1,10,OE*%
%TO.N,Net-(A0-7_SHIFTER1-OE)*%
X128778000Y-120142000D03*
%TO.P,A8-15_SHIFTER1,11,GND*%
%TO.N,GND*%
X141478000Y-120142000D03*
%TO.P,A8-15_SHIFTER1,12,B8*%
%TO.N,/DATA FLOW CONTROL/LEVEL_A15*%
X141478000Y-117602000D03*
%TO.P,A8-15_SHIFTER1,13,B7*%
%TO.N,/DATA FLOW CONTROL/LEVEL_A14*%
X141478000Y-115062000D03*
%TO.P,A8-15_SHIFTER1,14,B6*%
%TO.N,/DATA FLOW CONTROL/LEVEL_A13*%
X141478000Y-112522000D03*
%TO.P,A8-15_SHIFTER1,15,B5*%
%TO.N,/DATA FLOW CONTROL/LEVEL_A12*%
X141478000Y-109982000D03*
%TO.P,A8-15_SHIFTER1,16,B4*%
%TO.N,/DATA FLOW CONTROL/LEVEL_A11*%
X141478000Y-107442000D03*
%TO.P,A8-15_SHIFTER1,17,B3*%
%TO.N,/DATA FLOW CONTROL/LEVEL_A10*%
X141478000Y-104902000D03*
%TO.P,A8-15_SHIFTER1,18,B2*%
%TO.N,/DATA FLOW CONTROL/LEVEL_A9*%
X141478000Y-102362000D03*
%TO.P,A8-15_SHIFTER1,19,B1*%
%TO.N,/DATA FLOW CONTROL/LEVEL_A8*%
X141478000Y-99822000D03*
%TO.P,A8-15_SHIFTER1,20,VB*%
%TO.N,+5V*%
X141478000Y-97282000D03*
%TD*%
D12*
%TO.P,U2,1*%
%TO.N,/DATA FLOW CONTROL/ROMCS_L*%
X59436000Y-36576000D03*
D11*
%TO.P,U2,2*%
%TO.N,Net-(U2-Pad2)*%
X59436000Y-39116000D03*
%TO.P,U2,3*%
%TO.N,Net-(J5-Pin_2)*%
X59436000Y-41656000D03*
%TO.P,U2,4*%
%TO.N,/DATA FLOW CONTROL/SYSTEM_READY_L*%
X59436000Y-44196000D03*
%TO.P,U2,5*%
%TO.N,Net-(U2-Pad5)*%
X59436000Y-46736000D03*
%TO.P,U2,6*%
%TO.N,Net-(J6-Pin_1)*%
X59436000Y-49276000D03*
%TO.P,U2,7,GND*%
%TO.N,GND*%
X59436000Y-51816000D03*
%TO.P,U2,8*%
%TO.N,Net-(U2-Pad8)*%
X67056000Y-51816000D03*
%TO.P,U2,9*%
%TO.N,/DATA FLOW CONTROL/MEMRQ_O*%
X67056000Y-49276000D03*
%TO.P,U2,10*%
%TO.N,/DATA FLOW CONTROL/IORQ_O*%
X67056000Y-46736000D03*
%TO.P,U2,11*%
%TO.N,unconnected-(U2-Pad11)*%
X67056000Y-44196000D03*
%TO.P,U2,12*%
%TO.N,unconnected-(U2-Pad12)*%
X67056000Y-41656000D03*
%TO.P,U2,13*%
%TO.N,unconnected-(U2-Pad13)*%
X67056000Y-39116000D03*
%TO.P,U2,14,VCC*%
%TO.N,+5V*%
X67056000Y-36576000D03*
%TD*%
D12*
%TO.P,U9,1,A->B*%
%TO.N,Net-(LS245_Dir1-Pin_2)*%
X83312000Y-128778000D03*
D11*
%TO.P,U9,2,A0*%
%TO.N,/DATA FLOW CONTROL/BUSACK_O*%
X83312000Y-131318000D03*
%TO.P,U9,3,A1*%
%TO.N,/DATA FLOW CONTROL/RESET_O*%
X83312000Y-133858000D03*
%TO.P,U9,4,A2*%
%TO.N,/DATA FLOW CONTROL/Spare_1_O*%
X83312000Y-136398000D03*
%TO.P,U9,5,A3*%
%TO.N,/DATA FLOW CONTROL/Spare_2_O*%
X83312000Y-138938000D03*
%TO.P,U9,6,A4*%
%TO.N,/DATA FLOW CONTROL/Spare_3_O*%
X83312000Y-141478000D03*
%TO.P,U9,7,A5*%
%TO.N,/DATA FLOW CONTROL/Spare_4_O*%
X83312000Y-144018000D03*
%TO.P,U9,8,A6*%
%TO.N,/DATA FLOW CONTROL/SYSTEM_READY_O*%
X83312000Y-146558000D03*
%TO.P,U9,9,A7*%
%TO.N,unconnected-(U9-A7-Pad9)*%
X83312000Y-149098000D03*
%TO.P,U9,10,GND*%
%TO.N,GND*%
X83312000Y-151638000D03*
%TO.P,U9,11,B7*%
%TO.N,unconnected-(U9-B7-Pad11)*%
X90932000Y-151638000D03*
%TO.P,U9,12,B6*%
%TO.N,/DATA FLOW CONTROL/SYSTEM_READY_L*%
X90932000Y-149098000D03*
%TO.P,U9,13,B5*%
%TO.N,/DATA FLOW CONTROL/SPARE_4_L*%
X90932000Y-146558000D03*
%TO.P,U9,14,B4*%
%TO.N,/DATA FLOW CONTROL/SPARE_3_L*%
X90932000Y-144018000D03*
%TO.P,U9,15,B3*%
%TO.N,/DATA FLOW CONTROL/SPARE_2_L*%
X90932000Y-141478000D03*
%TO.P,U9,16,B2*%
%TO.N,/DATA FLOW CONTROL/SPARE_1_L*%
X90932000Y-138938000D03*
%TO.P,U9,17,B1*%
%TO.N,/DATA FLOW CONTROL/RESET_L*%
X90932000Y-136398000D03*
%TO.P,U9,18,B0*%
%TO.N,/DATA FLOW CONTROL/BUSACK_L*%
X90932000Y-133858000D03*
%TO.P,U9,19,CE*%
%TO.N,Net-(J6-Pin_2)*%
X90932000Y-131318000D03*
%TO.P,U9,20,VCC*%
%TO.N,+5V*%
X90932000Y-128778000D03*
%TD*%
D12*
%TO.P,RN5,1,common*%
%TO.N,+5V*%
X77216000Y-128778000D03*
D11*
%TO.P,RN5,2,R1*%
%TO.N,/DATA FLOW CONTROL/BUSACK_O*%
X77216000Y-131318000D03*
%TO.P,RN5,3,R2*%
%TO.N,/DATA FLOW CONTROL/RESET_O*%
X77216000Y-133858000D03*
%TO.P,RN5,4,R3*%
%TO.N,/DATA FLOW CONTROL/Spare_1_O*%
X77216000Y-136398000D03*
%TO.P,RN5,5,R4*%
%TO.N,/DATA FLOW CONTROL/Spare_2_O*%
X77216000Y-138938000D03*
%TO.P,RN5,6,R5*%
%TO.N,/DATA FLOW CONTROL/Spare_3_O*%
X77216000Y-141478000D03*
%TO.P,RN5,7,R6*%
%TO.N,/DATA FLOW CONTROL/Spare_4_O*%
X77216000Y-144018000D03*
%TO.P,RN5,8,R7*%
%TO.N,/DATA FLOW CONTROL/SYSTEM_READY_O*%
X77216000Y-146558000D03*
%TO.P,RN5,9,R8*%
%TO.N,unconnected-(RN5-R8-Pad9)*%
X77216000Y-149098000D03*
%TD*%
D12*
%TO.P,RN2,1,common*%
%TO.N,GND*%
X24892000Y-128778000D03*
D11*
%TO.P,RN2,2,R1*%
%TO.N,/DATA FLOW CONTROL/Z80_A0*%
X24892000Y-131318000D03*
%TO.P,RN2,3,R2*%
%TO.N,/DATA FLOW CONTROL/Z80_A1*%
X24892000Y-133858000D03*
%TO.P,RN2,4,R3*%
%TO.N,/DATA FLOW CONTROL/Z80_A2*%
X24892000Y-136398000D03*
%TO.P,RN2,5,R4*%
%TO.N,/DATA FLOW CONTROL/Z80_A3*%
X24892000Y-138938000D03*
%TO.P,RN2,6,R5*%
%TO.N,/DATA FLOW CONTROL/Z80_A4*%
X24892000Y-141478000D03*
%TO.P,RN2,7,R6*%
%TO.N,/DATA FLOW CONTROL/Z80_A5*%
X24892000Y-144018000D03*
%TO.P,RN2,8,R7*%
%TO.N,/DATA FLOW CONTROL/Z80_A6*%
X24892000Y-146558000D03*
%TO.P,RN2,9,R8*%
%TO.N,/DATA FLOW CONTROL/Z80_A7*%
X24892000Y-149098000D03*
%TD*%
D15*
%TO.P,C4,1*%
%TO.N,+5V*%
X86360000Y-45212000D03*
%TO.P,C4,2*%
%TO.N,GND*%
X81360000Y-45212000D03*
%TD*%
D12*
%TO.P,D0-7_SHIFTER1,1,VA*%
%TO.N,+3.3V*%
X50292000Y-98044000D03*
D11*
%TO.P,D0-7_SHIFTER1,2,A1*%
%TO.N,/DATA FLOW CONTROL/LOCAL_D0*%
X50292000Y-100584000D03*
%TO.P,D0-7_SHIFTER1,3,A2*%
%TO.N,/DATA FLOW CONTROL/LOCAL_D1*%
X50292000Y-103124000D03*
%TO.P,D0-7_SHIFTER1,4,A3*%
%TO.N,/DATA FLOW CONTROL/LOCAL_D2*%
X50292000Y-105664000D03*
%TO.P,D0-7_SHIFTER1,5,A4*%
%TO.N,/DATA FLOW CONTROL/LOCAL_D3*%
X50292000Y-108204000D03*
%TO.P,D0-7_SHIFTER1,6,A5*%
%TO.N,/DATA FLOW CONTROL/LOCAL_D4*%
X50292000Y-110744000D03*
%TO.P,D0-7_SHIFTER1,7,A6*%
%TO.N,/DATA FLOW CONTROL/LOCAL_D5*%
X50292000Y-113284000D03*
%TO.P,D0-7_SHIFTER1,8,A7*%
%TO.N,/DATA FLOW CONTROL/LOCAL_D6*%
X50292000Y-115824000D03*
%TO.P,D0-7_SHIFTER1,9,A8*%
%TO.N,/DATA FLOW CONTROL/LOCAL_D7*%
X50292000Y-118364000D03*
%TO.P,D0-7_SHIFTER1,10,OE*%
%TO.N,Net-(A0-7_SHIFTER1-OE)*%
X50292000Y-120904000D03*
%TO.P,D0-7_SHIFTER1,11,GND*%
%TO.N,GND*%
X62992000Y-120904000D03*
%TO.P,D0-7_SHIFTER1,12,B8*%
%TO.N,/DATA FLOW CONTROL/LEVEL_D7*%
X62992000Y-118364000D03*
%TO.P,D0-7_SHIFTER1,13,B7*%
%TO.N,/DATA FLOW CONTROL/LEVEL_D6*%
X62992000Y-115824000D03*
%TO.P,D0-7_SHIFTER1,14,B6*%
%TO.N,/DATA FLOW CONTROL/LEVEL_D5*%
X62992000Y-113284000D03*
%TO.P,D0-7_SHIFTER1,15,B5*%
%TO.N,/DATA FLOW CONTROL/LEVEL_D4*%
X62992000Y-110744000D03*
%TO.P,D0-7_SHIFTER1,16,B4*%
%TO.N,/DATA FLOW CONTROL/LEVEL_D3*%
X62992000Y-108204000D03*
%TO.P,D0-7_SHIFTER1,17,B3*%
%TO.N,/DATA FLOW CONTROL/LEVEL_D2*%
X62992000Y-105664000D03*
%TO.P,D0-7_SHIFTER1,18,B2*%
%TO.N,/DATA FLOW CONTROL/LEVEL_D1*%
X62992000Y-103124000D03*
%TO.P,D0-7_SHIFTER1,19,B1*%
%TO.N,/DATA FLOW CONTROL/LEVEL_D0*%
X62992000Y-100584000D03*
%TO.P,D0-7_SHIFTER1,20,VB*%
%TO.N,+5V*%
X62992000Y-98044000D03*
%TD*%
D12*
%TO.P,Z80_CONTROL_2_SHIFTER2,1,VA*%
%TO.N,+3.3V*%
X77724000Y-98044000D03*
D11*
%TO.P,Z80_CONTROL_2_SHIFTER2,2,A1*%
%TO.N,/DATA FLOW CONTROL/BUSACK*%
X77724000Y-100584000D03*
%TO.P,Z80_CONTROL_2_SHIFTER2,3,A2*%
%TO.N,/DATA FLOW CONTROL/RESET*%
X77724000Y-103124000D03*
%TO.P,Z80_CONTROL_2_SHIFTER2,4,A3*%
%TO.N,/DATA FLOW CONTROL/Spare_1*%
X77724000Y-105664000D03*
%TO.P,Z80_CONTROL_2_SHIFTER2,5,A4*%
%TO.N,/DATA FLOW CONTROL/Spare_2*%
X77724000Y-108204000D03*
%TO.P,Z80_CONTROL_2_SHIFTER2,6,A5*%
%TO.N,/DATA FLOW CONTROL/Spare_3*%
X77724000Y-110744000D03*
%TO.P,Z80_CONTROL_2_SHIFTER2,7,A6*%
%TO.N,/DATA FLOW CONTROL/Spare_4*%
X77724000Y-113284000D03*
%TO.P,Z80_CONTROL_2_SHIFTER2,8,A7*%
%TO.N,/DATA FLOW CONTROL/SYSTEM_READY*%
X77724000Y-115824000D03*
%TO.P,Z80_CONTROL_2_SHIFTER2,9,A8*%
%TO.N,unconnected-(Z80_CONTROL_2_SHIFTER2-A8-Pad9)*%
X77724000Y-118364000D03*
%TO.P,Z80_CONTROL_2_SHIFTER2,10,OE*%
%TO.N,Net-(A0-7_SHIFTER1-OE)*%
X77724000Y-120904000D03*
%TO.P,Z80_CONTROL_2_SHIFTER2,11,GND*%
%TO.N,GND*%
X90424000Y-120904000D03*
%TO.P,Z80_CONTROL_2_SHIFTER2,12,B8*%
%TO.N,unconnected-(Z80_CONTROL_2_SHIFTER2-B8-Pad12)*%
X90424000Y-118364000D03*
%TO.P,Z80_CONTROL_2_SHIFTER2,13,B7*%
%TO.N,/DATA FLOW CONTROL/SYSTEM_READY_L*%
X90424000Y-115824000D03*
%TO.P,Z80_CONTROL_2_SHIFTER2,14,B6*%
%TO.N,/DATA FLOW CONTROL/SPARE_4_L*%
X90424000Y-113284000D03*
%TO.P,Z80_CONTROL_2_SHIFTER2,15,B5*%
%TO.N,/DATA FLOW CONTROL/SPARE_3_L*%
X90424000Y-110744000D03*
%TO.P,Z80_CONTROL_2_SHIFTER2,16,B4*%
%TO.N,/DATA FLOW CONTROL/SPARE_2_L*%
X90424000Y-108204000D03*
%TO.P,Z80_CONTROL_2_SHIFTER2,17,B3*%
%TO.N,/DATA FLOW CONTROL/SPARE_1_L*%
X90424000Y-105664000D03*
%TO.P,Z80_CONTROL_2_SHIFTER2,18,B2*%
%TO.N,/DATA FLOW CONTROL/RESET_L*%
X90424000Y-103124000D03*
%TO.P,Z80_CONTROL_2_SHIFTER2,19,B1*%
%TO.N,/DATA FLOW CONTROL/BUSACK_L*%
X90424000Y-100584000D03*
%TO.P,Z80_CONTROL_2_SHIFTER2,20,VB*%
%TO.N,+5V*%
X90424000Y-98044000D03*
%TD*%
D12*
%TO.P,Rom_Access_Shifter1,1,VA*%
%TO.N,+3.3V*%
X98552000Y-62230000D03*
D11*
%TO.P,Rom_Access_Shifter1,2,A1*%
%TO.N,/ESP-32 Module/ROM_ACCESS_A16*%
X98552000Y-64770000D03*
%TO.P,Rom_Access_Shifter1,3,A2*%
%TO.N,/ESP-32 Module/ROM_ACCESS_A17*%
X98552000Y-67310000D03*
%TO.P,Rom_Access_Shifter1,4,A3*%
%TO.N,/ESP-32 Module/ROM_ACCESS_A18*%
X98552000Y-69850000D03*
%TO.P,Rom_Access_Shifter1,5,A4*%
%TO.N,unconnected-(Rom_Access_Shifter1-A4-Pad5)*%
X98552000Y-72390000D03*
%TO.P,Rom_Access_Shifter1,6,A5*%
%TO.N,unconnected-(Rom_Access_Shifter1-A5-Pad6)*%
X98552000Y-74930000D03*
%TO.P,Rom_Access_Shifter1,7,A6*%
%TO.N,unconnected-(Rom_Access_Shifter1-A6-Pad7)*%
X98552000Y-77470000D03*
%TO.P,Rom_Access_Shifter1,8,A7*%
%TO.N,unconnected-(Rom_Access_Shifter1-A7-Pad8)*%
X98552000Y-80010000D03*
%TO.P,Rom_Access_Shifter1,9,A8*%
%TO.N,unconnected-(Rom_Access_Shifter1-A8-Pad9)*%
X98552000Y-82550000D03*
%TO.P,Rom_Access_Shifter1,10,OE*%
%TO.N,Net-(Rom_Access_Shifter1-OE)*%
X98552000Y-85090000D03*
%TO.P,Rom_Access_Shifter1,11,GND*%
%TO.N,GND*%
X111252000Y-85090000D03*
%TO.P,Rom_Access_Shifter1,12,B8*%
%TO.N,unconnected-(Rom_Access_Shifter1-B8-Pad12)*%
X111252000Y-82550000D03*
%TO.P,Rom_Access_Shifter1,13,B7*%
%TO.N,unconnected-(Rom_Access_Shifter1-B7-Pad13)*%
X111252000Y-80010000D03*
%TO.P,Rom_Access_Shifter1,14,B6*%
%TO.N,unconnected-(Rom_Access_Shifter1-B6-Pad14)*%
X111252000Y-77470000D03*
%TO.P,Rom_Access_Shifter1,15,B5*%
%TO.N,unconnected-(Rom_Access_Shifter1-B5-Pad15)*%
X111252000Y-74930000D03*
%TO.P,Rom_Access_Shifter1,16,B4*%
%TO.N,unconnected-(Rom_Access_Shifter1-B4-Pad16)*%
X111252000Y-72390000D03*
%TO.P,Rom_Access_Shifter1,17,B3*%
%TO.N,Net-(Rom_Access_Shifter1-B3)*%
X111252000Y-69850000D03*
%TO.P,Rom_Access_Shifter1,18,B2*%
%TO.N,Net-(Rom_Access_Shifter1-B2)*%
X111252000Y-67310000D03*
%TO.P,Rom_Access_Shifter1,19,B1*%
%TO.N,Net-(Rom_Access_Shifter1-B1)*%
X111252000Y-64770000D03*
%TO.P,Rom_Access_Shifter1,20,VB*%
%TO.N,+5V*%
X111252000Y-62230000D03*
%TD*%
D16*
%TO.P,J5,1,Pin_1*%
%TO.N,Net-(J5-Pin_1)*%
X67564000Y-70104000D03*
D17*
%TO.P,J5,2,Pin_2*%
%TO.N,Net-(J5-Pin_2)*%
X67564000Y-72644000D03*
%TD*%
D20*
%TO.P,U10,1,5V*%
%TO.N,+5V*%
X46736000Y-19812000D03*
%TO.P,U10,2,GND*%
%TO.N,GND*%
X46736000Y-22352000D03*
%TO.P,U10,3,76-IOT30B*%
%TO.N,/DATA FLOW CONTROL/LOCAL_D0*%
X46736000Y-24892000D03*
%TO.P,U10,4,80-IOT27A*%
%TO.N,/DATA FLOW CONTROL/LOCAL_D1*%
X46736000Y-27432000D03*
%TO.P,U10,5,42-IOB42B*%
%TO.N,/DATA FLOW CONTROL/LOCAL_D2*%
X46736000Y-29972000D03*
%TO.P,U10,6,41-IOB43A*%
%TO.N,/DATA FLOW CONTROL/LOCAL_D3*%
X46736000Y-32512000D03*
%TO.P,U10,7,56-IOR36A*%
%TO.N,/DATA FLOW CONTROL/LOCAL_D4*%
X46736000Y-35052000D03*
%TO.P,U10,8,54-IOR38A*%
%TO.N,/DATA FLOW CONTROL/LOCAL_D5*%
X46736000Y-37592000D03*
%TO.P,U10,9,51-IOR45A*%
%TO.N,/DATA FLOW CONTROL/LOCAL_D6*%
X46736000Y-40132000D03*
%TO.P,U10,10,48-IOR49B*%
%TO.N,/DATA FLOW CONTROL/LOCAL_D7*%
X46736000Y-42672000D03*
%TO.P,U10,11,55-IOR36B*%
%TO.N,/DATA FLOW CONTROL/IORQ*%
X46736000Y-45212000D03*
%TO.P,U10,12,49-IOR49A*%
%TO.N,/DATA FLOW CONTROL/MEMRQ*%
X46736000Y-47752000D03*
%TO.P,U10,13,86-IOT4A*%
%TO.N,/DATA FLOW CONTROL/BUSRQ*%
X46736000Y-50292000D03*
%TO.P,U10,14,79-IOT27B*%
%TO.N,/DATA FLOW CONTROL/BUSACK*%
X46736000Y-52832000D03*
%TO.P,U10,15,GND*%
%TO.N,GND*%
X46736000Y-55372000D03*
%TO.P,U10,16,3.3V*%
%TO.N,+3.3V*%
X46736000Y-57912000D03*
%TO.P,U10,17,72-IOT40B*%
%TO.N,/ESP-32 Module/SS*%
X46736000Y-60452000D03*
%TO.P,U10,18,71-IOT44A*%
%TO.N,/ESP-32 Module/MISO*%
X46736000Y-62992000D03*
%TO.P,U10,19,53-IOT38B*%
%TO.N,/ESP-32 Module/MOSI*%
X46736000Y-65532000D03*
%TO.P,U10,20,52-IOR39A*%
%TO.N,/ESP-32 Module/SCK*%
X46736000Y-68072000D03*
%TO.P,U10,21,GND*%
%TO.N,GND*%
X26416000Y-68072000D03*
%TO.P,U10,22,3.3V*%
%TO.N,+3.3V*%
X26416000Y-65532000D03*
%TO.P,U10,23,IOL49B-18*%
%TO.N,/DATA FLOW CONTROL/RW*%
X26416000Y-62992000D03*
%TO.P,U10,24,IOL51A-19*%
%TO.N,/DATA FLOW CONTROL/RD*%
X26416000Y-60452000D03*
%TO.P,U10,25,IOL51B-20*%
%TO.N,/DATA FLOW CONTROL/LOCAL_A15*%
X26416000Y-57912000D03*
%TO.P,U10,26,IOL49A-17*%
%TO.N,/DATA FLOW CONTROL/LOCAL_A14*%
X26416000Y-55372000D03*
%TO.P,U10,27,IOB29A-31*%
%TO.N,/DATA FLOW CONTROL/LOCAL_A13*%
X26416000Y-52832000D03*
%TO.P,U10,28,IOB14B-30*%
%TO.N,/DATA FLOW CONTROL/LOCAL_A12*%
X26416000Y-50292000D03*
%TO.P,U10,29,IOB14A-29*%
%TO.N,/DATA FLOW CONTROL/LOCAL_A11*%
X26416000Y-47752000D03*
%TO.P,U10,30,IOB6B-26*%
%TO.N,/DATA FLOW CONTROL/LOCAL_A10*%
X26416000Y-45212000D03*
%TO.P,U10,31,IOB6A-25*%
%TO.N,/DATA FLOW CONTROL/LOCAL_A9*%
X26416000Y-42672000D03*
%TO.P,U10,32,IOB8B-28*%
%TO.N,/DATA FLOW CONTROL/LOCAL_A8*%
X26416000Y-40132000D03*
%TO.P,U10,33,IOB8A-27*%
%TO.N,/DATA FLOW CONTROL/LOCAL_A7*%
X26416000Y-37592000D03*
%TO.P,U10,34,IOL47B-16*%
%TO.N,/DATA FLOW CONTROL/LOCAL_A6*%
X26416000Y-35052000D03*
%TO.P,U10,35,IOL47A-15*%
%TO.N,/DATA FLOW CONTROL/LOCAL_A5*%
X26416000Y-32512000D03*
%TO.P,U10,36,IOT30A-77*%
%TO.N,/DATA FLOW CONTROL/LOCAL_A4*%
X26416000Y-29972000D03*
%TO.P,U10,37,IOT4B-85*%
%TO.N,/DATA FLOW CONTROL/LOCAL_A3*%
X26416000Y-27432000D03*
%TO.P,U10,38,IOT34A-75*%
%TO.N,/DATA FLOW CONTROL/LOCAL_A2*%
X26416000Y-24892000D03*
%TO.P,U10,39,IOT34B-74*%
%TO.N,/DATA FLOW CONTROL/LOCAL_A1*%
X26416000Y-22352000D03*
%TO.P,U10,40,IOT40A-73*%
%TO.N,/DATA FLOW CONTROL/LOCAL_A0*%
X26416000Y-19812000D03*
%TD*%
D12*
%TO.P,RN4,1,common*%
%TO.N,+5V*%
X103632000Y-129540000D03*
D11*
%TO.P,RN4,2,R1*%
%TO.N,/DATA FLOW CONTROL/RD_O*%
X103632000Y-132080000D03*
%TO.P,RN4,3,R2*%
%TO.N,/DATA FLOW CONTROL/RW_O*%
X103632000Y-134620000D03*
%TO.P,RN4,4,R3*%
%TO.N,/DATA FLOW CONTROL/IORQ_O*%
X103632000Y-137160000D03*
%TO.P,RN4,5,R4*%
%TO.N,/DATA FLOW CONTROL/MEMRQ_O*%
X103632000Y-139700000D03*
%TO.P,RN4,6,R5*%
%TO.N,/DATA FLOW CONTROL/BUSRQ_O*%
X103632000Y-142240000D03*
%TO.P,RN4,7,R6*%
%TO.N,/DATA FLOW CONTROL/WAIT_O*%
X103632000Y-144780000D03*
%TO.P,RN4,8,R7*%
%TO.N,/DATA FLOW CONTROL/NMI_O*%
X103632000Y-147320000D03*
%TO.P,RN4,9,R8*%
%TO.N,/DATA FLOW CONTROL/ROMCS_O*%
X103632000Y-149860000D03*
%TD*%
D12*
%TO.P,D1,1,K*%
%TO.N,+5V*%
X88900000Y-162052000D03*
D11*
%TO.P,D1,2,A*%
%TO.N,Net-(D1-A)*%
X81280000Y-162052000D03*
%TD*%
D16*
%TO.P,LS245_Dir1,1,Pin_1*%
%TO.N,Net-(LS245_Dir1-Pin_1)*%
X30480000Y-160020000D03*
D17*
%TO.P,LS245_Dir1,2,Pin_2*%
%TO.N,Net-(LS245_Dir1-Pin_2)*%
X30480000Y-162560000D03*
%TO.P,LS245_Dir1,3,Pin_3*%
%TO.N,/DATA FLOW CONTROL/RD_O*%
X30480000Y-165100000D03*
%TD*%
D21*
%TO.N,/DATA FLOW CONTROL/LEVEL_A7*%
X61329500Y-75433800D03*
X53765700Y-110356300D03*
%TO.N,+5V*%
X107205200Y-127218500D03*
X131483300Y-124310600D03*
X125420000Y-122548400D03*
X87102800Y-127522000D03*
%TO.N,/DATA FLOW CONTROL/LEVEL_A6*%
X41548200Y-76518400D03*
%TO.N,/DATA FLOW CONTROL/LEVEL_A4*%
X71964100Y-98489400D03*
%TO.N,/DATA FLOW CONTROL/LEVEL_A5*%
X36576000Y-118696200D03*
X73539100Y-98727500D03*
%TO.N,/DATA FLOW CONTROL/LEVEL_A3*%
X44008900Y-77845400D03*
%TO.N,/DATA FLOW CONTROL/LEVEL_A1*%
X66791300Y-100393300D03*
%TO.N,/DATA FLOW CONTROL/LEVEL_A0*%
X42727600Y-78965000D03*
%TO.N,+3.3V*%
X104728500Y-78672300D03*
X80854200Y-96392600D03*
%TO.N,/DATA FLOW CONTROL/LEVEL_A2*%
X70136700Y-99359300D03*
%TO.N,GND*%
X115200400Y-34798000D03*
X47340000Y-120710500D03*
X62134300Y-86805500D03*
X109988600Y-119126000D03*
%TO.N,/DATA FLOW CONTROL/LOCAL_A15*%
X30986300Y-57912000D03*
X30986300Y-122627800D03*
%TO.N,/DATA FLOW CONTROL/LEVEL_A14*%
X94111900Y-86716900D03*
%TO.N,/DATA FLOW CONTROL/LEVEL_A15*%
X96968700Y-84463300D03*
%TO.N,/DATA FLOW CONTROL/LOCAL_A9*%
X119163100Y-99764300D03*
%TO.N,/DATA FLOW CONTROL/LEVEL_A11*%
X140301400Y-100653300D03*
%TO.N,/DATA FLOW CONTROL/LEVEL_A12*%
X89217700Y-83684300D03*
%TO.N,/DATA FLOW CONTROL/LEVEL_A13*%
X137465100Y-139270600D03*
%TO.N,/DATA FLOW CONTROL/LOCAL_A8*%
X115720400Y-95204800D03*
%TO.N,/DATA FLOW CONTROL/LOCAL_A12*%
X27443700Y-83338800D03*
%TO.N,/DATA FLOW CONTROL/LEVEL_A9*%
X93922000Y-74441000D03*
%TO.N,/DATA FLOW CONTROL/LEVEL_D7*%
X86011000Y-82137800D03*
%TO.N,/DATA FLOW CONTROL/LEVEL_D6*%
X85234500Y-83004100D03*
%TO.N,/DATA FLOW CONTROL/LEVEL_D2*%
X60134300Y-134415800D03*
%TO.N,/DATA FLOW CONTROL/LOCAL_D2*%
X44122600Y-45336000D03*
%TO.N,/DATA FLOW CONTROL/LEVEL_D3*%
X79558400Y-90586200D03*
%TO.N,/DATA FLOW CONTROL/LEVEL_D5*%
X87495200Y-102451700D03*
%TO.N,/DATA FLOW CONTROL/LOCAL_D6*%
X41409500Y-52853300D03*
%TO.N,/DATA FLOW CONTROL/LEVEL_D4*%
X88461400Y-98134800D03*
%TO.N,/DATA FLOW CONTROL/LOCAL_D1*%
X43386100Y-102550500D03*
%TO.N,/DATA FLOW CONTROL/LEVEL_D1*%
X59692900Y-132964200D03*
%TO.N,/DATA FLOW CONTROL/LEVEL_D0*%
X59084800Y-131402700D03*
%TO.N,/DATA FLOW CONTROL/Z80_A1*%
X45178800Y-147881900D03*
%TO.N,/DATA FLOW CONTROL/Z80_A0*%
X43034400Y-136132200D03*
%TO.N,/DATA FLOW CONTROL/Z80_A3*%
X51702500Y-156021000D03*
%TO.N,Net-(SPI_Spare1-Pin_1)*%
X138383300Y-80270400D03*
%TO.N,/DATA FLOW CONTROL/RW_L*%
X103522700Y-95779500D03*
%TO.N,/DATA FLOW CONTROL/RD_L*%
X98894600Y-101954700D03*
%TO.N,/DATA FLOW CONTROL/SYSTEM_READY_L*%
X88606000Y-118427000D03*
X68257500Y-56955600D03*
X74608700Y-59470300D03*
%TO.N,/DATA FLOW CONTROL/ROMCS_L*%
X119606600Y-137126800D03*
X102686200Y-94552800D03*
%TO.N,/DATA FLOW CONTROL/BUSACK_L*%
X85401300Y-102088900D03*
%TO.N,Net-(J6-Pin_1)*%
X42622100Y-72950400D03*
%TO.N,/DATA FLOW CONTROL/NMI_L*%
X119435600Y-138301600D03*
%TO.N,/DATA FLOW CONTROL/MEMRQ_L*%
X121290300Y-116132200D03*
%TO.N,/DATA FLOW CONTROL/SPARE_1_L*%
X97386400Y-133988400D03*
%TO.N,/DATA FLOW CONTROL/SPARE_3_L*%
X87408200Y-112622700D03*
%TO.N,/DATA FLOW CONTROL/RESET_L*%
X93392900Y-123927700D03*
%TO.N,/DATA FLOW CONTROL/SPARE_4_L*%
X88195200Y-114394800D03*
%TO.N,/DATA FLOW CONTROL/SPARE_2_L*%
X87365900Y-110040400D03*
%TO.N,Net-(J6-Pin_2)*%
X42510000Y-132334000D03*
%TO.N,Net-(Rom_Access_Shifter1-B1)*%
X109247300Y-62869500D03*
%TO.N,/DATA FLOW CONTROL/RD*%
X100430300Y-91416400D03*
%TO.N,/DATA FLOW CONTROL/MEMRQ*%
X69199400Y-48857800D03*
%TO.N,/DATA FLOW CONTROL/BUSRQ*%
X59540100Y-80406800D03*
X93287100Y-89795100D03*
%TO.N,/DATA FLOW CONTROL/RW*%
X96227300Y-91446300D03*
%TO.N,/DATA FLOW CONTROL/IORQ*%
X71273200Y-47057500D03*
%TO.N,/DATA FLOW CONTROL/BUSACK*%
X49995600Y-85675200D03*
X81157200Y-88646000D03*
%TO.N,/ESP-32 Module/ROM_ACCESS_A16*%
X138500900Y-68516900D03*
X103088400Y-68516900D03*
%TO.N,/ESP-32 Module/ROM_ACCESS_A17*%
X137774200Y-71032900D03*
%TO.N,/DATA FLOW CONTROL/ROMCS*%
X115013100Y-52250400D03*
%TO.N,/DATA FLOW CONTROL/NMI*%
X114609000Y-62912600D03*
%TO.N,/DATA FLOW CONTROL/SYSTEM_READY*%
X110840300Y-107100200D03*
%TO.N,/DATA FLOW CONTROL/Spare_3*%
X111084700Y-101319100D03*
%TO.N,/DATA FLOW CONTROL/Spare_4*%
X110295600Y-103921100D03*
%TO.N,/DATA FLOW CONTROL/Spare_2*%
X113386200Y-99820600D03*
%TO.N,/DATA FLOW CONTROL/WAIT*%
X111577000Y-104892400D03*
%TO.N,Net-(D2-A)*%
X97487300Y-53352300D03*
%TO.N,/ESP-32 Module/MOSI*%
X49350100Y-68146100D03*
%TO.N,/DATA FLOW CONTROL/Spare_1*%
X85906700Y-91948000D03*
X113356100Y-91337200D03*
%TO.N,/DATA FLOW CONTROL/RESET*%
X114093700Y-98503900D03*
%TO.N,Net-(Rom_Access_Shifter1-B3)*%
X106755000Y-61482900D03*
%TO.N,Net-(Rom_Access_Shifter1-B2)*%
X107752300Y-62180600D03*
%TO.N,Net-(U11-VDET_1{slash}GPIO34{slash}ADC1_CH6)*%
X82208300Y-43711900D03*
%TO.N,Net-(LS245_Dir1-Pin_1)*%
X40749100Y-75719300D03*
%TD*%
D22*
%TO.N,/DATA FLOW CONTROL/LEVEL_A7*%
X39251700Y-117856000D02*
X44975400Y-112132300D01*
X61329500Y-75433800D02*
X64476200Y-72287100D01*
X72691900Y-61976000D02*
X76200000Y-61976000D01*
X38100000Y-117856000D02*
X39251700Y-117856000D01*
X64476200Y-70191700D02*
X72691900Y-61976000D01*
X44975400Y-112132300D02*
X51989700Y-112132300D01*
X64476200Y-72287100D02*
X64476200Y-70191700D01*
X51989700Y-112132300D02*
X53765700Y-110356300D01*
D23*
%TO.N,+5V*%
X91440000Y-51816000D02*
X91440000Y-50564300D01*
X143800400Y-99604400D02*
X143800400Y-119685500D01*
X116840000Y-97536000D02*
X109745700Y-97536000D01*
X38100000Y-97536000D02*
X39351700Y-97536000D01*
X50292000Y-32592000D02*
X61820300Y-32592000D01*
X111252000Y-62230000D02*
X110000300Y-62230000D01*
X143800400Y-119685500D02*
X137213100Y-126272800D01*
X141478000Y-97282000D02*
X143800400Y-99604400D01*
X113774800Y-127218500D02*
X107205200Y-127218500D01*
X133445500Y-126272800D02*
X137213100Y-126272800D01*
X118599700Y-129540000D02*
X118599700Y-129368700D01*
X39351700Y-97536000D02*
X40117800Y-96769900D01*
X90932000Y-128778000D02*
X101618300Y-128778000D01*
X79723700Y-127522000D02*
X87102800Y-127522000D01*
X91440000Y-50564300D02*
X86360000Y-45484300D01*
X109745700Y-97536000D02*
X108475800Y-98805900D01*
X111487700Y-36068000D02*
X115297700Y-32258000D01*
X92437600Y-98805900D02*
X91675700Y-98044000D01*
X78467700Y-128778000D02*
X79723700Y-127522000D01*
X118599700Y-129368700D02*
X125420000Y-122548400D01*
X75710300Y-128524000D02*
X63500000Y-128524000D01*
X77216000Y-128778000D02*
X78467700Y-128778000D01*
X39116000Y-128778000D02*
X40367700Y-128778000D01*
X80317000Y-97146600D02*
X89526600Y-97146600D01*
X115297700Y-32258000D02*
X127834300Y-32258000D01*
X117348000Y-129540000D02*
X116096300Y-129540000D01*
X127834300Y-32258000D02*
X141804300Y-18288000D01*
X143256000Y-18288000D02*
X141804300Y-18288000D01*
X63500000Y-128524000D02*
X62248300Y-128524000D01*
X91440000Y-51816000D02*
X92691700Y-51816000D01*
X62366200Y-98044000D02*
X61740300Y-98044000D01*
X40117800Y-96769900D02*
X60466200Y-96769900D01*
X103632000Y-129540000D02*
X102380300Y-129540000D01*
X60466200Y-96769900D02*
X61740300Y-98044000D01*
X108475800Y-98805900D02*
X92437600Y-98805900D01*
X65509000Y-96778700D02*
X79949100Y-96778700D01*
X60993700Y-127269400D02*
X62248300Y-128524000D01*
X117348000Y-129540000D02*
X118599700Y-129540000D01*
X76590200Y-128778000D02*
X77216000Y-128778000D01*
X131483300Y-124310600D02*
X133445500Y-126272800D01*
X67056000Y-36576000D02*
X65804300Y-36576000D01*
X102112500Y-54342200D02*
X95217900Y-54342200D01*
X110000300Y-62230000D02*
X102112500Y-54342200D01*
X116096300Y-129540000D02*
X113774800Y-127218500D01*
X89526600Y-97146600D02*
X90424000Y-98044000D01*
X75964300Y-128778000D02*
X75710300Y-128524000D01*
X40367700Y-128778000D02*
X41876300Y-127269400D01*
X41876300Y-127269400D02*
X60993700Y-127269400D01*
X141732000Y-129540000D02*
X140480300Y-129540000D01*
X76590200Y-128778000D02*
X75964300Y-128778000D01*
X79949100Y-96778700D02*
X80317000Y-97146600D01*
X62366200Y-98044000D02*
X62992000Y-98044000D01*
X61820300Y-32592000D02*
X65804300Y-36576000D01*
X86360000Y-45484300D02*
X86360000Y-45212000D01*
X64243700Y-98044000D02*
X65509000Y-96778700D01*
X90424000Y-98044000D02*
X91675700Y-98044000D01*
X95217900Y-54342200D02*
X92691700Y-51816000D01*
X62992000Y-98044000D02*
X64243700Y-98044000D01*
X110236000Y-36068000D02*
X111487700Y-36068000D01*
X137213100Y-126272800D02*
X140480300Y-129540000D01*
X101618300Y-128778000D02*
X102380300Y-129540000D01*
D22*
%TO.N,/DATA FLOW CONTROL/LEVEL_A6*%
X65227900Y-72499400D02*
X61208900Y-76518400D01*
X70914000Y-64516000D02*
X65227900Y-70202100D01*
X61208900Y-76518400D02*
X41548200Y-76518400D01*
X65227900Y-70202100D02*
X65227900Y-72499400D01*
X76200000Y-64516000D02*
X75048300Y-64516000D01*
X75048300Y-64516000D02*
X70914000Y-64516000D01*
%TO.N,/DATA FLOW CONTROL/LEVEL_A4*%
X63519500Y-106934000D02*
X71964100Y-98489400D01*
X39251700Y-110236000D02*
X42553700Y-106934000D01*
X42553700Y-106934000D02*
X63519500Y-106934000D01*
X38100000Y-110236000D02*
X39251700Y-110236000D01*
%TO.N,/DATA FLOW CONTROL/LEVEL_A5*%
X39251700Y-112776000D02*
X42553700Y-109474000D01*
X38100000Y-112776000D02*
X39251700Y-112776000D01*
X73539100Y-99293700D02*
X73539100Y-98727500D01*
X37831500Y-113927700D02*
X36576000Y-115183200D01*
X38100000Y-112776000D02*
X38100000Y-113927700D01*
X36576000Y-115183200D02*
X36576000Y-118696200D01*
X63358800Y-109474000D02*
X73539100Y-99293700D01*
X38100000Y-113927700D02*
X37831500Y-113927700D01*
X42553700Y-109474000D02*
X63358800Y-109474000D01*
%TO.N,/DATA FLOW CONTROL/LOCAL_A4*%
X20415500Y-35972500D02*
X20415500Y-104387700D01*
X20415500Y-104387700D02*
X25112100Y-109084300D01*
X25400000Y-110236000D02*
X25400000Y-109084300D01*
X26416000Y-29972000D02*
X20415500Y-35972500D01*
X25112100Y-109084300D02*
X25400000Y-109084300D01*
%TO.N,/DATA FLOW CONTROL/LEVEL_A3*%
X76200000Y-72136000D02*
X75048300Y-72136000D01*
X75048300Y-72136000D02*
X69338900Y-77845400D01*
X69338900Y-77845400D02*
X44008900Y-77845400D01*
%TO.N,/DATA FLOW CONTROL/LEVEL_A1*%
X38100000Y-102616000D02*
X39251700Y-102616000D01*
X65330600Y-101854000D02*
X66791300Y-100393300D01*
X39251700Y-102616000D02*
X40013700Y-101854000D01*
X40013700Y-101854000D02*
X65330600Y-101854000D01*
%TO.N,/DATA FLOW CONTROL/LEVEL_A0*%
X25034400Y-116586000D02*
X25792300Y-116586000D01*
X36710200Y-102349000D02*
X37831500Y-101227700D01*
X36710200Y-105668100D02*
X36710200Y-102349000D01*
X43347200Y-79429500D02*
X74721800Y-79429500D01*
X32139400Y-132581800D02*
X24518900Y-132581800D01*
X23493600Y-131556500D02*
X23493600Y-118126800D01*
X24518900Y-132581800D02*
X23493600Y-131556500D01*
X42882700Y-78965000D02*
X43347200Y-79429500D01*
X25792300Y-116586000D02*
X36710200Y-105668100D01*
X76200000Y-79756000D02*
X75048300Y-79756000D01*
X33415600Y-133858000D02*
X32139400Y-132581800D01*
X37831500Y-101227700D02*
X38100000Y-101227700D01*
X39116000Y-133858000D02*
X33415600Y-133858000D01*
X38100000Y-100076000D02*
X38100000Y-101227700D01*
X23493600Y-118126800D02*
X25034400Y-116586000D01*
X74721800Y-79429500D02*
X75048300Y-79756000D01*
X42727600Y-78965000D02*
X42882700Y-78965000D01*
%TO.N,/DATA FLOW CONTROL/LOCAL_A0*%
X26416000Y-19812000D02*
X27540100Y-20936100D01*
X20917200Y-95171700D02*
X24669800Y-98924300D01*
X27540100Y-30482100D02*
X26623900Y-31398300D01*
X24669800Y-98924300D02*
X25400000Y-98924300D01*
X20917200Y-36407700D02*
X20917200Y-95171700D01*
X25400000Y-100076000D02*
X25400000Y-98924300D01*
X27540100Y-20936100D02*
X27540100Y-30482100D01*
X26623900Y-31398300D02*
X25926600Y-31398300D01*
X25926600Y-31398300D02*
X20917200Y-36407700D01*
%TO.N,Net-(A0-7_SHIFTER1-OE)*%
X106447100Y-121551400D02*
X105291700Y-120396000D01*
X50292000Y-120904000D02*
X49140300Y-120904000D01*
X52639500Y-122099800D02*
X51443700Y-120904000D01*
X77148200Y-120904000D02*
X76572300Y-120904000D01*
X80027400Y-122055700D02*
X101328600Y-122055700D01*
X127626300Y-120142000D02*
X125654300Y-120142000D01*
X78875700Y-120904000D02*
X80027400Y-122055700D01*
X48444200Y-121600100D02*
X27755800Y-121600100D01*
X27755800Y-121600100D02*
X26551700Y-120396000D01*
X104140000Y-120396000D02*
X105291700Y-120396000D01*
X25400000Y-120396000D02*
X26551700Y-120396000D01*
X77148200Y-120904000D02*
X77724000Y-120904000D01*
X49140300Y-120904000D02*
X48444200Y-121600100D01*
X75376500Y-122099800D02*
X52639500Y-122099800D01*
X128778000Y-120142000D02*
X127626300Y-120142000D01*
X50292000Y-120904000D02*
X51443700Y-120904000D01*
X104140000Y-120396000D02*
X102988300Y-120396000D01*
X124244900Y-121551400D02*
X106447100Y-121551400D01*
X125654300Y-120142000D02*
X124244900Y-121551400D01*
X101328600Y-122055700D02*
X102988300Y-120396000D01*
X76572300Y-120904000D02*
X75376500Y-122099800D01*
X77724000Y-120904000D02*
X78875700Y-120904000D01*
D23*
%TO.N,+3.3V*%
X145190500Y-70086500D02*
X145190500Y-74212500D01*
X145190500Y-74212500D02*
X140155000Y-79248000D01*
X50292000Y-98044000D02*
X49040300Y-98044000D01*
X129304300Y-79248000D02*
X128796400Y-78740100D01*
X76122200Y-97693900D02*
X69729300Y-97693900D01*
X25400000Y-97536000D02*
X26651700Y-97536000D01*
X102888300Y-97536000D02*
X101744900Y-96392600D01*
X143724000Y-68620000D02*
X145190500Y-70086500D01*
X104796300Y-78740100D02*
X104728500Y-78672300D01*
X76472300Y-98044000D02*
X76122200Y-97693900D01*
X101744900Y-96392600D02*
X80854200Y-96392600D01*
X24892000Y-67056000D02*
X24892000Y-74208000D01*
X104140000Y-97536000D02*
X102888300Y-97536000D01*
X130556000Y-79248000D02*
X129304300Y-79248000D01*
X52795400Y-99295700D02*
X51543700Y-98044000D01*
X77724000Y-98044000D02*
X76472300Y-98044000D01*
X27903400Y-98787700D02*
X26651700Y-97536000D01*
X50917900Y-98044000D02*
X51543700Y-98044000D01*
X91948000Y-28956000D02*
X77926000Y-28956000D01*
X50917900Y-98044000D02*
X50292000Y-98044000D01*
X26416000Y-65532000D02*
X24892000Y-67056000D01*
X68127500Y-99295700D02*
X52795400Y-99295700D01*
X77926000Y-28956000D02*
X64210000Y-28956000D01*
X49040300Y-98044000D02*
X48296600Y-98787700D01*
X130556000Y-79248000D02*
X137160000Y-79248000D01*
X140155000Y-79248000D02*
X137160000Y-79248000D01*
X128796400Y-78740100D02*
X104796300Y-78740100D01*
X69729300Y-97693900D02*
X68127500Y-99295700D01*
X48296600Y-98787700D02*
X27903400Y-98787700D01*
D22*
%TO.N,/DATA FLOW CONTROL/LEVEL_A2*%
X39251700Y-105156000D02*
X40013700Y-104394000D01*
X40013700Y-104394000D02*
X65102000Y-104394000D01*
X38100000Y-105156000D02*
X39251700Y-105156000D01*
X65102000Y-104394000D02*
X70136700Y-99359300D01*
D23*
%TO.N,GND*%
X71837800Y-86805500D02*
X62134300Y-86805500D01*
X55880000Y-70104000D02*
X60674300Y-70104000D01*
X46736000Y-55372000D02*
X42926000Y-59182000D01*
X88086000Y-22134000D02*
X95810000Y-22134000D01*
X143724000Y-73620000D02*
X143724000Y-72676900D01*
X76200000Y-89916000D02*
X74948300Y-89916000D01*
X52832000Y-28956000D02*
X52832000Y-28236000D01*
X103867700Y-51308000D02*
X105119400Y-50056300D01*
X128016000Y-129540000D02*
X128016000Y-128288300D01*
X49771300Y-117094000D02*
X47340000Y-119525300D01*
X62992000Y-120904000D02*
X64243700Y-120904000D01*
X93453700Y-119126000D02*
X91675700Y-120904000D01*
X143724000Y-72676900D02*
X135055100Y-64008000D01*
X110282500Y-146050000D02*
X99112700Y-146050000D01*
X27650100Y-66837900D02*
X26416000Y-68072000D01*
X25954400Y-59182000D02*
X25157000Y-59979400D01*
X141804300Y-30988000D02*
X137994300Y-34798000D01*
X26416000Y-68072000D02*
X26416000Y-77684000D01*
X42926000Y-59182000D02*
X25954400Y-59182000D01*
X24102500Y-126736800D02*
X24102500Y-119915600D01*
X26416000Y-77684000D02*
X24892000Y-79208000D01*
X26879700Y-64262000D02*
X27650100Y-65032400D01*
X111023100Y-146790600D02*
X110282500Y-146050000D01*
X117856000Y-48768000D02*
X116404300Y-48768000D01*
X137994300Y-34798000D02*
X115200400Y-34798000D01*
X85362300Y-117094000D02*
X89172300Y-120904000D01*
X109180400Y-151148300D02*
X108473300Y-150441200D01*
X74948300Y-89916000D02*
X71837800Y-86805500D01*
X24102500Y-119915600D02*
X24892100Y-119126000D01*
X90424000Y-120904000D02*
X91675700Y-120904000D01*
X24892000Y-128778000D02*
X24892000Y-127526300D01*
X116840000Y-120396000D02*
X118091700Y-120396000D01*
X25950200Y-64262000D02*
X26879700Y-64262000D01*
X61478000Y-28236000D02*
X67870000Y-21844000D01*
X114318300Y-119126000D02*
X109988600Y-119126000D01*
X102616000Y-51308000D02*
X103867700Y-51308000D01*
X61976000Y-70104000D02*
X60674300Y-70104000D01*
X122155700Y-116332000D02*
X118091700Y-120396000D01*
X109728000Y-152400000D02*
X109728000Y-151148300D01*
X129344200Y-116332000D02*
X122155700Y-116332000D01*
X130534800Y-120142000D02*
X140226300Y-120142000D01*
X47340000Y-120710500D02*
X39666200Y-120710500D01*
X109728000Y-151148300D02*
X109180400Y-151148300D01*
X116840000Y-120396000D02*
X115588300Y-120396000D01*
X25157000Y-59979400D02*
X25157000Y-63468800D01*
X64243700Y-120904000D02*
X68053700Y-117094000D01*
X108473300Y-149314700D02*
X109198000Y-148590000D01*
X52620000Y-28236000D02*
X52832000Y-28236000D01*
X128016000Y-128288300D02*
X130534800Y-125769500D01*
X130534800Y-117522600D02*
X129344200Y-116332000D01*
X38100000Y-120396000D02*
X36848300Y-120396000D01*
X61740300Y-120904000D02*
X57930300Y-117094000D01*
X68053700Y-117094000D02*
X85362300Y-117094000D01*
X94794700Y-150368000D02*
X85833700Y-150368000D01*
X108473300Y-150441200D02*
X108473300Y-149314700D01*
X25157000Y-63468800D02*
X25950200Y-64262000D01*
X99112700Y-146050000D02*
X94794700Y-150368000D01*
X95810000Y-22134000D02*
X102310000Y-22134000D01*
X57930300Y-117094000D02*
X49771300Y-117094000D01*
X141478000Y-120142000D02*
X140226300Y-120142000D01*
X143256000Y-30988000D02*
X141804300Y-30988000D01*
X115588300Y-120396000D02*
X114318300Y-119126000D01*
X90424000Y-120904000D02*
X89172300Y-120904000D01*
X110260300Y-148590000D02*
X111023100Y-147827200D01*
X47340000Y-119525300D02*
X47340000Y-120710500D01*
X46736000Y-22352000D02*
X52620000Y-28236000D01*
X130534800Y-120142000D02*
X130534800Y-117522600D01*
X135055100Y-64008000D02*
X117856000Y-64008000D01*
X109198000Y-148590000D02*
X110260300Y-148590000D01*
X35578300Y-119126000D02*
X36848300Y-120396000D01*
X109988600Y-119126000D02*
X93453700Y-119126000D01*
X67870000Y-21844000D02*
X74370000Y-21844000D01*
X39666200Y-120710500D02*
X39351700Y-120396000D01*
X62992000Y-120904000D02*
X61740300Y-120904000D01*
X38100000Y-120396000D02*
X39351700Y-120396000D01*
X81296000Y-21844000D02*
X81586000Y-22134000D01*
X115116000Y-50056300D02*
X116404300Y-48768000D01*
X85833700Y-150368000D02*
X84563700Y-151638000D01*
X27650100Y-65032400D02*
X27650100Y-66837900D01*
X105119400Y-50056300D02*
X115116000Y-50056300D01*
X111023100Y-147827200D02*
X111023100Y-146790600D01*
X74370000Y-21844000D02*
X81296000Y-21844000D01*
X24892000Y-127526300D02*
X24102500Y-126736800D01*
X52832000Y-28236000D02*
X61478000Y-28236000D01*
X83312000Y-151638000D02*
X84563700Y-151638000D01*
X130534800Y-125769500D02*
X130534800Y-120142000D01*
X24892100Y-119126000D02*
X35578300Y-119126000D01*
D22*
%TO.N,/DATA FLOW CONTROL/LOCAL_A15*%
X30986300Y-122627800D02*
X123877900Y-122627800D01*
X128703700Y-121896700D02*
X129933100Y-120667300D01*
X128778000Y-117602000D02*
X128778000Y-118753700D01*
X26416000Y-57912000D02*
X30986300Y-57912000D01*
X125150200Y-121896700D02*
X128703700Y-121896700D01*
X124514300Y-121991400D02*
X125055500Y-121991400D01*
X129933100Y-119620900D02*
X129065900Y-118753700D01*
X123877900Y-122627800D02*
X124514300Y-121991400D01*
X129933100Y-120667300D02*
X129933100Y-119620900D01*
X125055500Y-121991400D02*
X125150200Y-121896700D01*
X129065900Y-118753700D02*
X128778000Y-118753700D01*
%TO.N,/DATA FLOW CONTROL/LEVEL_A14*%
X112878600Y-90183800D02*
X112769500Y-90292900D01*
X116321700Y-90183800D02*
X112878600Y-90183800D01*
X100907900Y-90263000D02*
X99952800Y-90263000D01*
X99922900Y-90292900D02*
X97825500Y-90292900D01*
X99952800Y-90263000D02*
X99922900Y-90292900D01*
X117162200Y-91024300D02*
X116321700Y-90183800D01*
X141478000Y-115062000D02*
X140326300Y-115062000D01*
X94249500Y-86716900D02*
X94111900Y-86716900D01*
X122168400Y-95479800D02*
X117712900Y-91024300D01*
X112769500Y-90292900D02*
X100937800Y-90292900D01*
X140326300Y-114793500D02*
X129164800Y-103632000D01*
X97825500Y-90292900D02*
X94249500Y-86716900D01*
X128336400Y-103632000D02*
X122168400Y-97464000D01*
X129164800Y-103632000D02*
X128336400Y-103632000D01*
X117712900Y-91024300D02*
X117162200Y-91024300D01*
X140326300Y-115062000D02*
X140326300Y-114793500D01*
X100937800Y-90292900D02*
X100907900Y-90263000D01*
X122168400Y-97464000D02*
X122168400Y-95479800D01*
%TO.N,/DATA FLOW CONTROL/LEVEL_A15*%
X143198700Y-115017500D02*
X143198700Y-102357700D01*
X140981700Y-101162600D02*
X140829000Y-101315300D01*
X143198700Y-102357700D02*
X142003600Y-101162600D01*
X106815900Y-86241700D02*
X98074900Y-86241700D01*
X126012300Y-87311900D02*
X107886100Y-87311900D01*
X140829000Y-101315300D02*
X140015700Y-101315300D01*
X98074900Y-86241700D02*
X96968700Y-85135500D01*
X141478000Y-116450300D02*
X141765900Y-116450300D01*
X140015700Y-101315300D02*
X126012300Y-87311900D01*
X107886100Y-87311900D02*
X106815900Y-86241700D01*
X141765900Y-116450300D02*
X143198700Y-115017500D01*
X142003600Y-101162600D02*
X140981700Y-101162600D01*
X96968700Y-85135500D02*
X96968700Y-84463300D01*
X141478000Y-117602000D02*
X141478000Y-116450300D01*
%TO.N,/DATA FLOW CONTROL/LOCAL_A11*%
X26021900Y-54102000D02*
X25246600Y-53326700D01*
X26108000Y-82341300D02*
X23480000Y-79713300D01*
X128778000Y-107442000D02*
X128778000Y-106290300D01*
X121319900Y-98871300D02*
X121109800Y-98661200D01*
X128778000Y-106290300D02*
X128494800Y-106290300D01*
X121109800Y-97965600D02*
X121165000Y-97910400D01*
X26061900Y-56642000D02*
X26754700Y-56642000D01*
X121165000Y-97910400D02*
X121165000Y-95895200D01*
X25246600Y-53326700D02*
X25246600Y-48921400D01*
X28680000Y-82341300D02*
X26108000Y-82341300D01*
X23480000Y-59223900D02*
X26061900Y-56642000D01*
X27533700Y-54872900D02*
X26762800Y-54102000D01*
X121165000Y-95895200D02*
X117297500Y-92027700D01*
X101613700Y-91864200D02*
X100878100Y-92599800D01*
X121319900Y-99115400D02*
X121319900Y-98871300D01*
X100878100Y-92599800D02*
X38938500Y-92599800D01*
X38938500Y-92599800D02*
X28680000Y-82341300D01*
X112961300Y-91864200D02*
X101613700Y-91864200D01*
X26754700Y-56642000D02*
X27533700Y-55863000D01*
X128494800Y-106290300D02*
X121319900Y-99115400D01*
X117297500Y-92027700D02*
X113124800Y-92027700D01*
X27533700Y-55863000D02*
X27533700Y-54872900D01*
X113124800Y-92027700D02*
X112961300Y-91864200D01*
X26762800Y-54102000D02*
X26021900Y-54102000D01*
X25246600Y-48921400D02*
X26416000Y-47752000D01*
X23480000Y-79713300D02*
X23480000Y-59223900D01*
X121109800Y-98661200D02*
X121109800Y-97965600D01*
%TO.N,/DATA FLOW CONTROL/LOCAL_A9*%
X112130500Y-93871000D02*
X112294000Y-94034500D01*
X26416000Y-42672000D02*
X21920600Y-47167400D01*
X21920600Y-47167400D02*
X21920600Y-80427900D01*
X119158200Y-97079600D02*
X119092700Y-97145100D01*
X119092700Y-99693900D02*
X119163100Y-99764300D01*
X119158200Y-96726000D02*
X119158200Y-97079600D01*
X116466700Y-94034500D02*
X119158200Y-96726000D01*
X36699100Y-95206400D02*
X101109100Y-95206400D01*
X21920600Y-80427900D02*
X36699100Y-95206400D01*
X102444500Y-93871000D02*
X112130500Y-93871000D01*
X112294000Y-94034500D02*
X116466700Y-94034500D01*
X119092700Y-97145100D02*
X119092700Y-99693900D01*
X101109100Y-95206400D02*
X102444500Y-93871000D01*
%TO.N,/DATA FLOW CONTROL/LEVEL_A11*%
X92591700Y-70663400D02*
X92591700Y-69596000D01*
X129970900Y-87484400D02*
X128795000Y-86308500D01*
X98128300Y-76200000D02*
X92591700Y-70663400D01*
X133463100Y-90684500D02*
X130263000Y-87484400D01*
X109624400Y-86308500D02*
X99515900Y-76200000D01*
X128795000Y-86308500D02*
X109624400Y-86308500D01*
X99515900Y-76200000D02*
X98128300Y-76200000D01*
X140301400Y-100653300D02*
X133463100Y-93815000D01*
X133463100Y-93815000D02*
X133463100Y-90684500D01*
X130263000Y-87484400D02*
X129970900Y-87484400D01*
X91440000Y-69596000D02*
X92591700Y-69596000D01*
%TO.N,/DATA FLOW CONTROL/LEVEL_A10*%
X101353200Y-89289500D02*
X101323300Y-89259600D01*
X91440000Y-74676000D02*
X91440000Y-75827700D01*
X93984800Y-84344000D02*
X93984800Y-78090300D01*
X101323300Y-89259600D02*
X98900400Y-89259600D01*
X98900400Y-89259600D02*
X93984800Y-84344000D01*
X112463200Y-89180400D02*
X112354100Y-89289500D01*
X141478000Y-104902000D02*
X140326300Y-104902000D01*
X124604700Y-89180400D02*
X112463200Y-89180400D01*
X140326300Y-104902000D02*
X124604700Y-89180400D01*
X91722200Y-75827700D02*
X91440000Y-75827700D01*
X112354100Y-89289500D02*
X101353200Y-89289500D01*
X93984800Y-78090300D02*
X91722200Y-75827700D01*
%TO.N,/DATA FLOW CONTROL/LOCAL_A13*%
X119604700Y-97342500D02*
X119659900Y-97287300D01*
X112338200Y-93369300D02*
X102236800Y-93369300D01*
X27544100Y-47177300D02*
X27544100Y-51703900D01*
X119659900Y-97287300D02*
X119659900Y-96518300D01*
X119604700Y-99284300D02*
X119604700Y-97342500D01*
X119814800Y-99494400D02*
X119604700Y-99284300D01*
X112501700Y-93532800D02*
X112338200Y-93369300D01*
X119659900Y-96518300D02*
X116674400Y-93532800D01*
X101501200Y-94104900D02*
X36309000Y-94104900D01*
X27544100Y-51703900D02*
X26416000Y-52832000D01*
X36309000Y-94104900D02*
X22422300Y-80218200D01*
X119814800Y-103558800D02*
X119814800Y-99494400D01*
X26988300Y-46621500D02*
X27544100Y-47177300D01*
X128778000Y-112522000D02*
X119814800Y-103558800D01*
X22422300Y-50120000D02*
X25920800Y-46621500D01*
X102236800Y-93369300D02*
X101501200Y-94104900D01*
X22422300Y-80218200D02*
X22422300Y-50120000D01*
X25920800Y-46621500D02*
X26988300Y-46621500D01*
X116674400Y-93532800D02*
X112501700Y-93532800D01*
%TO.N,/DATA FLOW CONTROL/LEVEL_A12*%
X122670100Y-95405700D02*
X122670100Y-95272100D01*
X141478000Y-109982000D02*
X140326300Y-109982000D01*
X112670900Y-89682100D02*
X112561800Y-89791200D01*
X101145500Y-89791200D02*
X101115600Y-89761300D01*
X117080100Y-89682100D02*
X112670900Y-89682100D01*
X101115600Y-89761300D02*
X98077900Y-89761300D01*
X92000900Y-83684300D02*
X89217700Y-83684300D01*
X122670100Y-95272100D02*
X117080100Y-89682100D01*
X98077900Y-89761300D02*
X92000900Y-83684300D01*
X128238100Y-100973700D02*
X122670100Y-95405700D01*
X140326300Y-109982000D02*
X131318000Y-100973700D01*
X112561800Y-89791200D02*
X101145500Y-89791200D01*
X131318000Y-100973700D02*
X128238100Y-100973700D01*
%TO.N,/DATA FLOW CONTROL/LEVEL_A13*%
X91171500Y-63127700D02*
X90229500Y-64069700D01*
X141444100Y-146168300D02*
X137465100Y-142189300D01*
X140327800Y-103570600D02*
X141795800Y-103570600D01*
X91802300Y-70866000D02*
X93268700Y-72332400D01*
X141478000Y-112522000D02*
X141478000Y-111370300D01*
X93268700Y-72332400D02*
X93268700Y-74710700D01*
X93268700Y-74710700D02*
X95290100Y-76732100D01*
X90229500Y-70088900D02*
X91006600Y-70866000D01*
X90229500Y-64069700D02*
X90229500Y-70088900D01*
X91440000Y-63127700D02*
X91171500Y-63127700D01*
X91006600Y-70866000D02*
X91802300Y-70866000D01*
X91440000Y-61976000D02*
X91440000Y-63127700D01*
X98685500Y-88315300D02*
X125072500Y-88315300D01*
X141795800Y-103570600D02*
X142634500Y-104409300D01*
X141765900Y-111370300D02*
X141478000Y-111370300D01*
X125072500Y-88315300D02*
X140327800Y-103570600D01*
X95290100Y-84919900D02*
X98685500Y-88315300D01*
X141732000Y-147320000D02*
X141732000Y-146168300D01*
X137465100Y-142189300D02*
X137465100Y-139270600D01*
X142634500Y-110501700D02*
X141765900Y-111370300D01*
X141732000Y-146168300D02*
X141444100Y-146168300D01*
X95290100Y-76732100D02*
X95290100Y-84919900D01*
X142634500Y-104409300D02*
X142634500Y-110501700D01*
%TO.N,/DATA FLOW CONTROL/LOCAL_A14*%
X128419200Y-111252000D02*
X120316500Y-103149300D01*
X128778000Y-113910300D02*
X129046500Y-113910300D01*
X112545900Y-92867600D02*
X102029100Y-92867600D01*
X120161600Y-96310600D02*
X116882100Y-93031100D01*
X116882100Y-93031100D02*
X112709400Y-93031100D01*
X22949300Y-79965100D02*
X22949300Y-58838700D01*
X129986100Y-112970700D02*
X129986100Y-112039400D01*
X129046500Y-113910300D02*
X129986100Y-112970700D01*
X22949300Y-58838700D02*
X26416000Y-55372000D01*
X120161600Y-97495000D02*
X120161600Y-96310600D01*
X101293500Y-93603200D02*
X36587400Y-93603200D01*
X129986100Y-112039400D02*
X129198700Y-111252000D01*
X128778000Y-115062000D02*
X128778000Y-113910300D01*
X120106400Y-97550200D02*
X120161600Y-97495000D01*
X120106400Y-99076600D02*
X120106400Y-97550200D01*
X112709400Y-93031100D02*
X112545900Y-92867600D01*
X102029100Y-92867600D02*
X101293500Y-93603200D01*
X120316500Y-103149300D02*
X120316500Y-99286700D01*
X36587400Y-93603200D02*
X22949300Y-79965100D01*
X129198700Y-111252000D02*
X128419200Y-111252000D01*
X120316500Y-99286700D02*
X120106400Y-99076600D01*
%TO.N,/DATA FLOW CONTROL/LOCAL_A8*%
X21418900Y-80635600D02*
X36491400Y-95708100D01*
X36491400Y-95708100D02*
X102539200Y-95708100D01*
X21418900Y-45129100D02*
X21418900Y-80635600D01*
X26416000Y-40132000D02*
X21418900Y-45129100D01*
X115643400Y-95127800D02*
X115720400Y-95204800D01*
X102539200Y-95708100D02*
X103119500Y-95127800D01*
X103119500Y-95127800D02*
X115643400Y-95127800D01*
%TO.N,/DATA FLOW CONTROL/LOCAL_A12*%
X128778000Y-108830300D02*
X128512300Y-108830300D01*
X120663300Y-97702700D02*
X120663300Y-96102900D01*
X101085800Y-93101500D02*
X37206400Y-93101500D01*
X112917100Y-92529400D02*
X112753600Y-92365900D01*
X101821400Y-92365900D02*
X101085800Y-93101500D01*
X120608100Y-98868900D02*
X120608100Y-97757900D01*
X120608100Y-97757900D02*
X120663300Y-97702700D01*
X120818200Y-101136200D02*
X120818200Y-99079000D01*
X120663300Y-96102900D02*
X117089800Y-92529400D01*
X37206400Y-93101500D02*
X27443700Y-83338800D01*
X120818200Y-99079000D02*
X120608100Y-98868900D01*
X117089800Y-92529400D02*
X112917100Y-92529400D01*
X128778000Y-109982000D02*
X128778000Y-108830300D01*
X112753600Y-92365900D02*
X101821400Y-92365900D01*
X128512300Y-108830300D02*
X120818200Y-101136200D01*
%TO.N,/DATA FLOW CONTROL/LEVEL_A9*%
X140326300Y-102362000D02*
X125777900Y-87813600D01*
X141478000Y-102362000D02*
X140326300Y-102362000D01*
X95791800Y-84712200D02*
X95791800Y-76310800D01*
X125777900Y-87813600D02*
X106338500Y-87813600D01*
X105651900Y-87127000D02*
X98206600Y-87127000D01*
X106338500Y-87813600D02*
X105651900Y-87127000D01*
X98206600Y-87127000D02*
X95791800Y-84712200D01*
X95791800Y-76310800D02*
X93922000Y-74441000D01*
%TO.N,/DATA FLOW CONTROL/LEVEL_A8*%
X98939400Y-73660000D02*
X104076800Y-78797400D01*
X106361100Y-81280000D02*
X124768000Y-81280000D01*
X92829800Y-68315200D02*
X98174600Y-73660000D01*
X104076800Y-78797400D02*
X104076800Y-78995700D01*
X104076800Y-78995700D02*
X106361100Y-81280000D01*
X91708500Y-65667700D02*
X92829800Y-66789000D01*
X140326300Y-97806600D02*
X141190000Y-98670300D01*
X140326300Y-96838300D02*
X140326300Y-97806600D01*
X98174600Y-73660000D02*
X98939400Y-73660000D01*
X91440000Y-65667700D02*
X91708500Y-65667700D01*
X92829800Y-66789000D02*
X92829800Y-68315200D01*
X141190000Y-98670300D02*
X141478000Y-98670300D01*
X141478000Y-99822000D02*
X141478000Y-98670300D01*
X91440000Y-64516000D02*
X91440000Y-65667700D01*
X124768000Y-81280000D02*
X140326300Y-96838300D01*
%TO.N,/DATA FLOW CONTROL/LOCAL_A10*%
X100160500Y-90764700D02*
X100130600Y-90794600D01*
X96691500Y-90292900D02*
X92503100Y-86104500D01*
X113086300Y-90685500D02*
X112977200Y-90794600D01*
X47866600Y-54874200D02*
X47094400Y-54102000D01*
X46217700Y-56798300D02*
X46947700Y-56798300D01*
X43194300Y-77952400D02*
X42060400Y-77952400D01*
X47094400Y-54102000D02*
X35306000Y-54102000D01*
X35306000Y-54102000D02*
X26416000Y-45212000D01*
X116913300Y-91526000D02*
X116072800Y-90685500D01*
X128778000Y-104902000D02*
X121666700Y-97790700D01*
X97617800Y-90794600D02*
X97116100Y-90292900D01*
X100130600Y-90794600D02*
X97617800Y-90794600D01*
X121666700Y-97790700D02*
X121666700Y-95687500D01*
X100700200Y-90764700D02*
X100160500Y-90764700D01*
X86831500Y-86104500D02*
X79329200Y-78602200D01*
X121666700Y-95687500D02*
X117505200Y-91526000D01*
X79329200Y-78602200D02*
X43844100Y-78602200D01*
X40038400Y-75930400D02*
X40038400Y-62977600D01*
X100730100Y-90794600D02*
X100700200Y-90764700D01*
X116072800Y-90685500D02*
X113086300Y-90685500D01*
X92503100Y-86104500D02*
X86831500Y-86104500D01*
X117505200Y-91526000D02*
X116913300Y-91526000D01*
X43844100Y-78602200D02*
X43194300Y-77952400D01*
X40038400Y-62977600D02*
X46217700Y-56798300D01*
X42060400Y-77952400D02*
X40038400Y-75930400D01*
X47866600Y-55879400D02*
X47866600Y-54874200D01*
X97116100Y-90292900D02*
X96691500Y-90292900D01*
X112977200Y-90794600D02*
X100730100Y-90794600D01*
X46947700Y-56798300D02*
X47866600Y-55879400D01*
%TO.N,/DATA FLOW CONTROL/LEVEL_D7*%
X88392800Y-79756000D02*
X91440000Y-79756000D01*
X86011000Y-82137800D02*
X88392800Y-79756000D01*
%TO.N,/DATA FLOW CONTROL/LEVEL_D6*%
X91440000Y-82296000D02*
X90288300Y-82296000D01*
X85234500Y-83004100D02*
X89580200Y-83004100D01*
X89580200Y-83004100D02*
X90288300Y-82296000D01*
%TO.N,/DATA FLOW CONTROL/LEVEL_D2*%
X63500000Y-137532300D02*
X63026400Y-137532300D01*
X60134300Y-134640200D02*
X60134300Y-134415800D01*
X63026400Y-137532300D02*
X60134300Y-134640200D01*
X63500000Y-138684000D02*
X63500000Y-137532300D01*
%TO.N,/DATA FLOW CONTROL/LOCAL_D2*%
X46997500Y-41520400D02*
X46308500Y-41520400D01*
X44122600Y-43706300D02*
X44122600Y-45336000D01*
X46736000Y-29972000D02*
X47870100Y-31106100D01*
X47870100Y-31106100D02*
X47870100Y-40647800D01*
X47870100Y-40647800D02*
X46997500Y-41520400D01*
X46308500Y-41520400D02*
X44122600Y-43706300D01*
%TO.N,/DATA FLOW CONTROL/LEVEL_D3*%
X91440000Y-89916000D02*
X80228600Y-89916000D01*
X80228600Y-89916000D02*
X79558400Y-90586200D01*
%TO.N,/DATA FLOW CONTROL/LEVEL_D5*%
X83012900Y-106934000D02*
X87495200Y-102451700D01*
X62992000Y-113284000D02*
X64143700Y-113284000D01*
X70493700Y-106934000D02*
X83012900Y-106934000D01*
X64143700Y-113284000D02*
X70493700Y-106934000D01*
%TO.N,/DATA FLOW CONTROL/LOCAL_D6*%
X41409500Y-45458500D02*
X41409500Y-52853300D01*
X46736000Y-40132000D02*
X41409500Y-45458500D01*
%TO.N,/DATA FLOW CONTROL/LEVEL_D4*%
X62992000Y-110744000D02*
X64143700Y-110744000D01*
X64143700Y-110744000D02*
X72973700Y-101914000D01*
X81472300Y-101914000D02*
X85251500Y-98134800D01*
X85251500Y-98134800D02*
X88461400Y-98134800D01*
X72973700Y-101914000D02*
X81472300Y-101914000D01*
%TO.N,/DATA FLOW CONTROL/LOCAL_D1*%
X50292000Y-103124000D02*
X49140300Y-103124000D01*
X49140300Y-103124000D02*
X48566800Y-102550500D01*
X48566800Y-102550500D02*
X43386100Y-102550500D01*
%TO.N,/DATA FLOW CONTROL/LEVEL_D1*%
X62348300Y-136144000D02*
X62348300Y-135619600D01*
X63500000Y-136144000D02*
X62348300Y-136144000D01*
X62348300Y-135619600D02*
X59692900Y-132964200D01*
%TO.N,/DATA FLOW CONTROL/LEVEL_D0*%
X62348300Y-133604000D02*
X60147000Y-131402700D01*
X63500000Y-133604000D02*
X62348300Y-133604000D01*
X60147000Y-131402700D02*
X59084800Y-131402700D01*
%TO.N,/DATA FLOW CONTROL/Z80_A7*%
X68394300Y-168523500D02*
X67515100Y-169402700D01*
X31496000Y-149098000D02*
X32647700Y-149098000D01*
X52952400Y-169402700D02*
X32647700Y-149098000D01*
X68394300Y-168148000D02*
X68394300Y-168523500D01*
X67515100Y-169402700D02*
X52952400Y-169402700D01*
X31496000Y-149098000D02*
X24892000Y-149098000D01*
X69596000Y-168148000D02*
X68394300Y-168148000D01*
%TO.N,/DATA FLOW CONTROL/BUSRQ_O*%
X109728000Y-142240000D02*
X103632000Y-142240000D01*
%TO.N,/DATA FLOW CONTROL/Z80_D2*%
X51003500Y-136719800D02*
X50427700Y-136144000D01*
X55880000Y-136719800D02*
X51003500Y-136719800D01*
X55880000Y-136144000D02*
X55880000Y-136719800D01*
X49276000Y-136144000D02*
X50427700Y-136144000D01*
%TO.N,/DATA FLOW CONTROL/Z80_A12*%
X134112000Y-142240000D02*
X128016000Y-142240000D01*
%TO.N,/DATA FLOW CONTROL/Z80_A14*%
X134112000Y-147320000D02*
X128016000Y-147320000D01*
%TO.N,/DATA FLOW CONTROL/Z80_A15*%
X110236000Y-166946300D02*
X126864300Y-150318000D01*
X134112000Y-149860000D02*
X128016000Y-149860000D01*
X110236000Y-168148000D02*
X110236000Y-166946300D01*
X128016000Y-149860000D02*
X126864300Y-149860000D01*
X126864300Y-150318000D02*
X126864300Y-149860000D01*
%TO.N,/DATA FLOW CONTROL/RW_O*%
X109728000Y-134620000D02*
X103632000Y-134620000D01*
%TO.N,/DATA FLOW CONTROL/RESET_O*%
X83312000Y-133858000D02*
X77216000Y-133858000D01*
%TO.N,/DATA FLOW CONTROL/Z80_D6*%
X68944200Y-155613800D02*
X80970000Y-167639600D01*
X55880000Y-146304000D02*
X57031700Y-146304000D01*
X57031700Y-146559200D02*
X66086300Y-155613800D01*
X57031700Y-146304000D02*
X57031700Y-146559200D01*
X80970000Y-168645800D02*
X80129500Y-169486300D01*
X66086300Y-155613800D02*
X68944200Y-155613800D01*
X80129500Y-169486300D02*
X79756000Y-169486300D01*
X49276000Y-146304000D02*
X55880000Y-146304000D01*
X79756000Y-170688000D02*
X79756000Y-169486300D01*
X80970000Y-167639600D02*
X80970000Y-168645800D01*
%TO.N,/DATA FLOW CONTROL/RD_O*%
X31681700Y-165100000D02*
X38973100Y-172391400D01*
X97160900Y-169349700D02*
X98048200Y-169349700D01*
X95043700Y-172391400D02*
X96266000Y-171169100D01*
X96266000Y-171169100D02*
X96266000Y-170244600D01*
X30480000Y-165100000D02*
X31681700Y-165100000D01*
X100076000Y-168148000D02*
X98874300Y-168148000D01*
X98048200Y-169349700D02*
X98874300Y-168523600D01*
X38973100Y-172391400D02*
X95043700Y-172391400D01*
X98874300Y-168523600D02*
X98874300Y-168148000D01*
X96266000Y-170244600D02*
X97160900Y-169349700D01*
%TO.N,/DATA FLOW CONTROL/NMI_O*%
X103632000Y-147780000D02*
X108116300Y-147780000D01*
X92456000Y-159379200D02*
X103363500Y-148471700D01*
X103632000Y-147780000D02*
X103632000Y-148471700D01*
X92456000Y-168148000D02*
X92456000Y-159379200D01*
X109728000Y-147320000D02*
X108576300Y-147320000D01*
X108116300Y-147780000D02*
X108576300Y-147320000D01*
X103363500Y-148471700D02*
X103632000Y-148471700D01*
X103632000Y-147320000D02*
X103632000Y-147780000D01*
%TO.N,/DATA FLOW CONTROL/Z80_A8*%
X134112000Y-132080000D02*
X128016000Y-132080000D01*
%TO.N,/DATA FLOW CONTROL/Z80_A9*%
X103817700Y-168148000D02*
X103817700Y-167567000D01*
X128016000Y-135195800D02*
X132384500Y-135195800D01*
X123325500Y-140193700D02*
X127747500Y-135771700D01*
X134112000Y-134620000D02*
X132960300Y-134620000D01*
X128016000Y-134620000D02*
X128016000Y-135195800D01*
X127747500Y-135771700D02*
X128016000Y-135771700D01*
X123325500Y-148059200D02*
X123325500Y-140193700D01*
X132384500Y-135195800D02*
X132960300Y-134620000D01*
X103817700Y-167567000D02*
X123325500Y-148059200D01*
X128016000Y-135195800D02*
X128016000Y-135771700D01*
X102616000Y-168148000D02*
X103817700Y-168148000D01*
%TO.N,/DATA FLOW CONTROL/Z80_A1*%
X26619500Y-134433800D02*
X26043700Y-133858000D01*
X32885800Y-136888300D02*
X32885800Y-136131000D01*
X32885800Y-136131000D02*
X31764500Y-135009700D01*
X24892000Y-133858000D02*
X26043700Y-133858000D01*
X31496000Y-134433800D02*
X31496000Y-135009700D01*
X31764500Y-135009700D02*
X31496000Y-135009700D01*
X31496000Y-134433800D02*
X26619500Y-134433800D01*
X38745500Y-142748000D02*
X32885800Y-136888300D01*
X45178800Y-147881900D02*
X40044900Y-142748000D01*
X31496000Y-133858000D02*
X31496000Y-134433800D01*
X40044900Y-142748000D02*
X38745500Y-142748000D01*
%TO.N,/DATA FLOW CONTROL/Z80_A4*%
X24892000Y-142629700D02*
X24604100Y-142629700D01*
X24892000Y-142053800D02*
X29768500Y-142053800D01*
X65026100Y-171889700D02*
X65854300Y-171061500D01*
X23192200Y-144041600D02*
X23192200Y-149039800D01*
X33249000Y-159096600D02*
X40465600Y-159096600D01*
X65854300Y-171061500D02*
X65854300Y-170688000D01*
X29768500Y-142053800D02*
X30344300Y-141478000D01*
X24892000Y-141478000D02*
X24892000Y-142053800D01*
X24892000Y-142053800D02*
X24892000Y-142629700D01*
X67056000Y-170688000D02*
X65854300Y-170688000D01*
X40465600Y-159096600D02*
X53258700Y-171889700D01*
X53258700Y-171889700D02*
X65026100Y-171889700D01*
X31496000Y-141478000D02*
X30344300Y-141478000D01*
X23192200Y-149039800D02*
X33249000Y-159096600D01*
X24604100Y-142629700D02*
X23192200Y-144041600D01*
%TO.N,/DATA FLOW CONTROL/Z80_D1*%
X55880000Y-133604000D02*
X49276000Y-133604000D01*
%TO.N,/DATA FLOW CONTROL/Z80_A6*%
X31496000Y-146558000D02*
X32647700Y-146558000D01*
X31496000Y-146558000D02*
X24892000Y-146558000D01*
X69596000Y-169486300D02*
X69971500Y-169486300D01*
X60074200Y-156890800D02*
X42666700Y-156890800D01*
X70808700Y-167625300D02*
X60074200Y-156890800D01*
X42666700Y-156890800D02*
X32647700Y-146871800D01*
X70808700Y-168649100D02*
X70808700Y-167625300D01*
X69971500Y-169486300D02*
X70808700Y-168649100D01*
X69596000Y-170688000D02*
X69596000Y-169486300D01*
X32647700Y-146871800D02*
X32647700Y-146558000D01*
%TO.N,/DATA FLOW CONTROL/Spare_4_O*%
X83312000Y-144018000D02*
X77216000Y-144018000D01*
%TO.N,/DATA FLOW CONTROL/Z80_A0*%
X31496000Y-131318000D02*
X32647700Y-131318000D01*
X43034400Y-136132200D02*
X39490200Y-132588000D01*
X33917700Y-132588000D02*
X32647700Y-131318000D01*
X31496000Y-131318000D02*
X24892000Y-131318000D01*
X39490200Y-132588000D02*
X33917700Y-132588000D01*
%TO.N,/DATA FLOW CONTROL/Z80_D0*%
X55880000Y-131064000D02*
X49276000Y-131064000D01*
%TO.N,/DATA FLOW CONTROL/WAIT_O*%
X103632000Y-144780000D02*
X109728000Y-144780000D01*
%TO.N,/DATA FLOW CONTROL/Z80_A5*%
X24604100Y-145169700D02*
X24892000Y-145169700D01*
X65854300Y-168148000D02*
X65854300Y-167774500D01*
X32326200Y-147890900D02*
X24549100Y-147890900D01*
X49783500Y-165348200D02*
X32326200Y-147890900D01*
X67056000Y-168148000D02*
X65854300Y-168148000D01*
X29768500Y-144593800D02*
X30344300Y-144018000D01*
X65854300Y-167774500D02*
X63428000Y-165348200D01*
X24892000Y-144593800D02*
X24892000Y-145169700D01*
X63428000Y-165348200D02*
X49783500Y-165348200D01*
X24892000Y-144593800D02*
X29768500Y-144593800D01*
X23701500Y-147043300D02*
X23701500Y-146072300D01*
X24892000Y-144018000D02*
X24892000Y-144593800D01*
X31496000Y-144018000D02*
X30344300Y-144018000D01*
X23701500Y-146072300D02*
X24604100Y-145169700D01*
X24549100Y-147890900D02*
X23701500Y-147043300D01*
%TO.N,/DATA FLOW CONTROL/Z80_A10*%
X134112000Y-137160000D02*
X128016000Y-137160000D01*
%TO.N,/DATA FLOW CONTROL/Spare_2_O*%
X83312000Y-138938000D02*
X77216000Y-138938000D01*
%TO.N,/DATA FLOW CONTROL/Z80_D7*%
X78554300Y-167774500D02*
X78554300Y-168148000D01*
X72920100Y-164732400D02*
X75512200Y-164732400D01*
X55880000Y-148844000D02*
X57031700Y-148844000D01*
X57031700Y-148844000D02*
X72920100Y-164732400D01*
X75512200Y-164732400D02*
X78554300Y-167774500D01*
X79756000Y-168148000D02*
X78554300Y-168148000D01*
X49276000Y-148844000D02*
X55880000Y-148844000D01*
%TO.N,/DATA FLOW CONTROL/Z80_D5*%
X58012700Y-152586800D02*
X51360700Y-152586800D01*
X76014300Y-167774500D02*
X73713500Y-165473700D01*
X49033500Y-144915700D02*
X49276000Y-144915700D01*
X77216000Y-168148000D02*
X76014300Y-168148000D01*
X49276000Y-144339800D02*
X54152500Y-144339800D01*
X73713500Y-165473700D02*
X70899600Y-165473700D01*
X49276000Y-144339800D02*
X49276000Y-144915700D01*
X49276000Y-143764000D02*
X49276000Y-144339800D01*
X70899600Y-165473700D02*
X58012700Y-152586800D01*
X55880000Y-143764000D02*
X54728300Y-143764000D01*
X48096400Y-145852800D02*
X49033500Y-144915700D01*
X76014300Y-168148000D02*
X76014300Y-167774500D01*
X51360700Y-152586800D02*
X48096400Y-149322500D01*
X54152500Y-144339800D02*
X54728300Y-143764000D01*
X48096400Y-149322500D02*
X48096400Y-145852800D01*
%TO.N,/DATA FLOW CONTROL/Z80_A11*%
X132384500Y-140275800D02*
X132960300Y-139700000D01*
X128016000Y-139700000D02*
X128016000Y-140275800D01*
X134112000Y-139700000D02*
X132960300Y-139700000D01*
X128016000Y-140275800D02*
X132384500Y-140275800D01*
X105156000Y-166946300D02*
X126626200Y-145476100D01*
X105156000Y-168148000D02*
X105156000Y-166946300D01*
X127747500Y-140851700D02*
X128016000Y-140851700D01*
X126626200Y-141973000D02*
X127747500Y-140851700D01*
X126626200Y-145476100D02*
X126626200Y-141973000D01*
X128016000Y-140275800D02*
X128016000Y-140851700D01*
%TO.N,/DATA FLOW CONTROL/Z80_D3*%
X49276000Y-139259800D02*
X54152500Y-139259800D01*
X58293400Y-153738500D02*
X51790400Y-153738500D01*
X71984100Y-166225400D02*
X70780300Y-166225400D01*
X49276000Y-139259800D02*
X49276000Y-139835700D01*
X47554700Y-141288500D02*
X49007500Y-139835700D01*
X49276000Y-138684000D02*
X49276000Y-139259800D01*
X73474300Y-167715600D02*
X71984100Y-166225400D01*
X51790400Y-153738500D02*
X47554700Y-149502800D01*
X49007500Y-139835700D02*
X49276000Y-139835700D01*
X47554700Y-149502800D02*
X47554700Y-141288500D01*
X70780300Y-166225400D02*
X58293400Y-153738500D01*
X54152500Y-139259800D02*
X54728300Y-138684000D01*
X55880000Y-138684000D02*
X54728300Y-138684000D01*
X73474300Y-168148000D02*
X73474300Y-167715600D01*
X74676000Y-168148000D02*
X73474300Y-168148000D01*
%TO.N,/DATA FLOW CONTROL/Z80_A2*%
X31496000Y-136398000D02*
X24892000Y-136398000D01*
%TO.N,/DATA FLOW CONTROL/Z80_A13*%
X134112000Y-144780000D02*
X132960300Y-144780000D01*
X128016000Y-145355800D02*
X132384500Y-145355800D01*
X107696000Y-168148000D02*
X107696000Y-165983200D01*
X132384500Y-145355800D02*
X132960300Y-144780000D01*
X128016000Y-144780000D02*
X128016000Y-145355800D01*
X128016000Y-145355800D02*
X128016000Y-145931700D01*
X107696000Y-165983200D02*
X127747500Y-145931700D01*
X127747500Y-145931700D02*
X128016000Y-145931700D01*
%TO.N,/DATA FLOW CONTROL/Z80_D4*%
X55880000Y-141224000D02*
X49276000Y-141224000D01*
%TO.N,/DATA FLOW CONTROL/Z80_A3*%
X31496000Y-138938000D02*
X24892000Y-138938000D01*
X38729200Y-145288000D02*
X32647700Y-139206500D01*
X51702500Y-156021000D02*
X40969500Y-145288000D01*
X40969500Y-145288000D02*
X38729200Y-145288000D01*
X32647700Y-139206500D02*
X32647700Y-138938000D01*
X31496000Y-138938000D02*
X32647700Y-138938000D01*
%TO.N,/DATA FLOW CONTROL/MEMRQ_O*%
X111625500Y-154974100D02*
X101346000Y-165253600D01*
X99634200Y-169418000D02*
X98737700Y-170314500D01*
X110015900Y-140851700D02*
X111625500Y-142461300D01*
X101346000Y-165253600D02*
X101346000Y-168591300D01*
X109728000Y-140851700D02*
X110015900Y-140851700D01*
X101346000Y-168591300D02*
X100519300Y-169418000D01*
X109728000Y-139700000D02*
X109728000Y-140851700D01*
X100519300Y-169418000D02*
X99634200Y-169418000D01*
X103632000Y-139700000D02*
X109728000Y-139700000D01*
X97536000Y-170688000D02*
X98737700Y-170688000D01*
X111625500Y-142461300D02*
X111625500Y-154974100D01*
X98737700Y-170314500D02*
X98737700Y-170688000D01*
%TO.N,/DATA FLOW CONTROL/IORQ_O*%
X109728000Y-137160000D02*
X103632000Y-137160000D01*
%TO.N,/DATA FLOW CONTROL/ROMCS_O*%
X92456000Y-169486300D02*
X92831600Y-169486300D01*
X93657700Y-160986000D02*
X103632000Y-151011700D01*
X106218600Y-153598300D02*
X103632000Y-151011700D01*
X110160100Y-153598300D02*
X106218600Y-153598300D01*
X110903800Y-151035800D02*
X110903800Y-152854600D01*
X92831600Y-169486300D02*
X93657700Y-168660200D01*
X109728000Y-149860000D02*
X110903800Y-151035800D01*
X103632000Y-149860000D02*
X103632000Y-151011700D01*
X92456000Y-170688000D02*
X92456000Y-169486300D01*
X110903800Y-152854600D02*
X110160100Y-153598300D01*
X93657700Y-168660200D02*
X93657700Y-160986000D01*
%TO.N,/DATA FLOW CONTROL/SYSTEM_READY_O*%
X83312000Y-146558000D02*
X77216000Y-146558000D01*
%TO.N,Net-(SPI_Spare1-Pin_1)*%
X143764000Y-87884000D02*
X143764000Y-86682300D01*
X138383300Y-81677100D02*
X138383300Y-80270400D01*
X143388500Y-86682300D02*
X138383300Y-81677100D01*
X143764000Y-86682300D02*
X143388500Y-86682300D01*
%TO.N,/DATA FLOW CONTROL/RW_L*%
X103785800Y-96042600D02*
X103522700Y-95779500D01*
X116840000Y-101464300D02*
X117127900Y-101464300D01*
X118007800Y-100584400D02*
X118007800Y-97042500D01*
X116840000Y-102616000D02*
X116840000Y-101464300D01*
X118007800Y-97042500D02*
X117007900Y-96042600D01*
X117127900Y-101464300D02*
X118007800Y-100584400D01*
X117007900Y-96042600D02*
X103785800Y-96042600D01*
%TO.N,Net-(J5-Pin_1)*%
X91440000Y-77216000D02*
X90288300Y-77216000D01*
X83938300Y-70866000D02*
X90288300Y-77216000D01*
X67564000Y-70104000D02*
X68765700Y-70104000D01*
X69527700Y-70866000D02*
X83938300Y-70866000D01*
X68765700Y-70104000D02*
X69527700Y-70866000D01*
%TO.N,/DATA FLOW CONTROL/RD_L*%
X114780800Y-99168500D02*
X111149800Y-99168500D01*
X116840000Y-100076000D02*
X115688300Y-100076000D01*
X111149800Y-99168500D02*
X106492700Y-103825600D01*
X106492700Y-103825600D02*
X100765500Y-103825600D01*
X115688300Y-100076000D02*
X114780800Y-99168500D01*
X100765500Y-103825600D02*
X98894600Y-101954700D01*
%TO.N,Net-(U2-Pad5)*%
X101464300Y-43688000D02*
X99273000Y-41496700D01*
X102616000Y-43688000D02*
X101464300Y-43688000D01*
X66538100Y-52974300D02*
X60587700Y-47023900D01*
X79336200Y-41496700D02*
X67858600Y-52974300D01*
X60587700Y-47023900D02*
X60587700Y-46736000D01*
X67858600Y-52974300D02*
X66538100Y-52974300D01*
X59436000Y-46736000D02*
X60587700Y-46736000D01*
X99273000Y-41496700D02*
X79336200Y-41496700D01*
%TO.N,Net-(U2-Pad8)*%
X67056000Y-51816000D02*
X68207700Y-51816000D01*
X101311300Y-40995000D02*
X79028700Y-40995000D01*
X79028700Y-40995000D02*
X68207700Y-51816000D01*
X102616000Y-41148000D02*
X101464300Y-41148000D01*
X101464300Y-41148000D02*
X101311300Y-40995000D01*
%TO.N,/DATA FLOW CONTROL/SYSTEM_READY_L*%
X90057300Y-116975700D02*
X88606000Y-118427000D01*
X90424000Y-115824000D02*
X90424000Y-116975700D01*
X90424000Y-116975700D02*
X90057300Y-116975700D01*
X74608700Y-59470300D02*
X72094000Y-56955600D01*
X72094000Y-56955600D02*
X68257500Y-56955600D01*
%TO.N,/DATA FLOW CONTROL/ROMCS_L*%
X116840000Y-117856000D02*
X116840000Y-116704300D01*
X115684800Y-104636100D02*
X115684800Y-115817600D01*
X115684800Y-115817600D02*
X116571500Y-116704300D01*
X118511400Y-102620300D02*
X117245700Y-103886000D01*
X116434900Y-103886000D02*
X115684800Y-104636100D01*
X116571500Y-116704300D02*
X116840000Y-116704300D01*
X119606600Y-137126800D02*
X120093000Y-137613200D01*
X102686200Y-94552800D02*
X116230900Y-94552800D01*
X117245700Y-103886000D02*
X116434900Y-103886000D01*
X117348000Y-152400000D02*
X117348000Y-151248300D01*
X118511400Y-96833300D02*
X118511400Y-102620300D01*
X117616500Y-151248300D02*
X117348000Y-151248300D01*
X116230900Y-94552800D02*
X118511400Y-96833300D01*
X120093000Y-148771800D02*
X117616500Y-151248300D01*
X120093000Y-137613200D02*
X120093000Y-148771800D01*
%TO.N,Net-(U2-Pad2)*%
X102616000Y-38608000D02*
X101464300Y-38608000D01*
X100797500Y-37941200D02*
X101464300Y-38608000D01*
X61762500Y-37941200D02*
X100797500Y-37941200D01*
X60587700Y-39116000D02*
X61762500Y-37941200D01*
X59436000Y-39116000D02*
X60587700Y-39116000D01*
%TO.N,/DATA FLOW CONTROL/BUSACK_L*%
X90424000Y-100584000D02*
X86906200Y-100584000D01*
X86906200Y-100584000D02*
X85401300Y-102088900D01*
%TO.N,Net-(J6-Pin_1)*%
X59436000Y-50427700D02*
X58355700Y-50427700D01*
X47061400Y-61722000D02*
X46343600Y-61722000D01*
X42622100Y-65443500D02*
X42622100Y-72950400D01*
X58355700Y-50427700D02*
X47061400Y-61722000D01*
X46343600Y-61722000D02*
X42622100Y-65443500D01*
X59436000Y-49276000D02*
X59436000Y-50427700D01*
%TO.N,/DATA FLOW CONTROL/NMI_L*%
X119435600Y-138301600D02*
X119435600Y-146908600D01*
X117635900Y-148708300D02*
X117348000Y-148708300D01*
X119435600Y-146908600D02*
X117635900Y-148708300D01*
X117348000Y-149860000D02*
X117348000Y-148708300D01*
%TO.N,/DATA FLOW CONTROL/MEMRQ_L*%
X121290300Y-113010100D02*
X121290300Y-116132200D01*
X116840000Y-108847700D02*
X117127900Y-108847700D01*
X116840000Y-107696000D02*
X116840000Y-108847700D01*
X117127900Y-108847700D02*
X121290300Y-113010100D01*
%TO.N,/DATA FLOW CONTROL/SPARE_1_L*%
X90932000Y-138938000D02*
X92436800Y-138938000D01*
X92436800Y-138938000D02*
X97386400Y-133988400D01*
%TO.N,/DATA FLOW CONTROL/SPARE_3_L*%
X89272300Y-110758600D02*
X87408200Y-112622700D01*
X90424000Y-110744000D02*
X89272300Y-110744000D01*
X89272300Y-110744000D02*
X89272300Y-110758600D01*
%TO.N,/DATA FLOW CONTROL/RESET_L*%
X90644100Y-135246300D02*
X89770200Y-134372400D01*
X90932000Y-135246300D02*
X90644100Y-135246300D01*
X90932000Y-136398000D02*
X90932000Y-135246300D01*
X89770200Y-127550400D02*
X93392900Y-123927700D01*
X89770200Y-134372400D02*
X89770200Y-127550400D01*
%TO.N,/DATA FLOW CONTROL/SPARE_4_L*%
X90424000Y-113284000D02*
X89272300Y-113284000D01*
X88195200Y-114394800D02*
X89272300Y-113317700D01*
X89272300Y-113317700D02*
X89272300Y-113284000D01*
%TO.N,/DATA FLOW CONTROL/SPARE_2_L*%
X89202300Y-108204000D02*
X87365900Y-110040400D01*
X90424000Y-108204000D02*
X89202300Y-108204000D01*
%TO.N,Net-(J6-Pin_2)*%
X139389700Y-133270600D02*
X140580300Y-132080000D01*
X91200500Y-132469700D02*
X90932000Y-132469700D01*
X92086800Y-133356000D02*
X92152600Y-133290200D01*
X42510000Y-132334000D02*
X41283700Y-132334000D01*
X63500000Y-131064000D02*
X64651700Y-131064000D01*
X62031500Y-130747200D02*
X58526700Y-130747200D01*
X56939900Y-132334000D02*
X42510000Y-132334000D01*
X119690300Y-133270600D02*
X139389700Y-133270600D01*
X117348000Y-132080000D02*
X116196300Y-132080000D01*
X58526700Y-130747200D02*
X56939900Y-132334000D01*
X90932000Y-131318000D02*
X90932000Y-132469700D01*
X91382000Y-137579400D02*
X92086800Y-136874600D01*
X71167100Y-137579400D02*
X91382000Y-137579400D01*
X118499700Y-132080000D02*
X119690300Y-133270600D01*
X64651700Y-131064000D02*
X71167100Y-137579400D01*
X41283700Y-132334000D02*
X40267700Y-131318000D01*
X62348300Y-131064000D02*
X62031500Y-130747200D01*
X92086800Y-133356000D02*
X91200500Y-132469700D01*
X141732000Y-132080000D02*
X140580300Y-132080000D01*
X39116000Y-131318000D02*
X40267700Y-131318000D01*
X117348000Y-132080000D02*
X118499700Y-132080000D01*
X92086800Y-136874600D02*
X92086800Y-133356000D01*
X92152600Y-133290200D02*
X114986100Y-133290200D01*
X63500000Y-131064000D02*
X62348300Y-131064000D01*
X114986100Y-133290200D02*
X116196300Y-132080000D01*
%TO.N,Net-(Rom_Access_Shifter1-OE)*%
X107453800Y-85090000D02*
X99703700Y-85090000D01*
X130556000Y-89408000D02*
X127958200Y-86810200D01*
X109174000Y-86810200D02*
X107453800Y-85090000D01*
X127958200Y-86810200D02*
X109174000Y-86810200D01*
X98552000Y-85090000D02*
X99703700Y-85090000D01*
%TO.N,Net-(Rom_Access_Shifter1-B1)*%
X100251000Y-58175000D02*
X104945500Y-62869500D01*
X81170700Y-58175000D02*
X100251000Y-58175000D01*
X104945500Y-62869500D02*
X109247300Y-62869500D01*
X76200000Y-54356000D02*
X77351700Y-54356000D01*
X77351700Y-54356000D02*
X81170700Y-58175000D01*
%TO.N,/DATA FLOW CONTROL/RD*%
X42075900Y-79234800D02*
X42457800Y-79616700D01*
X97200900Y-91087100D02*
X97530200Y-91416400D01*
X34165100Y-68201100D02*
X34165100Y-70954800D01*
X42825000Y-79616700D02*
X54451200Y-91242900D01*
X26416000Y-60452000D02*
X34165100Y-68201100D01*
X86384300Y-90794600D02*
X86676800Y-91087100D01*
X42457800Y-79616700D02*
X42825000Y-79616700D01*
X95665000Y-91087100D02*
X95957500Y-90794600D01*
X80272000Y-90794600D02*
X86384300Y-90794600D01*
X95957500Y-90794600D02*
X96497200Y-90794600D01*
X54451200Y-91242900D02*
X79823700Y-91242900D01*
X97530200Y-91416400D02*
X100430300Y-91416400D01*
X86676800Y-91087100D02*
X95665000Y-91087100D01*
X79823700Y-91242900D02*
X80272000Y-90794600D01*
X42075900Y-78865600D02*
X42075900Y-79234800D01*
X96497200Y-90794600D02*
X96789700Y-91087100D01*
X96789700Y-91087100D02*
X97200900Y-91087100D01*
X34165100Y-70954800D02*
X42075900Y-78865600D01*
%TO.N,/DATA FLOW CONTROL/MEMRQ*%
X69199400Y-48857800D02*
X68347600Y-48006000D01*
X48950600Y-45537400D02*
X46736000Y-47752000D01*
X62135300Y-45537400D02*
X48950600Y-45537400D01*
X64603900Y-48006000D02*
X62135300Y-45537400D01*
X68347600Y-48006000D02*
X64603900Y-48006000D01*
%TO.N,/DATA FLOW CONTROL/BUSRQ*%
X75670000Y-86106000D02*
X79536700Y-86106000D01*
X59540100Y-80406800D02*
X69970800Y-80406800D01*
X80036900Y-86606200D02*
X86644600Y-86606200D01*
X69970800Y-80406800D02*
X75670000Y-86106000D01*
X86644600Y-86606200D02*
X88624400Y-88586000D01*
X92078000Y-88586000D02*
X93287100Y-89795100D01*
X79536700Y-86106000D02*
X80036900Y-86606200D01*
X88624400Y-88586000D02*
X92078000Y-88586000D01*
%TO.N,/DATA FLOW CONTROL/RW*%
X53885800Y-91754100D02*
X82496700Y-91754100D01*
X86176600Y-91296300D02*
X86469200Y-91588900D01*
X82954500Y-91296300D02*
X86176600Y-91296300D01*
X82496700Y-91754100D02*
X82954500Y-91296300D01*
X33392400Y-71260700D02*
X53885800Y-91754100D01*
X26493300Y-62992000D02*
X33392400Y-69891100D01*
X33392400Y-69891100D02*
X33392400Y-71260700D01*
X86469200Y-91588900D02*
X96084700Y-91588900D01*
X26416000Y-62992000D02*
X26493300Y-62992000D01*
X96084700Y-91588900D02*
X96227300Y-91446300D01*
%TO.N,/DATA FLOW CONTROL/IORQ*%
X71273200Y-46758100D02*
X71273200Y-47057500D01*
X67501000Y-42985900D02*
X71273200Y-46758100D01*
X46736000Y-45212000D02*
X48962100Y-42985900D01*
X48962100Y-42985900D02*
X67501000Y-42985900D01*
%TO.N,/DATA FLOW CONTROL/BUSACK*%
X81157200Y-88646000D02*
X74751000Y-88646000D01*
X71780200Y-85675200D02*
X49995600Y-85675200D01*
X74751000Y-88646000D02*
X71780200Y-85675200D01*
%TO.N,/ESP-32 Module/ROM_ACCESS_A16*%
X138500900Y-68516900D02*
X103088400Y-68516900D01*
%TO.N,/ESP-32 Module/ROM_ACCESS_A17*%
X98552000Y-67310000D02*
X98552000Y-68461700D01*
X97382700Y-70371400D02*
X98044200Y-71032900D01*
X97382700Y-69343100D02*
X97382700Y-70371400D01*
X98044200Y-71032900D02*
X137774200Y-71032900D01*
X98264100Y-68461700D02*
X97382700Y-69343100D01*
X98552000Y-68461700D02*
X98264100Y-68461700D01*
%TO.N,/ESP-32 Module/SS*%
X45620700Y-48295900D02*
X46239100Y-48914300D01*
X46962200Y-48914300D02*
X48386600Y-50338700D01*
X46516900Y-43785700D02*
X45620700Y-44681900D01*
X47236600Y-43785700D02*
X46516900Y-43785700D01*
X117856000Y-41148000D02*
X116504300Y-41148000D01*
X116504300Y-41148000D02*
X115348400Y-39992100D01*
X115348400Y-39992100D02*
X80749800Y-39992100D01*
X45620700Y-44681900D02*
X45620700Y-48295900D01*
X48386600Y-58801400D02*
X46736000Y-60452000D01*
X80749800Y-39992100D02*
X80393100Y-40348800D01*
X48386600Y-50338700D02*
X48386600Y-58801400D01*
X46239100Y-48914300D02*
X46962200Y-48914300D01*
X50673500Y-40348800D02*
X47236600Y-43785700D01*
X80393100Y-40348800D02*
X50673500Y-40348800D01*
%TO.N,/DATA FLOW CONTROL/ROMCS*%
X140316000Y-50356300D02*
X116907200Y-50356300D01*
X116907200Y-50356300D02*
X115013100Y-52250400D01*
X141904300Y-48768000D02*
X140316000Y-50356300D01*
X143256000Y-48768000D02*
X141904300Y-48768000D01*
%TO.N,/DATA FLOW CONTROL/NMI*%
X145111300Y-46731600D02*
X145111300Y-53815900D01*
X140283700Y-55118000D02*
X135203700Y-60198000D01*
X143256000Y-46228000D02*
X144607700Y-46228000D01*
X144607700Y-46228000D02*
X145111300Y-46731600D01*
X114609000Y-62609900D02*
X114609000Y-62912600D01*
X135203700Y-60198000D02*
X117020900Y-60198000D01*
X143809200Y-55118000D02*
X140283700Y-55118000D01*
X117020900Y-60198000D02*
X114609000Y-62609900D01*
X145111300Y-53815900D02*
X143809200Y-55118000D01*
%TO.N,/DATA FLOW CONTROL/SYSTEM_READY*%
X88795200Y-115824000D02*
X89946900Y-114672300D01*
X77724000Y-115824000D02*
X88795200Y-115824000D01*
X97285800Y-114046000D02*
X104505100Y-114046000D01*
X110840300Y-107710800D02*
X110840300Y-107100200D01*
X89946900Y-114672300D02*
X96659500Y-114672300D01*
X104505100Y-114046000D02*
X110840300Y-107710800D01*
X96659500Y-114672300D02*
X97285800Y-114046000D01*
%TO.N,/DATA FLOW CONTROL/Spare_3*%
X96659500Y-109592300D02*
X97285800Y-108966000D01*
X88783000Y-109592300D02*
X96659500Y-109592300D01*
X77724000Y-110744000D02*
X87631300Y-110744000D01*
X109132800Y-103270900D02*
X109132900Y-103270900D01*
X97285800Y-108966000D02*
X104499300Y-108966000D01*
X104499300Y-108966000D02*
X109132800Y-104332500D01*
X87631300Y-110744000D02*
X88783000Y-109592300D01*
X109132900Y-103270900D02*
X111084700Y-101319100D01*
X109132800Y-104332500D02*
X109132800Y-103270900D01*
%TO.N,/DATA FLOW CONTROL/Spare_4*%
X88833500Y-112132300D02*
X96659500Y-112132300D01*
X96659500Y-112132300D02*
X97404100Y-111387700D01*
X77724000Y-113284000D02*
X87681800Y-113284000D01*
X87681800Y-113284000D02*
X88833500Y-112132300D01*
X97404100Y-111387700D02*
X104624700Y-111387700D01*
X110295600Y-105716800D02*
X110295600Y-103921100D01*
X104624700Y-111387700D02*
X110295600Y-105716800D01*
%TO.N,/DATA FLOW CONTROL/Spare_2*%
X97287300Y-106424500D02*
X105025600Y-106424500D01*
X85373600Y-108204000D02*
X86525300Y-107052300D01*
X111629500Y-99820600D02*
X113386200Y-99820600D01*
X77724000Y-108204000D02*
X85373600Y-108204000D01*
X86525300Y-107052300D02*
X96659500Y-107052300D01*
X96659500Y-107052300D02*
X97287300Y-106424500D01*
X105025600Y-106424500D02*
X111629500Y-99820600D01*
%TO.N,/DATA FLOW CONTROL/WAIT*%
X104140000Y-112776000D02*
X111577000Y-105339000D01*
X111577000Y-105339000D02*
X111577000Y-104892400D01*
%TO.N,Net-(D2-A)*%
X114180700Y-53352300D02*
X114676400Y-53848000D01*
X114676400Y-53848000D02*
X117856000Y-53848000D01*
X97487300Y-53352300D02*
X114180700Y-53352300D01*
%TO.N,Net-(D3-K)*%
X110744000Y-25127700D02*
X107323700Y-28548000D01*
X106172000Y-28956000D02*
X107323700Y-28956000D01*
X107323700Y-28548000D02*
X107323700Y-28956000D01*
X110744000Y-23876000D02*
X110744000Y-25127700D01*
%TO.N,/ESP-32 Module/MOSI*%
X116504300Y-61938900D02*
X114865300Y-63577900D01*
X114865300Y-63577900D02*
X96460900Y-63577900D01*
X116504300Y-61468000D02*
X116504300Y-61938900D01*
X93657600Y-60774600D02*
X72325600Y-60774600D01*
X64954100Y-68146100D02*
X49350100Y-68146100D01*
X117856000Y-61468000D02*
X116504300Y-61468000D01*
X96460900Y-63577900D02*
X93657600Y-60774600D01*
X72325600Y-60774600D02*
X64954100Y-68146100D01*
%TO.N,/DATA FLOW CONTROL/Spare_1*%
X113356100Y-91337200D02*
X101431300Y-91337200D01*
X101431300Y-91337200D02*
X100670400Y-92098100D01*
X86056800Y-92098100D02*
X85906700Y-91948000D01*
X100670400Y-92098100D02*
X86056800Y-92098100D01*
%TO.N,/DATA FLOW CONTROL/RESET*%
X96896100Y-101735700D02*
X86756300Y-101735700D01*
X86756300Y-101735700D02*
X85368000Y-103124000D01*
X97328800Y-101303000D02*
X96896100Y-101735700D01*
X110053200Y-98503900D02*
X107254100Y-101303000D01*
X85368000Y-103124000D02*
X77724000Y-103124000D01*
X114093700Y-98503900D02*
X110053200Y-98503900D01*
X107254100Y-101303000D02*
X97328800Y-101303000D01*
%TO.N,/ESP-32 Module/ROM_ACCESS_A18*%
X145809700Y-59717100D02*
X145809700Y-150726600D01*
X143750600Y-57658000D02*
X145809700Y-59717100D01*
X99703700Y-69850000D02*
X103632000Y-65921700D01*
X145809700Y-150726600D02*
X139700000Y-156836300D01*
X103632000Y-65921700D02*
X113463600Y-65921700D01*
X113463600Y-65921700D02*
X116647300Y-62738000D01*
X139700000Y-157988000D02*
X139700000Y-156836300D01*
X141122900Y-57658000D02*
X143750600Y-57658000D01*
X143750600Y-57658000D02*
X145614600Y-55794000D01*
X143256000Y-38608000D02*
X144607700Y-38608000D01*
X116647300Y-62738000D02*
X136042900Y-62738000D01*
X145614600Y-55794000D02*
X145614600Y-39614900D01*
X136042900Y-62738000D02*
X141122900Y-57658000D01*
X145614600Y-39614900D02*
X144607700Y-38608000D01*
X98552000Y-69850000D02*
X99703700Y-69850000D01*
%TO.N,/ESP-32 Module/MISO*%
X115234300Y-44958000D02*
X116504300Y-46228000D01*
X46736000Y-62992000D02*
X54580900Y-55147100D01*
X99961100Y-44958000D02*
X115234300Y-44958000D01*
X79893300Y-42026800D02*
X97029900Y-42026800D01*
X66773000Y-55147100D02*
X79893300Y-42026800D01*
X54580900Y-55147100D02*
X66773000Y-55147100D01*
X97029900Y-42026800D02*
X99961100Y-44958000D01*
X117856000Y-46228000D02*
X116504300Y-46228000D01*
%TO.N,/ESP-32 Module/SCK*%
X101316600Y-47394000D02*
X118456400Y-47394000D01*
X46736000Y-68072000D02*
X51566000Y-63242000D01*
X60265600Y-63242000D02*
X80950600Y-42557000D01*
X80950600Y-42557000D02*
X96479600Y-42557000D01*
X51566000Y-63242000D02*
X60265600Y-63242000D01*
X96479600Y-42557000D02*
X101316600Y-47394000D01*
X119207700Y-46642700D02*
X119207700Y-43688000D01*
X117856000Y-43688000D02*
X119207700Y-43688000D01*
X118456400Y-47394000D02*
X119207700Y-46642700D01*
%TO.N,Net-(Rom_Access_Shifter1-B3)*%
X106755000Y-61482900D02*
X100898100Y-55626000D01*
X76200000Y-51816000D02*
X77351700Y-51816000D01*
X81161700Y-55626000D02*
X77351700Y-51816000D01*
X100898100Y-55626000D02*
X81161700Y-55626000D01*
%TO.N,Net-(Rom_Access_Shifter1-B2)*%
X91440000Y-56896000D02*
X100390800Y-56896000D01*
X105675300Y-62180500D02*
X107752300Y-62180500D01*
X100390800Y-56896000D02*
X105675300Y-62180500D01*
X107752300Y-62180500D02*
X107752300Y-62180600D01*
%TO.N,Net-(U11-VDET_2{slash}GPIO35{slash}ADC1_CH7)*%
X144607700Y-48360700D02*
X144607700Y-51308000D01*
X107772500Y-37326600D02*
X132554600Y-37326600D01*
X94104800Y-27637300D02*
X99074100Y-32606600D01*
X143256000Y-51308000D02*
X144607700Y-51308000D01*
X132554600Y-37326600D02*
X142726000Y-47498000D01*
X103052500Y-32606600D02*
X107772500Y-37326600D01*
X142726000Y-47498000D02*
X143745000Y-47498000D01*
X81586000Y-26634000D02*
X88086000Y-26634000D01*
X88086000Y-26634000D02*
X89089300Y-27637300D01*
X143745000Y-47498000D02*
X144607700Y-48360700D01*
X99074100Y-32606600D02*
X103052500Y-32606600D01*
X89089300Y-27637300D02*
X94104800Y-27637300D01*
%TO.N,Net-(U11-VDET_1{slash}GPIO34{slash}ADC1_CH6)*%
X87382400Y-43711900D02*
X82208300Y-43711900D01*
X67870000Y-26344000D02*
X74370000Y-26344000D01*
X140927700Y-52871400D02*
X115689700Y-52871400D01*
X115689700Y-52871400D02*
X115591900Y-52969200D01*
X115591900Y-52969200D02*
X114627000Y-52969200D01*
X143256000Y-53848000D02*
X141904300Y-53848000D01*
X114627000Y-52969200D02*
X114161900Y-52504100D01*
X141904300Y-53848000D02*
X140927700Y-52871400D01*
X114161900Y-52504100D02*
X96174600Y-52504100D01*
X96174600Y-52504100D02*
X87382400Y-43711900D01*
%TO.N,Net-(LS245_Dir1-Pin_1)*%
X49160600Y-67399400D02*
X56891900Y-67399400D01*
X81232600Y-43058700D02*
X88392000Y-43058700D01*
X94101300Y-48768000D02*
X102616000Y-48768000D01*
X56891900Y-67399400D02*
X81232600Y-43058700D01*
X40840700Y-75719300D02*
X49160600Y-67399400D01*
X40749100Y-75719300D02*
X40840700Y-75719300D01*
X88392000Y-43058700D02*
X94101300Y-48768000D01*
%TO.N,Net-(LS245_Dir1-Pin_2)*%
X33799400Y-129929700D02*
X32647700Y-128778000D01*
X112031400Y-130691700D02*
X131808600Y-130691700D01*
X83312000Y-128778000D02*
X82160300Y-128778000D01*
X102312200Y-123275900D02*
X92678200Y-123275900D01*
X87176100Y-128778000D02*
X83312000Y-128778000D01*
X53576600Y-129675700D02*
X44691500Y-129675700D01*
X55880000Y-128524000D02*
X54728300Y-128524000D01*
X131808600Y-130691700D02*
X132960300Y-129540000D01*
X110879700Y-129540000D02*
X112031400Y-130691700D01*
X82160300Y-128778000D02*
X80956600Y-129981700D01*
X108576300Y-129540000D02*
X102312200Y-123275900D01*
X54728300Y-128524000D02*
X53576600Y-129675700D01*
X80956600Y-129981700D02*
X70223100Y-129981700D01*
X55880000Y-128524000D02*
X57031700Y-128524000D01*
X109728000Y-129540000D02*
X110879700Y-129540000D01*
X31496000Y-128778000D02*
X32647700Y-128778000D01*
X109152200Y-129540000D02*
X108576300Y-129540000D01*
X58183400Y-129675700D02*
X57031700Y-128524000D01*
X44691500Y-129675700D02*
X44437500Y-129929700D01*
X134112000Y-129540000D02*
X132960300Y-129540000D01*
X109152200Y-129540000D02*
X109728000Y-129540000D01*
X69917100Y-129675700D02*
X58183400Y-129675700D01*
X92678200Y-123275900D02*
X87176100Y-128778000D01*
X70223100Y-129981700D02*
X69917100Y-129675700D01*
X44437500Y-129929700D02*
X33799400Y-129929700D01*
%TD*%
M02*
