M48
; DRILL file {KiCad 8.0.5} date 2024-10-04T15:33:26-0400
; FORMAT={-:-/ absolute / metric / decimal}
; #@! TF.CreationDate,2024-10-04T15:33:26-04:00
; #@! TF.GenerationSoftware,Kicad,Pcbnew,8.0.5
; #@! TF.FileFunction,Plated,1,2,PTH
FMAT,2
METRIC
; #@! TA.AperFunction,Plated,PTH,ViaDrill
T1C0.300
; #@! TA.AperFunction,Plated,PTH,ComponentDrill
T2C0.762
; #@! TA.AperFunction,Plated,PTH,ComponentDrill
T3C0.800
; #@! TA.AperFunction,Plated,PTH,ComponentDrill
T4C0.900
; #@! TA.AperFunction,Plated,PTH,ComponentDrill
T5C1.000
; #@! TA.AperFunction,Plated,PTH,ComponentDrill
T6C1.100
%
G90
G05
T1
X27.444Y-83.339
X30.986Y-57.912
X30.986Y-122.628
X36.576Y-118.696
X40.749Y-75.719
X41.41Y-52.853
X41.548Y-76.518
X42.51Y-132.334
X42.622Y-72.95
X42.728Y-78.965
X43.034Y-136.132
X43.386Y-102.55
X44.009Y-77.845
X44.123Y-45.336
X45.179Y-147.882
X47.34Y-120.71
X49.35Y-68.146
X49.996Y-85.675
X51.703Y-156.021
X53.766Y-110.356
X59.085Y-131.403
X59.54Y-80.407
X59.693Y-132.964
X60.134Y-134.416
X61.329Y-75.434
X62.134Y-86.805
X66.791Y-100.393
X68.257Y-56.956
X69.199Y-48.858
X70.137Y-99.359
X71.273Y-47.057
X71.964Y-98.489
X73.539Y-98.727
X74.609Y-59.47
X79.558Y-90.586
X80.854Y-96.393
X81.157Y-88.646
X82.208Y-43.712
X85.234Y-83.004
X85.401Y-102.089
X85.907Y-91.948
X86.011Y-82.138
X87.103Y-127.522
X87.366Y-110.04
X87.408Y-112.623
X87.495Y-102.452
X88.195Y-114.395
X88.461Y-98.135
X88.606Y-118.427
X89.218Y-83.684
X93.287Y-89.795
X93.393Y-123.928
X93.922Y-74.441
X94.112Y-86.717
X96.227Y-91.446
X96.969Y-84.463
X97.386Y-133.988
X97.487Y-53.352
X98.895Y-101.955
X100.43Y-91.416
X102.686Y-94.553
X103.088Y-68.517
X103.523Y-95.779
X104.728Y-78.672
X106.755Y-61.483
X107.205Y-127.218
X107.752Y-62.181
X109.247Y-62.869
X109.989Y-119.126
X110.296Y-103.921
X110.84Y-107.1
X111.085Y-101.319
X111.577Y-104.892
X113.356Y-91.337
X113.386Y-99.821
X114.094Y-98.504
X114.609Y-62.913
X115.013Y-52.25
X115.2Y-34.798
X115.72Y-95.205
X119.163Y-99.764
X119.436Y-138.302
X119.607Y-137.127
X121.29Y-116.132
X125.42Y-122.548
X131.483Y-124.311
X137.465Y-139.271
X137.774Y-71.033
X138.383Y-80.27
X138.501Y-68.517
X140.301Y-100.653
T2
X26.416Y-19.812
X26.416Y-22.352
X26.416Y-24.892
X26.416Y-27.432
X26.416Y-29.972
X26.416Y-32.512
X26.416Y-35.052
X26.416Y-37.592
X26.416Y-40.132
X26.416Y-42.672
X26.416Y-45.212
X26.416Y-47.752
X26.416Y-50.292
X26.416Y-52.832
X26.416Y-55.372
X26.416Y-57.912
X26.416Y-60.452
X26.416Y-62.992
X26.416Y-65.532
X26.416Y-68.072
X46.736Y-19.812
X46.736Y-22.352
X46.736Y-24.892
X46.736Y-27.432
X46.736Y-29.972
X46.736Y-32.512
X46.736Y-35.052
X46.736Y-37.592
X46.736Y-40.132
X46.736Y-42.672
X46.736Y-45.212
X46.736Y-47.752
X46.736Y-50.292
X46.736Y-52.832
X46.736Y-55.372
X46.736Y-57.912
X46.736Y-60.452
X46.736Y-62.992
X46.736Y-65.532
X46.736Y-68.072
T3
X24.892Y-128.778
X24.892Y-131.318
X24.892Y-133.858
X24.892Y-136.398
X24.892Y-138.938
X24.892Y-141.478
X24.892Y-144.018
X24.892Y-146.558
X24.892Y-149.098
X25.4Y-97.536
X25.4Y-100.076
X25.4Y-102.616
X25.4Y-105.156
X25.4Y-107.696
X25.4Y-110.236
X25.4Y-112.776
X25.4Y-115.316
X25.4Y-117.856
X25.4Y-120.396
X31.496Y-128.778
X31.496Y-131.318
X31.496Y-133.858
X31.496Y-136.398
X31.496Y-138.938
X31.496Y-141.478
X31.496Y-144.018
X31.496Y-146.558
X31.496Y-149.098
X31.496Y-151.638
X38.1Y-97.536
X38.1Y-100.076
X38.1Y-102.616
X38.1Y-105.156
X38.1Y-107.696
X38.1Y-110.236
X38.1Y-112.776
X38.1Y-115.316
X38.1Y-117.856
X38.1Y-120.396
X39.116Y-128.778
X39.116Y-131.318
X39.116Y-133.858
X39.116Y-136.398
X39.116Y-138.938
X39.116Y-141.478
X39.116Y-144.018
X39.116Y-146.558
X39.116Y-149.098
X39.116Y-151.638
X49.276Y-128.524
X49.276Y-131.064
X49.276Y-133.604
X49.276Y-136.144
X49.276Y-138.684
X49.276Y-141.224
X49.276Y-143.764
X49.276Y-146.304
X49.276Y-148.844
X50.292Y-98.044
X50.292Y-100.584
X50.292Y-103.124
X50.292Y-105.664
X50.292Y-108.204
X50.292Y-110.744
X50.292Y-113.284
X50.292Y-115.824
X50.292Y-118.364
X50.292Y-120.904
X52.832Y-18.796
X52.832Y-28.956
X55.88Y-128.524
X55.88Y-131.064
X55.88Y-133.604
X55.88Y-136.144
X55.88Y-138.684
X55.88Y-141.224
X55.88Y-143.764
X55.88Y-146.304
X55.88Y-148.844
X55.88Y-151.384
X59.436Y-36.576
X59.436Y-39.116
X59.436Y-41.656
X59.436Y-44.196
X59.436Y-46.736
X59.436Y-49.276
X59.436Y-51.816
X62.992Y-98.044
X62.992Y-100.584
X62.992Y-103.124
X62.992Y-105.664
X62.992Y-108.204
X62.992Y-110.744
X62.992Y-113.284
X62.992Y-115.824
X62.992Y-118.364
X62.992Y-120.904
X63.5Y-128.524
X63.5Y-131.064
X63.5Y-133.604
X63.5Y-136.144
X63.5Y-138.684
X63.5Y-141.224
X63.5Y-143.764
X63.5Y-146.304
X63.5Y-148.844
X63.5Y-151.384
X64.21Y-18.796
X64.21Y-28.956
X67.056Y-36.576
X67.056Y-39.116
X67.056Y-41.656
X67.056Y-44.196
X67.056Y-46.736
X67.056Y-49.276
X67.056Y-51.816
X76.2Y-51.816
X76.2Y-54.356
X76.2Y-56.896
X76.2Y-59.436
X76.2Y-61.976
X76.2Y-64.516
X76.2Y-67.056
X76.2Y-69.596
X76.2Y-72.136
X76.2Y-74.676
X76.2Y-77.216
X76.2Y-79.756
X76.2Y-82.296
X76.2Y-84.836
X76.2Y-87.376
X76.2Y-89.916
X77.216Y-128.778
X77.216Y-131.318
X77.216Y-133.858
X77.216Y-136.398
X77.216Y-138.938
X77.216Y-141.478
X77.216Y-144.018
X77.216Y-146.558
X77.216Y-149.098
X77.724Y-98.044
X77.724Y-100.584
X77.724Y-103.124
X77.724Y-105.664
X77.724Y-108.204
X77.724Y-110.744
X77.724Y-113.284
X77.724Y-115.824
X77.724Y-118.364
X77.724Y-120.904
X77.926Y-18.796
X77.926Y-28.956
X81.28Y-162.052
X83.312Y-128.778
X83.312Y-131.318
X83.312Y-133.858
X83.312Y-136.398
X83.312Y-138.938
X83.312Y-141.478
X83.312Y-144.018
X83.312Y-146.558
X83.312Y-149.098
X83.312Y-151.638
X88.9Y-162.052
X90.424Y-98.044
X90.424Y-100.584
X90.424Y-103.124
X90.424Y-105.664
X90.424Y-108.204
X90.424Y-110.744
X90.424Y-113.284
X90.424Y-115.824
X90.424Y-118.364
X90.424Y-120.904
X90.932Y-128.778
X90.932Y-131.318
X90.932Y-133.858
X90.932Y-136.398
X90.932Y-138.938
X90.932Y-141.478
X90.932Y-144.018
X90.932Y-146.558
X90.932Y-149.098
X90.932Y-151.638
X91.44Y-51.816
X91.44Y-54.356
X91.44Y-56.896
X91.44Y-59.436
X91.44Y-61.976
X91.44Y-64.516
X91.44Y-67.056
X91.44Y-69.596
X91.44Y-72.136
X91.44Y-74.676
X91.44Y-77.216
X91.44Y-79.756
X91.44Y-82.296
X91.44Y-84.836
X91.44Y-87.376
X91.44Y-89.916
X91.948Y-18.796
X91.948Y-28.956
X98.552Y-62.23
X98.552Y-64.77
X98.552Y-67.31
X98.552Y-69.85
X98.552Y-72.39
X98.552Y-74.93
X98.552Y-77.47
X98.552Y-80.01
X98.552Y-82.55
X98.552Y-85.09
X102.616Y-36.068
X102.616Y-38.608
X102.616Y-41.148
X102.616Y-43.688
X102.616Y-46.228
X102.616Y-48.768
X102.616Y-51.308
X103.632Y-129.54
X103.632Y-132.08
X103.632Y-134.62
X103.632Y-137.16
X103.632Y-139.7
X103.632Y-142.24
X103.632Y-144.78
X103.632Y-147.32
X103.632Y-149.86
X104.14Y-97.536
X104.14Y-100.076
X104.14Y-102.616
X104.14Y-105.156
X104.14Y-107.696
X104.14Y-110.236
X104.14Y-112.776
X104.14Y-115.316
X104.14Y-117.856
X104.14Y-120.396
X106.172Y-18.796
X106.172Y-28.956
X109.728Y-129.54
X109.728Y-132.08
X109.728Y-134.62
X109.728Y-137.16
X109.728Y-139.7
X109.728Y-142.24
X109.728Y-144.78
X109.728Y-147.32
X109.728Y-149.86
X109.728Y-152.4
X110.236Y-36.068
X110.236Y-38.608
X110.236Y-41.148
X110.236Y-43.688
X110.236Y-46.228
X110.236Y-48.768
X110.236Y-51.308
X111.252Y-62.23
X111.252Y-64.77
X111.252Y-67.31
X111.252Y-69.85
X111.252Y-72.39
X111.252Y-74.93
X111.252Y-77.47
X111.252Y-80.01
X111.252Y-82.55
X111.252Y-85.09
X116.84Y-97.536
X116.84Y-100.076
X116.84Y-102.616
X116.84Y-105.156
X116.84Y-107.696
X116.84Y-110.236
X116.84Y-112.776
X116.84Y-115.316
X116.84Y-117.856
X116.84Y-120.396
X117.348Y-129.54
X117.348Y-132.08
X117.348Y-134.62
X117.348Y-137.16
X117.348Y-139.7
X117.348Y-142.24
X117.348Y-144.78
X117.348Y-147.32
X117.348Y-149.86
X117.348Y-152.4
X117.856Y-23.368
X117.856Y-25.908
X117.856Y-28.448
X117.856Y-30.988
X117.856Y-33.528
X117.856Y-36.068
X117.856Y-38.608
X117.856Y-41.148
X117.856Y-43.688
X117.856Y-46.228
X117.856Y-48.768
X117.856Y-51.308
X117.856Y-53.848
X117.856Y-56.388
X117.856Y-58.928
X117.856Y-61.468
X117.856Y-64.008
X117.86Y-18.291
X117.86Y-20.831
X128.016Y-129.54
X128.016Y-132.08
X128.016Y-134.62
X128.016Y-137.16
X128.016Y-139.7
X128.016Y-142.24
X128.016Y-144.78
X128.016Y-147.32
X128.016Y-149.86
X128.778Y-97.282
X128.778Y-99.822
X128.778Y-102.362
X128.778Y-104.902
X128.778Y-107.442
X128.778Y-109.982
X128.778Y-112.522
X128.778Y-115.062
X128.778Y-117.602
X128.778Y-120.142
X130.556Y-79.248
X130.556Y-89.408
X131.572Y-157.988
X131.572Y-165.608
X134.112Y-129.54
X134.112Y-132.08
X134.112Y-134.62
X134.112Y-137.16
X134.112Y-139.7
X134.112Y-142.24
X134.112Y-144.78
X134.112Y-147.32
X134.112Y-149.86
X134.112Y-152.4
X135.636Y-157.988
X135.636Y-165.608
X137.16Y-79.248
X137.16Y-89.408
X139.7Y-157.988
X139.7Y-165.608
X141.478Y-97.282
X141.478Y-99.822
X141.478Y-102.362
X141.478Y-104.902
X141.478Y-107.442
X141.478Y-109.982
X141.478Y-112.522
X141.478Y-115.062
X141.478Y-117.602
X141.478Y-120.142
X141.732Y-129.54
X141.732Y-132.08
X141.732Y-134.62
X141.732Y-137.16
X141.732Y-139.7
X141.732Y-142.24
X141.732Y-144.78
X141.732Y-147.32
X141.732Y-149.86
X141.732Y-152.4
X143.256Y-18.288
X143.256Y-20.828
X143.256Y-23.368
X143.256Y-25.908
X143.256Y-28.448
X143.256Y-30.988
X143.256Y-33.528
X143.256Y-36.068
X143.256Y-38.608
X143.256Y-41.148
X143.256Y-43.688
X143.256Y-46.228
X143.256Y-48.768
X143.256Y-51.308
X143.256Y-53.848
X143.256Y-56.388
X143.256Y-58.928
X143.256Y-61.468
X143.256Y-64.008
T4
X57.347Y-23.876
X59.887Y-23.876
X110.744Y-23.876
X113.284Y-23.876
T5
X24.892Y-74.208
X24.892Y-79.208
X30.48Y-160.02
X30.48Y-162.56
X30.48Y-165.1
X37.084Y-162.301
X37.084Y-164.841
X50.292Y-32.592
X50.292Y-37.592
X55.88Y-70.104
X55.88Y-72.644
X61.976Y-70.104
X61.976Y-72.644
X61.976Y-168.148
X61.976Y-170.688
X64.516Y-168.148
X64.516Y-170.688
X67.056Y-168.148
X67.056Y-170.688
X67.564Y-70.104
X67.564Y-72.644
X69.596Y-168.148
X69.596Y-170.688
X72.136Y-168.148
X72.136Y-170.688
X74.676Y-168.148
X74.676Y-170.688
X77.216Y-168.148
X77.216Y-170.688
X79.756Y-168.148
X79.756Y-170.688
X81.36Y-45.212
X82.296Y-168.148
X82.296Y-170.688
X82.59Y-157.988
X84.836Y-168.148
X84.836Y-170.688
X86.36Y-45.212
X87.376Y-168.148
X87.376Y-170.688
X87.59Y-157.988
X89.916Y-168.148
X89.916Y-170.688
X92.456Y-168.148
X92.456Y-170.688
X94.996Y-168.148
X94.996Y-170.688
X97.536Y-168.148
X97.536Y-170.688
X100.076Y-168.148
X100.076Y-170.688
X102.616Y-168.148
X102.616Y-170.688
X105.156Y-168.148
X105.156Y-170.688
X107.696Y-168.148
X107.696Y-170.688
X110.236Y-168.148
X110.236Y-170.688
X132.588Y-169.672
X135.128Y-169.672
X137.668Y-169.672
X143.724Y-68.62
X143.724Y-73.62
X143.764Y-80.264
X143.764Y-82.804
X143.764Y-85.344
X143.764Y-87.884
T6
X67.87Y-21.844
X67.87Y-26.344
X74.37Y-21.844
X74.37Y-26.344
X81.586Y-22.134
X81.586Y-26.634
X88.086Y-22.134
X88.086Y-26.634
X95.81Y-22.134
X95.81Y-26.634
X102.31Y-22.134
X102.31Y-26.634
M30
