%TF.GenerationSoftware,KiCad,Pcbnew,8.0.5*%
%TF.CreationDate,2024-10-04T15:32:28-04:00*%
%TF.ProjectId,FujiNet_5.0,46756a69-4e65-4745-9f35-2e302e6b6963,rev?*%
%TF.SameCoordinates,Original*%
%TF.FileFunction,Soldermask,Top*%
%TF.FilePolarity,Negative*%
%FSLAX46Y46*%
G04 Gerber Fmt 4.6, Leading zero omitted, Abs format (unit mm)*
G04 Created by KiCad (PCBNEW 8.0.5) date 2024-10-04 15:32:28*
%MOMM*%
%LPD*%
G01*
G04 APERTURE LIST*
%ADD10C,1.600000*%
%ADD11O,1.600000X1.600000*%
%ADD12R,1.600000X1.600000*%
%ADD13R,2.000000X1.200000*%
%ADD14O,2.000000X1.200000*%
%ADD15C,2.000000*%
%ADD16R,1.700000X1.700000*%
%ADD17O,1.700000X1.700000*%
%ADD18R,1.800000X1.800000*%
%ADD19C,1.800000*%
%ADD20C,1.524000*%
G04 APERTURE END LIST*
D10*
%TO.C,R1*%
X137160000Y-89408000D03*
D11*
X137160000Y-79248000D03*
%TD*%
D12*
%TO.C,RN1*%
X49276000Y-128524000D03*
D11*
X49276000Y-131064000D03*
X49276000Y-133604000D03*
X49276000Y-136144000D03*
X49276000Y-138684000D03*
X49276000Y-141224000D03*
X49276000Y-143764000D03*
X49276000Y-146304000D03*
X49276000Y-148844000D03*
%TD*%
D10*
%TO.C,R4*%
X52832000Y-28956000D03*
D11*
X52832000Y-18796000D03*
%TD*%
D12*
%TO.C,D6*%
X139700000Y-157988000D03*
D11*
X139700000Y-165608000D03*
%TD*%
D13*
%TO.C,U11*%
X143256000Y-64008000D03*
D14*
X143256000Y-61468000D03*
X143256000Y-58928000D03*
X143256000Y-56388000D03*
X143256000Y-53848000D03*
X143256000Y-51308000D03*
X143256000Y-48768000D03*
X143256000Y-46228000D03*
X143256000Y-43688000D03*
X143256000Y-41148000D03*
X143256000Y-38608000D03*
X143256000Y-36068000D03*
X143256000Y-33528000D03*
X143256000Y-30988000D03*
X143256000Y-28448000D03*
X143256000Y-25908000D03*
X143256000Y-23368000D03*
X143256000Y-20828000D03*
X143256000Y-18288000D03*
X117859680Y-18290720D03*
X117859680Y-20830720D03*
X117856000Y-23368000D03*
X117856000Y-25908000D03*
X117856000Y-28448000D03*
X117856000Y-30988000D03*
X117856000Y-33528000D03*
X117856000Y-36068000D03*
X117856000Y-38608000D03*
X117856000Y-41148000D03*
X117856000Y-43688000D03*
X117856000Y-46228000D03*
X117856000Y-48768000D03*
X117856000Y-51308000D03*
X117856000Y-53848000D03*
X117856000Y-56388000D03*
X117856000Y-58928000D03*
X117856000Y-61468000D03*
X117856000Y-64008000D03*
%TD*%
D10*
%TO.C,R7*%
X64210000Y-28956000D03*
D11*
X64210000Y-18796000D03*
%TD*%
D15*
%TO.C,C1*%
X24892000Y-74208000D03*
X24892000Y-79208000D03*
%TD*%
D12*
%TO.C,D4*%
X131572000Y-157988000D03*
D11*
X131572000Y-165608000D03*
%TD*%
D10*
%TO.C,R5*%
X106172000Y-18796000D03*
D11*
X106172000Y-28956000D03*
%TD*%
D12*
%TO.C,RN3*%
X128016000Y-129540000D03*
D11*
X128016000Y-132080000D03*
X128016000Y-134620000D03*
X128016000Y-137160000D03*
X128016000Y-139700000D03*
X128016000Y-142240000D03*
X128016000Y-144780000D03*
X128016000Y-147320000D03*
X128016000Y-149860000D03*
%TD*%
D16*
%TO.C,Rom_Access1*%
X132588000Y-169672000D03*
D17*
X135128000Y-169672000D03*
X137668000Y-169672000D03*
%TD*%
D12*
%TO.C,U1*%
X76200000Y-51816000D03*
D11*
X76200000Y-54356000D03*
X76200000Y-56896000D03*
X76200000Y-59436000D03*
X76200000Y-61976000D03*
X76200000Y-64516000D03*
X76200000Y-67056000D03*
X76200000Y-69596000D03*
X76200000Y-72136000D03*
X76200000Y-74676000D03*
X76200000Y-77216000D03*
X76200000Y-79756000D03*
X76200000Y-82296000D03*
X76200000Y-84836000D03*
X76200000Y-87376000D03*
X76200000Y-89916000D03*
X91440000Y-89916000D03*
X91440000Y-87376000D03*
X91440000Y-84836000D03*
X91440000Y-82296000D03*
X91440000Y-79756000D03*
X91440000Y-77216000D03*
X91440000Y-74676000D03*
X91440000Y-72136000D03*
X91440000Y-69596000D03*
X91440000Y-67056000D03*
X91440000Y-64516000D03*
X91440000Y-61976000D03*
X91440000Y-59436000D03*
X91440000Y-56896000D03*
X91440000Y-54356000D03*
X91440000Y-51816000D03*
%TD*%
D12*
%TO.C,A0-7_SHIFTER1*%
X25400000Y-97536000D03*
D11*
X25400000Y-100076000D03*
X25400000Y-102616000D03*
X25400000Y-105156000D03*
X25400000Y-107696000D03*
X25400000Y-110236000D03*
X25400000Y-112776000D03*
X25400000Y-115316000D03*
X25400000Y-117856000D03*
X25400000Y-120396000D03*
X38100000Y-120396000D03*
X38100000Y-117856000D03*
X38100000Y-115316000D03*
X38100000Y-112776000D03*
X38100000Y-110236000D03*
X38100000Y-107696000D03*
X38100000Y-105156000D03*
X38100000Y-102616000D03*
X38100000Y-100076000D03*
X38100000Y-97536000D03*
%TD*%
D12*
%TO.C,U8*%
X109728000Y-129540000D03*
D11*
X109728000Y-132080000D03*
X109728000Y-134620000D03*
X109728000Y-137160000D03*
X109728000Y-139700000D03*
X109728000Y-142240000D03*
X109728000Y-144780000D03*
X109728000Y-147320000D03*
X109728000Y-149860000D03*
X109728000Y-152400000D03*
X117348000Y-152400000D03*
X117348000Y-149860000D03*
X117348000Y-147320000D03*
X117348000Y-144780000D03*
X117348000Y-142240000D03*
X117348000Y-139700000D03*
X117348000Y-137160000D03*
X117348000Y-134620000D03*
X117348000Y-132080000D03*
X117348000Y-129540000D03*
%TD*%
D12*
%TO.C,D5*%
X135636000Y-157988000D03*
D11*
X135636000Y-165608000D03*
%TD*%
D15*
%TO.C,SW2*%
X81586000Y-22134000D03*
X88086000Y-22134000D03*
X81586000Y-26634000D03*
X88086000Y-26634000D03*
%TD*%
D12*
%TO.C,Z80_CONTROL_1_SHIFTER1*%
X104140000Y-97536000D03*
D11*
X104140000Y-100076000D03*
X104140000Y-102616000D03*
X104140000Y-105156000D03*
X104140000Y-107696000D03*
X104140000Y-110236000D03*
X104140000Y-112776000D03*
X104140000Y-115316000D03*
X104140000Y-117856000D03*
X104140000Y-120396000D03*
X116840000Y-120396000D03*
X116840000Y-117856000D03*
X116840000Y-115316000D03*
X116840000Y-112776000D03*
X116840000Y-110236000D03*
X116840000Y-107696000D03*
X116840000Y-105156000D03*
X116840000Y-102616000D03*
X116840000Y-100076000D03*
X116840000Y-97536000D03*
%TD*%
D12*
%TO.C,U6*%
X31496000Y-128778000D03*
D11*
X31496000Y-131318000D03*
X31496000Y-133858000D03*
X31496000Y-136398000D03*
X31496000Y-138938000D03*
X31496000Y-141478000D03*
X31496000Y-144018000D03*
X31496000Y-146558000D03*
X31496000Y-149098000D03*
X31496000Y-151638000D03*
X39116000Y-151638000D03*
X39116000Y-149098000D03*
X39116000Y-146558000D03*
X39116000Y-144018000D03*
X39116000Y-141478000D03*
X39116000Y-138938000D03*
X39116000Y-136398000D03*
X39116000Y-133858000D03*
X39116000Y-131318000D03*
X39116000Y-128778000D03*
%TD*%
D10*
%TO.C,R3*%
X91948000Y-28956000D03*
D11*
X91948000Y-18796000D03*
%TD*%
D16*
%TO.C,J2*%
X61976000Y-170688000D03*
D17*
X61976000Y-168148000D03*
X64516000Y-170688000D03*
X64516000Y-168148000D03*
X67056000Y-170688000D03*
X67056000Y-168148000D03*
X69596000Y-170688000D03*
X69596000Y-168148000D03*
X72136000Y-170688000D03*
X72136000Y-168148000D03*
X74676000Y-170688000D03*
X74676000Y-168148000D03*
X77216000Y-170688000D03*
X77216000Y-168148000D03*
X79756000Y-170688000D03*
X79756000Y-168148000D03*
X82296000Y-170688000D03*
X82296000Y-168148000D03*
X84836000Y-170688000D03*
X84836000Y-168148000D03*
X87376000Y-170688000D03*
X87376000Y-168148000D03*
X89916000Y-170688000D03*
X89916000Y-168148000D03*
X92456000Y-170688000D03*
X92456000Y-168148000D03*
X94996000Y-170688000D03*
X94996000Y-168148000D03*
X97536000Y-170688000D03*
X97536000Y-168148000D03*
X100076000Y-170688000D03*
X100076000Y-168148000D03*
X102616000Y-170688000D03*
X102616000Y-168148000D03*
X105156000Y-170688000D03*
X105156000Y-168148000D03*
X107696000Y-170688000D03*
X107696000Y-168148000D03*
X110236000Y-170688000D03*
X110236000Y-168148000D03*
%TD*%
D10*
%TO.C,R2*%
X130556000Y-89408000D03*
D11*
X130556000Y-79248000D03*
%TD*%
D18*
%TO.C,D2*%
X57347000Y-23876000D03*
D19*
X59887000Y-23876000D03*
%TD*%
D15*
%TO.C,C6*%
X50292000Y-32592000D03*
X50292000Y-37592000D03*
%TD*%
D12*
%TO.C,U4*%
X55880000Y-128524000D03*
D11*
X55880000Y-131064000D03*
X55880000Y-133604000D03*
X55880000Y-136144000D03*
X55880000Y-138684000D03*
X55880000Y-141224000D03*
X55880000Y-143764000D03*
X55880000Y-146304000D03*
X55880000Y-148844000D03*
X55880000Y-151384000D03*
X63500000Y-151384000D03*
X63500000Y-148844000D03*
X63500000Y-146304000D03*
X63500000Y-143764000D03*
X63500000Y-141224000D03*
X63500000Y-138684000D03*
X63500000Y-136144000D03*
X63500000Y-133604000D03*
X63500000Y-131064000D03*
X63500000Y-128524000D03*
%TD*%
D15*
%TO.C,C3*%
X143724000Y-68620000D03*
X143724000Y-73620000D03*
%TD*%
D12*
%TO.C,U7*%
X134112000Y-129540000D03*
D11*
X134112000Y-132080000D03*
X134112000Y-134620000D03*
X134112000Y-137160000D03*
X134112000Y-139700000D03*
X134112000Y-142240000D03*
X134112000Y-144780000D03*
X134112000Y-147320000D03*
X134112000Y-149860000D03*
X134112000Y-152400000D03*
X141732000Y-152400000D03*
X141732000Y-149860000D03*
X141732000Y-147320000D03*
X141732000Y-144780000D03*
X141732000Y-142240000D03*
X141732000Y-139700000D03*
X141732000Y-137160000D03*
X141732000Y-134620000D03*
X141732000Y-132080000D03*
X141732000Y-129540000D03*
%TD*%
D15*
%TO.C,C2*%
X87590000Y-157988000D03*
X82590000Y-157988000D03*
%TD*%
%TO.C,SW1*%
X67870000Y-21844000D03*
X74370000Y-21844000D03*
X67870000Y-26344000D03*
X74370000Y-26344000D03*
%TD*%
D16*
%TO.C,J1*%
X55880000Y-70104000D03*
D17*
X55880000Y-72644000D03*
%TD*%
D16*
%TO.C,SPI_Spare1*%
X143764000Y-87884000D03*
D17*
X143764000Y-85344000D03*
X143764000Y-82804000D03*
X143764000Y-80264000D03*
%TD*%
D12*
%TO.C,U3*%
X102616000Y-36068000D03*
D11*
X102616000Y-38608000D03*
X102616000Y-41148000D03*
X102616000Y-43688000D03*
X102616000Y-46228000D03*
X102616000Y-48768000D03*
X102616000Y-51308000D03*
X110236000Y-51308000D03*
X110236000Y-48768000D03*
X110236000Y-46228000D03*
X110236000Y-43688000D03*
X110236000Y-41148000D03*
X110236000Y-38608000D03*
X110236000Y-36068000D03*
%TD*%
D15*
%TO.C,SW3*%
X95810000Y-22134000D03*
X102310000Y-22134000D03*
X95810000Y-26634000D03*
X102310000Y-26634000D03*
%TD*%
D16*
%TO.C,J6*%
X37084000Y-162301000D03*
D17*
X37084000Y-164841000D03*
%TD*%
D18*
%TO.C,D3*%
X110744000Y-23876000D03*
D19*
X113284000Y-23876000D03*
%TD*%
D10*
%TO.C,R6*%
X77926000Y-28956000D03*
D11*
X77926000Y-18796000D03*
%TD*%
D16*
%TO.C,J3*%
X61976000Y-70104000D03*
D17*
X61976000Y-72644000D03*
%TD*%
D12*
%TO.C,A8-15_SHIFTER1*%
X128778000Y-97282000D03*
D11*
X128778000Y-99822000D03*
X128778000Y-102362000D03*
X128778000Y-104902000D03*
X128778000Y-107442000D03*
X128778000Y-109982000D03*
X128778000Y-112522000D03*
X128778000Y-115062000D03*
X128778000Y-117602000D03*
X128778000Y-120142000D03*
X141478000Y-120142000D03*
X141478000Y-117602000D03*
X141478000Y-115062000D03*
X141478000Y-112522000D03*
X141478000Y-109982000D03*
X141478000Y-107442000D03*
X141478000Y-104902000D03*
X141478000Y-102362000D03*
X141478000Y-99822000D03*
X141478000Y-97282000D03*
%TD*%
D12*
%TO.C,U2*%
X59436000Y-36576000D03*
D11*
X59436000Y-39116000D03*
X59436000Y-41656000D03*
X59436000Y-44196000D03*
X59436000Y-46736000D03*
X59436000Y-49276000D03*
X59436000Y-51816000D03*
X67056000Y-51816000D03*
X67056000Y-49276000D03*
X67056000Y-46736000D03*
X67056000Y-44196000D03*
X67056000Y-41656000D03*
X67056000Y-39116000D03*
X67056000Y-36576000D03*
%TD*%
D12*
%TO.C,U9*%
X83312000Y-128778000D03*
D11*
X83312000Y-131318000D03*
X83312000Y-133858000D03*
X83312000Y-136398000D03*
X83312000Y-138938000D03*
X83312000Y-141478000D03*
X83312000Y-144018000D03*
X83312000Y-146558000D03*
X83312000Y-149098000D03*
X83312000Y-151638000D03*
X90932000Y-151638000D03*
X90932000Y-149098000D03*
X90932000Y-146558000D03*
X90932000Y-144018000D03*
X90932000Y-141478000D03*
X90932000Y-138938000D03*
X90932000Y-136398000D03*
X90932000Y-133858000D03*
X90932000Y-131318000D03*
X90932000Y-128778000D03*
%TD*%
D12*
%TO.C,RN5*%
X77216000Y-128778000D03*
D11*
X77216000Y-131318000D03*
X77216000Y-133858000D03*
X77216000Y-136398000D03*
X77216000Y-138938000D03*
X77216000Y-141478000D03*
X77216000Y-144018000D03*
X77216000Y-146558000D03*
X77216000Y-149098000D03*
%TD*%
D12*
%TO.C,RN2*%
X24892000Y-128778000D03*
D11*
X24892000Y-131318000D03*
X24892000Y-133858000D03*
X24892000Y-136398000D03*
X24892000Y-138938000D03*
X24892000Y-141478000D03*
X24892000Y-144018000D03*
X24892000Y-146558000D03*
X24892000Y-149098000D03*
%TD*%
D15*
%TO.C,C4*%
X86360000Y-45212000D03*
X81360000Y-45212000D03*
%TD*%
D12*
%TO.C,D0-7_SHIFTER1*%
X50292000Y-98044000D03*
D11*
X50292000Y-100584000D03*
X50292000Y-103124000D03*
X50292000Y-105664000D03*
X50292000Y-108204000D03*
X50292000Y-110744000D03*
X50292000Y-113284000D03*
X50292000Y-115824000D03*
X50292000Y-118364000D03*
X50292000Y-120904000D03*
X62992000Y-120904000D03*
X62992000Y-118364000D03*
X62992000Y-115824000D03*
X62992000Y-113284000D03*
X62992000Y-110744000D03*
X62992000Y-108204000D03*
X62992000Y-105664000D03*
X62992000Y-103124000D03*
X62992000Y-100584000D03*
X62992000Y-98044000D03*
%TD*%
D12*
%TO.C,Z80_CONTROL_2_SHIFTER2*%
X77724000Y-98044000D03*
D11*
X77724000Y-100584000D03*
X77724000Y-103124000D03*
X77724000Y-105664000D03*
X77724000Y-108204000D03*
X77724000Y-110744000D03*
X77724000Y-113284000D03*
X77724000Y-115824000D03*
X77724000Y-118364000D03*
X77724000Y-120904000D03*
X90424000Y-120904000D03*
X90424000Y-118364000D03*
X90424000Y-115824000D03*
X90424000Y-113284000D03*
X90424000Y-110744000D03*
X90424000Y-108204000D03*
X90424000Y-105664000D03*
X90424000Y-103124000D03*
X90424000Y-100584000D03*
X90424000Y-98044000D03*
%TD*%
D12*
%TO.C,Rom_Access_Shifter1*%
X98552000Y-62230000D03*
D11*
X98552000Y-64770000D03*
X98552000Y-67310000D03*
X98552000Y-69850000D03*
X98552000Y-72390000D03*
X98552000Y-74930000D03*
X98552000Y-77470000D03*
X98552000Y-80010000D03*
X98552000Y-82550000D03*
X98552000Y-85090000D03*
X111252000Y-85090000D03*
X111252000Y-82550000D03*
X111252000Y-80010000D03*
X111252000Y-77470000D03*
X111252000Y-74930000D03*
X111252000Y-72390000D03*
X111252000Y-69850000D03*
X111252000Y-67310000D03*
X111252000Y-64770000D03*
X111252000Y-62230000D03*
%TD*%
D16*
%TO.C,J5*%
X67564000Y-70104000D03*
D17*
X67564000Y-72644000D03*
%TD*%
D20*
%TO.C,U10*%
X46736000Y-19812000D03*
X46736000Y-22352000D03*
X46736000Y-24892000D03*
X46736000Y-27432000D03*
X46736000Y-29972000D03*
X46736000Y-32512000D03*
X46736000Y-35052000D03*
X46736000Y-37592000D03*
X46736000Y-40132000D03*
X46736000Y-42672000D03*
X46736000Y-45212000D03*
X46736000Y-47752000D03*
X46736000Y-50292000D03*
X46736000Y-52832000D03*
X46736000Y-55372000D03*
X46736000Y-57912000D03*
X46736000Y-60452000D03*
X46736000Y-62992000D03*
X46736000Y-65532000D03*
X46736000Y-68072000D03*
X26416000Y-68072000D03*
X26416000Y-65532000D03*
X26416000Y-62992000D03*
X26416000Y-60452000D03*
X26416000Y-57912000D03*
X26416000Y-55372000D03*
X26416000Y-52832000D03*
X26416000Y-50292000D03*
X26416000Y-47752000D03*
X26416000Y-45212000D03*
X26416000Y-42672000D03*
X26416000Y-40132000D03*
X26416000Y-37592000D03*
X26416000Y-35052000D03*
X26416000Y-32512000D03*
X26416000Y-29972000D03*
X26416000Y-27432000D03*
X26416000Y-24892000D03*
X26416000Y-22352000D03*
X26416000Y-19812000D03*
%TD*%
D12*
%TO.C,RN4*%
X103632000Y-129540000D03*
D11*
X103632000Y-132080000D03*
X103632000Y-134620000D03*
X103632000Y-137160000D03*
X103632000Y-139700000D03*
X103632000Y-142240000D03*
X103632000Y-144780000D03*
X103632000Y-147320000D03*
X103632000Y-149860000D03*
%TD*%
D12*
%TO.C,D1*%
X88900000Y-162052000D03*
D11*
X81280000Y-162052000D03*
%TD*%
D16*
%TO.C,LS245_Dir1*%
X30480000Y-160020000D03*
D17*
X30480000Y-162560000D03*
X30480000Y-165100000D03*
%TD*%
M02*
