M48
; DRILL file {KiCad 8.0.5} date 2024-10-04T15:41:39-0400
; FORMAT={-:-/ absolute / metric / decimal}
; #@! TF.CreationDate,2024-10-04T15:41:39-04:00
; #@! TF.GenerationSoftware,Kicad,Pcbnew,8.0.5
; #@! TF.FileFunction,Plated,1,2,PTH
FMAT,2
METRIC
; #@! TA.AperFunction,Plated,PTH,ViaDrill
T1C0.300
; #@! TA.AperFunction,Plated,PTH,ComponentDrill
T2C1.000
%
G90
G05
T1
X79.702Y-103.44
X105.309Y-91.864
X106.083Y-91.136
X110.071Y-87.102
X110.227Y-90.483
X113.31Y-79.681
T2
X68.58Y-112.268
X68.58Y-117.856
X68.58Y-120.396
X71.12Y-112.268
X71.12Y-117.856
X71.12Y-120.396
X73.66Y-112.268
X73.66Y-117.856
X73.66Y-120.396
X76.2Y-117.856
X76.2Y-120.396
X77.216Y-67.564
X77.216Y-70.104
X78.74Y-117.856
X78.74Y-120.396
X79.756Y-67.564
X79.756Y-70.104
X81.28Y-117.856
X81.28Y-120.396
X82.296Y-67.564
X82.296Y-70.104
X83.82Y-117.856
X83.82Y-120.396
X84.836Y-67.564
X84.836Y-70.104
X86.36Y-117.856
X86.36Y-120.396
X87.376Y-67.564
X87.376Y-70.104
X88.9Y-117.856
X88.9Y-120.396
X89.916Y-67.564
X89.916Y-70.104
X91.44Y-117.856
X91.44Y-120.396
X92.456Y-67.564
X92.456Y-70.104
X93.98Y-117.856
X93.98Y-120.396
X94.996Y-67.564
X94.996Y-70.104
X96.52Y-76.708
X96.52Y-117.856
X96.52Y-120.396
X97.536Y-67.564
X97.536Y-70.104
X99.06Y-76.708
X99.06Y-117.856
X99.06Y-120.396
X100.076Y-67.564
X100.076Y-70.104
X101.6Y-76.708
X101.6Y-117.856
X101.6Y-120.396
X102.616Y-67.564
X102.616Y-70.104
X104.14Y-117.856
X104.14Y-120.396
X105.156Y-67.564
X105.156Y-70.104
X106.68Y-117.856
X106.68Y-120.396
X107.696Y-67.564
X107.696Y-70.104
X109.22Y-117.856
X109.22Y-120.396
X110.236Y-67.564
X110.236Y-70.104
X111.76Y-117.856
X111.76Y-120.396
X112.776Y-67.564
X112.776Y-70.104
X114.3Y-117.856
X114.3Y-120.396
X115.316Y-67.564
X115.316Y-70.104
X116.84Y-117.856
X116.84Y-120.396
X117.856Y-67.564
X117.856Y-70.104
X119.38Y-117.856
X119.38Y-120.396
X120.396Y-67.564
X120.396Y-70.104
X121.92Y-112.268
X121.92Y-117.856
X121.92Y-120.396
X122.936Y-67.564
X122.936Y-70.104
X124.46Y-112.268
X124.46Y-117.856
X124.46Y-120.396
X125.476Y-67.564
X125.476Y-70.104
X127.0Y-117.856
X127.0Y-120.396
X129.54Y-117.856
X129.54Y-120.396
M30
