%TF.GenerationSoftware,KiCad,Pcbnew,8.0.5*%
%TF.CreationDate,2024-10-04T15:41:34-04:00*%
%TF.ProjectId,MSX Adapter,4d535820-4164-4617-9074-65722e6b6963,rev?*%
%TF.SameCoordinates,Original*%
%TF.FileFunction,Copper,L1,Top*%
%TF.FilePolarity,Positive*%
%FSLAX46Y46*%
G04 Gerber Fmt 4.6, Leading zero omitted, Abs format (unit mm)*
G04 Created by KiCad (PCBNEW 8.0.5) date 2024-10-04 15:41:34*
%MOMM*%
%LPD*%
G01*
G04 APERTURE LIST*
%TA.AperFunction,ComponentPad*%
%ADD10R,1.700000X1.700000*%
%TD*%
%TA.AperFunction,ComponentPad*%
%ADD11O,1.700000X1.700000*%
%TD*%
%TA.AperFunction,ViaPad*%
%ADD12C,0.600000*%
%TD*%
%TA.AperFunction,Conductor*%
%ADD13C,0.200000*%
%TD*%
G04 APERTURE END LIST*
D10*
%TO.P,U1,1,CS1*%
%TO.N,Net-(J3-Pin_3)*%
X68580000Y-120396000D03*
D11*
%TO.P,U1,2,CS2*%
%TO.N,Net-(J3-Pin_2)*%
X68580000Y-117856000D03*
%TO.P,U1,3,CS12*%
%TO.N,Net-(J3-Pin_1)*%
X71120000Y-120396000D03*
%TO.P,U1,4,/STLSL*%
%TO.N,unconnected-(U1-{slash}STLSL-Pad4)*%
X71120000Y-117856000D03*
%TO.P,U1,5*%
%TO.N,N/C*%
X73660000Y-120396000D03*
%TO.P,U1,6,/RFSH*%
%TO.N,unconnected-(U1-{slash}RFSH-Pad6)*%
X73660000Y-117856000D03*
%TO.P,U1,7,/WAIT*%
%TO.N,/WAIT*%
X76200000Y-120396000D03*
%TO.P,U1,8,/INT*%
%TO.N,unconnected-(U1-{slash}INT-Pad8)*%
X76200000Y-117856000D03*
%TO.P,U1,9,/M1*%
%TO.N,unconnected-(U1-{slash}M1-Pad9)*%
X78740000Y-120396000D03*
%TO.P,U1,10,/BUSDIR*%
%TO.N,/SPARE4*%
X78740000Y-117856000D03*
%TO.P,U1,11,/IORQ*%
%TO.N,/IORQ*%
X81280000Y-120396000D03*
%TO.P,U1,12,/MEMRQ*%
%TO.N,/MEMRQ*%
X81280000Y-117856000D03*
%TO.P,U1,13,/WR*%
%TO.N,/RW*%
X83820000Y-120396000D03*
%TO.P,U1,14,/RD*%
%TO.N,/RD*%
X83820000Y-117856000D03*
%TO.P,U1,15,/RESET*%
%TO.N,/RESET*%
X86360000Y-120396000D03*
%TO.P,U1,16*%
%TO.N,N/C*%
X86360000Y-117856000D03*
%TO.P,U1,17,A9*%
%TO.N,/Z80_A9*%
X88900000Y-120396000D03*
%TO.P,U1,18,A15*%
%TO.N,/Z80_A15*%
X88900000Y-117856000D03*
%TO.P,U1,19,A11*%
%TO.N,/Z80_A11*%
X91440000Y-120396000D03*
%TO.P,U1,20,A10*%
%TO.N,/Z80_A10*%
X91440000Y-117856000D03*
%TO.P,U1,21,A7*%
%TO.N,/Z80_A7*%
X93980000Y-120396000D03*
%TO.P,U1,22,A6*%
%TO.N,/Z80_A6*%
X93980000Y-117856000D03*
%TO.P,U1,23,A12*%
%TO.N,/Z80_A12*%
X96520000Y-120396000D03*
%TO.P,U1,24,A8*%
%TO.N,/Z80_A8*%
X96520000Y-117856000D03*
%TO.P,U1,25,A14*%
%TO.N,/Z80_A14*%
X99060000Y-120396000D03*
%TO.P,U1,26,A13*%
%TO.N,/Z80_A13*%
X99060000Y-117856000D03*
%TO.P,U1,27,A1*%
%TO.N,/Z80_A1*%
X101600000Y-120396000D03*
%TO.P,U1,28,A0*%
%TO.N,/Z80_A0*%
X101600000Y-117856000D03*
%TO.P,U1,29,A3*%
%TO.N,/Z80_A3*%
X104140000Y-120396000D03*
%TO.P,U1,30,A2*%
%TO.N,/Z80_A2*%
X104140000Y-117856000D03*
%TO.P,U1,31,A5*%
%TO.N,/Z80_A5*%
X106680000Y-120396000D03*
%TO.P,U1,32,A4*%
%TO.N,/Z80_A4*%
X106680000Y-117856000D03*
%TO.P,U1,33,D1*%
%TO.N,/Z80_D1*%
X109220000Y-120396000D03*
%TO.P,U1,34,D0*%
%TO.N,/Z80_D0*%
X109220000Y-117856000D03*
%TO.P,U1,35,D3*%
%TO.N,/Z80_D3*%
X111760000Y-120396000D03*
%TO.P,U1,36,D2*%
%TO.N,/Z80_D2*%
X111760000Y-117856000D03*
%TO.P,U1,37,D5*%
%TO.N,/Z80_D5*%
X114300000Y-120396000D03*
%TO.P,U1,38,D4*%
%TO.N,/Z80_D4*%
X114300000Y-117856000D03*
%TO.P,U1,39,D7*%
%TO.N,/Z80_D7*%
X116840000Y-120396000D03*
%TO.P,U1,40,D6*%
%TO.N,/Z80_D6*%
X116840000Y-117856000D03*
%TO.P,U1,41,GND*%
%TO.N,/GND*%
X119380000Y-120396000D03*
%TO.P,U1,42,CLOCK*%
%TO.N,unconnected-(U1-CLOCK-Pad42)*%
X119380000Y-117856000D03*
%TO.P,U1,43,GND*%
%TO.N,unconnected-(U1-GND-Pad43)*%
X121920000Y-120396000D03*
%TO.P,U1,44,SW1*%
%TO.N,Net-(J2-Pin_2)*%
X121920000Y-117856000D03*
%TO.P,U1,45,+5V*%
%TO.N,/5V*%
X124460000Y-120396000D03*
%TO.P,U1,46,SW2*%
%TO.N,Net-(J2-Pin_1)*%
X124460000Y-117856000D03*
%TO.P,U1,47,+5V*%
%TO.N,unconnected-(U1-+5V-Pad47)*%
X127000000Y-120396000D03*
%TO.P,U1,48,+12V*%
%TO.N,unconnected-(U1-+12V-Pad48)*%
X127000000Y-117856000D03*
%TO.P,U1,49,SOUND_IN*%
%TO.N,unconnected-(U1-SOUND_IN-Pad49)*%
X129540000Y-120396000D03*
%TO.P,U1,50,-12V*%
%TO.N,unconnected-(U1--12V-Pad50)*%
X129540000Y-117856000D03*
%TD*%
D10*
%TO.P,J4,1,Pin_1*%
%TO.N,/SPARE1*%
X96520000Y-76708000D03*
D11*
%TO.P,J4,2,Pin_2*%
%TO.N,/SPARE2*%
X99060000Y-76708000D03*
%TO.P,J4,3,Pin_3*%
%TO.N,/SPARE3*%
X101600000Y-76708000D03*
%TD*%
D10*
%TO.P,J2,1,Pin_1*%
%TO.N,Net-(J2-Pin_1)*%
X124460000Y-112268000D03*
D11*
%TO.P,J2,2,Pin_2*%
%TO.N,Net-(J2-Pin_2)*%
X121920000Y-112268000D03*
%TD*%
D10*
%TO.P,J3,1,Pin_1*%
%TO.N,Net-(J3-Pin_1)*%
X73660000Y-112268000D03*
D11*
%TO.P,J3,2,Pin_2*%
%TO.N,Net-(J3-Pin_2)*%
X71120000Y-112268000D03*
%TO.P,J3,3,Pin_3*%
%TO.N,Net-(J3-Pin_3)*%
X68580000Y-112268000D03*
%TD*%
D10*
%TO.P,J1,1,Pin_1*%
%TO.N,/Z80_A0*%
X77216000Y-70104000D03*
D11*
%TO.P,J1,2,Pin_2*%
%TO.N,/Z80_A1*%
X77216000Y-67564000D03*
%TO.P,J1,3,Pin_3*%
%TO.N,/Z80_A2*%
X79756000Y-70104000D03*
%TO.P,J1,4,Pin_4*%
%TO.N,/Z80_A3*%
X79756000Y-67564000D03*
%TO.P,J1,5,Pin_5*%
%TO.N,/Z80_A4*%
X82296000Y-70104000D03*
%TO.P,J1,6,Pin_6*%
%TO.N,/Z80_A5*%
X82296000Y-67564000D03*
%TO.P,J1,7,Pin_7*%
%TO.N,/Z80_A6*%
X84836000Y-70104000D03*
%TO.P,J1,8,Pin_8*%
%TO.N,/Z80_A7*%
X84836000Y-67564000D03*
%TO.P,J1,9,Pin_9*%
%TO.N,/Z80_D0*%
X87376000Y-70104000D03*
%TO.P,J1,10,Pin_10*%
%TO.N,/Z80_D1*%
X87376000Y-67564000D03*
%TO.P,J1,11,Pin_11*%
%TO.N,/Z80_D2*%
X89916000Y-70104000D03*
%TO.P,J1,12,Pin_12*%
%TO.N,/Z80_D3*%
X89916000Y-67564000D03*
%TO.P,J1,13,Pin_13*%
%TO.N,/Z80_D4*%
X92456000Y-70104000D03*
%TO.P,J1,14,Pin_14*%
%TO.N,/Z80_D5*%
X92456000Y-67564000D03*
%TO.P,J1,15,Pin_15*%
%TO.N,/Z80_D6*%
X94996000Y-70104000D03*
%TO.P,J1,16,Pin_16*%
%TO.N,/Z80_D7*%
X94996000Y-67564000D03*
%TO.P,J1,17,Pin_17*%
%TO.N,/SPARE1*%
X97536000Y-70104000D03*
%TO.P,J1,18,Pin_18*%
%TO.N,/SPARE2*%
X97536000Y-67564000D03*
%TO.P,J1,19,Pin_19*%
%TO.N,/SPARE3*%
X100076000Y-70104000D03*
%TO.P,J1,20,Pin_20*%
%TO.N,/5V*%
X100076000Y-67564000D03*
%TO.P,J1,21,Pin_21*%
%TO.N,/GND*%
X102616000Y-70104000D03*
%TO.P,J1,22,Pin_22*%
%TO.N,/SPARE4*%
X102616000Y-67564000D03*
%TO.P,J1,23,Pin_23*%
%TO.N,/RESET*%
X105156000Y-70104000D03*
%TO.P,J1,24,Pin_24*%
%TO.N,/BUSACK*%
X105156000Y-67564000D03*
%TO.P,J1,25,Pin_25*%
%TO.N,/ROMCS*%
X107696000Y-70104000D03*
%TO.P,J1,26,Pin_26*%
%TO.N,/NMI*%
X107696000Y-67564000D03*
%TO.P,J1,27,Pin_27*%
%TO.N,/WAIT*%
X110236000Y-70104000D03*
%TO.P,J1,28,Pin_28*%
%TO.N,/BUSRQ*%
X110236000Y-67564000D03*
%TO.P,J1,29,Pin_29*%
%TO.N,/MEMRQ*%
X112776000Y-70104000D03*
%TO.P,J1,30,Pin_30*%
%TO.N,/IORQ*%
X112776000Y-67564000D03*
%TO.P,J1,31,Pin_31*%
%TO.N,/RW*%
X115316000Y-70104000D03*
%TO.P,J1,32,Pin_32*%
%TO.N,/RD*%
X115316000Y-67564000D03*
%TO.P,J1,33,Pin_33*%
%TO.N,/Z80_A8*%
X117856000Y-70104000D03*
%TO.P,J1,34,Pin_34*%
%TO.N,/Z80_A9*%
X117856000Y-67564000D03*
%TO.P,J1,35,Pin_35*%
%TO.N,/Z80_A10*%
X120396000Y-70104000D03*
%TO.P,J1,36,Pin_36*%
%TO.N,/Z80_A11*%
X120396000Y-67564000D03*
%TO.P,J1,37,Pin_37*%
%TO.N,/Z80_A12*%
X122936000Y-70104000D03*
%TO.P,J1,38,Pin_38*%
%TO.N,/Z80_A13*%
X122936000Y-67564000D03*
%TO.P,J1,39,Pin_39*%
%TO.N,/Z80_A14*%
X125476000Y-70104000D03*
%TO.P,J1,40,Pin_40*%
%TO.N,/Z80_A15*%
X125476000Y-67564000D03*
%TD*%
D12*
%TO.N,/RESET*%
X79702300Y-103440300D03*
%TO.N,/Z80_D7*%
X110071200Y-87102200D03*
%TO.N,/Z80_D1*%
X105309200Y-91864300D03*
%TO.N,/Z80_D0*%
X106083300Y-91136400D03*
%TO.N,/Z80_A8*%
X113310100Y-79681000D03*
%TO.N,/Z80_D6*%
X110227500Y-90482600D03*
%TD*%
D13*
%TO.N,/GND*%
X118110000Y-118242800D02*
X119111500Y-119244300D01*
X119111500Y-119244300D02*
X119380000Y-119244300D01*
X102616000Y-71255700D02*
X118110000Y-86749700D01*
X119380000Y-120396000D02*
X119380000Y-119244300D01*
X118110000Y-86749700D02*
X118110000Y-118242800D01*
X102616000Y-70104000D02*
X102616000Y-71255700D01*
%TO.N,/Z80_A2*%
X79756000Y-70104000D02*
X79756000Y-92320300D01*
X79756000Y-92320300D02*
X104140000Y-116704300D01*
X104140000Y-117856000D02*
X104140000Y-116704300D01*
%TO.N,/5V*%
X123190000Y-90682200D02*
X103886000Y-71378200D01*
X102916000Y-68715700D02*
X102091400Y-68715700D01*
X100076000Y-67564000D02*
X101227700Y-67564000D01*
X103886000Y-69685700D02*
X102916000Y-68715700D01*
X124460000Y-119244300D02*
X124191500Y-119244300D01*
X124460000Y-120396000D02*
X124460000Y-119244300D01*
X124191500Y-119244300D02*
X123190000Y-118242800D01*
X103886000Y-71378200D02*
X103886000Y-69685700D01*
X123190000Y-118242800D02*
X123190000Y-90682200D01*
X102091400Y-68715700D02*
X101227700Y-67852000D01*
X101227700Y-67852000D02*
X101227700Y-67564000D01*
%TO.N,/Z80_D5*%
X98806000Y-71183500D02*
X115487800Y-87865300D01*
X115487800Y-118325000D02*
X114568500Y-119244300D01*
X93607700Y-67564000D02*
X93607700Y-67276100D01*
X97141900Y-68834000D02*
X97954300Y-68834000D01*
X93607700Y-67276100D02*
X94487800Y-66396000D01*
X97954300Y-68834000D02*
X98806000Y-69685700D01*
X115487800Y-87865300D02*
X115487800Y-118325000D01*
X95469400Y-66396000D02*
X96347700Y-67274300D01*
X114300000Y-120396000D02*
X114300000Y-119244300D01*
X94487800Y-66396000D02*
X95469400Y-66396000D01*
X96347700Y-67274300D02*
X96347700Y-68039800D01*
X114568500Y-119244300D02*
X114300000Y-119244300D01*
X98806000Y-69685700D02*
X98806000Y-71183500D01*
X92456000Y-67564000D02*
X93607700Y-67564000D01*
X96347700Y-68039800D02*
X97141900Y-68834000D01*
%TO.N,/Z80_A4*%
X82296000Y-92320300D02*
X82296000Y-70104000D01*
X106680000Y-116704300D02*
X82296000Y-92320300D01*
X106680000Y-117856000D02*
X106680000Y-116704300D01*
%TO.N,/Z80_D2*%
X89916000Y-74117900D02*
X111760000Y-95961900D01*
X111760000Y-117856000D02*
X111760000Y-116704300D01*
X89916000Y-70104000D02*
X89916000Y-74117900D01*
X111760000Y-95961900D02*
X111760000Y-116704300D01*
%TO.N,/RESET*%
X85090000Y-118242800D02*
X86091500Y-119244300D01*
X79702300Y-103440300D02*
X85090000Y-108828000D01*
X85090000Y-108828000D02*
X85090000Y-118242800D01*
X86091500Y-119244300D02*
X86360000Y-119244300D01*
X86360000Y-120396000D02*
X86360000Y-119244300D01*
%TO.N,/Z80_A0*%
X101600000Y-116704300D02*
X77216000Y-92320300D01*
X101600000Y-117856000D02*
X101600000Y-116704300D01*
X77216000Y-92320300D02*
X77216000Y-70104000D01*
%TO.N,/Z80_A5*%
X81026000Y-69685700D02*
X81026000Y-92165600D01*
X79337600Y-68834000D02*
X80174300Y-68834000D01*
X81136900Y-66404900D02*
X79277700Y-66404900D01*
X106411500Y-119244300D02*
X106680000Y-119244300D01*
X82296000Y-67564000D02*
X81136900Y-66404900D01*
X79277700Y-66404900D02*
X78545900Y-67136700D01*
X81026000Y-92165600D02*
X105410000Y-116549600D01*
X106680000Y-120396000D02*
X106680000Y-119244300D01*
X78545900Y-68042300D02*
X79337600Y-68834000D01*
X78545900Y-67136700D02*
X78545900Y-68042300D01*
X80174300Y-68834000D02*
X81026000Y-69685700D01*
X105410000Y-116549600D02*
X105410000Y-118242800D01*
X105410000Y-118242800D02*
X106411500Y-119244300D01*
%TO.N,/Z80_D7*%
X94996000Y-67564000D02*
X94996000Y-68715700D01*
X101599200Y-75077700D02*
X110071200Y-83549700D01*
X95284000Y-68715700D02*
X96147700Y-69579400D01*
X96147700Y-69579400D02*
X96147700Y-70383700D01*
X110071200Y-83549700D02*
X110071200Y-87102200D01*
X94996000Y-68715700D02*
X95284000Y-68715700D01*
X96147700Y-70383700D02*
X100841700Y-75077700D01*
X100841700Y-75077700D02*
X101599200Y-75077700D01*
%TO.N,/Z80_A7*%
X84836000Y-67564000D02*
X83684300Y-67564000D01*
X93711500Y-119244300D02*
X92710000Y-118242800D01*
X92710000Y-118242800D02*
X92710000Y-115597100D01*
X93980000Y-119244300D02*
X93711500Y-119244300D01*
X75657000Y-67490000D02*
X77152700Y-65994300D01*
X82402500Y-65994300D02*
X83684300Y-67276100D01*
X93980000Y-120396000D02*
X93980000Y-119244300D01*
X75657000Y-98544100D02*
X75657000Y-67490000D01*
X77152700Y-65994300D02*
X82402500Y-65994300D01*
X92710000Y-115597100D02*
X75657000Y-98544100D01*
X83684300Y-67276100D02*
X83684300Y-67564000D01*
%TO.N,/Z80_D3*%
X89916000Y-68715700D02*
X90204000Y-68715700D01*
X112950600Y-118322200D02*
X112028500Y-119244300D01*
X91067700Y-69579400D02*
X91067700Y-74631000D01*
X90204000Y-68715700D02*
X91067700Y-69579400D01*
X112950600Y-96513900D02*
X112950600Y-118322200D01*
X111760000Y-120396000D02*
X111760000Y-119244300D01*
X91067700Y-74631000D02*
X112950600Y-96513900D01*
X112028500Y-119244300D02*
X111760000Y-119244300D01*
X89916000Y-67564000D02*
X89916000Y-68715700D01*
%TO.N,/Z80_A3*%
X83447700Y-69626900D02*
X82773100Y-68952300D01*
X105291700Y-120396000D02*
X105291700Y-120683900D01*
X79756000Y-67564000D02*
X80907700Y-67564000D01*
X80907700Y-67832500D02*
X80907700Y-67564000D01*
X110414500Y-120861900D02*
X110414500Y-103665400D01*
X106167300Y-121559500D02*
X109716900Y-121559500D01*
X109716900Y-121559500D02*
X110414500Y-120861900D01*
X105291700Y-120683900D02*
X106167300Y-121559500D01*
X82773100Y-68952300D02*
X82027500Y-68952300D01*
X83447700Y-76698600D02*
X83447700Y-69626900D01*
X82027500Y-68952300D02*
X80907700Y-67832500D01*
X110414500Y-103665400D02*
X83447700Y-76698600D01*
X104140000Y-120396000D02*
X105291700Y-120396000D01*
%TO.N,/Z80_D1*%
X86185400Y-69618400D02*
X86185400Y-72740500D01*
X87088100Y-68715700D02*
X86185400Y-69618400D01*
X87376000Y-68715700D02*
X87088100Y-68715700D01*
X86185400Y-72740500D02*
X105309200Y-91864300D01*
X87376000Y-67564000D02*
X87376000Y-68715700D01*
%TO.N,/Z80_D0*%
X87376000Y-70104000D02*
X87376000Y-71255700D01*
X87376000Y-71255700D02*
X87376000Y-72429100D01*
X87376000Y-72429100D02*
X106083300Y-91136400D01*
%TO.N,/Z80_A8*%
X117856000Y-75135100D02*
X113310100Y-79681000D01*
X117856000Y-70104000D02*
X117856000Y-75135100D01*
%TO.N,/Z80_A1*%
X77216000Y-67564000D02*
X77216000Y-68715700D01*
X77216000Y-68715700D02*
X76424200Y-68715700D01*
X101600000Y-120396000D02*
X101600000Y-119244300D01*
X100330000Y-116549600D02*
X100330000Y-118242800D01*
X76424200Y-68715700D02*
X76064300Y-69075600D01*
X76064300Y-92283900D02*
X100330000Y-116549600D01*
X76064300Y-69075600D02*
X76064300Y-92283900D01*
X101331500Y-119244300D02*
X101600000Y-119244300D01*
X100330000Y-118242800D02*
X101331500Y-119244300D01*
%TO.N,/Z80_D6*%
X110227500Y-90482600D02*
X100448300Y-80703400D01*
X94996000Y-70104000D02*
X94996000Y-71255700D01*
X100448300Y-76420100D02*
X95283900Y-71255700D01*
X100448300Y-80703400D02*
X100448300Y-76420100D01*
X95283900Y-71255700D02*
X94996000Y-71255700D01*
%TO.N,/Z80_D4*%
X114300000Y-96707000D02*
X92456000Y-74863000D01*
X92456000Y-70104000D02*
X92456000Y-71255700D01*
X92456000Y-74863000D02*
X92456000Y-71255700D01*
X114300000Y-117856000D02*
X114300000Y-96707000D01*
%TO.N,Net-(J2-Pin_2)*%
X121920000Y-112268000D02*
X121920000Y-117856000D01*
%TO.N,Net-(J3-Pin_2)*%
X68580000Y-115959700D02*
X68580000Y-117856000D01*
X71120000Y-113419700D02*
X68580000Y-115959700D01*
X71120000Y-112268000D02*
X71120000Y-113419700D01*
%TD*%
M02*
